<?xml version="1.0" standalone="no"?>
<!DOCTYPE svg PUBLIC "-//W3C//DTD SVG 1.1//EN" "http://www.w3.org/Graphics/SVG/1.1/DTD/svg11.dtd" >
<svg xmlns="http://www.w3.org/2000/svg" xmlns:xlink="http://www.w3.org/1999/xlink" version="1.1">
<metadata>
Created by FontForge 20170731 at Sun Sep 19 04:31:06 2004
 By Aleksey,,,
Alba (c)2001, Fontalicious Fonts.
</metadata>
<defs>
<font id="AlbaMatter" horiz-adv-x="565" >
  <font-face 
    font-family="Alba Matter"
    font-weight="400"
    font-stretch="normal"
    units-per-em="1000"
    panose-1="0 0 4 0 0 0 0 0 0 0"
    ascent="800"
    descent="-200"
    x-height="520"
    cap-height="725"
    bbox="-159 -602 1348 1050"
    underline-thickness="20"
    underline-position="-163"
    unicode-range="U+0020-F002"
  />
<missing-glyph horiz-adv-x="500" 
d="M63 0v1030h375v-1030h-375zM125 63h250v905h-250v-905z" />
    <glyph glyph-name=".notdef" horiz-adv-x="500" 
d="M63 0v1030h375v-1030h-375zM125 63h250v905h-250v-905z" />
    <glyph glyph-name=".null" horiz-adv-x="0" 
 />
    <glyph glyph-name="glyph2" horiz-adv-x="303" 
 />
    <glyph glyph-name="space" unicode=" " horiz-adv-x="303" 
 />
    <glyph glyph-name="exclam" unicode="!" horiz-adv-x="190" 
d="M120 193q-38 0 -62.5 25t-24.5 63v357q0 37 25 62t62 25q38 0 63 -24.5t25 -62.5v-357q0 -38 -25 -63t-63 -25zM121 -20q-43 0 -73 30t-30 73t30 72.5t73 29.5t73 -29.5t30 -72.5t-30 -73t-73 -30z" />
    <glyph glyph-name="quotedbl" unicode="&#x22;" horiz-adv-x="415" 
d="M343 397q-42 0 -72 30t-30 72v123q0 43 29.5 73t72.5 30t73 -30t30 -73v-123q0 -44 -29.5 -73t-73.5 -29zM121 397q-43 0 -73 29.5t-30 72.5v123q0 43 30 73t73 30t73 -30t30 -73v-123q0 -43 -30 -72.5t-73 -29.5z" />
    <glyph glyph-name="numbersign" unicode="#" horiz-adv-x="539" 
d="M482 452q34 -3 55 -27t21 -59q0 -79 -77 -88q-3 -34 -27.5 -55.5t-59.5 -21.5t-59 21.5t-27 55.5h-23q-3 -34 -27 -55.5t-59 -21.5t-59.5 21.5t-27.5 56.5q-35 3 -56 27.5t-21 59.5t21 59t55 27v23q-34 3 -55 27t-21 59t21 59.5t56 27.5q3 35 27.5 56t59.5 21t59 -21
t27 -55h23q3 34 27 55t59 21t59.5 -21t27.5 -56q35 -3 56 -27.5t21 -59.5t-21 -59t-55 -27v-23zM307 474h-21v-21h21v21z" />
    <glyph glyph-name="dollar" unicode="$" horiz-adv-x="446" 
d="M240 -37q-30 0 -51.5 21t-21.5 51q0 25 16 45q-29 -8 -62 -8q-38 0 -62.5 24.5t-24.5 62.5q0 39 25 63.5t64 24.5t39 41q0 -10 1 31v30v55q0 112 89 176q-6 -1 -12 -1q-30 0 -51.5 21.5t-21.5 51.5t21.5 51.5t51.5 21.5t51.5 -21.5t21.5 -51.5q0 -28 -18 -49q40 17 84 17
q38 0 63 -24.5t25 -62.5q0 -37 -25.5 -62.5t-62.5 -25.5q-17 0 -29 -12t-12 -29q-1 -128 -3 -143q-14 -97 -93 -153q30 -1 50.5 -22t20.5 -51t-21.5 -51t-51.5 -21z" />
    <glyph glyph-name="percent" unicode="%" horiz-adv-x="715" 
d="M182 425q-62 0 -105 43t-43 105t43 105t105 43t105 -43t43 -105t-43 -105t-105 -43zM587 20q-62 0 -105 43t-43 105t43 105t105 43t105 -43t43 -105t-43 -105t-105 -43zM598 678l-269 -753q-21 -58 -80 -58q-37 0 -64 24t-27 61q0 16 6 33l268 752q21 59 81 59
q37 0 63.5 -24.5t26.5 -61.5q0 -18 -5 -32zM182 613q-17 0 -28.5 -11.5t-11.5 -28.5t11.5 -28.5t28.5 -11.5t28.5 11.5t11.5 28.5t-11.5 28.5t-28.5 11.5zM587 208q-17 0 -28.5 -11.5t-11.5 -28.5t11.5 -28.5t28.5 -11.5t28.5 11.5t11.5 28.5t-11.5 28.5t-28.5 11.5z" />
    <glyph glyph-name="ampersand" unicode="&#x26;" horiz-adv-x="933" 
d="M821 383q-14 -15 -40 -15q-17 0 -28.5 -11.5t-11.5 -28.5t11.5 -28.5t28.5 -11.5t28.5 11.5t11.5 28.5v55zM781 180q-62 0 -105 43t-43 105t43 105t105 43q26 0 40 -15v62q0 54 54 54t54 -54v-195q0 -62 -43 -105t-105 -43zM559 180q-54 0 -54 54v113q0 21 -20 21
t-20 -21v-113q0 -54 -54 -54t-54 54v113q0 54 37 91t91 37t91 -37t37 -91v-113q0 -54 -54 -54zM233 273v55q0 17 -11.5 28.5t-28.5 11.5t-28.5 -11.5t-11.5 -28.5t11.5 -28.5t28.5 -11.5q26 0 40 -15zM287 181q-33 0 -47 23q-13 -24 -47 -24q-62 0 -105 43t-43 105t43 105
t105 43t105 -43t43 -105v-94q0 -53 -54 -53z" />
    <glyph glyph-name="quotesingle" unicode="'" horiz-adv-x="190" 
d="M121 397q-43 0 -73 29.5t-30 72.5v123q0 43 30 73t73 30t73 -30t30 -73v-123q0 -43 -30 -72.5t-73 -29.5z" />
    <glyph glyph-name="parenleft" unicode="(" horiz-adv-x="479" 
d="M412 -101q-159 0 -268.5 109.5t-109.5 268.5v140q0 159 109.5 268.5t268.5 109.5q38 0 63 -24.5t25 -62.5t-25 -63t-63 -25q-86 0 -144.5 -58.5t-58.5 -144.5v-140q0 -86 58.5 -144.5t144.5 -58.5q38 0 63 -25t25 -63t-25 -62.5t-63 -24.5z" />
    <glyph glyph-name="parenright" unicode=")" horiz-adv-x="479" 
d="M121 -101q-38 0 -63 24.5t-25 62.5t25 63t63 25q86 0 144.5 58.5t58.5 144.5v140q0 86 -58.5 144.5t-144.5 58.5q-38 0 -63 25t-25 63t25 62.5t63 24.5q159 0 268.5 -109.5t109.5 -268.5v-140q0 -159 -109.5 -268.5t-268.5 -109.5z" />
    <glyph glyph-name="asterisk" unicode="*" horiz-adv-x="427" 
d="M383 193q3 -54 3 -68q0 -67 -44 -67q-20 0 -101 32q-81 -32 -101 -32q-44 0 -44 67q0 14 3 68q-64 79 -64 101q0 28 39 44q14 6 79 22q32 50 37 57q27 36 51 36q23 0 52 -37l36 -56q65 -16 79 -22q39 -16 39 -44q0 -22 -64 -101z" />
    <glyph glyph-name="plus" unicode="+" horiz-adv-x="439" 
d="M371 166h-37v-37q0 -38 -24.5 -62.5t-62.5 -24.5t-63 24.5t-25 62.5v37h-37q-38 0 -62.5 25t-24.5 63t24.5 62.5t62.5 24.5h37v37q0 39 24.5 63t63.5 24q38 0 62.5 -24.5t24.5 -62.5v-37h37q38 0 62.5 -24.5t24.5 -62.5q0 -39 -24 -63.5t-63 -24.5z" />
    <glyph glyph-name="comma" unicode="," horiz-adv-x="190" 
d="M121 -143q-43 0 -73 30t-30 73v123q0 43 30 72.5t73 29.5t73 -29.5t30 -72.5v-123q0 -43 -30 -73t-73 -30z" />
    <glyph glyph-name="hyphen" unicode="-" horiz-adv-x="190" 
d="M121 207q-43 0 -73 30t-30 73t30 73t73 30t73 -30t30 -73t-30 -73t-73 -30z" />
    <glyph glyph-name="hyphen" unicode="&#x2010;" horiz-adv-x="190" 
d="M121 207q-43 0 -73 30t-30 73t30 73t73 30t73 -30t30 -73t-30 -73t-73 -30z" />
    <glyph glyph-name="period" unicode="." horiz-adv-x="190" 
d="M121 -20q-43 0 -73 30t-30 73t30 72.5t73 29.5t73 -29.5t30 -72.5t-30 -73t-73 -30z" />
    <glyph glyph-name="slash" unicode="/" horiz-adv-x="361" 
d="M417 678l-269 -753q-21 -58 -80 -58q-37 0 -63.5 24t-26.5 61q0 19 5 33l269 752q21 59 80 59q38 0 64 -24t26 -62q0 -18 -5 -32z" />
    <glyph glyph-name="zero" unicode="0" horiz-adv-x="769" 
d="M412 -31q-159 0 -268.5 109.5t-109.5 268.5t109.5 268.5t268.5 109.5t268.5 -109.5t109.5 -268.5t-109.5 -268.5t-268.5 -109.5zM412 550q-87 0 -145 -58t-58 -145q0 -86 58.5 -144.5t144.5 -58.5t144.5 58.5t58.5 144.5t-58.5 144.5t-144.5 58.5z" />
    <glyph glyph-name="one" unicode="1" horiz-adv-x="189" 
d="M121 -29q-38 0 -62.5 24.5t-24.5 62.5v580q0 38 24.5 62.5t62.5 24.5t63 -24.5t25 -62.5v-580q0 -38 -25 -62.5t-63 -24.5z" />
    <glyph glyph-name="two" unicode="2" 
d="M497 -29h-376q-40 0 -67 18q-30 21 -30 60q0 50 51 84q132 87 194 138q141 114 141 179q0 42 -29.5 71t-71.5 29t-71 -29t-29 -71q0 -38 -25 -63t-63 -25t-62.5 25t-24.5 63q0 117 79 196t196 79t196.5 -79t79.5 -196q0 -91 -62 -173q-40 -53 -133 -131h107q38 0 63 -25
t25 -63t-25 -62.5t-63 -24.5z" />
    <glyph glyph-name="three" unicode="3" horiz-adv-x="480" 
d="M265 -29h-144q-38 0 -63 24.5t-25 62.5t25 63t63 25h144q24 0 40.5 16t16.5 40q0 26 -19.5 42t-46.5 19q-36 4 -60.5 28t-24.5 59q0 39 26.5 62.5t66.5 24.5q24 1 41 17t17 40t-16.5 40t-40.5 16q-23 0 -39.5 -16t-16.5 -39q0 -39 -24 -64t-63 -25q-38 0 -63 25t-25 63
q0 98 66.5 164.5t164.5 66.5t165 -66.5t67 -164.5q0 -84 -52 -147q52 -62 52 -145q0 -98 -67 -164.5t-165 -66.5z" />
    <glyph glyph-name="four" unicode="4" horiz-adv-x="486" 
d="M418 -29q-37 0 -62.5 25t-25.5 62v118h-60q-101 0 -168.5 67.5t-67.5 168.5v224q0 38 24.5 63t62.5 25t63 -25t25 -63v-224q0 -26 17.5 -43.5t43.5 -17.5h60v287q0 37 25.5 62t62.5 25q38 0 62.5 -24.5t24.5 -62.5v-580q0 -38 -24.5 -62.5t-62.5 -24.5z" />
    <glyph glyph-name="five" unicode="5" horiz-adv-x="497" 
d="M241 -29h-120q-38 0 -62.5 24.5t-24.5 62.5t24.5 63t62.5 25h120q42 0 71.5 29t29.5 71t-29.5 71.5t-71.5 29.5h-120q-35 0 -61 26t-26 61v204q0 35 26 61t61 26h297q38 0 62.5 -24.5t24.5 -62.5q0 -39 -24 -63.5t-63 -24.5h-209v-28h32q117 0 196.5 -79.5t79.5 -196.5
q0 -116 -80 -195.5t-196 -79.5z" />
    <glyph glyph-name="six" unicode="6" horiz-adv-x="566" 
d="M309 -31q-117 0 -196 79.5t-79 196.5v205q0 117 79 196t196 79q118 0 199 -84q26 -27 26 -61q0 -37 -26.5 -63t-63.5 -26q-27 0 -64.5 29.5t-70.5 29.5q-53 0 -82 -43q39 13 82 13q117 0 196.5 -79t79.5 -196t-79.5 -196.5t-196.5 -79.5zM309 345q-42 0 -71 -29t-29 -71
t29 -71.5t71 -29.5t71.5 29.5t29.5 71.5t-29.5 71t-71.5 29z" />
    <glyph glyph-name="seven" unicode="7" horiz-adv-x="505" 
d="M468 423l-136 -393q-21 -60 -81 -60q-38 0 -64 24t-26 62q0 14 5 29l152 465h-197q-38 0 -62.5 25t-24.5 63t24.5 62.5t62.5 24.5h318q86 0 86 -82q0 -55 -57 -220z" />
    <glyph glyph-name="eight" unicode="8" horiz-adv-x="501" 
d="M277 -29q-103 0 -173 70t-70 173q0 94 62 163q-40 56 -40 127q0 94 63.5 158t157.5 64q95 0 158.5 -63.5t63.5 -158.5q0 -71 -41 -128q62 -68 62 -162q0 -103 -70 -173t-173 -70zM277 551q-20 0 -33 -13.5t-13 -33.5q0 -19 13.5 -32.5t32.5 -13.5q20 0 33.5 13t13.5 33
t-13.5 33.5t-33.5 13.5zM277 283q-29 0 -48.5 -20t-19.5 -49q0 -28 20 -48t48 -20q29 0 48.5 19.5t19.5 48.5t-19.5 49t-48.5 20z" />
    <glyph glyph-name="nine" unicode="9" 
d="M309 -31q-118 0 -198 85q-26 27 -26 60q0 36 26.5 62.5t62.5 26.5q27 0 64.5 -29.5t70.5 -29.5q52 0 83 42q-40 -12 -83 -12q-117 0 -196 79.5t-79 196.5t79 196t196 79t196.5 -79t79.5 -196v-205q0 -117 -79.5 -196.5t-196.5 -79.5zM309 550q-42 0 -71 -29t-29 -71
t29 -71.5t71 -29.5t71.5 29.5t29.5 71.5t-29.5 71t-71.5 29z" />
    <glyph glyph-name="colon" unicode=":" horiz-adv-x="190" 
d="M121 207q-43 0 -73 30t-30 73t30 73t73 30t73 -30t30 -73t-30 -73t-73 -30zM121 -20q-43 0 -73 30t-30 73t30 72.5t73 29.5t73 -29.5t30 -72.5t-30 -73t-73 -30z" />
    <glyph glyph-name="semicolon" unicode=";" horiz-adv-x="190" 
d="M121 207q-43 0 -73 30t-30 73t30 73t73 30t73 -30t30 -73t-30 -73t-73 -30zM121 -143q-43 0 -73 30t-30 73v123q0 43 30 72.5t73 29.5t73 -29.5t30 -72.5v-123q0 -43 -30 -73t-73 -30z" />
    <glyph glyph-name="less" unicode="&#x3c;" horiz-adv-x="290" 
d="M221 68q-35 0 -62 27l-89 90q-34 40 -34 69q0 35 35 70l88 89q27 27 62 27q36 0 62.5 -26.5t26.5 -62.5q0 -28 -21 -54q-4 -5 -42 -43q38 -38 42 -43q21 -26 21 -54q0 -36 -26.5 -62.5t-62.5 -26.5z" />
    <glyph glyph-name="equal" unicode="=" horiz-adv-x="439" 
d="M371 264h-249q-38 0 -62.5 24.5t-24.5 62.5t24.5 63t62.5 25h249q38 0 62.5 -25t24.5 -63t-24.5 -62.5t-62.5 -24.5zM371 68h-249q-38 0 -62.5 25t-24.5 63t24.5 62.5t62.5 24.5h249q38 0 62.5 -24.5t24.5 -62.5q0 -39 -24 -63.5t-63 -24.5z" />
    <glyph glyph-name="greater" unicode="&#x3e;" horiz-adv-x="290" 
d="M275 185q-6 -7 -89 -90q-27 -27 -62 -27q-36 0 -62.5 26.5t-26.5 62.5q0 28 21 54q4 5 42 43q-38 38 -42 43q-21 26 -21 54q0 36 26.5 62.5t62.5 26.5q35 0 62 -27l88 -89q35 -35 35 -70q0 -29 -34 -69z" />
    <glyph glyph-name="question" unicode="?" horiz-adv-x="500" 
d="M240 -24q-43 0 -73 30t-30 73q0 34 20 60.5t52 36.5q-66 14 -66 85q0 38 24.5 63t62.5 25h79q42 0 71.5 29.5t29.5 71.5t-29.5 71t-71.5 29t-71 -29t-29 -71q0 -38 -25 -63t-63 -25t-62.5 25t-24.5 63q0 117 79 196t196 79t196.5 -79t79.5 -196t-79.5 -196.5
t-196.5 -79.5h-31q65 -25 65 -95q0 -43 -30 -73t-73 -30z" />
    <glyph glyph-name="at" unicode="@" horiz-adv-x="769" 
d="M790 347q0 -159 -109.5 -268.5t-268.5 -109.5t-268.5 109.5t-109.5 268.5t109.5 268.5t268.5 109.5t268.5 -109.5t109.5 -268.5zM635 347q0 95 -64 159t-159 64q-96 0 -159.5 -63.5t-63.5 -159.5q0 -95 64 -159t159 -64q45 0 87 17v206q0 36 -25.5 61.5t-61.5 25.5
t-61.5 -25.5t-25.5 -61.5t25.5 -61.5t61.5 -25.5q49 0 49 -49q0 -21 -14 -34.5t-35 -13.5q-77 0 -130.5 53.5t-53.5 130.5t53.5 130.5t130.5 53.5t130.5 -53.5t53.5 -130.5v-126q39 57 39 126z" />
    <glyph glyph-name="A" unicode="A" 
d="M650 -249h-5q-100 0 -167.5 68t-67.5 168v206q-48 -19 -101 -19q-38 0 -62.5 25t-24.5 63t24.5 62.5t62.5 24.5q42 0 71.5 29.5t29.5 71.5t-29.5 71t-71.5 29t-71 -29t-29 -71v-392q0 -38 -25 -62.5t-63 -24.5t-62.5 24.5t-24.5 62.5v392q0 117 79 196t196 79t196.5 -79
t79.5 -196v-463q0 -26 17 -43.5t43 -17.5h5q38 0 62.5 -25t24.5 -63q0 -37 -25 -62t-62 -25z" />
    <glyph glyph-name="B" unicode="B" horiz-adv-x="477" 
d="M209 437h55q24 0 41 16.5t17 40.5t-16.5 40t-40.5 16q-23 0 -39.5 -16.5t-16.5 -39.5v-57zM209 146h58q23 0 39 16.5t16 39.5q0 26 -19.5 42t-46 19t-47.5 17v-134zM265 -29q-46 0 -71 35q-24 -35 -72 -35q-38 0 -63 24.5t-25 62.5v436q0 98 66.5 164.5t164.5 66.5
t165 -66.5t67 -164.5q0 -84 -52 -147q52 -62 52 -145q0 -98 -67 -164.5t-165 -66.5z" />
    <glyph glyph-name="C" unicode="C" horiz-adv-x="479" 
d="M412 -31q-159 0 -268.5 109.5t-109.5 268.5t109.5 268.5t268.5 109.5q38 0 63 -24.5t25 -62.5t-25 -63t-63 -25q-86 0 -144.5 -58.5t-58.5 -144.5t58.5 -144.5t144.5 -58.5q38 0 63 -25t25 -63t-25 -62.5t-63 -24.5z" />
    <glyph glyph-name="D" unicode="D" horiz-adv-x="629" 
d="M209 145q40 -1 61 -1q86 0 144.5 58.5t58.5 144.5q0 87 -58 145t-145 58h-61v-405zM270 -31q-51 0 -75 40q-24 -38 -74 -38q-38 0 -62.5 24.5t-24.5 62.5v580q0 35 26 61t61 26h149q160 0 269 -109t109 -269t-109 -269t-269 -109z" />
    <glyph glyph-name="E" unicode="E" horiz-adv-x="476" 
d="M412 -31q-159 0 -268.5 109.5t-109.5 268.5t109.5 268.5t268.5 109.5q38 0 63 -24.5t25 -62.5t-25 -63t-63 -25q-58 0 -107 -30t-74 -81h181q38 0 63 -24.5t25 -62.5t-25 -63t-63 -25h-185q24 -55 74.5 -87.5t110.5 -32.5q38 0 63 -25t25 -63t-25 -62.5t-63 -24.5z" />
    <glyph glyph-name="F" unicode="F" horiz-adv-x="432" 
d="M363 239h-154v-181q0 -38 -25 -62.5t-63 -24.5t-62.5 24.5t-24.5 62.5v431q0 101 67.5 168.5t168.5 67.5h93q38 0 63 -24.5t25 -62.5t-25 -63t-63 -25h-93q-26 0 -43.5 -17.5t-17.5 -43.5v-75h154q38 0 63 -24.5t25 -62.5t-25 -63t-63 -25z" />
    <glyph glyph-name="G" unicode="G" horiz-adv-x="766" 
d="M412 -31q-159 0 -268.5 109.5t-109.5 268.5t109.5 268.5t268.5 109.5q167 0 282 -127q24 -27 24 -57q0 -37 -26.5 -63t-63.5 -26q-29 0 -59 25q-26 22 -58 48q-41 25 -99 25q-87 0 -145 -58t-58 -145q0 -86 58.5 -144.5t144.5 -58.5q59 0 109 31.5t75 84.5h-107
q-38 0 -62.5 25t-24.5 63t24.5 62.5t62.5 24.5h214q36 0 61.5 -26t25.5 -62q0 -159 -109.5 -268.5t-268.5 -109.5z" />
    <glyph glyph-name="H" unicode="H" horiz-adv-x="597" 
d="M685 -249h-6q-100 0 -168 68t-68 168v302h-234v-231q0 -38 -25 -62.5t-63 -24.5t-62.5 24.5t-24.5 62.5v580q0 38 24.5 62.5t62.5 24.5t63 -24.5t25 -62.5v-174h234v174q0 38 24.5 62.5t62.5 24.5t63 -24.5t25 -62.5v-651q0 -26 17.5 -43.5t43.5 -17.5h6q38 0 63 -25
t25 -63t-25 -62.5t-63 -24.5z" />
    <glyph glyph-name="I" unicode="I" horiz-adv-x="189" 
d="M121 -29q-38 0 -62.5 24.5t-24.5 62.5v580q0 38 24.5 62.5t62.5 24.5t63 -24.5t25 -62.5v-580q0 -38 -25 -62.5t-63 -24.5z" />
    <glyph glyph-name="J" unicode="J" horiz-adv-x="494" 
d="M274 -31q-102 0 -171 69.5t-69 171.5q0 38 25 62.5t63 24.5t62.5 -24.5t24.5 -62.5q0 -28 18.5 -47t46.5 -19t47 19t19 47v428q0 38 24.5 62.5t62.5 24.5t63 -24.5t25 -62.5v-428q0 -102 -69.5 -171.5t-171.5 -69.5z" />
    <glyph glyph-name="K" unicode="K" horiz-adv-x="514" 
d="M599 -249h-4q-101 0 -168.5 67.5t-67.5 168.5v221q0 25 -18 42.5t-43 17.5h-89v-210q0 -38 -25 -62.5t-63 -24.5t-62.5 24.5t-24.5 62.5v578q0 38 24.5 63t62.5 25t63 -25t25 -63v-192l30 -1q24 3 39 20.5t15 41.5q0 37 25 62t62 25q38 0 63 -25t25 -63q0 -58 -27 -109
q93 -69 93 -187v-221q0 -26 17.5 -43.5t43.5 -17.5h4q39 0 63 -24.5t24 -63.5q0 -38 -24.5 -62.5t-62.5 -24.5z" />
    <glyph glyph-name="L" unicode="L" horiz-adv-x="381" 
d="M314 -29h-44q-101 0 -168.5 67.5t-67.5 168.5v431q0 38 24.5 62.5t62.5 24.5t63 -24.5t25 -62.5v-431q0 -26 17.5 -43.5t43.5 -17.5h44q38 0 62.5 -25t24.5 -63t-24.5 -62.5t-62.5 -24.5z" />
    <glyph glyph-name="M" unicode="M" horiz-adv-x="766" 
d="M850 -249h-4q-100 0 -168 68t-68 168v502q0 25 -17.5 43t-42.5 18q-27 0 -44 -19v-473q0 -38 -25 -62.5t-63 -24.5t-62.5 24.5t-24.5 62.5v431q0 25 -18 43t-43 18q-26 0 -43.5 -17.5t-17.5 -43.5v-431q0 -38 -24.5 -62.5t-62.5 -24.5t-63 24.5t-25 62.5v431
q0 100 68 168t168 68q78 0 140 -46q61 46 140 46q100 0 167.5 -68t67.5 -168v-502q0 -26 17.5 -43.5t43.5 -17.5h4q38 0 63 -25t25 -63t-25 -62.5t-63 -24.5z" />
    <glyph glyph-name="N" unicode="N" horiz-adv-x="486" 
d="M571 -249h-4q-101 0 -168.5 67.5t-67.5 168.5v58l-1 444q0 25 -17.5 43t-42.5 18q-26 0 -43.5 -17.5t-17.5 -43.5v-431q0 -38 -25 -62.5t-63 -24.5t-62.5 24.5t-24.5 62.5v431q0 100 68 168t168 68q95 0 165 -65t70 -159l1 -514q0 -26 17.5 -43.5t43.5 -17.5h4
q38 0 63 -25t25 -63t-25 -62.5t-63 -24.5z" />
    <glyph glyph-name="O" unicode="O" horiz-adv-x="769" 
d="M412 -31q-159 0 -268.5 109.5t-109.5 268.5t109.5 268.5t268.5 109.5t268.5 -109.5t109.5 -268.5t-109.5 -268.5t-268.5 -109.5zM412 550q-87 0 -145 -58t-58 -145q0 -86 58.5 -144.5t144.5 -58.5t144.5 58.5t58.5 144.5t-58.5 144.5t-144.5 58.5z" />
    <glyph glyph-name="P" unicode="P" 
d="M309 174q-38 0 -62.5 25t-24.5 63t24.5 62.5t62.5 24.5q42 0 71.5 29.5t29.5 71.5t-29.5 71t-71.5 29t-71 -29t-29 -71v-392q0 -38 -25 -62.5t-63 -24.5q-37 0 -62 25t-25 62v392q0 117 79 196t196 79t196.5 -79t79.5 -196t-79.5 -196.5t-196.5 -79.5z" />
    <glyph glyph-name="Q" unicode="Q" horiz-adv-x="768" 
d="M226 430h44q100 0 167.5 -68t67.5 -168v-28q51 25 80.5 74t29.5 107q0 86 -58.5 144.5t-144.5 58.5q-62 0 -112 -32t-74 -88zM316 124q0 -37 -26 -63.5t-63 -26.5q-29 0 -56 22q-137 112 -137 291q0 159 109.5 268.5t268.5 109.5t268.5 -109.5t109.5 -268.5
q0 -131 -79 -233.5t-206 -132.5l1 -155q0 -37 -25.5 -62t-62.5 -25t-62 25t-25 62l-1 368q0 24 -17 42.5t-41 18.5h-42q11 -19 55 -66q31 -33 31 -65z" />
    <glyph glyph-name="R" unicode="R" 
d="M399 189q12 -43 57 -43q39 0 64 -24.5t25 -63.5q0 -38 -25 -62.5t-63 -24.5q-101 0 -168 67.5t-67 168.5v55q0 35 26 61t61 26q42 0 71.5 29.5t29.5 71.5t-29.5 71t-71.5 29t-71 -29t-29 -71v-392q0 -38 -25 -62.5t-63 -24.5q-37 0 -62 25t-25 62v392q0 117 79 196
t196 79t196.5 -79t79.5 -196q0 -89 -51 -160.5t-135 -100.5z" />
    <glyph glyph-name="S" unicode="S" horiz-adv-x="444" 
d="M336 509l1 -323q0 -91 -63 -153.5t-153 -62.5q-38 0 -62.5 24.5t-24.5 62.5q0 39 25 63.5t64 24.5t39 41l-1 323q0 92 62.5 154t153.5 62q38 0 63 -24.5t25 -62.5t-25 -63q-19 -19 -69 -26q-35 -5 -35 -40z" />
    <glyph glyph-name="T" unicode="T" horiz-adv-x="507" 
d="M439 550h-73v-492q0 -38 -24.5 -62.5t-62.5 -24.5t-63 24.5t-25 62.5v492h-68q-38 0 -63 25t-25 63t25 62.5t63 24.5h316q38 0 63 -24.5t25 -62.5t-25 -63t-63 -25z" />
    <glyph glyph-name="U" unicode="U" horiz-adv-x="486" 
d="M270 -29q-101 0 -168.5 67.5t-67.5 168.5v431q0 38 24.5 62.5t62.5 24.5t63 -24.5t25 -62.5v-431q0 -26 17.5 -43.5t43.5 -17.5t43 17.5t17 43.5v432q0 37 25.5 62.5t62.5 25.5q38 0 62.5 -25t24.5 -63v-432q0 -100 -67.5 -168t-167.5 -68z" />
    <glyph glyph-name="V" unicode="V" horiz-adv-x="501" 
d="M562 609l-200 -580q-24 -70 -83 -70t-83 70l-201 580q-5 14 -5 31q0 37 26.5 61.5t63.5 24.5q61 0 81 -59l118 -342l118 342q20 59 81 59q37 0 63.5 -24.5t26.5 -61.5q0 -14 -6 -31z" />
    <glyph glyph-name="W" unicode="W" horiz-adv-x="764" 
d="M548 -29q-78 0 -139 45q-61 -45 -139 -45q-101 0 -168.5 67.5t-67.5 168.5v431q0 38 25 62.5t63 24.5t62.5 -24.5t24.5 -62.5v-431q0 -26 17.5 -43.5t43.5 -17.5q25 0 42 17v475q0 38 25 62.5t63 24.5t62.5 -24.5t24.5 -62.5v-431q0 -26 17.5 -43.5t43.5 -17.5t43.5 17.5
t17.5 43.5v431q0 38 24.5 62.5t62.5 24.5t63 -24.5t25 -62.5v-431q0 -100 -68 -168t-168 -68z" />
    <glyph glyph-name="X" unicode="X" horiz-adv-x="486" 
d="M418 -29q-37 0 -62.5 25t-25.5 62v136q0 25 -17.5 43t-42.5 18q-26 0 -43.5 -17.5t-17.5 -43.5v-136q0 -38 -25 -62.5t-63 -24.5t-62.5 24.5t-24.5 62.5v136q0 87 55 152q-55 65 -55 151v141q0 38 24.5 62.5t62.5 24.5t63 -24.5t25 -62.5v-141q0 -26 17.5 -43t43.5 -17
q25 0 42.5 17.5t17.5 42.5v141q0 37 25.5 62t62.5 25q38 0 62.5 -24.5t24.5 -62.5v-141q0 -86 -55 -151q55 -65 55 -152v-136q0 -38 -24.5 -62.5t-62.5 -24.5z" />
    <glyph glyph-name="Y" unicode="Y" horiz-adv-x="486" 
d="M270 -29q-101 0 -168.5 67.5t-67.5 168.5v10q0 38 24.5 62.5t62.5 24.5t63 -24.5t25 -62.5v-10q0 -26 17.5 -43.5t43.5 -17.5t43 17.5t17 43.5v112q-29 -8 -60 -8q-101 0 -168.5 67.5t-67.5 168.5v91q0 38 24.5 62.5t62.5 24.5t63 -24.5t25 -62.5v-91q0 -26 17.5 -43.5
t43.5 -17.5t43 17.5t17 43.5v91q0 37 25.5 62t62.5 25q38 0 62.5 -24.5t24.5 -62.5v-431q0 -100 -67.5 -168t-167.5 -68z" />
    <glyph glyph-name="Z" unicode="Z" horiz-adv-x="479" 
d="M482 594l-263 -448h192q38 0 62.5 -25t24.5 -63t-24.5 -62.5t-62.5 -24.5h-345q-38 0 -63 19q-28 21 -28 58q0 28 16 55l263 447h-133q-38 0 -62.5 25t-24.5 63t24.5 62.5t62.5 24.5h286q38 0 63 -19q29 -21 29 -58q0 -25 -17 -54z" />
    <glyph glyph-name="bracketleft" unicode="[" horiz-adv-x="381" 
d="M314 -229h-44q-100 0 -168 68t-68 168v595q0 100 68 168t168 68h44q38 0 62.5 -25t24.5 -63t-24.5 -62.5t-62.5 -24.5h-44q-26 0 -43.5 -17.5t-17.5 -43.5v-595q0 -26 17.5 -43.5t43.5 -17.5h44q38 0 62.5 -25t24.5 -63t-24.5 -62.5t-62.5 -24.5z" />
    <glyph glyph-name="backslash" unicode="\" horiz-adv-x="361" 
d="M332 -133q-59 0 -80 58l-269 753q-5 14 -5 32q0 38 26 62t64 24q59 0 80 -59l269 -752q5 -14 5 -33q0 -37 -26.5 -61t-63.5 -24z" />
    <glyph glyph-name="bracketright" unicode="]" horiz-adv-x="381" 
d="M165 -229h-44q-38 0 -63 24.5t-25 62.5t25 63t63 25h44q26 0 43.5 17.5t17.5 43.5v595q0 25 -18 43t-43 18h-44q-38 0 -63 24.5t-25 62.5t25 63t63 25h44q99 0 167.5 -68.5t68.5 -167.5v-595q0 -100 -68 -168t-168 -68z" />
    <glyph glyph-name="asciicircum" unicode="^" horiz-adv-x="389" 
d="M319 445q-28 0 -54 21q-4 2 -43 41q-39 -39 -43 -41q-26 -21 -54 -21q-36 0 -62.5 26.5t-26.5 62.5q0 34 27 61q72 72 91 89q39 35 68 35q30 0 69 -35q13 -12 91 -89q27 -27 27 -61q0 -37 -26.5 -63t-63.5 -26z" />
    <glyph glyph-name="underscore" unicode="_" horiz-adv-x="571" 
d="M500 -20h-375q-38 0 -63 25t-25 63t25 62.5t63 24.5h375q38 0 62.5 -24.5t24.5 -62.5t-24.5 -63t-62.5 -25z" />
    <glyph glyph-name="grave" unicode="`" horiz-adv-x="262" 
d="M217 410q-21 -9 -40 -9q-67 0 -94 63q-10 22 -30 65q-25 58 -25 88q0 45 28.5 74t73.5 29q67 0 95 -63q11 -22 31 -66q24 -57 24 -87q0 -67 -63 -94z" />
    <glyph glyph-name="a" unicode="a" 
d="M497 -29q-38 0 -62.5 24.5t-24.5 62.5v187q0 42 -29.5 71t-71.5 29t-71 -29t-29 -71t29 -71.5t71 -29.5q38 0 63 -24.5t25 -62.5t-25 -63t-63 -25q-117 0 -196 79.5t-79 196.5t79 196t196 79t196.5 -79t79.5 -196v-187q0 -38 -25 -62.5t-63 -24.5z" />
    <glyph glyph-name="b" unicode="b" 
d="M309 -29q-116 0 -195.5 79.5t-79.5 195.5v392q0 37 25 62t62 25q38 0 63 -24.5t25 -62.5v-392q0 -42 29 -71t71 -29t71.5 29t29.5 71t-29.5 71.5t-71.5 29.5q-38 0 -62.5 24.5t-24.5 62.5t24.5 63t62.5 25q117 0 196.5 -79.5t79.5 -196.5q0 -116 -80 -195.5t-196 -79.5z
" />
    <glyph glyph-name="c" unicode="c" horiz-adv-x="377" 
d="M309 -29q-116 0 -195.5 79.5t-79.5 195.5q0 117 79 196.5t196 79.5q38 0 63 -25t25 -63t-25 -62.5t-63 -24.5q-42 0 -71 -29.5t-29 -71.5t29 -71t71 -29q38 0 63 -25t25 -63t-25 -62.5t-63 -24.5z" />
    <glyph glyph-name="d" unicode="d" 
d="M309 -29q-116 0 -195.5 79.5t-79.5 195.5q0 117 79 196.5t196 79.5q38 0 63 -25t25 -63t-25 -62.5t-63 -24.5q-42 0 -71 -29.5t-29 -71.5t29 -71t71 -29t71.5 29t29.5 71v392q0 37 25 62t62 25q38 0 63 -24.5t25 -62.5v-392q0 -116 -80 -195.5t-196 -79.5z" />
    <glyph glyph-name="e" unicode="e" horiz-adv-x="514" 
d="M286 343q-34 -8 -55.5 -35.5t-21.5 -62.5q0 -42 29 -71.5t71 -29.5h89q38 0 62.5 -24.5t24.5 -62.5t-24.5 -63t-62.5 -25h-89q-117 0 -196 79.5t-79 196.5t79 196t196 79q118 0 199 -84q26 -27 26 -60q0 -42 -36 -70l-127 -124q-28 -27 -61 -27q-37 0 -63 26.5t-26 63.5
q0 28 22 55z" />
    <glyph glyph-name="f" unicode="f" horiz-adv-x="487" 
d="M422 191h-213v-133q0 -38 -25 -62.5t-63 -24.5t-62.5 24.5t-24.5 62.5v431q0 101 67.5 168.5t168.5 67.5q100 0 167.5 -68t67.5 -168v-7q0 -38 -24.5 -63t-62.5 -25q-37 0 -62.5 25.5t-25.5 62.5v7q0 26 -17 43.5t-43 17.5t-43.5 -17.5t-17.5 -43.5v-123h213
q38 0 62.5 -25t24.5 -63t-24.5 -62.5t-62.5 -24.5z" />
    <glyph glyph-name="g" unicode="g" 
d="M309 -602q-116 0 -195.5 79.5t-79.5 195.5t79 196t195 80h87q14 0 14 15v281q0 42 -29 71t-71 29t-71 -29t-29 -71t29 -71.5t71 -29.5q38 0 63 -24.5t25 -62.5t-25 -63t-63 -25q-117 0 -196 79.5t-79 196.5t79 196t196 79t196 -79t79 -196v-281q0 -80 -55 -135t-134 -55
h-86q-42 0 -71 -29.5t-29 -71.5t29 -71t71 -29t71 28.5t29 69.5t24 83q27 47 64 47q38 0 64 -47q23 -40 23 -81q0 -116 -79.5 -195.5t-195.5 -79.5z" />
    <glyph glyph-name="h" unicode="h" horiz-adv-x="486" 
d="M571 -249h-4q-101 0 -168.5 68t-67.5 168l-1 298q0 25 -17.5 42.5t-42.5 17.5q-26 0 -43.5 -17t-17.5 -43v-227q0 -38 -25 -62.5t-63 -24.5t-62.5 24.5t-24.5 62.5v580q0 38 24.5 62.5t62.5 24.5t63 -24.5t25 -62.5v-126q29 8 61 8q100 0 168 -67.5t68 -167.5v-298
q0 -26 17.5 -43.5t43.5 -17.5h4q38 0 62.5 -25t24.5 -63t-24.5 -62.5t-62.5 -24.5z" />
    <glyph glyph-name="i" unicode="i" horiz-adv-x="190" 
d="M121 528q-43 0 -73 30t-30 73t30 73t73 30t73 -30t30 -73t-30 -73t-73 -30zM121 -29q-38 0 -62.5 24.5t-24.5 62.5v375q0 38 24.5 62.5t62.5 24.5q39 0 63.5 -24t24.5 -63v-375q0 -38 -25 -62.5t-63 -24.5z" />
    <glyph glyph-name="j" unicode="j" horiz-adv-x="189" 
d="M121 528q-43 0 -73 30t-30 73t30 73t73 30t73 -30t30 -73t-30 -73t-73 -30zM-27 -249h-4q-38 0 -63 24.5t-25 62.5t25 63t63 25h4q26 0 43.5 17.5t17.5 43.5v446q0 38 24.5 62.5t62.5 24.5q39 0 63.5 -24t24.5 -63v-446q0 -100 -68 -168t-168 -68z" />
    <glyph glyph-name="k" unicode="k" horiz-adv-x="470" 
d="M555 -249h-4q-100 0 -168 68t-68 168v118q0 26 -17.5 43t-43.5 17h-45v-107q0 -38 -25 -62.5t-63 -24.5t-62.5 24.5t-24.5 62.5v578q0 38 24.5 63t62.5 25t63 -25t25 -63v-263q84 -3 84 58q0 40 23.5 64.5t63.5 24.5q38 0 63 -24.5t25 -62.5q0 -88 -57 -153
q79 -68 79 -175v-118q0 -26 17.5 -43.5t43.5 -17.5h4q38 0 63 -25t25 -63t-25 -62.5t-63 -24.5z" />
    <glyph glyph-name="l" unicode="l" horiz-adv-x="189" 
d="M121 -29q-38 0 -62.5 24.5t-24.5 62.5v578q0 38 24.5 62.5t62.5 24.5q39 0 63.5 -24t24.5 -63v-578q0 -38 -25 -62.5t-63 -24.5z" />
    <glyph glyph-name="m" unicode="m" horiz-adv-x="766" 
d="M850 -249h-4q-100 0 -168 68t-68 168v298q0 25 -17.5 42.5t-42.5 17.5q-27 0 -44 -18v-269q0 -38 -25 -62.5t-63 -24.5t-62.5 24.5t-24.5 62.5v227q0 25 -18 42.5t-43 17.5q-26 0 -43.5 -17t-17.5 -43v-227q0 -38 -24.5 -62.5t-62.5 -24.5t-63 24.5t-25 62.5v227
q0 100 68 167.5t168 67.5q78 0 140 -46q61 46 140 46q100 0 167.5 -67.5t67.5 -167.5v-298q0 -26 17.5 -43.5t43.5 -17.5h4q38 0 63 -25t25 -63t-25 -62.5t-63 -24.5z" />
    <glyph glyph-name="n" unicode="n" horiz-adv-x="486" 
d="M571 -249h-4q-101 0 -168.5 67.5t-67.5 168.5v47l-1 251q0 25 -17.5 42.5t-42.5 17.5q-26 0 -43.5 -17t-17.5 -43v-227q0 -38 -25 -62.5t-63 -24.5t-62.5 24.5t-24.5 62.5v227q0 100 68 167.5t168 67.5t168 -67.5t68 -167.5v-298q0 -26 17.5 -43.5t43.5 -17.5h4
q38 0 63 -25t25 -63t-25 -62.5t-63 -24.5z" />
    <glyph glyph-name="o" unicode="o" horiz-adv-x="566" 
d="M309 -31q-117 0 -196 79.5t-79 196.5t79 196t196 79t196.5 -79t79.5 -196t-79.5 -196.5t-196.5 -79.5zM309 345q-42 0 -71 -29t-29 -71t29 -71.5t71 -29.5t71.5 29.5t29.5 71.5t-29.5 71t-71.5 29z" />
    <glyph glyph-name="p" unicode="p" 
d="M309 -31q-38 0 -62.5 25t-24.5 63t24.5 62.5t62.5 24.5q42 0 71.5 29.5t29.5 71.5t-29.5 71t-71.5 29t-71 -29t-29 -71v-391q0 -38 -25 -63t-63 -25t-62.5 25t-24.5 63v391q0 117 79 196t196 79t196.5 -79t79.5 -196t-79.5 -196.5t-196.5 -79.5z" />
    <glyph glyph-name="q" unicode="q" 
d="M497 -234q-38 0 -62.5 25t-24.5 63v391q0 42 -29.5 71t-71.5 29t-71 -29t-29 -71t29 -71.5t71 -29.5q38 0 63 -24.5t25 -62.5t-25 -63t-63 -25q-117 0 -196 79.5t-79 196.5t79 196t196 79t196.5 -79t79.5 -196v-391q0 -38 -25 -63t-63 -25z" />
    <glyph glyph-name="r" unicode="r" horiz-adv-x="337" 
d="M278 347q-69 -12 -69 -62v-227q0 -38 -25 -62.5t-63 -24.5t-62.5 24.5t-24.5 62.5v227q0 100 68 167.5t168 67.5q37 0 62 -25t25 -62q0 -35 -20.5 -57.5t-58.5 -28.5z" />
    <glyph glyph-name="s" unicode="s" horiz-adv-x="446" 
d="M379 345q-17 0 -29 -12t-12 -29q-1 -128 -3 -143q-11 -75 -61 -126q-62 -63 -153 -63q-38 0 -62.5 24.5t-24.5 62.5q0 39 25 63.5t64 24.5t39 41q0 -10 1 31v30v55q0 92 62 154t154 62q38 0 63 -24.5t25 -62.5q0 -37 -25.5 -62.5t-62.5 -25.5z" />
    <glyph glyph-name="t" unicode="t" horiz-adv-x="486" 
d="M270 -29q-101 0 -168.5 67.5t-67.5 168.5v344q0 38 24.5 63t62.5 25t63 -25t25 -63v-33h209q38 0 62.5 -24.5t24.5 -62.5q0 -39 -24 -63.5t-63 -24.5h-209v-136q0 -26 17.5 -43.5t43.5 -17.5t43 17.5t17 43.5v9q0 37 25.5 62t62.5 25t62 -25t25 -62v-9q0 -100 -67.5 -168
t-167.5 -68z" />
    <glyph glyph-name="u" unicode="u" horiz-adv-x="486" 
d="M270 -29q-101 0 -168.5 67.5t-67.5 168.5v224q0 38 24.5 63t62.5 25t63 -25t25 -63v-224q0 -26 17.5 -43.5t43.5 -17.5t43 17.5t17 43.5v226q0 38 25 62.5t63 24.5t62.5 -24.5t24.5 -62.5v-226q0 -100 -67.5 -168t-167.5 -68z" />
    <glyph glyph-name="v" unicode="v" horiz-adv-x="444" 
d="M474 402l-145 -375q-26 -67 -82 -67t-82 67l-145 375q-6 16 -6 33q0 37 26.5 61.5t63.5 24.5q58 0 80 -57l63 -164l63 164q22 57 80 57q37 0 63.5 -24.5t26.5 -61.5q0 -17 -6 -33z" />
    <glyph glyph-name="w" unicode="w" horiz-adv-x="766" 
d="M550 -27q-79 0 -140 46q-62 -46 -140 -46q-101 0 -168.5 67.5t-67.5 168.5v226q0 39 24.5 63t63.5 24q38 0 62.5 -24.5t24.5 -62.5v-226q0 -26 17.5 -43.5t43.5 -17.5t43.5 17.5t17.5 43.5v226q0 38 24.5 62.5t62.5 24.5q39 0 63.5 -24t24.5 -63v-269q17 -18 44 -18
q26 0 43 17.5t17 43.5v226q0 38 25 62.5t63 24.5t62.5 -24.5t24.5 -62.5v-226q0 -100 -67.5 -168t-167.5 -68z" />
    <glyph glyph-name="x" unicode="x" horiz-adv-x="487" 
d="M418 -29q-37 0 -62.5 25t-25.5 62v26q0 25 -17.5 43t-42.5 18q-26 0 -43.5 -17.5t-17.5 -43.5v-26q0 -38 -25 -62.5t-63 -24.5t-62.5 24.5t-24.5 62.5v26q0 95 64 162q-64 66 -64 161v26q0 38 24.5 62.5t62.5 24.5q39 0 63.5 -24t24.5 -63v-26q0 -26 17.5 -43t43.5 -17
q25 0 42.5 17.5t17.5 42.5v26q0 38 25 62.5t63 24.5t62.5 -24.5t24.5 -62.5v-26q0 -95 -64 -161q64 -67 64 -162v-26q0 -38 -24.5 -62.5t-62.5 -24.5z" />
    <glyph glyph-name="y" unicode="y" horiz-adv-x="486" 
d="M329 -22q-28 -7 -59 -7q-101 0 -168.5 67.5t-67.5 168.5v226q0 38 24.5 62.5t62.5 24.5q39 0 63.5 -24t24.5 -63v-226q0 -26 17.5 -43.5t43.5 -17.5t43 17.5t17 43.5v226q0 38 25 62.5t63 24.5t62.5 -24.5t24.5 -62.5v-446q0 -100 -68 -168t-168 -68h-4q-38 0 -63 24.5
t-25 62.5t25 63t63 25h4q22 0 39.5 15t20.5 37z" />
    <glyph glyph-name="z" unicode="z" horiz-adv-x="437" 
d="M394 282q-41 -49 -118 -136h92q38 0 62.5 -25t24.5 -63q0 -37 -25 -62t-62 -25h-280q-93 0 -93 65q0 57 97 173q27 32 119 136h-90q-37 0 -62 25.5t-25 62.5q0 38 24.5 62.5t62.5 24.5h278q92 0 92 -64q0 -57 -97 -174z" />
    <glyph glyph-name="braceleft" unicode="{" horiz-adv-x="381" 
d="M314 -229h-44q-100 0 -168 68t-68 168v595q0 100 68 168t168 68h44q38 0 62.5 -25t24.5 -63t-24.5 -62.5t-62.5 -24.5h-44q-26 0 -43.5 -17.5t-17.5 -43.5v-595q0 -26 17.5 -43.5t43.5 -17.5h44q38 0 62.5 -25t24.5 -63t-24.5 -62.5t-62.5 -24.5z" />
    <glyph glyph-name="bar" unicode="|" horiz-adv-x="189" 
d="M121 -129q-38 0 -62.5 24.5t-24.5 62.5v780q0 38 24.5 62.5t62.5 24.5t63 -24.5t25 -62.5v-780q0 -38 -25 -62.5t-63 -24.5z" />
    <glyph glyph-name="braceright" unicode="}" horiz-adv-x="381" 
d="M165 -229h-44q-38 0 -63 24.5t-25 62.5t25 63t63 25h44q26 0 43.5 17.5t17.5 43.5v595q0 25 -18 43t-43 18h-44q-38 0 -63 24.5t-25 62.5t25 63t63 25h44q99 0 167.5 -68.5t68.5 -167.5v-595q0 -100 -68 -168t-168 -68z" />
    <glyph glyph-name="asciitilde" unicode="~" horiz-adv-x="393" 
d="M268 690q24 22 55 22q37 0 63.5 -26t26.5 -63q0 -44 -42.5 -78t-88.5 -34q-41 0 -107 35q-25 -23 -57 -23q-36 0 -62.5 26.5t-26.5 62.5q0 45 44 79q41 33 87 33q31 0 108 -34z" />
    <glyph glyph-name="exclamdown" unicode="&#xa1;" horiz-adv-x="190" 
d="M121 520q-43 0 -73 29.5t-30 72.5t30 73t73 30t73 -30t30 -73t-30 -72.5t-73 -29.5zM121 -20q-38 0 -62.5 25t-24.5 63v356q0 38 24.5 63t62.5 25t63 -25t25 -63v-356q0 -38 -25 -63t-63 -25z" />
    <glyph glyph-name="cent" unicode="&#xa2;" horiz-adv-x="377" 
d="M240 -37q-30 0 -51.5 21t-21.5 51q0 37 30 59q-75 34 -119 102t-44 150t42 149.5t116 101.5q-25 22 -25 55q0 30 21.5 51.5t51.5 21.5t51.5 -21.5t21.5 -51.5q0 -16 -6 -30h2q38 0 63 -25t25 -63t-25 -62.5t-63 -24.5q-42 0 -71 -29.5t-29 -71.5t29 -71t71 -29
q38 0 63 -25t25 -63t-25 -62.5t-63 -24.5h-5q9 -17 9 -36q0 -30 -21.5 -51t-51.5 -21z" />
    <glyph glyph-name="sterling" unicode="&#xa3;" horiz-adv-x="598" 
d="M210 498h137q38 0 63 -24.5t25 -62.5t-25 -63t-63 -25h-138v-168h173q26 0 43 17.5t17 43.5v44q0 37 25.5 62.5t62.5 25.5q38 0 62.5 -25t24.5 -63v-44q0 -100 -67.5 -168t-167.5 -68h-261q-41 0 -64 26.5t-23 67.5v415q0 100 68 168t168 68h44q38 0 62.5 -25t24.5 -63
t-24.5 -62.5t-62.5 -24.5h-44q-23 0 -40.5 -14.5t-19.5 -37.5z" />
    <glyph glyph-name="yen" unicode="&#xa5;" horiz-adv-x="541" 
d="M512 271q50 -21 50 -80q0 -39 -24 -63.5t-63 -24.5h-89v-45q0 -38 -24.5 -62.5t-62.5 -24.5t-63 24.5t-25 62.5v45h-89q-38 0 -62.5 25t-24.5 63q0 59 50 80q-50 22 -50 81q0 34 19.5 57.5t52.5 28.5q-46 60 -46 140v154q0 38 24.5 62.5t62.5 24.5q39 0 63.5 -24
t24.5 -63v-154q0 -26 17.5 -43.5t43.5 -17.5t43.5 17.5t17.5 43.5v155q0 38 24.5 63t62.5 25t63 -25t25 -63v-155q0 -80 -45 -140q33 -4 53.5 -28t20.5 -58q0 -61 -50 -81z" />
    <glyph glyph-name="section" unicode="&#xa7;" horiz-adv-x="653" 
d="M615 431h-5q-26 0 -43.5 -17.5t-17.5 -43.5v-163q0 -100 -68 -168t-168 -68h-7q-38 0 -62.5 24.5t-24.5 62.5t24.5 63t62.5 25h7q26 0 43.5 17.5t17.5 43.5v163q0 100 68 168t168 68h5q39 0 63 -24.5t24 -63.5q0 -38 -24.5 -62.5t-62.5 -24.5zM401 550h-5
q-26 0 -43.5 -17.5t-17.5 -43.5v-163q0 -100 -68 -168t-168 -68h-7q-38 0 -62.5 24.5t-24.5 62.5t24.5 63t62.5 25h7q26 0 43.5 17.5t17.5 43.5v163q0 100 68 168t168 68h5q38 0 63 -25t25 -63t-25 -62.5t-63 -24.5z" />
    <glyph glyph-name="dieresis" unicode="&#xa8;" horiz-adv-x="413" 
d="M359 685q-43 0 -73 30t-30 73q0 44 29.5 73t73.5 29q42 0 72 -30t30 -72q0 -44 -29 -73.5t-73 -29.5zM127 685q-43 0 -73 30t-30 73t30 72.5t73 29.5t73 -29.5t30 -72.5t-30 -73t-73 -30z" />
    <glyph glyph-name="copyright" unicode="&#xa9;" horiz-adv-x="769" 
d="M790 347q0 -159 -109.5 -268.5t-268.5 -109.5t-268.5 109.5t-109.5 268.5t109.5 268.5t268.5 109.5t268.5 -109.5t109.5 -268.5zM476 202q0 -54 -53 -54q-85 0 -142 57t-57 142t57 142t142 57q53 0 53 -54q0 -53 -53 -53q-39 0 -65.5 -26.5t-26.5 -65.5t26.5 -65
t65.5 -26q53 0 53 -54zM412 580q-100 0 -166.5 -66.5t-66.5 -166.5q0 -99 67 -166t166 -67t166 67t67 166t-67 166t-166 67z" />
    <glyph glyph-name="ordfeminine" unicode="&#xaa;" horiz-adv-x="1103" 
d="M1119 520q33 -44 33 -89q0 -56 -46 -99q5 -14 5 -26q0 -46 -66 -55q1 -8 1 -16q0 -73 -87 -90q-13 -79 -93 -79q-45 0 -97 23v-1q-4 2 -9 6q-38 -28 -75 -56q-48 -35 -83 -35q-79 0 -199 117v-1q-68 -31 -126 -31q-59 0 -105 32q-35 25 -55 63q-18 32 -14 42
q-48 26 -74 61q78 -1 105 36q-65 0 -83 93q99 53 131 109q-105 -10 -137 78q181 35 224 141q32 112 114 199q105 112 201 40q27 4 53 4q181 0 302 -175q50 -73 84 -175q8 -31 8 -70q0 -49 -14 -95q29 -20 51 -20q43 0 51 69zM870 503q-13 54 -42 105q-70 122 -208 211
q-109 4 -156 -86q-20 -38 -26 -91q-1 -40 -8 -74q13 2 29 2q75 0 101 -37q-5 -4 -17 -4q-22 0 -60 13q-32 13 -56 12q-9 -33 -21 -58q-28 -61 -66 -76q-6 -8 -25 -19q25 -120 67 -173q69 -86 100 -115q64 -59 120 -59t119 59q31 29 100 116q40 49 47 126q2 16 2 148z
M844 536q-8 -5 -21 1q-22 13 -42 13q-22 0 -52 -11q-37 -14 -59 -14q-12 0 -17 5q26 36 100 36q18 0 33.5 -2.5t26.5 -6.5q27 -9 31 -21zM822 446q-12 -12 -25 -12q-12 0 -22.5 10t-26.5 15q4 -8 4 -17q0 -14 -10 -24t-24 -10t-24 10t-10 24q0 12 8 21q-23 -9 -23 -24
q0 -4 2 -9l-17 5q5 12 13 20q18 21 46 22v-1q2 1 5 1q35 1 57 -11q6 -4 13 -4q14 0 24 13q2 -18 -17 -22q13 -11 27 -7zM565 434l-17 -5q1 4 1 8q0 22 -32 26q7 -9 7 -20q0 -14 -9.5 -23.5t-23.5 -9.5t-23.5 9.5t-9.5 23.5q0 9 4 16q-11 -4 -17 -11q-14 -18 -30 -18
q-10 0 -19 7q8 0 21 13q-16 3 -16 15q0 5 3 10q18 -14 26 -14q1 0 17.5 9t45.5 8q19 -2 32 -7q34 -12 40 -37zM692 215h-176q30 58 88 58q59 0 88 -58zM691 205q-9 -31 -31 -52q-25 -23 -55 -23q-31 0 -54.5 22t-32.5 53h10q29 -23 77 -23t72 23h14zM721 442q0 5 -5 5t-5 -5
t5 -5t5 5zM718 428q0 9 -9 9q-8 0 -8 -9t8 -9q9 0 9 9zM495 442q0 5 -6 5q-5 0 -5 -5t5 -5q6 0 6 5zM491 428q0 9 -9 9q-8 0 -8 -9t8 -9q9 0 9 9z" />
    <glyph glyph-name="guillemotleft" unicode="&#xab;" horiz-adv-x="583" 
d="M492 68q-34 0 -61 27l-90 90q-34 34 -34 69t35 70l89 89q27 27 61 27q36 0 62.5 -26.5t26.5 -62.5q0 -28 -21 -54q-4 -5 -42 -43q38 -38 42 -43q21 -26 21 -54q0 -36 -26.5 -62.5t-62.5 -26.5zM221 68q-35 0 -62 27l-89 90q-34 40 -34 69q0 35 35 70l88 89q27 27 62 27
q36 0 62.5 -26.5t26.5 -62.5q0 -28 -21 -54q-4 -5 -42 -43q38 -38 42 -43q21 -26 21 -54q0 -36 -26.5 -62.5t-62.5 -26.5z" />
    <glyph glyph-name="logicalnot" unicode="&#xac;" horiz-adv-x="1351" 
d="M682 400q0 -34 -22.5 -56.5t-56.5 -22.5q-33 0 -56 23t-23 56q0 5 1 12q-10 -1 -25 4t-15 14q0 3 5 1q6 -1 12 -1q14 0 29 8q-37 13 -37 25q0 6 5 15q6 -15 19 -15q6 0 14 4q28 15 72 13q33 -1 55.5 -24t22.5 -56zM1309 497q39 -41 39 -84q0 -53 -54 -95q6 -13 6 -24
q0 -44 -79 -53q1 -8 1 -16q0 -69 -105 -85q-14 -75 -110 -75q-54 0 -116 21v-1q-5 3 -11 6l-90 -54q-54 -32 -99 -32q-65 0 -165 61q-82 50 -141 110q-96 -68 -170 -68q-46 0 -77 28q-46 24 -46 61q0 11 3 19q-58 25 -89 58q93 0 126 35q-78 -1 -99 88q118 51 156 104
q-125 -9 -163 75q216 33 268 134q42 117 136 215q83 86 160 86q40 0 79 -23q248 -4 412 -193q68 -78 114 -187q9 -30 9 -67q0 -47 -17 -90q35 -20 62 -20q51 0 60 66zM1022 481q-17 70 -53 129q-87 143 -256 210q-191 -28 -217 -207q-23 -164 -133 -219q-7 -3 -30 -10
q20 -75 84 -152q57 -68 131 -117t143 -49q68 0 142 50q50 34 120 104q48 48 62 120q7 36 7 141zM889 528q-3 -1 -5 -1q-6 0 -12 4q-20 14 -41 14q-13 0 -38.5 -5.5t-38.5 -5.5q-15 0 -20 5q19 22 64 22q23 0 51 -7q37 -10 40 -26zM897 431q5 2 5 -1q0 -9 -15 -14t-25 -4v-12
q0 -34 -22.5 -56.5t-56.5 -22.5q-33 0 -56 23t-23 56t23 56t56 24q44 2 72 -13q8 -4 14 -4q13 0 19 15q6 -9 6 -15q0 -21 -37 -25q15 -8 29 -8q5 0 11 1zM669 545q-6 -6 -24 -6q-12 0 -34.5 4.5t-34.5 4.5q-24 0 -45 -16q-9 -7 -17 -4q3 16 43 29q25 8 53 8q40 0 59 -20z
M786 207h-188q32 55 93 55q64 0 95 -55zM784 197q-9 -30 -34.5 -51t-56.5 -21q-32 0 -57.5 20.5t-35.5 51.5h11q31 -22 82 -22t77 22h14zM786 447q0 14 -14 14q-15 0 -15 -14t15 -14q14 0 14 14zM740 433q0 8 -8 8t-8 -8t8 -8t8 8zM783 398q0 26 -26 26t-26 -26t26 -26
t26 26zM603 447q0 14 -14 14t-14 -14t14 -14t14 14zM557 433q0 8 -8 8q-7 0 -7 -8t7 -8q8 0 8 8zM601 398q0 26 -26 26t-26 -26t26 -26t26 26z" />
    <glyph glyph-name="registered" unicode="&#xae;" horiz-adv-x="769" 
d="M790 347q0 -159 -109.5 -268.5t-268.5 -109.5t-268.5 109.5t-109.5 268.5t109.5 268.5t268.5 109.5t268.5 -109.5t109.5 -268.5zM557 399q0 -45 -24.5 -82.5t-65.5 -53.5q4 -6 16 -6q54 0 54 -54t-54 -54t-92 38t-36 91q1 29 2 34q4 19 18.5 33t32.5 14t30 11.5t12 28.5
t-12 28.5t-29 11.5t-28.5 -11.5t-11.5 -28.5v-196q0 -53 -54 -53q-53 0 -53 53v196q0 62 42.5 105t104.5 43t105 -43t43 -105zM412 580q-100 0 -166.5 -66.5t-66.5 -166.5q0 -99 67 -166t166 -67t166 67t67 166t-67 166t-166 67z" />
    <glyph glyph-name="macron" unicode="&#xaf;" horiz-adv-x="571" 
d="M415 685h-223q-38 0 -63 25t-25 63t25 62.5t63 24.5h223q38 0 63 -24.5t25 -62.5t-25 -63t-63 -25z" />
    <glyph glyph-name="macron" unicode="&#x2c9;" horiz-adv-x="571" 
d="M415 685h-223q-38 0 -63 25t-25 63t25 62.5t63 24.5h223q38 0 63 -24.5t25 -62.5t-25 -63t-63 -25z" />
    <glyph glyph-name="degree" unicode="&#xb0;" horiz-adv-x="263" 
d="M158 477q-52 0 -88 36t-36 88t36 88t88 36t88 -36t36 -88t-36 -88t-88 -36zM158 610q-9 0 -9 -9t9 -9t9 9t-9 9z" />
    <glyph glyph-name="plusminus" unicode="&#xb1;" horiz-adv-x="438" 
d="M372 -20h-250q-38 0 -62.5 25t-24.5 63t24.5 62.5t62.5 24.5h76q-39 24 -39 74v37h-37q-38 0 -62.5 25t-24.5 63t24.5 62.5t62.5 24.5h37v37q0 39 24.5 63t63.5 24q38 0 62.5 -24.5t24.5 -62.5v-37h37q38 0 62.5 -24.5t24.5 -62.5q0 -39 -24 -63.5t-63 -24.5h-37v-37
q0 -50 -39 -74h77q38 0 62.5 -24.5t24.5 -62.5q0 -39 -24 -63.5t-63 -24.5z" />
    <glyph glyph-name="acute" unicode="&#xb4;" horiz-adv-x="262" 
d="M272 858l-47 -114q-26 -63 -95 -63q-43 0 -72.5 30t-29.5 73q0 30 24 87q11 22 31 66q28 63 94 63q45 0 74 -29t29 -74q0 -20 -8 -39z" />
    <glyph glyph-name="mu" unicode="&#xb5;" horiz-adv-x="679" 
d="M610 -29h-44q-85 0 -148 52q-63 -52 -148 -52q-32 0 -61 8v-142q0 -38 -24.5 -62.5t-62.5 -24.5t-63 24.5t-25 62.5v596q0 38 24.5 62.5t62.5 24.5q39 0 63.5 -24t24.5 -63v-226q0 -26 17.5 -43.5t43.5 -17.5t43 17.5t17 43.5v226q0 38 25 62.5t63 24.5t62.5 -24.5
t24.5 -62.5v-226q0 -26 17.5 -43.5t43.5 -17.5h44q38 0 63 -25t25 -63t-25 -62.5t-63 -24.5z" />
    <glyph glyph-name="mu" unicode="&#x3bc;" horiz-adv-x="679" 
d="M610 -29h-44q-85 0 -148 52q-63 -52 -148 -52q-32 0 -61 8v-142q0 -38 -24.5 -62.5t-62.5 -24.5t-63 24.5t-25 62.5v596q0 38 24.5 62.5t62.5 24.5q39 0 63.5 -24t24.5 -63v-226q0 -26 17.5 -43.5t43.5 -17.5t43 17.5t17 43.5v226q0 38 25 62.5t63 24.5t62.5 -24.5
t24.5 -62.5v-226q0 -26 17.5 -43.5t43.5 -17.5h44q38 0 63 -25t25 -63t-25 -62.5t-63 -24.5z" />
    <glyph glyph-name="paragraph" unicode="&#xb6;" horiz-adv-x="693" 
d="M291 175q-110 7 -183.5 85.5t-73.5 189.5q0 117 79.5 196t196.5 79h319q37 0 61 -25t24 -62v-580q0 -38 -25 -62.5t-63 -24.5t-62.5 24.5t-24.5 62.5v492h-73v-492q0 -38 -25 -62.5t-63 -24.5t-62.5 24.5t-24.5 62.5v117zM306 349q-13 16 -15 199q-36 -6 -59 -33.5
t-23 -64.5q0 -41 28 -70t69 -31z" />
    <glyph glyph-name="periodcentered" unicode="&#xb7;" horiz-adv-x="190" 
d="M121 -20q-43 0 -73 30t-30 73t30 72.5t73 29.5t73 -29.5t30 -72.5t-30 -73t-73 -30z" />
    <glyph glyph-name="periodcentered" unicode="&#x2219;" horiz-adv-x="190" 
d="M121 -20q-43 0 -73 30t-30 73t30 72.5t73 29.5t73 -29.5t30 -72.5t-30 -73t-73 -30z" />
    <glyph glyph-name="cedilla" unicode="&#xb8;" horiz-adv-x="381" 
d="M98 -357h-44q-38 0 -63 24.5t-25 62.5t25 63t63 25h44q26 0 43.5 17.5t17.5 43.5v141h175v-141q0 -100 -68 -168t-168 -68z" />
    <glyph glyph-name="ordmasculine" unicode="&#xba;" horiz-adv-x="1103" 
d="M1119 520q33 -44 33 -89q0 -56 -46 -99q5 -14 5 -26q0 -46 -66 -55q1 -8 1 -16q0 -73 -87 -90q-13 -79 -93 -79q-45 0 -97 23v-1q-4 2 -9 6q-38 -28 -75 -56q-48 -35 -83 -35q-79 0 -199 117v-1q-68 -31 -126 -31q-59 0 -105 32q-35 25 -55 63q-18 32 -14 42
q-48 26 -74 61q78 -1 105 36q-65 0 -83 93q99 53 131 109q-105 -10 -137 78q181 35 224 141q32 112 114 199q105 112 201 40q27 4 53 4q181 0 302 -175q50 -73 84 -175q8 -31 8 -70q0 -49 -14 -95q29 -20 51 -20q43 0 51 69zM870 503q-13 54 -42 105q-70 122 -208 211
q-109 4 -156 -86q-20 -38 -26 -91q-1 -40 -8 -74q13 2 29 2q75 0 101 -37q-5 -4 -17 -4q-22 0 -60 13q-32 13 -56 12q-9 -33 -21 -58q-28 -61 -66 -76q-6 -8 -25 -19q25 -120 67 -173q69 -86 100 -115q64 -59 120 -59t119 59q31 29 100 116q40 49 47 126q2 16 2 148z
M844 536q-8 -5 -21 1q-22 13 -42 13q-22 0 -52 -11q-37 -14 -59 -14q-12 0 -17 5q26 36 100 36q18 0 33.5 -2.5t26.5 -6.5q27 -9 31 -21zM822 446q-12 -12 -25 -12q-12 0 -22.5 10t-26.5 15q4 -8 4 -17q0 -14 -10 -24t-24 -10t-24 10t-10 24q0 12 8 21q-23 -9 -23 -24
q0 -4 2 -9l-17 5q5 12 13 20q18 21 46 22v-1q2 1 5 1q35 1 57 -11q6 -4 13 -4q14 0 24 13q2 -18 -17 -22q13 -11 27 -7zM565 434l-17 -5q1 4 1 8q0 22 -32 26q7 -9 7 -20q0 -14 -9.5 -23.5t-23.5 -9.5t-23.5 9.5t-9.5 23.5q0 9 4 16q-11 -4 -17 -11q-14 -18 -30 -18
q-10 0 -19 7q8 0 21 13q-16 3 -16 15q0 5 3 10q18 -14 26 -14q1 0 17.5 9t45.5 8q19 -2 32 -7q34 -12 40 -37zM692 215h-176q30 58 88 58q59 0 88 -58zM691 205q-9 -31 -31 -52q-25 -23 -55 -23q-31 0 -54.5 22t-32.5 53h10q29 -23 77 -23t72 23h14zM721 442q0 5 -5 5t-5 -5
t5 -5t5 5zM718 428q0 9 -9 9q-8 0 -8 -9t8 -9q9 0 9 9zM495 442q0 5 -6 5q-5 0 -5 -5t5 -5q6 0 6 5zM491 428q0 9 -9 9q-8 0 -8 -9t8 -9q9 0 9 9z" />
    <glyph glyph-name="guillemotright" unicode="&#xbb;" horiz-adv-x="573" 
d="M534 185q-9 -10 -89 -90q-27 -27 -61 -27q-36 0 -62.5 26.5t-26.5 62.5q0 28 21 54q2 4 41 43q-39 39 -41 43q-21 26 -21 54q0 36 26.5 62.5t62.5 26.5q34 0 61 -27l88 -89q36 -36 36 -70q0 -30 -35 -69zM272 185q-9 -10 -89 -90q-27 -27 -61 -27q-37 0 -63.5 26
t-26.5 63q0 28 21 54q4 5 42 43q-38 38 -42 43q-21 26 -21 54q0 37 26.5 63t63.5 26q34 0 61 -27l88 -89q36 -36 36 -70q0 -30 -35 -69z" />
    <glyph glyph-name="questiondown" unicode="&#xbf;" horiz-adv-x="500" 
d="M309 -24q-117 0 -196 79.5t-79 196.5q0 116 79.5 195.5t195.5 79.5h32q-65 25 -65 96q0 44 29.5 73t73.5 29q42 0 72 -30t30 -72q0 -34 -19.5 -61.5t-51.5 -36.5q66 -15 66 -85q0 -38 -24.5 -63t-62.5 -25h-80q-41 0 -70.5 -29.5t-29.5 -70.5q0 -42 29 -71.5t71 -29.5
t71.5 29.5t29.5 71.5q0 37 25 62t62 25q38 0 63 -24.5t25 -62.5q0 -117 -79.5 -196.5t-196.5 -79.5z" />
    <glyph glyph-name="Agrave" unicode="&#xc0;" 
d="M650 -249h-5q-100 0 -167.5 68t-67.5 168v206q-48 -19 -101 -19q-38 0 -62.5 25t-24.5 63t24.5 62.5t62.5 24.5q42 0 71.5 29.5t29.5 71.5t-29.5 71t-71.5 29t-71 -29t-29 -71v-392q0 -38 -25 -62.5t-63 -24.5t-62.5 24.5t-24.5 62.5v392q0 117 79 196t196 79t196.5 -79
t79.5 -196v-463q0 -26 17 -43.5t43 -17.5h5q38 0 62.5 -25t24.5 -63q0 -37 -25 -62t-62 -25zM337 740q-21 -9 -40 -9q-67 0 -94 63q-10 22 -30 65q-25 58 -25 88q0 45 28.5 74t73.5 29q67 0 95 -63q11 -22 31 -66q24 -57 24 -87q0 -67 -63 -94z" />
    <glyph glyph-name="Aacute" unicode="&#xc1;" 
d="M432 908l-47 -114q-26 -63 -95 -63q-43 0 -72.5 30t-29.5 73q0 30 24 87q11 22 31 66q28 63 94 63q45 0 74 -29t29 -74q0 -20 -8 -39zM650 -249h-5q-100 0 -167.5 68t-67.5 168v206q-48 -19 -101 -19q-38 0 -62.5 25t-24.5 63t24.5 62.5t62.5 24.5q42 0 71.5 29.5
t29.5 71.5t-29.5 71t-71.5 29t-71 -29t-29 -71v-392q0 -38 -25 -62.5t-63 -24.5t-62.5 24.5t-24.5 62.5v392q0 117 79 196t196 79t196.5 -79t79.5 -196v-463q0 -26 17 -43.5t43 -17.5h5q38 0 62.5 -25t24.5 -63q0 -37 -25 -62t-62 -25z" />
    <glyph glyph-name="Acircumflex" unicode="&#xc2;" 
d="M650 -249h-5q-100 0 -167.5 68t-67.5 168v206q-48 -19 -101 -19q-38 0 -62.5 25t-24.5 63t24.5 62.5t62.5 24.5q42 0 71.5 29.5t29.5 71.5t-29.5 71t-71.5 29t-71 -29t-29 -71v-392q0 -38 -25 -62.5t-63 -24.5t-62.5 24.5t-24.5 62.5v392q0 117 79 196t196 79t196.5 -79
t79.5 -196v-463q0 -26 17 -43.5t43 -17.5h5q38 0 62.5 -25t24.5 -63q0 -37 -25 -62t-62 -25zM419 735q-28 0 -54 21q-4 2 -43 41q-39 -39 -43 -41q-26 -21 -54 -21q-36 0 -62.5 26.5t-26.5 62.5q0 34 27 61q72 72 91 89q39 35 68 35q30 0 69 -35q13 -12 91 -89
q27 -27 27 -61q0 -37 -26.5 -63t-63.5 -26z" />
    <glyph glyph-name="Atilde" unicode="&#xc3;" 
d="M650 -249h-5q-100 0 -167.5 68t-67.5 168v206q-48 -19 -101 -19q-38 0 -62.5 25t-24.5 63t24.5 62.5t62.5 24.5q42 0 71.5 29.5t29.5 71.5t-29.5 71t-71.5 29t-71 -29t-29 -71v-392q0 -38 -25 -62.5t-63 -24.5t-62.5 24.5t-24.5 62.5v392q0 117 79 196t196 79t196.5 -79
t79.5 -196v-463q0 -26 17 -43.5t43 -17.5h5q38 0 62.5 -25t24.5 -63q0 -37 -25 -62t-62 -25zM358 920q24 22 55 22q37 0 63.5 -26t26.5 -63q0 -44 -42.5 -78t-88.5 -34q-41 0 -107 35q-25 -23 -57 -23q-36 0 -62.5 26.5t-26.5 62.5q0 45 44 79q41 33 87 33q31 0 108 -34z
" />
    <glyph glyph-name="Adieresis" unicode="&#xc4;" 
d="M650 -249h-5q-100 0 -167.5 68t-67.5 168v206q-48 -19 -101 -19q-38 0 -62.5 25t-24.5 63t24.5 62.5t62.5 24.5q42 0 71.5 29.5t29.5 71.5t-29.5 71t-71.5 29t-71 -29t-29 -71v-392q0 -38 -25 -62.5t-63 -24.5t-62.5 24.5t-24.5 62.5v392q0 117 79 196t196 79t196.5 -79
t79.5 -196v-463q0 -26 17 -43.5t43 -17.5h5q38 0 62.5 -25t24.5 -63q0 -37 -25 -62t-62 -25zM439 745q-43 0 -73 30t-30 73q0 44 29.5 73t73.5 29q42 0 72 -30t30 -72q0 -44 -29 -73.5t-73 -29.5zM207 745q-43 0 -73 30t-30 73t30 72.5t73 29.5t73 -29.5t30 -72.5t-30 -73
t-73 -30z" />
    <glyph glyph-name="Aring" unicode="&#xc5;" 
d="M650 -249h-5q-100 0 -167.5 68t-67.5 168v206q-48 -19 -101 -19q-38 0 -62.5 25t-24.5 63t24.5 62.5t62.5 24.5q42 0 71.5 29.5t29.5 71.5t-29.5 71t-71.5 29t-71 -29t-29 -71v-392q0 -38 -25 -62.5t-63 -24.5t-62.5 24.5t-24.5 62.5v392q0 117 79 196t196 79t196.5 -79
t79.5 -196v-463q0 -26 17 -43.5t43 -17.5h5q38 0 62.5 -25t24.5 -63q0 -37 -25 -62t-62 -25zM298 737q-52 0 -88 36t-36 88t36 88t88 36t88 -36t36 -88t-36 -88t-88 -36zM298 870q-9 0 -9 -9t9 -9t9 9t-9 9z" />
    <glyph glyph-name="AE" unicode="&#xc6;" horiz-adv-x="855" 
d="M788 -31q-112 0 -203 59v-28h-175v193q-48 -19 -101 -19q-38 0 -62.5 25t-24.5 63t24.5 62.5t62.5 24.5q42 0 71.5 29.5t29.5 71.5t-29.5 71t-71.5 29t-71 -29t-29 -71v-392q0 -38 -25 -62.5t-63 -24.5t-62.5 24.5t-24.5 62.5v392q0 117 79 196t196 79q136 0 217 -105
q108 105 262 105q38 0 63 -24.5t25 -62.5t-25 -63t-63 -25q-58 0 -107 -30t-74 -81h181q38 0 63 -24.5t25 -62.5t-25 -63t-63 -25h-185q24 -55 74.5 -87.5t110.5 -32.5q38 0 63 -25t25 -63t-25 -62.5t-63 -24.5z" />
    <glyph glyph-name="Ccedilla" unicode="&#xc7;" horiz-adv-x="479" 
d="M412 -31q-159 0 -268.5 109.5t-109.5 268.5t109.5 268.5t268.5 109.5q38 0 63 -24.5t25 -62.5t-25 -63t-63 -25q-86 0 -144.5 -58.5t-58.5 -144.5t58.5 -144.5t144.5 -58.5q38 0 63 -25t25 -63t-25 -62.5t-63 -24.5zM304 -221q-43 0 -73 30t-30 73t30 73t73 30t72.5 -30
t29.5 -73t-29.5 -73t-72.5 -30z" />
    <glyph glyph-name="Egrave" unicode="&#xc8;" horiz-adv-x="476" 
d="M412 -31q-159 0 -268.5 109.5t-109.5 268.5t109.5 268.5t268.5 109.5q38 0 63 -24.5t25 -62.5t-25 -63t-63 -25q-58 0 -107 -30t-74 -81h181q38 0 63 -24.5t25 -62.5t-25 -63t-63 -25h-185q24 -55 74.5 -87.5t110.5 -32.5q38 0 63 -25t25 -63t-25 -62.5t-63 -24.5z
M337 740q-21 -9 -40 -9q-67 0 -94 63q-10 22 -30 65q-25 58 -25 88q0 45 28.5 74t73.5 29q67 0 95 -63q11 -22 31 -66q24 -57 24 -87q0 -67 -63 -94z" />
    <glyph glyph-name="Eacute" unicode="&#xc9;" horiz-adv-x="476" 
d="M412 908l-47 -114q-26 -63 -95 -63q-43 0 -72.5 30t-29.5 73q0 30 24 87q11 22 31 66q28 63 94 63q45 0 74 -29t29 -74q0 -20 -8 -39zM412 -31q-159 0 -268.5 109.5t-109.5 268.5t109.5 268.5t268.5 109.5q38 0 63 -24.5t25 -62.5t-25 -63t-63 -25q-58 0 -107 -30
t-74 -81h181q38 0 63 -24.5t25 -62.5t-25 -63t-63 -25h-185q24 -55 74.5 -87.5t110.5 -32.5q38 0 63 -25t25 -63t-25 -62.5t-63 -24.5z" />
    <glyph glyph-name="Ecircumflex" unicode="&#xca;" horiz-adv-x="476" 
d="M412 -31q-159 0 -268.5 109.5t-109.5 268.5t109.5 268.5t268.5 109.5q38 0 63 -24.5t25 -62.5t-25 -63t-63 -25q-58 0 -107 -30t-74 -81h181q38 0 63 -24.5t25 -62.5t-25 -63t-63 -25h-185q24 -55 74.5 -87.5t110.5 -32.5q38 0 63 -25t25 -63t-25 -62.5t-63 -24.5z
M409 735q-28 0 -54 21q-4 2 -43 41q-39 -39 -43 -41q-26 -21 -54 -21q-36 0 -62.5 26.5t-26.5 62.5q0 34 27 61q72 72 91 89q39 35 68 35q30 0 69 -35q13 -12 91 -89q27 -27 27 -61q0 -37 -26.5 -63t-63.5 -26z" />
    <glyph glyph-name="Edieresis" unicode="&#xcb;" horiz-adv-x="476" 
d="M412 -31q-159 0 -268.5 109.5t-109.5 268.5t109.5 268.5t268.5 109.5q38 0 63 -24.5t25 -62.5t-25 -63t-63 -25q-58 0 -107 -30t-74 -81h181q38 0 63 -24.5t25 -62.5t-25 -63t-63 -25h-185q24 -55 74.5 -87.5t110.5 -32.5q38 0 63 -25t25 -63t-25 -62.5t-63 -24.5z
M439 745q-43 0 -73 30t-30 73q0 44 29.5 73t73.5 29q42 0 72 -30t30 -72q0 -44 -29 -73.5t-73 -29.5zM207 745q-43 0 -73 30t-30 73t30 72.5t73 29.5t73 -29.5t30 -72.5t-30 -73t-73 -30z" />
    <glyph glyph-name="Igrave" unicode="&#xcc;" horiz-adv-x="189" 
d="M121 -29q-38 0 -62.5 24.5t-24.5 62.5v580q0 38 24.5 62.5t62.5 24.5t63 -24.5t25 -62.5v-580q0 -38 -25 -62.5t-63 -24.5zM167 740q-21 -9 -40 -9q-67 0 -94 63q-10 22 -30 65q-25 58 -25 88q0 45 28.5 74t73.5 29q67 0 95 -63q11 -22 31 -66q24 -57 24 -87
q0 -67 -63 -94z" />
    <glyph glyph-name="Iacute" unicode="&#xcd;" horiz-adv-x="189" 
d="M232 908l-47 -114q-26 -63 -95 -63q-43 0 -72.5 30t-29.5 73q0 30 24 87q11 22 31 66q28 63 94 63q45 0 74 -29t29 -74q0 -20 -8 -39zM121 -29q-38 0 -62.5 24.5t-24.5 62.5v580q0 38 24.5 62.5t62.5 24.5t63 -24.5t25 -62.5v-580q0 -38 -25 -62.5t-63 -24.5z" />
    <glyph glyph-name="Icircumflex" unicode="&#xce;" horiz-adv-x="189" 
d="M121 -29q-38 0 -62.5 24.5t-24.5 62.5v580q0 38 24.5 62.5t62.5 24.5t63 -24.5t25 -62.5v-580q0 -38 -25 -62.5t-63 -24.5zM219 735q-28 0 -54 21q-4 2 -43 41q-39 -39 -43 -41q-26 -21 -54 -21q-36 0 -62.5 26.5t-26.5 62.5q0 34 27 61q72 72 91 89q39 35 68 35
q30 0 69 -35q13 -12 91 -89q27 -27 27 -61q0 -37 -26.5 -63t-63.5 -26z" />
    <glyph glyph-name="Idieresis" unicode="&#xcf;" horiz-adv-x="189" 
d="M121 -29q-38 0 -62.5 24.5t-24.5 62.5v580q0 38 24.5 62.5t62.5 24.5t63 -24.5t25 -62.5v-580q0 -38 -25 -62.5t-63 -24.5zM239 745q-43 0 -73 30t-30 73q0 44 29.5 73t73.5 29q42 0 72 -30t30 -72q0 -44 -29 -73.5t-73 -29.5zM7 745q-43 0 -73 30t-30 73t30 72.5
t73 29.5t73 -29.5t30 -72.5t-30 -73t-73 -30z" />
    <glyph glyph-name="Eth" unicode="&#xd0;" horiz-adv-x="1103" 
d="M1119 520q33 -44 33 -89q0 -56 -46 -99q5 -14 5 -26q0 -46 -66 -55q1 -8 1 -16q0 -73 -87 -90q-13 -79 -93 -79q-45 0 -97 23v-1q-4 2 -9 6q-38 -28 -75 -56q-48 -35 -83 -35q-79 0 -199 117v-1q-68 -31 -126 -31q-59 0 -105 32q-35 25 -55 63q-18 32 -14 42
q-48 26 -74 61q78 -1 105 36q-65 0 -83 93q99 53 131 109q-105 -10 -137 78q181 35 224 141q32 112 114 199q105 112 201 40q27 4 53 4q181 0 302 -175q50 -73 84 -175q8 -31 8 -70q0 -49 -14 -95q29 -20 51 -20q43 0 51 69zM870 503q-13 54 -42 105q-70 122 -208 211
q-109 4 -156 -86q-20 -38 -26 -91q-1 -40 -8 -74q13 2 29 2q75 0 101 -37q-5 -4 -17 -4q-22 0 -60 13q-32 13 -56 12q-9 -33 -21 -58q-28 -61 -66 -76q-6 -8 -25 -19q25 -120 67 -173q69 -86 100 -115q64 -59 120 -59t119 59q31 29 100 116q40 49 47 126q2 16 2 148z
M844 536q-8 -5 -21 1q-22 13 -42 13q-22 0 -52 -11q-37 -14 -59 -14q-12 0 -17 5q26 36 100 36q18 0 33.5 -2.5t26.5 -6.5q27 -9 31 -21zM822 446q-12 -12 -25 -12q-12 0 -22.5 10t-26.5 15q4 -8 4 -17q0 -14 -10 -24t-24 -10t-24 10t-10 24q0 12 8 21q-23 -9 -23 -24
q0 -4 2 -9l-17 5q5 12 13 20q18 21 46 22v-1q2 1 5 1q35 1 57 -11q6 -4 13 -4q14 0 24 13q2 -18 -17 -22q13 -11 27 -7zM565 434l-17 -5q1 4 1 8q0 22 -32 26q7 -9 7 -20q0 -14 -9.5 -23.5t-23.5 -9.5t-23.5 9.5t-9.5 23.5q0 9 4 16q-11 -4 -17 -11q-14 -18 -30 -18
q-10 0 -19 7q8 0 21 13q-16 3 -16 15q0 5 3 10q18 -14 26 -14q1 0 17.5 9t45.5 8q19 -2 32 -7q34 -12 40 -37zM692 215h-176q30 58 88 58q59 0 88 -58zM691 205q-9 -31 -31 -52q-25 -23 -55 -23q-31 0 -54.5 22t-32.5 53h10q29 -23 77 -23t72 23h14zM721 442q0 5 -5 5t-5 -5
t5 -5t5 5zM718 428q0 9 -9 9q-8 0 -8 -9t8 -9q9 0 9 9zM495 442q0 5 -6 5q-5 0 -5 -5t5 -5q6 0 6 5zM491 428q0 9 -9 9q-8 0 -8 -9t8 -9q9 0 9 9z" />
    <glyph glyph-name="Ntilde" unicode="&#xd1;" horiz-adv-x="486" 
d="M571 -249h-4q-101 0 -168.5 67.5t-67.5 168.5v58l-1 444q0 25 -17.5 43t-42.5 18q-26 0 -43.5 -17.5t-17.5 -43.5v-431q0 -38 -25 -62.5t-63 -24.5t-62.5 24.5t-24.5 62.5v431q0 100 68 168t168 68q95 0 165 -65t70 -159l1 -514q0 -26 17.5 -43.5t43.5 -17.5h4
q38 0 63 -25t25 -63t-25 -62.5t-63 -24.5zM308 920q24 22 55 22q37 0 63.5 -26t26.5 -63q0 -44 -42.5 -78t-88.5 -34q-41 0 -107 35q-25 -23 -57 -23q-36 0 -62.5 26.5t-26.5 62.5q0 45 44 79q41 33 87 33q31 0 108 -34z" />
    <glyph glyph-name="Ograve" unicode="&#xd2;" horiz-adv-x="769" 
d="M412 -31q-159 0 -268.5 109.5t-109.5 268.5t109.5 268.5t268.5 109.5t268.5 -109.5t109.5 -268.5t-109.5 -268.5t-268.5 -109.5zM412 550q-87 0 -145 -58t-58 -145q0 -86 58.5 -144.5t144.5 -58.5t144.5 58.5t58.5 144.5t-58.5 144.5t-144.5 58.5zM437 740q-21 -9 -40 -9
q-67 0 -94 63q-10 22 -30 65q-25 58 -25 88q0 45 28.5 74t73.5 29q67 0 95 -63q11 -22 31 -66q24 -57 24 -87q0 -67 -63 -94z" />
    <glyph glyph-name="Oacute" unicode="&#xd3;" horiz-adv-x="769" 
d="M532 908l-47 -114q-26 -63 -95 -63q-43 0 -72.5 30t-29.5 73q0 30 24 87q11 22 31 66q28 63 94 63q45 0 74 -29t29 -74q0 -20 -8 -39zM412 -31q-159 0 -268.5 109.5t-109.5 268.5t109.5 268.5t268.5 109.5t268.5 -109.5t109.5 -268.5t-109.5 -268.5t-268.5 -109.5z
M412 550q-87 0 -145 -58t-58 -145q0 -86 58.5 -144.5t144.5 -58.5t144.5 58.5t58.5 144.5t-58.5 144.5t-144.5 58.5z" />
    <glyph glyph-name="Ocircumflex" unicode="&#xd4;" horiz-adv-x="769" 
d="M412 -31q-159 0 -268.5 109.5t-109.5 268.5t109.5 268.5t268.5 109.5t268.5 -109.5t109.5 -268.5t-109.5 -268.5t-268.5 -109.5zM412 550q-87 0 -145 -58t-58 -145q0 -86 58.5 -144.5t144.5 -58.5t144.5 58.5t58.5 144.5t-58.5 144.5t-144.5 58.5zM519 735q-28 0 -54 21
q-4 2 -43 41q-39 -39 -43 -41q-26 -21 -54 -21q-36 0 -62.5 26.5t-26.5 62.5q0 34 27 61q72 72 91 89q39 35 68 35q30 0 69 -35q13 -12 91 -89q27 -27 27 -61q0 -37 -26.5 -63t-63.5 -26z" />
    <glyph glyph-name="Otilde" unicode="&#xd5;" horiz-adv-x="769" 
d="M412 -31q-159 0 -268.5 109.5t-109.5 268.5t109.5 268.5t268.5 109.5t268.5 -109.5t109.5 -268.5t-109.5 -268.5t-268.5 -109.5zM412 550q-87 0 -145 -58t-58 -145q0 -86 58.5 -144.5t144.5 -58.5t144.5 58.5t58.5 144.5t-58.5 144.5t-144.5 58.5zM468 920q24 22 55 22
q37 0 63.5 -26t26.5 -63q0 -44 -42.5 -78t-88.5 -34q-41 0 -107 35q-25 -23 -57 -23q-36 0 -62.5 26.5t-26.5 62.5q0 45 44 79q41 33 87 33q31 0 108 -34z" />
    <glyph glyph-name="Odieresis" unicode="&#xd6;" horiz-adv-x="769" 
d="M412 -31q-159 0 -268.5 109.5t-109.5 268.5t109.5 268.5t268.5 109.5t268.5 -109.5t109.5 -268.5t-109.5 -268.5t-268.5 -109.5zM412 550q-87 0 -145 -58t-58 -145q0 -86 58.5 -144.5t144.5 -58.5t144.5 58.5t58.5 144.5t-58.5 144.5t-144.5 58.5zM539 745q-43 0 -73 30
t-30 73q0 44 29.5 73t73.5 29q42 0 72 -30t30 -72q0 -44 -29 -73.5t-73 -29.5zM307 745q-43 0 -73 30t-30 73t30 72.5t73 29.5t73 -29.5t30 -72.5t-30 -73t-73 -30z" />
    <glyph glyph-name="Oslash" unicode="&#xd8;" horiz-adv-x="769" 
d="M412 -31q-159 0 -268.5 109.5t-109.5 268.5t109.5 268.5t268.5 109.5t268.5 -109.5t109.5 -268.5t-109.5 -268.5t-268.5 -109.5zM412 550q-87 0 -145 -58t-58 -145q0 -86 58.5 -144.5t144.5 -58.5t144.5 58.5t58.5 144.5t-58.5 144.5t-144.5 58.5z" />
    <glyph glyph-name="Ugrave" unicode="&#xd9;" horiz-adv-x="486" 
d="M270 -29q-101 0 -168.5 67.5t-67.5 168.5v431q0 38 24.5 62.5t62.5 24.5t63 -24.5t25 -62.5v-431q0 -26 17.5 -43.5t43.5 -17.5t43 17.5t17 43.5v432q0 37 25.5 62.5t62.5 25.5q38 0 62.5 -25t24.5 -63v-432q0 -100 -67.5 -168t-167.5 -68zM337 740q-21 -9 -40 -9
q-67 0 -94 63q-10 22 -30 65q-25 58 -25 88q0 45 28.5 74t73.5 29q67 0 95 -63q11 -22 31 -66q24 -57 24 -87q0 -67 -63 -94z" />
    <glyph glyph-name="Uacute" unicode="&#xda;" horiz-adv-x="486" 
d="M422 908l-47 -114q-26 -63 -95 -63q-43 0 -72.5 30t-29.5 73q0 30 24 87q11 22 31 66q28 63 94 63q45 0 74 -29t29 -74q0 -20 -8 -39zM270 -29q-101 0 -168.5 67.5t-67.5 168.5v431q0 38 24.5 62.5t62.5 24.5t63 -24.5t25 -62.5v-431q0 -26 17.5 -43.5t43.5 -17.5
t43 17.5t17 43.5v432q0 37 25.5 62.5t62.5 25.5q38 0 62.5 -25t24.5 -63v-432q0 -100 -67.5 -168t-167.5 -68z" />
    <glyph glyph-name="Ucircumflex" unicode="&#xdb;" horiz-adv-x="486" 
d="M270 -29q-101 0 -168.5 67.5t-67.5 168.5v431q0 38 24.5 62.5t62.5 24.5t63 -24.5t25 -62.5v-431q0 -26 17.5 -43.5t43.5 -17.5t43 17.5t17 43.5v432q0 37 25.5 62.5t62.5 25.5q38 0 62.5 -25t24.5 -63v-432q0 -100 -67.5 -168t-167.5 -68zM369 735q-28 0 -54 21
q-4 2 -43 41q-39 -39 -43 -41q-26 -21 -54 -21q-36 0 -62.5 26.5t-26.5 62.5q0 34 27 61q72 72 91 89q39 35 68 35q30 0 69 -35q13 -12 91 -89q27 -27 27 -61q0 -37 -26.5 -63t-63.5 -26z" />
    <glyph glyph-name="Udieresis" unicode="&#xdc;" horiz-adv-x="486" 
d="M270 -29q-101 0 -168.5 67.5t-67.5 168.5v431q0 38 24.5 62.5t62.5 24.5t63 -24.5t25 -62.5v-431q0 -26 17.5 -43.5t43.5 -17.5t43 17.5t17 43.5v432q0 37 25.5 62.5t62.5 25.5q38 0 62.5 -25t24.5 -63v-432q0 -100 -67.5 -168t-167.5 -68zM409 745q-43 0 -73 30t-30 73
q0 44 29.5 73t73.5 29q42 0 72 -30t30 -72q0 -44 -29 -73.5t-73 -29.5zM177 745q-43 0 -73 30t-30 73t30 72.5t73 29.5t73 -29.5t30 -72.5t-30 -73t-73 -30z" />
    <glyph glyph-name="Yacute" unicode="&#xdd;" horiz-adv-x="486" 
d="M412 908l-47 -114q-26 -63 -95 -63q-43 0 -72.5 30t-29.5 73q0 30 24 87q11 22 31 66q28 63 94 63q45 0 74 -29t29 -74q0 -20 -8 -39zM270 -29q-101 0 -168.5 67.5t-67.5 168.5v10q0 38 24.5 62.5t62.5 24.5t63 -24.5t25 -62.5v-10q0 -26 17.5 -43.5t43.5 -17.5t43 17.5
t17 43.5v68q-29 -8 -60 -8q-101 0 -168.5 67.5t-67.5 168.5v135q0 38 24.5 62.5t62.5 24.5t63 -24.5t25 -62.5v-135q0 -26 17.5 -43.5t43.5 -17.5t43 17.5t17 43.5v135q0 37 25.5 62t62.5 25q38 0 62.5 -24.5t24.5 -62.5v-431q0 -100 -67.5 -168t-167.5 -68z" />
    <glyph glyph-name="Thorn" unicode="&#xde;" horiz-adv-x="1103" 
d="M1119 520q33 -44 33 -89q0 -56 -46 -99q5 -14 5 -26q0 -46 -66 -55q1 -8 1 -16q0 -73 -87 -90q-13 -79 -93 -79q-45 0 -97 23v-1q-4 2 -9 6q-38 -28 -75 -56q-48 -35 -83 -35q-79 0 -199 117v-1q-68 -31 -126 -31q-59 0 -105 32q-35 25 -55 63q-18 32 -14 42
q-48 26 -74 61q78 -1 105 36q-65 0 -83 93q99 53 131 109q-105 -10 -137 78q181 35 224 141q32 112 114 199q105 112 201 40q27 4 53 4q181 0 302 -175q50 -73 84 -175q8 -31 8 -70q0 -49 -14 -95q29 -20 51 -20q43 0 51 69zM870 503q-13 54 -42 105q-70 122 -208 211
q-109 4 -156 -86q-20 -38 -26 -91q-1 -40 -8 -74q13 2 29 2q75 0 101 -37q-5 -4 -17 -4q-22 0 -60 13q-32 13 -56 12q-9 -33 -21 -58q-28 -61 -66 -76q-6 -8 -25 -19q25 -120 67 -173q69 -86 100 -115q64 -59 120 -59t119 59q31 29 100 116q40 49 47 126q2 16 2 148z
M844 536q-8 -5 -21 1q-22 13 -42 13q-22 0 -52 -11q-37 -14 -59 -14q-12 0 -17 5q26 36 100 36q18 0 33.5 -2.5t26.5 -6.5q27 -9 31 -21zM822 446q-12 -12 -25 -12q-12 0 -22.5 10t-26.5 15q4 -8 4 -17q0 -14 -10 -24t-24 -10t-24 10t-10 24q0 12 8 21q-23 -9 -23 -24
q0 -4 2 -9l-17 5q5 12 13 20q18 21 46 22v-1q2 1 5 1q35 1 57 -11q6 -4 13 -4q14 0 24 13q2 -18 -17 -22q13 -11 27 -7zM565 434l-17 -5q1 4 1 8q0 22 -32 26q7 -9 7 -20q0 -14 -9.5 -23.5t-23.5 -9.5t-23.5 9.5t-9.5 23.5q0 9 4 16q-11 -4 -17 -11q-14 -18 -30 -18
q-10 0 -19 7q8 0 21 13q-16 3 -16 15q0 5 3 10q18 -14 26 -14q1 0 17.5 9t45.5 8q19 -2 32 -7q34 -12 40 -37zM692 215h-176q30 58 88 58q59 0 88 -58zM691 205q-9 -31 -31 -52q-25 -23 -55 -23q-31 0 -54.5 22t-32.5 53h10q29 -23 77 -23t72 23h14zM721 442q0 5 -5 5t-5 -5
t5 -5t5 5zM718 428q0 9 -9 9q-8 0 -8 -9t8 -9q9 0 9 9zM495 442q0 5 -6 5q-5 0 -5 -5t5 -5q6 0 6 5zM491 428q0 9 -9 9q-8 0 -8 -9t8 -9q9 0 9 9z" />
    <glyph glyph-name="germandbls" unicode="&#xdf;" horiz-adv-x="477" 
d="M209 436l55 1q24 0 41 16.5t17 40.5t-16.5 40t-40.5 16q-23 0 -39.5 -16.5t-16.5 -39.5v-58zM209 146h58q23 0 39 16.5t16 39.5q0 26 -19.5 42t-46 19t-47.5 17v-134zM265 -29q-32 0 -56 19v-124q0 -38 -24.5 -63t-62.5 -25t-63 25t-25 63v628q0 98 66.5 164.5
t164.5 66.5t165 -66.5t67 -164.5q0 -84 -52 -147q52 -62 52 -145q0 -98 -67 -164.5t-165 -66.5z" />
    <glyph glyph-name="agrave" unicode="&#xe0;" 
d="M497 -29q-38 0 -62.5 24.5t-24.5 62.5v187q0 42 -29.5 71t-71.5 29t-71 -29t-29 -71t29 -71.5t71 -29.5q38 0 63 -24.5t25 -62.5t-25 -63t-63 -25q-117 0 -196 79.5t-79 196.5t79 196t196 79t196.5 -79t79.5 -196v-187q0 -38 -25 -62.5t-63 -24.5zM337 540q-21 -9 -40 -9
q-67 0 -94 63q-10 22 -30 65q-25 58 -25 88q0 45 28.5 74t73.5 29q67 0 95 -63q11 -22 31 -66q24 -57 24 -87q0 -67 -63 -94z" />
    <glyph glyph-name="aacute" unicode="&#xe1;" 
d="M432 708l-47 -114q-26 -63 -95 -63q-43 0 -72.5 30t-29.5 73q0 30 24 87q11 22 31 66q28 63 94 63q45 0 74 -29t29 -74q0 -20 -8 -39zM497 -29q-38 0 -62.5 24.5t-24.5 62.5v187q0 42 -29.5 71t-71.5 29t-71 -29t-29 -71t29 -71.5t71 -29.5q38 0 63 -24.5t25 -62.5
t-25 -63t-63 -25q-117 0 -196 79.5t-79 196.5t79 196t196 79t196.5 -79t79.5 -196v-187q0 -38 -25 -62.5t-63 -24.5z" />
    <glyph glyph-name="acircumflex" unicode="&#xe2;" 
d="M497 -29q-38 0 -62.5 24.5t-24.5 62.5v187q0 42 -29.5 71t-71.5 29t-71 -29t-29 -71t29 -71.5t71 -29.5q38 0 63 -24.5t25 -62.5t-25 -63t-63 -25q-117 0 -196 79.5t-79 196.5t79 196t196 79t196.5 -79t79.5 -196v-187q0 -38 -25 -62.5t-63 -24.5zM419 535q-28 0 -54 21
q-4 2 -43 41q-39 -39 -43 -41q-26 -21 -54 -21q-36 0 -62.5 26.5t-26.5 62.5q0 34 27 61q72 72 91 89q39 35 68 35q30 0 69 -35q13 -12 91 -89q27 -27 27 -61q0 -37 -26.5 -63t-63.5 -26z" />
    <glyph glyph-name="atilde" unicode="&#xe3;" 
d="M497 -29q-38 0 -62.5 24.5t-24.5 62.5v187q0 42 -29.5 71t-71.5 29t-71 -29t-29 -71t29 -71.5t71 -29.5q38 0 63 -24.5t25 -62.5t-25 -63t-63 -25q-117 0 -196 79.5t-79 196.5t79 196t196 79t196.5 -79t79.5 -196v-187q0 -38 -25 -62.5t-63 -24.5zM358 720q24 22 55 22
q37 0 63.5 -26t26.5 -63q0 -44 -42.5 -78t-88.5 -34q-41 0 -107 35q-25 -23 -57 -23q-36 0 -62.5 26.5t-26.5 62.5q0 45 44 79q41 33 87 33q31 0 108 -34z" />
    <glyph glyph-name="adieresis" unicode="&#xe4;" 
d="M497 -29q-38 0 -62.5 24.5t-24.5 62.5v187q0 42 -29.5 71t-71.5 29t-71 -29t-29 -71t29 -71.5t71 -29.5q38 0 63 -24.5t25 -62.5t-25 -63t-63 -25q-117 0 -196 79.5t-79 196.5t79 196t196 79t196.5 -79t79.5 -196v-187q0 -38 -25 -62.5t-63 -24.5zM439 545q-43 0 -73 30
t-30 73q0 44 29.5 73t73.5 29q42 0 72 -30t30 -72q0 -44 -29 -73.5t-73 -29.5zM207 545q-43 0 -73 30t-30 73t30 72.5t73 29.5t73 -29.5t30 -72.5t-30 -73t-73 -30z" />
    <glyph glyph-name="aring" unicode="&#xe5;" 
d="M497 -29q-38 0 -62.5 24.5t-24.5 62.5v187q0 42 -29.5 71t-71.5 29t-71 -29t-29 -71t29 -71.5t71 -29.5q38 0 63 -24.5t25 -62.5t-25 -63t-63 -25q-117 0 -196 79.5t-79 196.5t79 196t196 79t196.5 -79t79.5 -196v-187q0 -38 -25 -62.5t-63 -24.5zM298 537q-52 0 -88 36
t-36 88t36 88t88 36t88 -36t36 -88t-36 -88t-88 -36zM298 670q-9 0 -9 -9t9 -9t9 9t-9 9z" />
    <glyph glyph-name="ae" unicode="&#xe6;" horiz-adv-x="891" 
d="M662 343q-34 -8 -55.5 -35.5t-21.5 -62.5q0 -42 29 -71.5t71 -29.5h89q38 0 63 -24.5t25 -62.5q0 -37 -25.5 -62.5t-62.5 -25.5h-89q-116 0 -195.5 80t-79.5 196q0 42 -29.5 71t-71.5 29t-71 -29t-29 -71t29 -71.5t71 -29.5q38 0 63 -24.5t25 -62.5t-25 -63t-63 -25
q-117 0 -196 79.5t-79 196.5t79 196t196 79q110 0 188 -74q78 74 188 74q118 0 199 -84q26 -27 26 -60q0 -42 -36 -70l-127 -124q-28 -27 -60 -27q-36 0 -63 27t-27 63q0 28 22 55z" />
    <glyph glyph-name="ccedilla" unicode="&#xe7;" horiz-adv-x="377" 
d="M309 -29q-116 0 -195.5 79.5t-79.5 195.5q0 117 79 196.5t196 79.5q38 0 63 -25t25 -63t-25 -62.5t-63 -24.5q-42 0 -71 -29.5t-29 -71.5t29 -71t71 -29q38 0 63 -25t25 -63t-25 -62.5t-63 -24.5zM254 -221q-43 0 -73 30t-30 73t30 73t73 30t72.5 -30t29.5 -73t-29.5 -73
t-72.5 -30z" />
    <glyph glyph-name="egrave" unicode="&#xe8;" horiz-adv-x="514" 
d="M286 343q-34 -8 -55.5 -35.5t-21.5 -62.5q0 -42 29 -71.5t71 -29.5h89q38 0 62.5 -24.5t24.5 -62.5t-24.5 -63t-62.5 -25h-89q-117 0 -196 79.5t-79 196.5t79 196t196 79q118 0 199 -84q26 -27 26 -60q0 -42 -36 -70l-127 -124q-28 -27 -61 -27q-37 0 -63 26.5t-26 63.5
q0 28 22 55zM337 540q-21 -9 -40 -9q-67 0 -94 63q-10 22 -30 65q-25 58 -25 88q0 45 28.5 74t73.5 29q67 0 95 -63q11 -22 31 -66q24 -57 24 -87q0 -67 -63 -94z" />
    <glyph glyph-name="eacute" unicode="&#xe9;" horiz-adv-x="514" 
d="M432 708l-47 -114q-26 -63 -95 -63q-43 0 -72.5 30t-29.5 73q0 30 24 87q11 22 31 66q28 63 94 63q45 0 74 -29t29 -74q0 -20 -8 -39zM286 343q-34 -8 -55.5 -35.5t-21.5 -62.5q0 -42 29 -71.5t71 -29.5h89q38 0 62.5 -24.5t24.5 -62.5t-24.5 -63t-62.5 -25h-89
q-117 0 -196 79.5t-79 196.5t79 196t196 79q118 0 199 -84q26 -27 26 -60q0 -42 -36 -70l-127 -124q-28 -27 -61 -27q-37 0 -63 26.5t-26 63.5q0 28 22 55z" />
    <glyph glyph-name="ecircumflex" unicode="&#xea;" horiz-adv-x="514" 
d="M286 343q-34 -8 -55.5 -35.5t-21.5 -62.5q0 -42 29 -71.5t71 -29.5h89q38 0 62.5 -24.5t24.5 -62.5t-24.5 -63t-62.5 -25h-89q-117 0 -196 79.5t-79 196.5t79 196t196 79q118 0 199 -84q26 -27 26 -60q0 -42 -36 -70l-127 -124q-28 -27 -61 -27q-37 0 -63 26.5t-26 63.5
q0 28 22 55zM409 535q-28 0 -54 21q-4 2 -43 41q-39 -39 -43 -41q-26 -21 -54 -21q-36 0 -62.5 26.5t-26.5 62.5q0 34 27 61q72 72 91 89q39 35 68 35q30 0 69 -35q13 -12 91 -89q27 -27 27 -61q0 -37 -26.5 -63t-63.5 -26z" />
    <glyph glyph-name="edieresis" unicode="&#xeb;" horiz-adv-x="514" 
d="M286 343q-34 -8 -55.5 -35.5t-21.5 -62.5q0 -42 29 -71.5t71 -29.5h89q38 0 62.5 -24.5t24.5 -62.5t-24.5 -63t-62.5 -25h-89q-117 0 -196 79.5t-79 196.5t79 196t196 79q118 0 199 -84q26 -27 26 -60q0 -42 -36 -70l-127 -124q-28 -27 -61 -27q-37 0 -63 26.5t-26 63.5
q0 28 22 55zM429 545q-43 0 -73 30t-30 73q0 44 29.5 73t73.5 29q42 0 72 -30t30 -72q0 -44 -29 -73.5t-73 -29.5zM197 545q-43 0 -73 30t-30 73t30 72.5t73 29.5t73 -29.5t30 -72.5t-30 -73t-73 -30z" />
    <glyph glyph-name="igrave" unicode="&#xec;" horiz-adv-x="190" 
d="M121 -29q-38 0 -62.5 24.5t-24.5 62.5v375q0 38 24.5 62.5t62.5 24.5q39 0 63.5 -24t24.5 -63v-375q0 -38 -25 -62.5t-63 -24.5zM137 540q-21 -9 -40 -9q-67 0 -94 63q-10 22 -30 65q-25 58 -25 88q0 45 28.5 74t73.5 29q67 0 95 -63q11 -22 31 -66q24 -57 24 -87
q0 -67 -63 -94z" />
    <glyph glyph-name="iacute" unicode="&#xed;" horiz-adv-x="190" 
d="M242 708l-47 -114q-26 -63 -95 -63q-43 0 -72.5 30t-29.5 73q0 30 24 87q11 22 31 66q28 63 94 63q45 0 74 -29t29 -74q0 -20 -8 -39zM121 -29q-38 0 -62.5 24.5t-24.5 62.5v375q0 38 24.5 62.5t62.5 24.5q39 0 63.5 -24t24.5 -63v-375q0 -38 -25 -62.5t-63 -24.5z" />
    <glyph glyph-name="icircumflex" unicode="&#xee;" horiz-adv-x="190" 
d="M121 -29q-38 0 -62.5 24.5t-24.5 62.5v375q0 38 24.5 62.5t62.5 24.5q39 0 63.5 -24t24.5 -63v-375q0 -38 -25 -62.5t-63 -24.5zM219 535q-28 0 -54 21q-4 2 -43 41q-39 -39 -43 -41q-26 -21 -54 -21q-36 0 -62.5 26.5t-26.5 62.5q0 34 27 61q72 72 91 89q39 35 68 35
q30 0 69 -35q13 -12 91 -89q27 -27 27 -61q0 -37 -26.5 -63t-63.5 -26z" />
    <glyph glyph-name="idieresis" unicode="&#xef;" horiz-adv-x="190" 
d="M121 -29q-38 0 -62.5 24.5t-24.5 62.5v375q0 38 24.5 62.5t62.5 24.5q39 0 63.5 -24t24.5 -63v-375q0 -38 -25 -62.5t-63 -24.5zM249 545q-43 0 -73 30t-30 73q0 44 29.5 73t73.5 29q42 0 72 -30t30 -72q0 -44 -29 -73.5t-73 -29.5zM17 545q-43 0 -73 30t-30 73t30 72.5
t73 29.5t73 -29.5t30 -72.5t-30 -73t-73 -30z" />
    <glyph glyph-name="eth" unicode="&#xf0;" horiz-adv-x="1103" 
d="M1119 520q33 -44 33 -89q0 -56 -46 -99q5 -14 5 -26q0 -46 -66 -55q1 -8 1 -16q0 -73 -87 -90q-13 -79 -93 -79q-45 0 -97 23v-1q-4 2 -9 6q-38 -28 -75 -56q-48 -35 -83 -35q-79 0 -199 117v-1q-68 -31 -126 -31q-59 0 -105 32q-35 25 -55 63q-18 32 -14 42
q-48 26 -74 61q78 -1 105 36q-65 0 -83 93q99 53 131 109q-105 -10 -137 78q181 35 224 141q32 112 114 199q105 112 201 40q27 4 53 4q181 0 302 -175q50 -73 84 -175q8 -31 8 -70q0 -49 -14 -95q29 -20 51 -20q43 0 51 69zM870 503q-13 54 -42 105q-70 122 -208 211
q-109 4 -156 -86q-20 -38 -26 -91q-1 -40 -8 -74q13 2 29 2q75 0 101 -37q-5 -4 -17 -4q-22 0 -60 13q-32 13 -56 12q-9 -33 -21 -58q-28 -61 -66 -76q-6 -8 -25 -19q25 -120 67 -173q69 -86 100 -115q64 -59 120 -59t119 59q31 29 100 116q40 49 47 126q2 16 2 148z
M844 536q-8 -5 -21 1q-22 13 -42 13q-22 0 -52 -11q-37 -14 -59 -14q-12 0 -17 5q26 36 100 36q18 0 33.5 -2.5t26.5 -6.5q27 -9 31 -21zM822 446q-12 -12 -25 -12q-12 0 -22.5 10t-26.5 15q4 -8 4 -17q0 -14 -10 -24t-24 -10t-24 10t-10 24q0 12 8 21q-23 -9 -23 -24
q0 -4 2 -9l-17 5q5 12 13 20q18 21 46 22v-1q2 1 5 1q35 1 57 -11q6 -4 13 -4q14 0 24 13q2 -18 -17 -22q13 -11 27 -7zM565 434l-17 -5q1 4 1 8q0 22 -32 26q7 -9 7 -20q0 -14 -9.5 -23.5t-23.5 -9.5t-23.5 9.5t-9.5 23.5q0 9 4 16q-11 -4 -17 -11q-14 -18 -30 -18
q-10 0 -19 7q8 0 21 13q-16 3 -16 15q0 5 3 10q18 -14 26 -14q1 0 17.5 9t45.5 8q19 -2 32 -7q34 -12 40 -37zM692 215h-176q30 58 88 58q59 0 88 -58zM691 205q-9 -31 -31 -52q-25 -23 -55 -23q-31 0 -54.5 22t-32.5 53h10q29 -23 77 -23t72 23h14zM721 442q0 5 -5 5t-5 -5
t5 -5t5 5zM718 428q0 9 -9 9q-8 0 -8 -9t8 -9q9 0 9 9zM495 442q0 5 -6 5q-5 0 -5 -5t5 -5q6 0 6 5zM491 428q0 9 -9 9q-8 0 -8 -9t8 -9q9 0 9 9z" />
    <glyph glyph-name="ntilde" unicode="&#xf1;" horiz-adv-x="486" 
d="M571 -249h-4q-101 0 -168.5 67.5t-67.5 168.5v47l-1 251q0 25 -17.5 42.5t-42.5 17.5q-26 0 -43.5 -17t-17.5 -43v-227q0 -38 -25 -62.5t-63 -24.5t-62.5 24.5t-24.5 62.5v227q0 100 68 167.5t168 67.5t168 -67.5t68 -167.5v-298q0 -26 17.5 -43.5t43.5 -17.5h4
q38 0 63 -25t25 -63t-25 -62.5t-63 -24.5zM318 720q24 22 55 22q37 0 63.5 -26t26.5 -63q0 -44 -42.5 -78t-88.5 -34q-41 0 -107 35q-25 -23 -57 -23q-36 0 -62.5 26.5t-26.5 62.5q0 45 44 79q41 33 87 33q31 0 108 -34z" />
    <glyph glyph-name="ograve" unicode="&#xf2;" horiz-adv-x="566" 
d="M309 -31q-117 0 -196 79.5t-79 196.5t79 196t196 79t196.5 -79t79.5 -196t-79.5 -196.5t-196.5 -79.5zM309 345q-42 0 -71 -29t-29 -71t29 -71.5t71 -29.5t71.5 29.5t29.5 71.5t-29.5 71t-71.5 29zM337 540q-21 -9 -40 -9q-67 0 -94 63q-10 22 -30 65q-25 58 -25 88
q0 45 28.5 74t73.5 29q67 0 95 -63q11 -22 31 -66q24 -57 24 -87q0 -67 -63 -94z" />
    <glyph glyph-name="oacute" unicode="&#xf3;" horiz-adv-x="566" 
d="M432 708l-47 -114q-26 -63 -95 -63q-43 0 -72.5 30t-29.5 73q0 30 24 87q11 22 31 66q28 63 94 63q45 0 74 -29t29 -74q0 -20 -8 -39zM309 -31q-117 0 -196 79.5t-79 196.5t79 196t196 79t196.5 -79t79.5 -196t-79.5 -196.5t-196.5 -79.5zM309 345q-42 0 -71 -29t-29 -71
t29 -71.5t71 -29.5t71.5 29.5t29.5 71.5t-29.5 71t-71.5 29z" />
    <glyph glyph-name="ocircumflex" unicode="&#xf4;" horiz-adv-x="566" 
d="M309 -31q-117 0 -196 79.5t-79 196.5t79 196t196 79t196.5 -79t79.5 -196t-79.5 -196.5t-196.5 -79.5zM309 345q-42 0 -71 -29t-29 -71t29 -71.5t71 -29.5t71.5 29.5t29.5 71.5t-29.5 71t-71.5 29zM409 535q-28 0 -54 21q-4 2 -43 41q-39 -39 -43 -41q-26 -21 -54 -21
q-36 0 -62.5 26.5t-26.5 62.5q0 34 27 61q72 72 91 89q39 35 68 35q30 0 69 -35q13 -12 91 -89q27 -27 27 -61q0 -37 -26.5 -63t-63.5 -26z" />
    <glyph glyph-name="otilde" unicode="&#xf5;" horiz-adv-x="566" 
d="M309 -31q-117 0 -196 79.5t-79 196.5t79 196t196 79t196.5 -79t79.5 -196t-79.5 -196.5t-196.5 -79.5zM309 345q-42 0 -71 -29t-29 -71t29 -71.5t71 -29.5t71.5 29.5t29.5 71.5t-29.5 71t-71.5 29zM368 720q24 22 55 22q37 0 63.5 -26t26.5 -63q0 -44 -42.5 -78
t-88.5 -34q-41 0 -107 35q-25 -23 -57 -23q-36 0 -62.5 26.5t-26.5 62.5q0 45 44 79q41 33 87 33q31 0 108 -34z" />
    <glyph glyph-name="odieresis" unicode="&#xf6;" horiz-adv-x="566" 
d="M309 -31q-117 0 -196 79.5t-79 196.5t79 196t196 79t196.5 -79t79.5 -196t-79.5 -196.5t-196.5 -79.5zM309 345q-42 0 -71 -29t-29 -71t29 -71.5t71 -29.5t71.5 29.5t29.5 71.5t-29.5 71t-71.5 29zM439 545q-43 0 -73 30t-30 73q0 44 29.5 73t73.5 29q42 0 72 -30t30 -72
q0 -44 -29 -73.5t-73 -29.5zM207 545q-43 0 -73 30t-30 73t30 72.5t73 29.5t73 -29.5t30 -72.5t-30 -73t-73 -30z" />
    <glyph glyph-name="divide" unicode="&#xf7;" horiz-adv-x="1103" 
d="M1119 520q33 -44 33 -89q0 -56 -46 -99q5 -14 5 -26q0 -46 -66 -55q1 -8 1 -16q0 -73 -87 -90q-13 -79 -93 -79q-45 0 -97 23v-1q-4 2 -9 6q-38 -28 -75 -56q-48 -35 -83 -35q-79 0 -199 117v-1q-68 -31 -126 -31q-59 0 -105 32q-35 25 -55 63q-18 32 -14 42
q-48 26 -74 61q78 -1 105 36q-65 0 -83 93q99 53 131 109q-105 -10 -137 78q181 35 224 141q32 112 114 199q105 112 201 40q27 4 53 4q181 0 302 -175q50 -73 84 -175q8 -31 8 -70q0 -49 -14 -95q29 -20 51 -20q43 0 51 69zM870 503q-13 54 -42 105q-70 122 -208 211
q-109 4 -156 -86q-20 -38 -26 -91q-1 -40 -8 -74q13 2 29 2q75 0 101 -37q-5 -4 -17 -4q-22 0 -60 13q-32 13 -56 12q-9 -33 -21 -58q-28 -61 -66 -76q-6 -8 -25 -19q25 -120 67 -173q69 -86 100 -115q64 -59 120 -59t119 59q31 29 100 116q40 49 47 126q2 16 2 148z
M844 536q-8 -5 -21 1q-22 13 -42 13q-22 0 -52 -11q-37 -14 -59 -14q-12 0 -17 5q26 36 100 36q18 0 33.5 -2.5t26.5 -6.5q27 -9 31 -21zM822 446q-12 -12 -25 -12q-12 0 -22.5 10t-26.5 15q4 -8 4 -17q0 -14 -10 -24t-24 -10t-24 10t-10 24q0 12 8 21q-23 -9 -23 -24
q0 -4 2 -9l-17 5q5 12 13 20q18 21 46 22v-1q2 1 5 1q35 1 57 -11q6 -4 13 -4q14 0 24 13q2 -18 -17 -22q13 -11 27 -7zM565 434l-17 -5q1 4 1 8q0 22 -32 26q7 -9 7 -20q0 -14 -9.5 -23.5t-23.5 -9.5t-23.5 9.5t-9.5 23.5q0 9 4 16q-11 -4 -17 -11q-14 -18 -30 -18
q-10 0 -19 7q8 0 21 13q-16 3 -16 15q0 5 3 10q18 -14 26 -14q1 0 17.5 9t45.5 8q19 -2 32 -7q34 -12 40 -37zM692 215h-176q30 58 88 58q59 0 88 -58zM691 205q-9 -31 -31 -52q-25 -23 -55 -23q-31 0 -54.5 22t-32.5 53h10q29 -23 77 -23t72 23h14zM721 442q0 5 -5 5t-5 -5
t5 -5t5 5zM718 428q0 9 -9 9q-8 0 -8 -9t8 -9q9 0 9 9zM495 442q0 5 -6 5q-5 0 -5 -5t5 -5q6 0 6 5zM491 428q0 9 -9 9q-8 0 -8 -9t8 -9q9 0 9 9z" />
    <glyph glyph-name="oslash" unicode="&#xf8;" horiz-adv-x="769" 
d="M412 -31q-159 0 -268.5 109.5t-109.5 268.5t109.5 268.5t268.5 109.5t268.5 -109.5t109.5 -268.5t-109.5 -268.5t-268.5 -109.5zM412 550q-87 0 -145 -58t-58 -145q0 -86 58.5 -144.5t144.5 -58.5t144.5 58.5t58.5 144.5t-58.5 144.5t-144.5 58.5z" />
    <glyph glyph-name="ugrave" unicode="&#xf9;" horiz-adv-x="486" 
d="M270 -29q-101 0 -168.5 67.5t-67.5 168.5v224q0 38 24.5 63t62.5 25t63 -25t25 -63v-224q0 -26 17.5 -43.5t43.5 -17.5t43 17.5t17 43.5v226q0 38 25 62.5t63 24.5t62.5 -24.5t24.5 -62.5v-226q0 -100 -67.5 -168t-167.5 -68zM317 540q-21 -9 -40 -9q-67 0 -94 63
q-10 22 -30 65q-25 58 -25 88q0 45 28.5 74t73.5 29q67 0 95 -63q11 -22 31 -66q24 -57 24 -87q0 -67 -63 -94z" />
    <glyph glyph-name="uacute" unicode="&#xfa;" horiz-adv-x="486" 
d="M422 708l-47 -114q-26 -63 -95 -63q-43 0 -72.5 30t-29.5 73q0 30 24 87q11 22 31 66q28 63 94 63q45 0 74 -29t29 -74q0 -20 -8 -39zM270 -29q-101 0 -168.5 67.5t-67.5 168.5v224q0 38 24.5 63t62.5 25t63 -25t25 -63v-224q0 -26 17.5 -43.5t43.5 -17.5t43 17.5
t17 43.5v226q0 38 25 62.5t63 24.5t62.5 -24.5t24.5 -62.5v-226q0 -100 -67.5 -168t-167.5 -68z" />
    <glyph glyph-name="ucircumflex" unicode="&#xfb;" horiz-adv-x="486" 
d="M270 -29q-101 0 -168.5 67.5t-67.5 168.5v224q0 38 24.5 63t62.5 25t63 -25t25 -63v-224q0 -26 17.5 -43.5t43.5 -17.5t43 17.5t17 43.5v226q0 38 25 62.5t63 24.5t62.5 -24.5t24.5 -62.5v-226q0 -100 -67.5 -168t-167.5 -68zM379 535q-28 0 -54 21q-4 2 -43 41
q-39 -39 -43 -41q-26 -21 -54 -21q-36 0 -62.5 26.5t-26.5 62.5q0 34 27 61q72 72 91 89q39 35 68 35q30 0 69 -35q13 -12 91 -89q27 -27 27 -61q0 -37 -26.5 -63t-63.5 -26z" />
    <glyph glyph-name="udieresis" unicode="&#xfc;" horiz-adv-x="486" 
d="M270 -29q-101 0 -168.5 67.5t-67.5 168.5v224q0 38 24.5 63t62.5 25t63 -25t25 -63v-224q0 -26 17.5 -43.5t43.5 -17.5t43 17.5t17 43.5v226q0 38 25 62.5t63 24.5t62.5 -24.5t24.5 -62.5v-226q0 -100 -67.5 -168t-167.5 -68zM399 545q-43 0 -73 30t-30 73q0 44 29.5 73
t73.5 29q42 0 72 -30t30 -72q0 -44 -29 -73.5t-73 -29.5zM167 545q-43 0 -73 30t-30 73t30 72.5t73 29.5t73 -29.5t30 -72.5t-30 -73t-73 -30z" />
    <glyph glyph-name="thorn" unicode="&#xfe;" horiz-adv-x="1103" 
d="M1119 520q33 -44 33 -89q0 -56 -46 -99q5 -14 5 -26q0 -46 -66 -55q1 -8 1 -16q0 -73 -87 -90q-13 -79 -93 -79q-45 0 -97 23v-1q-4 2 -9 6q-38 -28 -75 -56q-48 -35 -83 -35q-79 0 -199 117v-1q-68 -31 -126 -31q-59 0 -105 32q-35 25 -55 63q-18 32 -14 42
q-48 26 -74 61q78 -1 105 36q-65 0 -83 93q99 53 131 109q-105 -10 -137 78q181 35 224 141q32 112 114 199q105 112 201 40q27 4 53 4q181 0 302 -175q50 -73 84 -175q8 -31 8 -70q0 -49 -14 -95q29 -20 51 -20q43 0 51 69zM870 503q-13 54 -42 105q-70 122 -208 211
q-109 4 -156 -86q-20 -38 -26 -91q-1 -40 -8 -74q13 2 29 2q75 0 101 -37q-5 -4 -17 -4q-22 0 -60 13q-32 13 -56 12q-9 -33 -21 -58q-28 -61 -66 -76q-6 -8 -25 -19q25 -120 67 -173q69 -86 100 -115q64 -59 120 -59t119 59q31 29 100 116q40 49 47 126q2 16 2 148z
M844 536q-8 -5 -21 1q-22 13 -42 13q-22 0 -52 -11q-37 -14 -59 -14q-12 0 -17 5q26 36 100 36q18 0 33.5 -2.5t26.5 -6.5q27 -9 31 -21zM822 446q-12 -12 -25 -12q-12 0 -22.5 10t-26.5 15q4 -8 4 -17q0 -14 -10 -24t-24 -10t-24 10t-10 24q0 12 8 21q-23 -9 -23 -24
q0 -4 2 -9l-17 5q5 12 13 20q18 21 46 22v-1q2 1 5 1q35 1 57 -11q6 -4 13 -4q14 0 24 13q2 -18 -17 -22q13 -11 27 -7zM565 434l-17 -5q1 4 1 8q0 22 -32 26q7 -9 7 -20q0 -14 -9.5 -23.5t-23.5 -9.5t-23.5 9.5t-9.5 23.5q0 9 4 16q-11 -4 -17 -11q-14 -18 -30 -18
q-10 0 -19 7q8 0 21 13q-16 3 -16 15q0 5 3 10q18 -14 26 -14q1 0 17.5 9t45.5 8q19 -2 32 -7q34 -12 40 -37zM692 215h-176q30 58 88 58q59 0 88 -58zM691 205q-9 -31 -31 -52q-25 -23 -55 -23q-31 0 -54.5 22t-32.5 53h10q29 -23 77 -23t72 23h14zM721 442q0 5 -5 5t-5 -5
t5 -5t5 5zM718 428q0 9 -9 9q-8 0 -8 -9t8 -9q9 0 9 9zM495 442q0 5 -6 5q-5 0 -5 -5t5 -5q6 0 6 5zM491 428q0 9 -9 9q-8 0 -8 -9t8 -9q9 0 9 9z" />
    <glyph glyph-name="ydieresis" unicode="&#xff;" horiz-adv-x="486" 
d="M329 -22q-28 -7 -59 -7q-101 0 -168.5 67.5t-67.5 168.5v226q0 38 24.5 62.5t62.5 24.5q39 0 63.5 -24t24.5 -63v-226q0 -26 17.5 -43.5t43.5 -17.5t43 17.5t17 43.5v226q0 38 25 62.5t63 24.5t62.5 -24.5t24.5 -62.5v-446q0 -100 -68 -168t-168 -68h-4q-38 0 -63 24.5
t-25 62.5t25 63t63 25h4q22 0 39.5 15t20.5 37zM399 545q-43 0 -73 30t-30 73q0 44 29.5 73t73.5 29q42 0 72 -30t30 -72q0 -44 -29 -73.5t-73 -29.5zM167 545q-43 0 -73 30t-30 73t30 72.5t73 29.5t73 -29.5t30 -72.5t-30 -73t-73 -30z" />
    <glyph glyph-name="dotlessi" unicode="&#x131;" horiz-adv-x="190" 
d="M121 -29q-38 0 -62.5 24.5t-24.5 62.5v375q0 38 24.5 62.5t62.5 24.5q39 0 63.5 -24t24.5 -63v-375q0 -38 -25 -62.5t-63 -24.5z" />
    <glyph glyph-name="Lslash" unicode="&#x141;" horiz-adv-x="1103" 
d="M1119 520q33 -44 33 -89q0 -56 -46 -99q5 -14 5 -26q0 -46 -66 -55q1 -8 1 -16q0 -73 -87 -90q-13 -79 -93 -79q-45 0 -97 23v-1q-4 2 -9 6q-38 -28 -75 -56q-48 -35 -83 -35q-79 0 -199 117v-1q-68 -31 -126 -31q-59 0 -105 32q-35 25 -55 63q-18 32 -14 42
q-48 26 -74 61q78 -1 105 36q-65 0 -83 93q99 53 131 109q-105 -10 -137 78q181 35 224 141q32 112 114 199q105 112 201 40q27 4 53 4q181 0 302 -175q50 -73 84 -175q8 -31 8 -70q0 -49 -14 -95q29 -20 51 -20q43 0 51 69zM870 503q-13 54 -42 105q-70 122 -208 211
q-109 4 -156 -86q-20 -38 -26 -91q-1 -40 -8 -74q13 2 29 2q75 0 101 -37q-5 -4 -17 -4q-22 0 -60 13q-32 13 -56 12q-9 -33 -21 -58q-28 -61 -66 -76q-6 -8 -25 -19q25 -120 67 -173q69 -86 100 -115q64 -59 120 -59t119 59q31 29 100 116q40 49 47 126q2 16 2 148z
M844 536q-8 -5 -21 1q-22 13 -42 13q-22 0 -52 -11q-37 -14 -59 -14q-12 0 -17 5q26 36 100 36q18 0 33.5 -2.5t26.5 -6.5q27 -9 31 -21zM822 446q-12 -12 -25 -12q-12 0 -22.5 10t-26.5 15q4 -8 4 -17q0 -14 -10 -24t-24 -10t-24 10t-10 24q0 12 8 21q-23 -9 -23 -24
q0 -4 2 -9l-17 5q5 12 13 20q18 21 46 22v-1q2 1 5 1q35 1 57 -11q6 -4 13 -4q14 0 24 13q2 -18 -17 -22q13 -11 27 -7zM565 434l-17 -5q1 4 1 8q0 22 -32 26q7 -9 7 -20q0 -14 -9.5 -23.5t-23.5 -9.5t-23.5 9.5t-9.5 23.5q0 9 4 16q-11 -4 -17 -11q-14 -18 -30 -18
q-10 0 -19 7q8 0 21 13q-16 3 -16 15q0 5 3 10q18 -14 26 -14q1 0 17.5 9t45.5 8q19 -2 32 -7q34 -12 40 -37zM692 215h-176q30 58 88 58q59 0 88 -58zM691 205q-9 -31 -31 -52q-25 -23 -55 -23q-31 0 -54.5 22t-32.5 53h10q29 -23 77 -23t72 23h14zM721 442q0 5 -5 5t-5 -5
t5 -5t5 5zM718 428q0 9 -9 9q-8 0 -8 -9t8 -9q9 0 9 9zM495 442q0 5 -6 5q-5 0 -5 -5t5 -5q6 0 6 5zM491 428q0 9 -9 9q-8 0 -8 -9t8 -9q9 0 9 9z" />
    <glyph glyph-name="lslash" unicode="&#x142;" horiz-adv-x="1103" 
d="M1119 520q33 -44 33 -89q0 -56 -46 -99q5 -14 5 -26q0 -46 -66 -55q1 -8 1 -16q0 -73 -87 -90q-13 -79 -93 -79q-45 0 -97 23v-1q-4 2 -9 6q-38 -28 -75 -56q-48 -35 -83 -35q-79 0 -199 117v-1q-68 -31 -126 -31q-59 0 -105 32q-35 25 -55 63q-18 32 -14 42
q-48 26 -74 61q78 -1 105 36q-65 0 -83 93q99 53 131 109q-105 -10 -137 78q181 35 224 141q32 112 114 199q105 112 201 40q27 4 53 4q181 0 302 -175q50 -73 84 -175q8 -31 8 -70q0 -49 -14 -95q29 -20 51 -20q43 0 51 69zM870 503q-13 54 -42 105q-70 122 -208 211
q-109 4 -156 -86q-20 -38 -26 -91q-1 -40 -8 -74q13 2 29 2q75 0 101 -37q-5 -4 -17 -4q-22 0 -60 13q-32 13 -56 12q-9 -33 -21 -58q-28 -61 -66 -76q-6 -8 -25 -19q25 -120 67 -173q69 -86 100 -115q64 -59 120 -59t119 59q31 29 100 116q40 49 47 126q2 16 2 148z
M844 536q-8 -5 -21 1q-22 13 -42 13q-22 0 -52 -11q-37 -14 -59 -14q-12 0 -17 5q26 36 100 36q18 0 33.5 -2.5t26.5 -6.5q27 -9 31 -21zM822 446q-12 -12 -25 -12q-12 0 -22.5 10t-26.5 15q4 -8 4 -17q0 -14 -10 -24t-24 -10t-24 10t-10 24q0 12 8 21q-23 -9 -23 -24
q0 -4 2 -9l-17 5q5 12 13 20q18 21 46 22v-1q2 1 5 1q35 1 57 -11q6 -4 13 -4q14 0 24 13q2 -18 -17 -22q13 -11 27 -7zM565 434l-17 -5q1 4 1 8q0 22 -32 26q7 -9 7 -20q0 -14 -9.5 -23.5t-23.5 -9.5t-23.5 9.5t-9.5 23.5q0 9 4 16q-11 -4 -17 -11q-14 -18 -30 -18
q-10 0 -19 7q8 0 21 13q-16 3 -16 15q0 5 3 10q18 -14 26 -14q1 0 17.5 9t45.5 8q19 -2 32 -7q34 -12 40 -37zM692 215h-176q30 58 88 58q59 0 88 -58zM691 205q-9 -31 -31 -52q-25 -23 -55 -23q-31 0 -54.5 22t-32.5 53h10q29 -23 77 -23t72 23h14zM721 442q0 5 -5 5t-5 -5
t5 -5t5 5zM718 428q0 9 -9 9q-8 0 -8 -9t8 -9q9 0 9 9zM495 442q0 5 -6 5q-5 0 -5 -5t5 -5q6 0 6 5zM491 428q0 9 -9 9q-8 0 -8 -9t8 -9q9 0 9 9z" />
    <glyph glyph-name="OE" unicode="&#x152;" horiz-adv-x="1064" 
d="M993 -31q-178 0 -290 136q-114 -136 -291 -136q-159 0 -268.5 109.5t-109.5 268.5t109.5 268.5t268.5 109.5q180 0 291 -136q112 136 290 136q38 0 63 -24.5t25 -62.5t-25 -63t-63 -25q-58 0 -107 -30t-74 -81h181q38 0 63 -24.5t25 -62.5t-25 -63t-63 -25h-185
q24 -55 74.5 -87.5t110.5 -32.5q38 0 63 -25t25 -63t-25 -62.5t-63 -24.5zM412 550q-87 0 -145 -58t-58 -145q0 -86 58.5 -144.5t144.5 -58.5t144.5 58.5t58.5 144.5t-58.5 144.5t-144.5 58.5z" />
    <glyph glyph-name="oe" unicode="&#x153;" horiz-adv-x="891" 
d="M662 343q-34 -8 -55.5 -35.5t-21.5 -62.5q0 -42 29 -71.5t71 -29.5h89q38 0 63 -24.5t25 -62.5q0 -37 -25.5 -62.5t-62.5 -25.5h-89q-110 0 -188 74q-78 -74 -188 -74q-117 0 -196 79.5t-79 196.5t79 196t196 79q110 0 188 -74q78 74 188 74q118 0 199 -84q26 -27 26 -60
q0 -42 -36 -70l-127 -124q-28 -27 -60 -27q-36 0 -63 27t-27 63q0 28 22 55zM309 345q-42 0 -71 -29t-29 -71t29 -71.5t71 -29.5t71.5 29.5t29.5 71.5t-29.5 71t-71.5 29z" />
    <glyph glyph-name="Scaron" unicode="&#x160;" horiz-adv-x="444" 
d="M336 509l1 -323q0 -91 -63 -153.5t-153 -62.5q-38 0 -62.5 24.5t-24.5 62.5q0 39 25 63.5t64 24.5t39 41l-1 323q0 92 62.5 154t153.5 62q38 0 63 -24.5t25 -62.5t-25 -63q-19 -19 -69 -26q-35 -5 -35 -40zM412 852l-91 -90q-34 -34 -69 -34q-28 0 -68 34q-12 10 -91 90
q-27 27 -27 61q0 36 26.5 62.5t62.5 26.5q28 0 54 -21q5 -4 43 -42q38 38 43 42q26 21 54 21q37 0 63.5 -26t26.5 -63q0 -34 -27 -61z" />
    <glyph glyph-name="scaron" unicode="&#x161;" horiz-adv-x="446" 
d="M379 345q-17 0 -29 -12t-12 -29q-1 -128 -3 -143q-11 -75 -61 -126q-62 -63 -153 -63q-38 0 -62.5 24.5t-24.5 62.5q0 39 25 63.5t64 24.5t39 41q0 -10 1 31v30v55q0 92 62 154t154 62q38 0 63 -24.5t25 -62.5q0 -37 -25.5 -62.5t-62.5 -25.5zM412 652l-91 -90
q-34 -34 -69 -34q-28 0 -68 34q-12 10 -91 90q-27 27 -27 61q0 36 26.5 62.5t62.5 26.5q28 0 54 -21q5 -4 43 -42q38 38 43 42q26 21 54 21q37 0 63.5 -26t26.5 -63q0 -34 -27 -61z" />
    <glyph glyph-name="Ydieresis" unicode="&#x178;" horiz-adv-x="486" 
d="M270 -29q-101 0 -168.5 67.5t-67.5 168.5v10q0 38 24.5 62.5t62.5 24.5t63 -24.5t25 -62.5v-10q0 -26 17.5 -43.5t43.5 -17.5t43 17.5t17 43.5v112q-29 -8 -60 -8q-101 0 -168.5 67.5t-67.5 168.5v91q0 38 24.5 62.5t62.5 24.5t63 -24.5t25 -62.5v-91q0 -26 17.5 -43.5
t43.5 -17.5t43 17.5t17 43.5v91q0 37 25.5 62t62.5 25q38 0 62.5 -24.5t24.5 -62.5v-431q0 -100 -67.5 -168t-167.5 -68zM399 745q-43 0 -73 30t-30 73q0 44 29.5 73t73.5 29q42 0 72 -30t30 -72q0 -44 -29 -73.5t-73 -29.5zM167 745q-43 0 -73 30t-30 73t30 72.5t73 29.5
t73 -29.5t30 -72.5t-30 -73t-73 -30z" />
    <glyph glyph-name="Zcaron" unicode="&#x17d;" horiz-adv-x="479" 
d="M482 594l-263 -448h192q38 0 62.5 -25t24.5 -63t-24.5 -62.5t-62.5 -24.5h-345q-38 0 -63 19q-28 21 -28 58q0 28 16 55l263 447h-133q-38 0 -62.5 25t-24.5 63t24.5 62.5t62.5 24.5h286q38 0 63 -19q29 -21 29 -58q0 -25 -17 -54zM432 852l-91 -90q-34 -34 -69 -34
q-28 0 -68 34q-12 10 -91 90q-27 27 -27 61q0 36 26.5 62.5t62.5 26.5q28 0 54 -21q5 -4 43 -42q38 38 43 42q26 21 54 21q37 0 63.5 -26t26.5 -63q0 -34 -27 -61z" />
    <glyph glyph-name="zcaron" unicode="&#x17e;" horiz-adv-x="437" 
d="M394 282q-41 -49 -118 -136h92q38 0 62.5 -25t24.5 -63q0 -37 -25 -62t-62 -25h-280q-93 0 -93 65q0 57 97 173q27 32 119 136h-90q-37 0 -62 25.5t-25 62.5q0 38 24.5 62.5t62.5 24.5h278q92 0 92 -64q0 -57 -97 -174zM412 652l-91 -90q-34 -34 -69 -34q-28 0 -68 34
q-12 10 -91 90q-27 27 -27 61q0 36 26.5 62.5t62.5 26.5q28 0 54 -21q5 -4 43 -42q38 38 43 42q26 21 54 21q37 0 63.5 -26t26.5 -63q0 -34 -27 -61z" />
    <glyph glyph-name="florin" unicode="&#x192;" horiz-adv-x="440" 
d="M373 550h-14q-26 0 -43.5 -17.5t-17.5 -43.5v-156h15q38 0 62.5 -24.5t24.5 -62.5t-24.5 -63t-62.5 -25h-15v-158q0 -100 -68 -168t-168 -68h-14q-38 0 -62.5 25t-24.5 63t24.5 62.5t62.5 24.5h14q26 0 43.5 17.5t17.5 43.5v158q-39 0 -63.5 24.5t-24.5 63.5
q0 38 24.5 62.5t62.5 24.5l1 156q1 99 69 167.5t167 68.5h14q39 0 63 -24.5t24 -63.5q0 -38 -24.5 -62.5t-62.5 -24.5z" />
    <glyph glyph-name="circumflex" unicode="&#x2c6;" horiz-adv-x="389" 
d="M319 685q-28 0 -54 21q-4 2 -43 41q-39 -39 -43 -41q-26 -21 -54 -21q-36 0 -62.5 26.5t-26.5 62.5q0 34 27 61q72 72 91 89q39 35 68 35q30 0 69 -35q13 -12 91 -89q27 -27 27 -61q0 -37 -26.5 -63t-63.5 -26z" />
    <glyph glyph-name="caron" unicode="&#x2c7;" horiz-adv-x="389" 
d="M382 812l-91 -90q-34 -34 -69 -34q-28 0 -68 34q-12 10 -91 90q-27 27 -27 61q0 36 26.5 62.5t62.5 26.5q28 0 54 -21q5 -4 43 -42q38 38 43 42q26 21 54 21q37 0 63.5 -26t26.5 -63q0 -34 -27 -61z" />
    <glyph glyph-name="breve" unicode="&#x2d8;" horiz-adv-x="436" 
d="M242 889q22 51 81 51q38 0 62.5 -25t24.5 -63q0 -70 -49 -119t-119 -49t-119 49t-49 119q0 38 25 63t63 25q59 0 80 -51z" />
    <glyph glyph-name="dotaccent" unicode="&#x2d9;" horiz-adv-x="436" 
d="M242 684q-43 0 -73 30t-30 73t30 72.5t73 29.5t73 -29.5t30 -72.5t-30 -73t-73 -30z" />
    <glyph glyph-name="ring" unicode="&#x2da;" horiz-adv-x="263" 
d="M158 687q-52 0 -88 36t-36 88t36 88t88 36t88 -36t36 -88t-36 -88t-88 -36zM158 820q-9 0 -9 -9t9 -9t9 9t-9 9z" />
    <glyph glyph-name="ogonek" unicode="&#x2db;" horiz-adv-x="498" 
d="M424 -357h-44q-101 0 -168.5 67.5t-67.5 168.5v141h175v-141q0 -26 17.5 -43.5t43.5 -17.5h44q38 0 62.5 -25t24.5 -63t-24.5 -62.5t-62.5 -24.5z" />
    <glyph glyph-name="tilde" unicode="&#x2dc;" horiz-adv-x="393" 
d="M268 850q24 22 55 22q37 0 63.5 -26t26.5 -63q0 -44 -42.5 -78t-88.5 -34q-41 0 -107 35q-25 -23 -57 -23q-36 0 -62.5 26.5t-26.5 62.5q0 45 44 79q41 33 87 33q31 0 108 -34z" />
    <glyph glyph-name="hungarumlaut" unicode="&#x2dd;" horiz-adv-x="932" 
d="M932 60q0 -25 -17.5 -42.5t-42.5 -17.5h-758q-25 0 -42.5 17.5t-17.5 42.5v680q0 25 17.5 42.5t42.5 17.5h758q25 0 42.5 -17.5t17.5 -42.5v-680zM885 563v57q0 32 -22.5 54t-54.5 22t-54 -22t-22 -54t22.5 -54.5t54.5 -22.5q20 0 20 21q0 20 -20 20q-15 0 -25.5 10.5
t-10.5 25.5q0 36 35 36q36 0 36 -36v-57q0 -20 21 -20q20 0 20 20zM608 735q0 25 -25 25t-25 -25t25 -25t25 25zM716 564q0 20 -20 20q-15 0 -25.5 10.5t-10.5 25.5t10.5 25.5t25.5 10.5q20 0 20 20t-20 20q-32 0 -54 -22t-22 -54t22 -54t54 -22q20 0 20 20zM603 564v112
q0 20 -21 20q-20 0 -20 -20v-112q0 -20 20 -20q21 0 21 20zM547 676q0 20 -20 20q-25 0 -42 -16.5t-17 -41.5v-35q0 -12 -19.5 -18t-19.5 -21q0 -20 20 -20q25 0 42 17t17 42v35q0 12 19.5 18t19.5 20zM885 229v80q0 45 -31.5 76.5t-76.5 31.5q-46 0 -77 -31t-31 -77
q0 -45 31.5 -76.5t76.5 -31.5q29 0 29 29q0 28 -29 28q-21 0 -36 15t-15 36q0 22 14.5 36.5t36.5 14.5q21 0 36 -15t15 -36v-80q0 -28 28 -28q29 0 29 28zM464 676q0 20 -20 20q-24 0 -41 -17t-17 -41v-17q0 -6 -1 -12v-6q0 -12 -19 -18t-19 -21q0 -20 20 -20q25 0 42 17
t17 42v35q0 12 19 18t19 20zM886 51v92q0 10 -11 10t-11 -10v-92q0 -11 11 -11t11 11zM202 735q0 25 -25 25t-25 -25t25 -25t25 25zM646 309q0 45 -31.5 76.5t-76.5 31.5q-28 0 -28 -28q0 -29 28 -29q21 0 36 -15t15 -36t-15 -35.5t-36 -14.5q-22 0 -36.5 14.5t-14.5 36.5
v165q0 29 -28 29q-29 0 -29 -29v-166q0 -45 31.5 -76t76.5 -31t76.5 31t31.5 76zM855 75v36q0 10 -10 10q-11 0 -11 -10v-36q0 -13 -13 -13t-13 13v36q0 10 -11 10q-10 0 -10 -10v-36q0 -35 34 -35t34 35zM350 659q0 8 -6 14q-22 23 -55 23q-32 0 -54 -22t-22 -54t22 -54.5
t54 -22.5h27q20 0 20 21q0 20 -20 20h-27q-15 0 -25.5 10.5t-10.5 25.5t10.5 25.5t25.5 10.5q4 0 8 -1l-22 -21q-6 -7 -6 -14q0 -21 20 -21q9 0 14 6l39 38q8 6 8 16zM778 86q0 11 -10 11h-37v23q0 12 13 12q12 0 12 -13v-1q0 -11 11 -11t11 11v1q0 35 -34 35q-35 0 -35 -34
v-69q0 -11 11 -11t11 11v24h37q10 0 10 11zM703 142q0 13 -13 13q-14 0 -14 -13t14 -13q13 0 13 13zM700 51v60q0 10 -11 10q-10 0 -10 -10v-60q0 -11 10 -11q11 0 11 11zM408 230v244q0 28 -29 28t-29 -28v-244q0 -28 29 -28t29 28zM197 543v133q0 20 -20 20t-20 -20v-133
q0 -25 -24 -25h-1q-21 0 -21 -20t21 -20h1q27 0 45.5 19t18.5 46zM670 75v1q0 11 -10 11q-11 0 -11 -11v-1q0 -13 -13 -13t-13 13v24h37q10 0 10 11t-10 11h-37v8q0 11 -11 11q-10 0 -10 -11v-54q0 -35 34 -35t34 35zM593 75v36q0 10 -11 10t-11 -10v-36q0 -13 -12 -13
q-13 0 -13 13v36q0 10 -11 10t-11 -10v-36q0 -35 35 -35q34 0 34 35zM516 51v30q0 17 -12 28.5t-29 11.5t-29 -11.5t-12 -28.5t12 -29t29 -12q11 0 11 11q0 7 -11.5 11t-13.5 7q-5 4 -5 12q0 19 19 19t19 -19v-30q0 -11 11 -11t11 11zM327 229v80q0 45 -31.5 76.5
t-76.5 31.5q-46 0 -77 -31t-31 -77q0 -45 31.5 -76.5t76.5 -31.5q29 0 29 29q0 28 -29 28q-21 0 -35.5 15t-14.5 36q0 22 14 36.5t36 14.5q21 0 36 -15t15 -36v-80q0 -28 28 -28q29 0 29 28zM426 102q0 4 -3 7q-12 12 -30 12q-17 0 -28.5 -11.5t-11.5 -28.5t11.5 -29
t28.5 -12h14q11 0 11 11t-11 11h-14q-19 0 -19 19t19 19q2 0 4 -1l-11 -11q-4 -3 -4 -7q0 -11 11 -11q5 0 8 3l20 20q5 3 5 9zM344 81q0 17 -12 28.5t-29 11.5q-10 0 -10 -10q0 -9 8 -11q21 -5 21 -19q0 -19 -19 -19t-19 19v62q0 11 -11 11q-10 0 -10 -11v-62
q0 -17 11.5 -29t28.5 -12t29 12t12 29zM137 142q0 13 -13 13t-13 -13t13 -13t13 13zM206 111q0 10 -11 10q-31 0 -31 -31v-18q0 -7 -10 -10t-10 -11q0 -11 10 -11q31 0 31 32v18q0 7 10.5 10t10.5 11zM135 51v60q0 10 -11 10t-11 -10v-60q0 -11 11 -11t11 11z" />
    <glyph glyph-name="Delta" unicode="&#x394;" horiz-adv-x="1103" 
d="M1119 520q33 -44 33 -89q0 -56 -46 -99q5 -14 5 -26q0 -46 -66 -55q1 -8 1 -16q0 -73 -87 -90q-13 -79 -93 -79q-45 0 -97 23v-1q-4 2 -9 6q-38 -28 -75 -56q-48 -35 -83 -35q-79 0 -199 117v-1q-68 -31 -126 -31q-59 0 -105 32q-35 25 -55 63q-18 32 -14 42
q-48 26 -74 61q78 -1 105 36q-65 0 -83 93q99 53 131 109q-105 -10 -137 78q181 35 224 141q32 112 114 199q105 112 201 40q27 4 53 4q181 0 302 -175q50 -73 84 -175q8 -31 8 -70q0 -49 -14 -95q29 -20 51 -20q43 0 51 69zM870 503q-13 54 -42 105q-70 122 -208 211
q-109 4 -156 -86q-20 -38 -26 -91q-1 -40 -8 -74q13 2 29 2q75 0 101 -37q-5 -4 -17 -4q-22 0 -60 13q-32 13 -56 12q-9 -33 -21 -58q-28 -61 -66 -76q-6 -8 -25 -19q25 -120 67 -173q69 -86 100 -115q64 -59 120 -59t119 59q31 29 100 116q40 49 47 126q2 16 2 148z
M844 536q-8 -5 -21 1q-22 13 -42 13q-22 0 -52 -11q-37 -14 -59 -14q-12 0 -17 5q26 36 100 36q18 0 33.5 -2.5t26.5 -6.5q27 -9 31 -21zM822 446q-12 -12 -25 -12q-12 0 -22.5 10t-26.5 15q4 -8 4 -17q0 -14 -10 -24t-24 -10t-24 10t-10 24q0 12 8 21q-23 -9 -23 -24
q0 -4 2 -9l-17 5q5 12 13 20q18 21 46 22v-1q2 1 5 1q35 1 57 -11q6 -4 13 -4q14 0 24 13q2 -18 -17 -22q13 -11 27 -7zM565 434l-17 -5q1 4 1 8q0 22 -32 26q7 -9 7 -20q0 -14 -9.5 -23.5t-23.5 -9.5t-23.5 9.5t-9.5 23.5q0 9 4 16q-11 -4 -17 -11q-14 -18 -30 -18
q-10 0 -19 7q8 0 21 13q-16 3 -16 15q0 5 3 10q18 -14 26 -14q1 0 17.5 9t45.5 8q19 -2 32 -7q34 -12 40 -37zM692 215h-176q30 58 88 58q59 0 88 -58zM691 205q-9 -31 -31 -52q-25 -23 -55 -23q-31 0 -54.5 22t-32.5 53h10q29 -23 77 -23t72 23h14zM721 442q0 5 -5 5t-5 -5
t5 -5t5 5zM718 428q0 9 -9 9q-8 0 -8 -9t8 -9q9 0 9 9zM495 442q0 5 -6 5q-5 0 -5 -5t5 -5q6 0 6 5zM491 428q0 9 -9 9q-8 0 -8 -9t8 -9q9 0 9 9z" />
    <glyph glyph-name="Delta" unicode="&#x2206;" horiz-adv-x="1103" 
d="M1119 520q33 -44 33 -89q0 -56 -46 -99q5 -14 5 -26q0 -46 -66 -55q1 -8 1 -16q0 -73 -87 -90q-13 -79 -93 -79q-45 0 -97 23v-1q-4 2 -9 6q-38 -28 -75 -56q-48 -35 -83 -35q-79 0 -199 117v-1q-68 -31 -126 -31q-59 0 -105 32q-35 25 -55 63q-18 32 -14 42
q-48 26 -74 61q78 -1 105 36q-65 0 -83 93q99 53 131 109q-105 -10 -137 78q181 35 224 141q32 112 114 199q105 112 201 40q27 4 53 4q181 0 302 -175q50 -73 84 -175q8 -31 8 -70q0 -49 -14 -95q29 -20 51 -20q43 0 51 69zM870 503q-13 54 -42 105q-70 122 -208 211
q-109 4 -156 -86q-20 -38 -26 -91q-1 -40 -8 -74q13 2 29 2q75 0 101 -37q-5 -4 -17 -4q-22 0 -60 13q-32 13 -56 12q-9 -33 -21 -58q-28 -61 -66 -76q-6 -8 -25 -19q25 -120 67 -173q69 -86 100 -115q64 -59 120 -59t119 59q31 29 100 116q40 49 47 126q2 16 2 148z
M844 536q-8 -5 -21 1q-22 13 -42 13q-22 0 -52 -11q-37 -14 -59 -14q-12 0 -17 5q26 36 100 36q18 0 33.5 -2.5t26.5 -6.5q27 -9 31 -21zM822 446q-12 -12 -25 -12q-12 0 -22.5 10t-26.5 15q4 -8 4 -17q0 -14 -10 -24t-24 -10t-24 10t-10 24q0 12 8 21q-23 -9 -23 -24
q0 -4 2 -9l-17 5q5 12 13 20q18 21 46 22v-1q2 1 5 1q35 1 57 -11q6 -4 13 -4q14 0 24 13q2 -18 -17 -22q13 -11 27 -7zM565 434l-17 -5q1 4 1 8q0 22 -32 26q7 -9 7 -20q0 -14 -9.5 -23.5t-23.5 -9.5t-23.5 9.5t-9.5 23.5q0 9 4 16q-11 -4 -17 -11q-14 -18 -30 -18
q-10 0 -19 7q8 0 21 13q-16 3 -16 15q0 5 3 10q18 -14 26 -14q1 0 17.5 9t45.5 8q19 -2 32 -7q34 -12 40 -37zM692 215h-176q30 58 88 58q59 0 88 -58zM691 205q-9 -31 -31 -52q-25 -23 -55 -23q-31 0 -54.5 22t-32.5 53h10q29 -23 77 -23t72 23h14zM721 442q0 5 -5 5t-5 -5
t5 -5t5 5zM718 428q0 9 -9 9q-8 0 -8 -9t8 -9q9 0 9 9zM495 442q0 5 -6 5q-5 0 -5 -5t5 -5q6 0 6 5zM491 428q0 9 -9 9q-8 0 -8 -9t8 -9q9 0 9 9z" />
    <glyph glyph-name="Omega" unicode="&#x3a9;" horiz-adv-x="1103" 
d="M1119 520q33 -44 33 -89q0 -56 -46 -99q5 -14 5 -26q0 -46 -66 -55q1 -8 1 -16q0 -73 -87 -90q-13 -79 -93 -79q-45 0 -97 23v-1q-4 2 -9 6q-38 -28 -75 -56q-48 -35 -83 -35q-79 0 -199 117v-1q-68 -31 -126 -31q-59 0 -105 32q-35 25 -55 63q-18 32 -14 42
q-48 26 -74 61q78 -1 105 36q-65 0 -83 93q99 53 131 109q-105 -10 -137 78q181 35 224 141q32 112 114 199q105 112 201 40q27 4 53 4q181 0 302 -175q50 -73 84 -175q8 -31 8 -70q0 -49 -14 -95q29 -20 51 -20q43 0 51 69zM870 503q-13 54 -42 105q-70 122 -208 211
q-109 4 -156 -86q-20 -38 -26 -91q-1 -40 -8 -74q13 2 29 2q75 0 101 -37q-5 -4 -17 -4q-22 0 -60 13q-32 13 -56 12q-9 -33 -21 -58q-28 -61 -66 -76q-6 -8 -25 -19q25 -120 67 -173q69 -86 100 -115q64 -59 120 -59t119 59q31 29 100 116q40 49 47 126q2 16 2 148z
M844 536q-8 -5 -21 1q-22 13 -42 13q-22 0 -52 -11q-37 -14 -59 -14q-12 0 -17 5q26 36 100 36q18 0 33.5 -2.5t26.5 -6.5q27 -9 31 -21zM822 446q-12 -12 -25 -12q-12 0 -22.5 10t-26.5 15q4 -8 4 -17q0 -14 -10 -24t-24 -10t-24 10t-10 24q0 12 8 21q-23 -9 -23 -24
q0 -4 2 -9l-17 5q5 12 13 20q18 21 46 22v-1q2 1 5 1q35 1 57 -11q6 -4 13 -4q14 0 24 13q2 -18 -17 -22q13 -11 27 -7zM565 434l-17 -5q1 4 1 8q0 22 -32 26q7 -9 7 -20q0 -14 -9.5 -23.5t-23.5 -9.5t-23.5 9.5t-9.5 23.5q0 9 4 16q-11 -4 -17 -11q-14 -18 -30 -18
q-10 0 -19 7q8 0 21 13q-16 3 -16 15q0 5 3 10q18 -14 26 -14q1 0 17.5 9t45.5 8q19 -2 32 -7q34 -12 40 -37zM692 215h-176q30 58 88 58q59 0 88 -58zM691 205q-9 -31 -31 -52q-25 -23 -55 -23q-31 0 -54.5 22t-32.5 53h10q29 -23 77 -23t72 23h14zM721 442q0 5 -5 5t-5 -5
t5 -5t5 5zM718 428q0 9 -9 9q-8 0 -8 -9t8 -9q9 0 9 9zM495 442q0 5 -6 5q-5 0 -5 -5t5 -5q6 0 6 5zM491 428q0 9 -9 9q-8 0 -8 -9t8 -9q9 0 9 9z" />
    <glyph glyph-name="Omega" unicode="&#x2126;" horiz-adv-x="1103" 
d="M1119 520q33 -44 33 -89q0 -56 -46 -99q5 -14 5 -26q0 -46 -66 -55q1 -8 1 -16q0 -73 -87 -90q-13 -79 -93 -79q-45 0 -97 23v-1q-4 2 -9 6q-38 -28 -75 -56q-48 -35 -83 -35q-79 0 -199 117v-1q-68 -31 -126 -31q-59 0 -105 32q-35 25 -55 63q-18 32 -14 42
q-48 26 -74 61q78 -1 105 36q-65 0 -83 93q99 53 131 109q-105 -10 -137 78q181 35 224 141q32 112 114 199q105 112 201 40q27 4 53 4q181 0 302 -175q50 -73 84 -175q8 -31 8 -70q0 -49 -14 -95q29 -20 51 -20q43 0 51 69zM870 503q-13 54 -42 105q-70 122 -208 211
q-109 4 -156 -86q-20 -38 -26 -91q-1 -40 -8 -74q13 2 29 2q75 0 101 -37q-5 -4 -17 -4q-22 0 -60 13q-32 13 -56 12q-9 -33 -21 -58q-28 -61 -66 -76q-6 -8 -25 -19q25 -120 67 -173q69 -86 100 -115q64 -59 120 -59t119 59q31 29 100 116q40 49 47 126q2 16 2 148z
M844 536q-8 -5 -21 1q-22 13 -42 13q-22 0 -52 -11q-37 -14 -59 -14q-12 0 -17 5q26 36 100 36q18 0 33.5 -2.5t26.5 -6.5q27 -9 31 -21zM822 446q-12 -12 -25 -12q-12 0 -22.5 10t-26.5 15q4 -8 4 -17q0 -14 -10 -24t-24 -10t-24 10t-10 24q0 12 8 21q-23 -9 -23 -24
q0 -4 2 -9l-17 5q5 12 13 20q18 21 46 22v-1q2 1 5 1q35 1 57 -11q6 -4 13 -4q14 0 24 13q2 -18 -17 -22q13 -11 27 -7zM565 434l-17 -5q1 4 1 8q0 22 -32 26q7 -9 7 -20q0 -14 -9.5 -23.5t-23.5 -9.5t-23.5 9.5t-9.5 23.5q0 9 4 16q-11 -4 -17 -11q-14 -18 -30 -18
q-10 0 -19 7q8 0 21 13q-16 3 -16 15q0 5 3 10q18 -14 26 -14q1 0 17.5 9t45.5 8q19 -2 32 -7q34 -12 40 -37zM692 215h-176q30 58 88 58q59 0 88 -58zM691 205q-9 -31 -31 -52q-25 -23 -55 -23q-31 0 -54.5 22t-32.5 53h10q29 -23 77 -23t72 23h14zM721 442q0 5 -5 5t-5 -5
t5 -5t5 5zM718 428q0 9 -9 9q-8 0 -8 -9t8 -9q9 0 9 9zM495 442q0 5 -6 5q-5 0 -5 -5t5 -5q6 0 6 5zM491 428q0 9 -9 9q-8 0 -8 -9t8 -9q9 0 9 9z" />
    <glyph glyph-name="pi" unicode="&#x3c0;" horiz-adv-x="507" 
d="M440 -29q-38 0 -63 24.5t-25 62.5v285h-36v-285q0 -38 -24.5 -62.5t-62.5 -24.5t-63 24.5t-25 62.5v285h-18q-37 0 -62.5 25.5t-25.5 62.5q0 38 25 62.5t63 24.5h319q37 0 61 -25t24 -62v-373q0 -38 -24.5 -62.5t-62.5 -24.5z" />
    <glyph glyph-name="endash" unicode="&#x2013;" horiz-adv-x="422" 
d="M355 158h-236q-38 0 -63 25t-25 63t25 62.5t63 24.5h236q38 0 63 -24.5t25 -62.5t-25 -63t-63 -25z" />
    <glyph glyph-name="emdash" unicode="&#x2014;" horiz-adv-x="623" 
d="M555 158h-436q-38 0 -63 25t-25 63t25 62.5t63 24.5h436q38 0 63 -24.5t25 -62.5t-25 -63t-63 -25z" />
    <glyph glyph-name="quoteleft" unicode="&#x2018;" horiz-adv-x="190" 
d="M121 397q-43 0 -73 29.5t-30 72.5v123q0 43 30 73t73 30t73 -30t30 -73v-123q0 -43 -30 -72.5t-73 -29.5z" />
    <glyph glyph-name="quoteright" unicode="&#x2019;" horiz-adv-x="190" 
d="M121 397q-43 0 -73 29.5t-30 72.5v123q0 43 30 73t73 30t73 -30t30 -73v-123q0 -43 -30 -72.5t-73 -29.5z" />
    <glyph glyph-name="quotesinglbase" unicode="&#x201a;" horiz-adv-x="190" 
d="M121 -143q-43 0 -73 30t-30 73v123q0 43 30 72.5t73 29.5t73 -29.5t30 -72.5v-123q0 -43 -30 -73t-73 -30z" />
    <glyph glyph-name="quotedblleft" unicode="&#x201c;" horiz-adv-x="415" 
d="M343 397q-42 0 -72 30t-30 72v123q0 43 29.5 73t72.5 30t73 -30t30 -73v-123q0 -44 -29.5 -73t-73.5 -29zM121 397q-43 0 -73 29.5t-30 72.5v123q0 43 30 73t73 30t73 -30t30 -73v-123q0 -43 -30 -72.5t-73 -29.5z" />
    <glyph glyph-name="quotedblright" unicode="&#x201d;" horiz-adv-x="415" 
d="M343 397q-42 0 -72 30t-30 72v123q0 43 29.5 73t72.5 30t73 -30t30 -73v-123q0 -44 -29.5 -73t-73.5 -29zM121 397q-43 0 -73 29.5t-30 72.5v123q0 43 30 73t73 30t73 -30t30 -73v-123q0 -43 -30 -72.5t-73 -29.5z" />
    <glyph glyph-name="quotedblbase" unicode="&#x201e;" horiz-adv-x="399" 
d="M121 -143q-43 0 -73 30t-30 73v123q0 43 30 72.5t73 29.5t73 -29.5t30 -72.5v-123q0 -43 -30 -73t-73 -30zM354 -143q-43 0 -73 30t-30 73v123q0 43 30 72.5t73 29.5t73 -29.5t30 -72.5v-123q0 -43 -30 -73t-73 -30z" />
    <glyph glyph-name="dagger" unicode="&#x2020;" horiz-adv-x="1154" 
d="M1119 520q33 -44 33 -89q0 -56 -46 -99q5 -14 5 -26q0 -46 -66 -55q1 -8 1 -16q0 -73 -87 -90q-13 -79 -93 -79q-45 0 -97 23v-1q-4 2 -9 6q-38 -28 -75 -56q-48 -35 -83 -35q-79 0 -199 117v-1q-68 -31 -126 -31q-59 0 -105 32q-35 25 -55 63q-18 32 -14 42
q-48 26 -74 61q78 -1 105 36q-65 0 -83 93q99 53 131 109q-105 -10 -137 78q181 35 224 141q32 112 114 199q105 112 201 40q27 4 53 4q181 0 302 -175q50 -73 84 -175q8 -31 8 -70q0 -49 -14 -95q29 -20 51 -20q43 0 51 69zM870 503q-13 54 -42 105q-70 122 -208 211
q-109 4 -156 -86q-20 -38 -26 -91q-1 -40 -8 -74q13 2 29 2q75 0 101 -37q-5 -4 -17 -4q-22 0 -60 13q-32 13 -56 12q-9 -33 -21 -58q-28 -61 -66 -76q-6 -8 -25 -19q25 -120 67 -173q69 -86 100 -115q64 -59 120 -59t119 59q31 29 100 116q40 49 47 126q2 16 2 148z
M844 536q-8 -5 -21 1q-22 13 -42 13q-22 0 -52 -11q-37 -14 -59 -14q-12 0 -17 5q26 36 100 36q18 0 33.5 -2.5t26.5 -6.5q27 -9 31 -21zM822 446q-12 -12 -25 -12q-12 0 -22.5 10t-26.5 15q4 -8 4 -17q0 -14 -10 -24t-24 -10t-24 10t-10 24q0 12 8 21q-23 -9 -23 -24
q0 -4 2 -9l-17 5q5 12 13 20q18 21 46 22v-1q2 1 5 1q35 1 57 -11q6 -4 13 -4q14 0 24 13q2 -18 -17 -22q13 -11 27 -7zM565 434l-17 -5q1 4 1 8q0 22 -32 26q7 -9 7 -20q0 -14 -9.5 -23.5t-23.5 -9.5t-23.5 9.5t-9.5 23.5q0 9 4 16q-11 -4 -17 -11q-14 -18 -30 -18
q-10 0 -19 7q8 0 21 13q-16 3 -16 15q0 5 3 10q18 -14 26 -14q1 0 17.5 9t45.5 8q19 -2 32 -7q34 -12 40 -37zM692 215h-176q30 58 88 58q59 0 88 -58zM691 205q-9 -31 -31 -52q-25 -23 -55 -23q-31 0 -54.5 22t-32.5 53h10q29 -23 77 -23t72 23h14zM721 442q0 5 -5 5t-5 -5
t5 -5t5 5zM718 428q0 9 -9 9q-8 0 -8 -9t8 -9q9 0 9 9zM495 442q0 5 -6 5q-5 0 -5 -5t5 -5q6 0 6 5zM491 428q0 9 -9 9q-8 0 -8 -9t8 -9q9 0 9 9z" />
    <glyph glyph-name="daggerdbl" unicode="&#x2021;" horiz-adv-x="1103" 
d="M1119 520q33 -44 33 -89q0 -56 -46 -99q5 -14 5 -26q0 -46 -66 -55q1 -8 1 -16q0 -73 -87 -90q-13 -79 -93 -79q-45 0 -97 23v-1q-4 2 -9 6q-38 -28 -75 -56q-48 -35 -83 -35q-79 0 -199 117v-1q-68 -31 -126 -31q-59 0 -105 32q-35 25 -55 63q-18 32 -14 42
q-48 26 -74 61q78 -1 105 36q-65 0 -83 93q99 53 131 109q-105 -10 -137 78q181 35 224 141q32 112 114 199q105 112 201 40q27 4 53 4q181 0 302 -175q50 -73 84 -175q8 -31 8 -70q0 -49 -14 -95q29 -20 51 -20q43 0 51 69zM870 503q-13 54 -42 105q-70 122 -208 211
q-109 4 -156 -86q-20 -38 -26 -91q-1 -40 -8 -74q13 2 29 2q75 0 101 -37q-5 -4 -17 -4q-22 0 -60 13q-32 13 -56 12q-9 -33 -21 -58q-28 -61 -66 -76q-6 -8 -25 -19q25 -120 67 -173q69 -86 100 -115q64 -59 120 -59t119 59q31 29 100 116q40 49 47 126q2 16 2 148z
M844 536q-8 -5 -21 1q-22 13 -42 13q-22 0 -52 -11q-37 -14 -59 -14q-12 0 -17 5q26 36 100 36q18 0 33.5 -2.5t26.5 -6.5q27 -9 31 -21zM822 446q-12 -12 -25 -12q-12 0 -22.5 10t-26.5 15q4 -8 4 -17q0 -14 -10 -24t-24 -10t-24 10t-10 24q0 12 8 21q-23 -9 -23 -24
q0 -4 2 -9l-17 5q5 12 13 20q18 21 46 22v-1q2 1 5 1q35 1 57 -11q6 -4 13 -4q14 0 24 13q2 -18 -17 -22q13 -11 27 -7zM565 434l-17 -5q1 4 1 8q0 22 -32 26q7 -9 7 -20q0 -14 -9.5 -23.5t-23.5 -9.5t-23.5 9.5t-9.5 23.5q0 9 4 16q-11 -4 -17 -11q-14 -18 -30 -18
q-10 0 -19 7q8 0 21 13q-16 3 -16 15q0 5 3 10q18 -14 26 -14q1 0 17.5 9t45.5 8q19 -2 32 -7q34 -12 40 -37zM692 215h-176q30 58 88 58q59 0 88 -58zM691 205q-9 -31 -31 -52q-25 -23 -55 -23q-31 0 -54.5 22t-32.5 53h10q29 -23 77 -23t72 23h14zM721 442q0 5 -5 5t-5 -5
t5 -5t5 5zM718 428q0 9 -9 9q-8 0 -8 -9t8 -9q9 0 9 9zM495 442q0 5 -6 5q-5 0 -5 -5t5 -5q6 0 6 5zM491 428q0 9 -9 9q-8 0 -8 -9t8 -9q9 0 9 9z" />
    <glyph glyph-name="bullet" unicode="&#x2022;" horiz-adv-x="324" 
d="M188 181q-65 0 -109.5 44.5t-44.5 109.5t44.5 109t109.5 44q64 0 108.5 -44.5t44.5 -108.5t-44.5 -109t-108.5 -45z" />
    <glyph glyph-name="ellipsis" unicode="&#x2026;" horiz-adv-x="677" 
d="M594 -20q-44 0 -73 29.5t-29 73.5q0 42 30 72t72 30q44 0 73.5 -29t29.5 -73q0 -43 -30 -73t-73 -30zM354 -20q-44 0 -73 29.5t-29 73.5q0 42 30 72t72 30q44 0 73.5 -29t29.5 -73q0 -43 -30 -73t-73 -30zM121 -20q-43 0 -73 30t-30 73t30 72.5t73 29.5t73 -29.5
t30 -72.5t-30 -73t-73 -30z" />
    <glyph glyph-name="perthousand" unicode="&#x2030;" horiz-adv-x="791" 
d="M182 425q-62 0 -105 43t-43 105t43 105t105 43t105 -43t43 -105t-43 -105t-105 -43zM598 678l-269 -753q-21 -58 -80 -58q-37 0 -64 24t-27 61q0 16 6 33l268 752q21 59 81 59q37 0 63.5 -24.5t26.5 -61.5q0 -18 -5 -32zM710 -132q-62 0 -105 43t-43 105v8
q-51 11 -83 51.5t-32 92.5q0 62 43 105t105 43t105 -43t43 -105v-8q51 -11 83 -51.5t32 -92.5q0 -62 -43 -105t-105 -43zM182 613q-17 0 -28.5 -11.5t-11.5 -28.5t11.5 -28.5t28.5 -11.5t28.5 11.5t11.5 28.5t-11.5 28.5t-28.5 11.5zM595 208q-17 0 -28.5 -11.5t-11.5 -28.5
t11.5 -28.5t28.5 -11.5t29 11.5t12 28.5t-12 28.5t-29 11.5zM710 56q-17 0 -28.5 -11.5t-11.5 -28.5t11.5 -29t28.5 -12t28.5 12t11.5 29t-11.5 28.5t-28.5 11.5z" />
    <glyph glyph-name="guilsinglleft" unicode="&#x2039;" horiz-adv-x="290" 
d="M221 68q-35 0 -62 27l-89 90q-34 40 -34 69q0 35 35 70l88 89q27 27 62 27q36 0 62.5 -26.5t26.5 -62.5q0 -28 -21 -54q-4 -5 -42 -43q38 -38 42 -43q21 -26 21 -54q0 -36 -26.5 -62.5t-62.5 -26.5z" />
    <glyph glyph-name="guilsinglright" unicode="&#x203a;" horiz-adv-x="290" 
d="M275 185q-6 -7 -89 -90q-27 -27 -62 -27q-36 0 -62.5 26.5t-26.5 62.5q0 28 21 54q4 5 42 43q-38 38 -42 43q-21 26 -21 54q0 36 26.5 62.5t62.5 26.5q35 0 62 -27l88 -89q35 -35 35 -70q0 -29 -34 -69z" />
    <glyph glyph-name="fraction" unicode="&#x2044;" horiz-adv-x="361" 
d="M417 678l-269 -753q-21 -58 -80 -58q-37 0 -63.5 24t-26.5 61q0 19 5 33l269 752q21 59 80 59q38 0 64 -24t26 -62q0 -18 -5 -32z" />
    <glyph glyph-name="currency" unicode="&#x20ac;" horiz-adv-x="551" 
d="M104 361q-34 3 -55 27t-21 59q0 38 24.5 63t62.5 25h38q51 89 138.5 139.5t190.5 50.5q38 0 63 -24.5t25 -62.5t-25 -63t-63 -25q-42 0 -78 -15h40q38 0 63 -25t25 -63t-25 -62.5t-63 -24.5h-165v-21h165q38 0 63 -24.5t25 -62.5t-25 -63t-63 -25h-51q40 -20 89 -20
q38 0 63 -25t25 -63t-25 -62.5t-63 -24.5q-104 0 -192.5 52t-138.5 143h-36q-38 0 -63 25t-25 63q0 35 21.5 59t55.5 27v23z" />
    <glyph glyph-name="trademark" unicode="&#x2122;" horiz-adv-x="621" 
d="M587 367q-53 0 -53 54v113q0 20 -21 20q-20 0 -20 -20v-113q0 -54 -54 -54t-54 54v129q-5 4 -12 4q-20 0 -20 -20v-55q0 -53 -39 -82q-34 -26 -89 -26h-63q-54 0 -91 37t-37 91v172q0 54 54 54t54 -54v-6h64q54 0 54 -54t-54 -54h-64v-58q0 -21 20 -21h63q20 0 20 21v35
q0 54 37 91t91 37q39 0 70 -21q31 21 70 21q54 0 91 -37t37 -91v-113q0 -54 -54 -54z" />
    <glyph glyph-name="partialdiff" unicode="&#x2202;" horiz-adv-x="1103" 
d="M1119 520q33 -44 33 -89q0 -56 -46 -99q5 -14 5 -26q0 -46 -66 -55q1 -8 1 -16q0 -73 -87 -90q-13 -79 -93 -79q-45 0 -97 23v-1q-4 2 -9 6q-38 -28 -75 -56q-48 -35 -83 -35q-79 0 -199 117v-1q-68 -31 -126 -31q-59 0 -105 32q-35 25 -55 63q-18 32 -14 42
q-48 26 -74 61q78 -1 105 36q-65 0 -83 93q99 53 131 109q-105 -10 -137 78q181 35 224 141q32 112 114 199q105 112 201 40q27 4 53 4q181 0 302 -175q50 -73 84 -175q8 -31 8 -70q0 -49 -14 -95q29 -20 51 -20q43 0 51 69zM870 503q-13 54 -42 105q-70 122 -208 211
q-109 4 -156 -86q-20 -38 -26 -91q-1 -40 -8 -74q13 2 29 2q75 0 101 -37q-5 -4 -17 -4q-22 0 -60 13q-32 13 -56 12q-9 -33 -21 -58q-28 -61 -66 -76q-6 -8 -25 -19q25 -120 67 -173q69 -86 100 -115q64 -59 120 -59t119 59q31 29 100 116q40 49 47 126q2 16 2 148z
M844 536q-8 -5 -21 1q-22 13 -42 13q-22 0 -52 -11q-37 -14 -59 -14q-12 0 -17 5q26 36 100 36q18 0 33.5 -2.5t26.5 -6.5q27 -9 31 -21zM822 446q-12 -12 -25 -12q-12 0 -22.5 10t-26.5 15q4 -8 4 -17q0 -14 -10 -24t-24 -10t-24 10t-10 24q0 12 8 21q-23 -9 -23 -24
q0 -4 2 -9l-17 5q5 12 13 20q18 21 46 22v-1q2 1 5 1q35 1 57 -11q6 -4 13 -4q14 0 24 13q2 -18 -17 -22q13 -11 27 -7zM565 434l-17 -5q1 4 1 8q0 22 -32 26q7 -9 7 -20q0 -14 -9.5 -23.5t-23.5 -9.5t-23.5 9.5t-9.5 23.5q0 9 4 16q-11 -4 -17 -11q-14 -18 -30 -18
q-10 0 -19 7q8 0 21 13q-16 3 -16 15q0 5 3 10q18 -14 26 -14q1 0 17.5 9t45.5 8q19 -2 32 -7q34 -12 40 -37zM692 215h-176q30 58 88 58q59 0 88 -58zM691 205q-9 -31 -31 -52q-25 -23 -55 -23q-31 0 -54.5 22t-32.5 53h10q29 -23 77 -23t72 23h14zM721 442q0 5 -5 5t-5 -5
t5 -5t5 5zM718 428q0 9 -9 9q-8 0 -8 -9t8 -9q9 0 9 9zM495 442q0 5 -6 5q-5 0 -5 -5t5 -5q6 0 6 5zM491 428q0 9 -9 9q-8 0 -8 -9t8 -9q9 0 9 9z" />
    <glyph glyph-name="product" unicode="&#x220f;" horiz-adv-x="507" 
d="M440 -29q-38 0 -63 24.5t-25 62.5v492h-36v-492q0 -38 -24.5 -62.5t-62.5 -24.5t-63 24.5t-25 62.5v492h-18q-38 0 -63 25t-25 63t25 62.5t63 24.5h319q37 0 61 -25t24 -62v-580q0 -38 -24.5 -62.5t-62.5 -24.5z" />
    <glyph glyph-name="summation" unicode="&#x2211;" horiz-adv-x="1103" 
d="M1119 520q33 -44 33 -89q0 -56 -46 -99q5 -14 5 -26q0 -46 -66 -55q1 -8 1 -16q0 -73 -87 -90q-13 -79 -93 -79q-45 0 -97 23v-1q-4 2 -9 6q-38 -28 -75 -56q-48 -35 -83 -35q-79 0 -199 117v-1q-68 -31 -126 -31q-59 0 -105 32q-35 25 -55 63q-18 32 -14 42
q-48 26 -74 61q78 -1 105 36q-65 0 -83 93q99 53 131 109q-105 -10 -137 78q181 35 224 141q32 112 114 199q105 112 201 40q27 4 53 4q181 0 302 -175q50 -73 84 -175q8 -31 8 -70q0 -49 -14 -95q29 -20 51 -20q43 0 51 69zM870 503q-13 54 -42 105q-70 122 -208 211
q-109 4 -156 -86q-20 -38 -26 -91q-1 -40 -8 -74q13 2 29 2q75 0 101 -37q-5 -4 -17 -4q-22 0 -60 13q-32 13 -56 12q-9 -33 -21 -58q-28 -61 -66 -76q-6 -8 -25 -19q25 -120 67 -173q69 -86 100 -115q64 -59 120 -59t119 59q31 29 100 116q40 49 47 126q2 16 2 148z
M844 536q-8 -5 -21 1q-22 13 -42 13q-22 0 -52 -11q-37 -14 -59 -14q-12 0 -17 5q26 36 100 36q18 0 33.5 -2.5t26.5 -6.5q27 -9 31 -21zM822 446q-12 -12 -25 -12q-12 0 -22.5 10t-26.5 15q4 -8 4 -17q0 -14 -10 -24t-24 -10t-24 10t-10 24q0 12 8 21q-23 -9 -23 -24
q0 -4 2 -9l-17 5q5 12 13 20q18 21 46 22v-1q2 1 5 1q35 1 57 -11q6 -4 13 -4q14 0 24 13q2 -18 -17 -22q13 -11 27 -7zM565 434l-17 -5q1 4 1 8q0 22 -32 26q7 -9 7 -20q0 -14 -9.5 -23.5t-23.5 -9.5t-23.5 9.5t-9.5 23.5q0 9 4 16q-11 -4 -17 -11q-14 -18 -30 -18
q-10 0 -19 7q8 0 21 13q-16 3 -16 15q0 5 3 10q18 -14 26 -14q1 0 17.5 9t45.5 8q19 -2 32 -7q34 -12 40 -37zM692 215h-176q30 58 88 58q59 0 88 -58zM691 205q-9 -31 -31 -52q-25 -23 -55 -23q-31 0 -54.5 22t-32.5 53h10q29 -23 77 -23t72 23h14zM721 442q0 5 -5 5t-5 -5
t5 -5t5 5zM718 428q0 9 -9 9q-8 0 -8 -9t8 -9q9 0 9 9zM495 442q0 5 -6 5q-5 0 -5 -5t5 -5q6 0 6 5zM491 428q0 9 -9 9q-8 0 -8 -9t8 -9q9 0 9 9z" />
    <glyph glyph-name="radical" unicode="&#x221a;" horiz-adv-x="1103" 
d="M1119 520q33 -44 33 -89q0 -56 -46 -99q5 -14 5 -26q0 -46 -66 -55q1 -8 1 -16q0 -73 -87 -90q-13 -79 -93 -79q-45 0 -97 23v-1q-4 2 -9 6q-38 -28 -75 -56q-48 -35 -83 -35q-79 0 -199 117v-1q-68 -31 -126 -31q-59 0 -105 32q-35 25 -55 63q-18 32 -14 42
q-48 26 -74 61q78 -1 105 36q-65 0 -83 93q99 53 131 109q-105 -10 -137 78q181 35 224 141q32 112 114 199q105 112 201 40q27 4 53 4q181 0 302 -175q50 -73 84 -175q8 -31 8 -70q0 -49 -14 -95q29 -20 51 -20q43 0 51 69zM870 503q-13 54 -42 105q-70 122 -208 211
q-109 4 -156 -86q-20 -38 -26 -91q-1 -40 -8 -74q13 2 29 2q75 0 101 -37q-5 -4 -17 -4q-22 0 -60 13q-32 13 -56 12q-9 -33 -21 -58q-28 -61 -66 -76q-6 -8 -25 -19q25 -120 67 -173q69 -86 100 -115q64 -59 120 -59t119 59q31 29 100 116q40 49 47 126q2 16 2 148z
M844 536q-8 -5 -21 1q-22 13 -42 13q-22 0 -52 -11q-37 -14 -59 -14q-12 0 -17 5q26 36 100 36q18 0 33.5 -2.5t26.5 -6.5q27 -9 31 -21zM822 446q-12 -12 -25 -12q-12 0 -22.5 10t-26.5 15q4 -8 4 -17q0 -14 -10 -24t-24 -10t-24 10t-10 24q0 12 8 21q-23 -9 -23 -24
q0 -4 2 -9l-17 5q5 12 13 20q18 21 46 22v-1q2 1 5 1q35 1 57 -11q6 -4 13 -4q14 0 24 13q2 -18 -17 -22q13 -11 27 -7zM565 434l-17 -5q1 4 1 8q0 22 -32 26q7 -9 7 -20q0 -14 -9.5 -23.5t-23.5 -9.5t-23.5 9.5t-9.5 23.5q0 9 4 16q-11 -4 -17 -11q-14 -18 -30 -18
q-10 0 -19 7q8 0 21 13q-16 3 -16 15q0 5 3 10q18 -14 26 -14q1 0 17.5 9t45.5 8q19 -2 32 -7q34 -12 40 -37zM692 215h-176q30 58 88 58q59 0 88 -58zM691 205q-9 -31 -31 -52q-25 -23 -55 -23q-31 0 -54.5 22t-32.5 53h10q29 -23 77 -23t72 23h14zM721 442q0 5 -5 5t-5 -5
t5 -5t5 5zM718 428q0 9 -9 9q-8 0 -8 -9t8 -9q9 0 9 9zM495 442q0 5 -6 5q-5 0 -5 -5t5 -5q6 0 6 5zM491 428q0 9 -9 9q-8 0 -8 -9t8 -9q9 0 9 9z" />
    <glyph glyph-name="infinity" unicode="&#x221e;" horiz-adv-x="932" 
d="M169 772q0 -27 -28 -27q-27 0 -27 27q0 28 27 28q28 0 28 -28zM68 509q0 22 23 22h1q27 0 27 27v149q0 22 22 22q23 0 23 -22v-149q0 -30 -21 -50.5t-51 -20.5h-1q-23 0 -23 22zM324 670l-42 -42q-6 -6 -16 -6q-23 0 -23 22q0 8 8 16l23 23q-4 1 -8 1q-17 0 -28.5 -11.5
t-11.5 -28.5t11.5 -28.5t28.5 -11.5h29q23 0 23 -22q0 -23 -23 -23h-29q-36 0 -60.5 24.5t-24.5 60.5t24.5 60.5t60.5 24.5t61 -26q7 -7 7 -15q0 -11 -10 -18zM418 664v-39q0 -28 -19 -46.5t-47 -18.5q-22 0 -22 23q0 16 21.5 22t21.5 21v38q0 27 19 46t46 19q23 0 23 -22
q0 -21 -22 -22q-10 -1 -15.5 -7t-5.5 -14zM509 664v-39q0 -27 -19 -46t-46 -19q-22 0 -22 23q0 16 21 22t21 21l1 6v32q0 27 19 46t46 19q22 0 22 -22q0 -21 -21 -22q-10 -1 -16 -7t-6 -14zM620 772q0 -27 -28 -27q-27 0 -27 27q0 28 27 28q28 0 28 -28zM614 707
q0 22 -22 22q-23 0 -23 -22v-125q0 -22 23 -22q22 0 22 22v125zM718 684q-17 0 -28.5 -11.5t-11.5 -28.5q0 -39 40 -39q22 0 22 -23q0 -22 -22 -22q-35 0 -60 24.5t-25 59.5q0 36 24.5 60.5t60.5 24.5q22 0 22 -22q0 -23 -22 -23zM843 559q-35 0 -60 25t-25 60
q0 36 24.5 60.5t60.5 24.5t60.5 -24.5t24.5 -60.5v-62q0 -23 -23 -23q-22 0 -22 23v62q0 17 -11.5 28.5t-28.5 11.5t-28.5 -11.5t-11.5 -28.5t11.5 -28.5t28.5 -11.5q23 0 23 -22q0 -23 -23 -23zM188 183q-51 0 -85.5 35t-34.5 86q0 50 35 85t85 35t85 -35.5t35 -85.5v-88
q0 -32 -32 -32q-31 0 -31 32v88q0 24 -16.5 40.5t-40.5 16.5t-40 -16t-16 -40t16 -40.5t40 -16.5q32 0 32 -32t-32 -32zM397 487v-272q0 -31 -32 -31q-31 0 -31 31v272q0 31 31 31q32 0 32 -31zM542 424q51 0 85.5 -35t34.5 -86q0 -50 -35 -84.5t-85 -34.5t-84.5 35
t-34.5 85v184q0 31 31 31q32 0 32 -31v-184q0 -24 16 -40.5t40 -16.5t40.5 16t16.5 40t-16.5 40.5t-40.5 16.5q-31 0 -31 32t31 32zM808 183q-51 0 -85.5 35t-34.5 86q0 50 35 85t85 35t85 -35.5t35 -85.5v-88q0 -32 -32 -32t-32 32v88q0 24 -16 40.5t-40 16.5t-40 -16
t-16 -40t16 -40.5t40 -16.5q32 0 32 -32t-32 -32zM97 113q0 -14 -15 -14q-14 0 -14 14q0 15 14 15q15 0 15 -15zM94 79q0 12 -12 12t-12 -12v-67q0 -12 12 -12t12 12v67zM154 63q-3 -3 -3 -7v-21q0 -14 -10.5 -24t-24.5 -10q-12 0 -12 11q0 9 11.5 12t11.5 11v21q0 35 35 35
q12 0 12 -12q0 -5 -3 -9q-6 0 -17 -7zM282 91q19 0 32 -13.5t13 -32.5q0 -18 -13.5 -31.5t-31.5 -13.5q-19 0 -32 13t-13 32v70q0 12 11 12q12 0 12 -12v-70q0 -21 22 -21q21 0 21 21q0 22 -21 22q-12 0 -12 11q0 13 12 13zM413 59l-23 -23q-3 -3 -8 -3q-12 0 -12 12
q0 4 3 8l13 13q-2 1 -5 1q-21 0 -21 -22q0 -21 22 -21h15q12 0 12 -12t-12 -12h-15q-19 0 -32.5 13t-13.5 32t13.5 32.5t32.5 13.5t32 -14q4 -4 4 -9t-5 -9zM472 0q-19 0 -32 13t-13 32t13 32.5t32 13.5t32.5 -13.5t13.5 -32.5v-33q0 -12 -13 -12q-11 0 -11 12v33
q0 22 -22 22q-21 0 -21 -22q0 -21 21 -21q12 0 12 -12t-12 -12zM551 78v-39q0 -15 14 -15q15 0 15 15v40q0 12 12 12t12 -12v-40q0 -16 -11.5 -27.5t-27.5 -11.5t-27 11.5t-11 27.5v39q0 13 12 13t12 -13zM689 38q0 -16 -11 -27t-27 -11t-27 11t-11 27v61q0 12 12 12t12 -12
v-9h41q11 0 11 -12t-11 -12h-41v-28q0 -14 14 -14t14 14v2q0 12 12 12t12 -12v-2zM726 113q0 -14 -15 -14t-15 14q0 15 15 15t15 -15zM723 79q0 12 -12 12t-12 -12v-67q0 -12 12 -12t12 12v67zM798 39h-41v-27q0 -12 -12 -12t-12 12v76q0 16 11 27.5t27 11.5t27 -11.5
t11 -27.5v-1q0 -12 -12 -12t-12 12v1q0 15 -14 15t-14 -15v-25h41q12 0 12 -12t-12 -12zM843 78v-39q0 -15 14 -15t14 15v40q0 12 12 12t12 -12v-40q0 -16 -11 -27.5t-27 -11.5t-27 11.5t-11 27.5v39q0 13 12 13t12 -13zM929 114v-102q0 -12 -12 -12t-12 12v102q0 12 12 12
t12 -12z" />
    <glyph glyph-name="integral" unicode="&#x222b;" horiz-adv-x="381" 
d="M314 550h-44q-26 0 -43.5 -17.5t-17.5 -43.5v-489q0 -100 -68 -168t-168 -68h-44q-38 0 -63 25t-25 63t25 62.5t63 24.5h44q26 0 43.5 17.5t17.5 43.5v489q0 100 68 168t168 68h44q38 0 62.5 -25t24.5 -63t-24.5 -62.5t-62.5 -24.5z" />
    <glyph glyph-name="approxequal" unicode="&#x2248;" 
d="M499 -574h-229q-100 0 -168 68t-68 168v11q0 116 79 196t195 80h87q14 0 14 15v281q0 42 -29 71t-71 29t-71 -29t-29 -71t29 -71.5t71 -29.5q38 0 63 -24.5t25 -62.5t-25 -63t-63 -25q-117 0 -196 79.5t-79 196.5t79 196t196 79t196 -79t79 -196v-281q0 -80 -55 -135
t-134 -55h-86q-42 0 -71 -29.5t-29 -71.5v-11q0 -26 17.5 -43.5t43.5 -17.5h229q38 0 63 -24.5t25 -62.5t-25 -63t-63 -25z" />
    <glyph glyph-name="approxequal" unicode="&#x22f2;" 
d="M499 -574h-229q-100 0 -168 68t-68 168v11q0 116 79 196t195 80h87q14 0 14 15v281q0 42 -29 71t-71 29t-71 -29t-29 -71t29 -71.5t71 -29.5q38 0 63 -24.5t25 -62.5t-25 -63t-63 -25q-117 0 -196 79.5t-79 196.5t79 196t196 79t196 -79t79 -196v-281q0 -80 -55 -135
t-134 -55h-86q-42 0 -71 -29.5t-29 -71.5v-11q0 -26 17.5 -43.5t43.5 -17.5h229q38 0 63 -24.5t25 -62.5t-25 -63t-63 -25z" />
    <glyph glyph-name="notequal" unicode="&#x2260;" horiz-adv-x="1103" 
d="M1119 520q33 -44 33 -89q0 -56 -46 -99q5 -14 5 -26q0 -46 -66 -55q1 -8 1 -16q0 -73 -87 -90q-13 -79 -93 -79q-45 0 -97 23v-1q-4 2 -9 6q-38 -28 -75 -56q-48 -35 -83 -35q-79 0 -199 117v-1q-68 -31 -126 -31q-59 0 -105 32q-35 25 -55 63q-18 32 -14 42
q-48 26 -74 61q78 -1 105 36q-65 0 -83 93q99 53 131 109q-105 -10 -137 78q181 35 224 141q32 112 114 199q105 112 201 40q27 4 53 4q181 0 302 -175q50 -73 84 -175q8 -31 8 -70q0 -49 -14 -95q29 -20 51 -20q43 0 51 69zM870 503q-13 54 -42 105q-70 122 -208 211
q-109 4 -156 -86q-20 -38 -26 -91q-1 -40 -8 -74q13 2 29 2q75 0 101 -37q-5 -4 -17 -4q-22 0 -60 13q-32 13 -56 12q-9 -33 -21 -58q-28 -61 -66 -76q-6 -8 -25 -19q25 -120 67 -173q69 -86 100 -115q64 -59 120 -59t119 59q31 29 100 116q40 49 47 126q2 16 2 148z
M844 536q-8 -5 -21 1q-22 13 -42 13q-22 0 -52 -11q-37 -14 -59 -14q-12 0 -17 5q26 36 100 36q18 0 33.5 -2.5t26.5 -6.5q27 -9 31 -21zM822 446q-12 -12 -25 -12q-12 0 -22.5 10t-26.5 15q4 -8 4 -17q0 -14 -10 -24t-24 -10t-24 10t-10 24q0 12 8 21q-23 -9 -23 -24
q0 -4 2 -9l-17 5q5 12 13 20q18 21 46 22v-1q2 1 5 1q35 1 57 -11q6 -4 13 -4q14 0 24 13q2 -18 -17 -22q13 -11 27 -7zM565 434l-17 -5q1 4 1 8q0 22 -32 26q7 -9 7 -20q0 -14 -9.5 -23.5t-23.5 -9.5t-23.5 9.5t-9.5 23.5q0 9 4 16q-11 -4 -17 -11q-14 -18 -30 -18
q-10 0 -19 7q8 0 21 13q-16 3 -16 15q0 5 3 10q18 -14 26 -14q1 0 17.5 9t45.5 8q19 -2 32 -7q34 -12 40 -37zM692 215h-176q30 58 88 58q59 0 88 -58zM691 205q-9 -31 -31 -52q-25 -23 -55 -23q-31 0 -54.5 22t-32.5 53h10q29 -23 77 -23t72 23h14zM721 442q0 5 -5 5t-5 -5
t5 -5t5 5zM718 428q0 9 -9 9q-8 0 -8 -9t8 -9q9 0 9 9zM495 442q0 5 -6 5q-5 0 -5 -5t5 -5q6 0 6 5zM491 428q0 9 -9 9q-8 0 -8 -9t8 -9q9 0 9 9z" />
    <glyph glyph-name="lessequal" unicode="&#x2264;" horiz-adv-x="357" 
d="M290 -20h-168q-38 0 -62.5 25t-24.5 63t24.5 62.5t62.5 24.5h95q-15 7 -28 20l-89 90q-34 40 -34 69q0 35 35 70l88 89q27 27 62 27q36 0 62.5 -26.5t26.5 -62.5q0 -28 -21 -54q-4 -5 -42 -43q38 -38 42 -43q21 -26 21 -54q0 -58 -55 -82h5q38 0 62.5 -24.5t24.5 -62.5
q0 -39 -24 -63.5t-63 -24.5z" />
    <glyph glyph-name="greaterequal" unicode="&#x2265;" horiz-adv-x="357" 
d="M290 -20h-168q-38 0 -62.5 25t-24.5 63q0 73 70 86q-40 27 -40 73q0 28 21 54q4 5 42 43q-38 38 -42 43q-21 26 -21 54q0 36 26.5 62.5t62.5 26.5q35 0 62 -27l88 -89q35 -35 35 -70q0 -29 -34 -69q-16 -19 -89 -90q-3 -4 -11 -10h85q38 0 62.5 -24.5t24.5 -62.5
q0 -39 -24 -63.5t-63 -24.5z" />
    <glyph glyph-name="lozenge" unicode="&#x25ca;" horiz-adv-x="1103" 
d="M1119 520q33 -44 33 -89q0 -56 -46 -99q5 -14 5 -26q0 -46 -66 -55q1 -8 1 -16q0 -73 -87 -90q-13 -79 -93 -79q-45 0 -97 23v-1q-4 2 -9 6q-38 -28 -75 -56q-48 -35 -83 -35q-79 0 -199 117v-1q-68 -31 -126 -31q-59 0 -105 32q-35 25 -55 63q-18 32 -14 42
q-48 26 -74 61q78 -1 105 36q-65 0 -83 93q99 53 131 109q-105 -10 -137 78q181 35 224 141q32 112 114 199q105 112 201 40q27 4 53 4q181 0 302 -175q50 -73 84 -175q8 -31 8 -70q0 -49 -14 -95q29 -20 51 -20q43 0 51 69zM870 503q-13 54 -42 105q-70 122 -208 211
q-109 4 -156 -86q-20 -38 -26 -91q-1 -40 -8 -74q13 2 29 2q75 0 101 -37q-5 -4 -17 -4q-22 0 -60 13q-32 13 -56 12q-9 -33 -21 -58q-28 -61 -66 -76q-6 -8 -25 -19q25 -120 67 -173q69 -86 100 -115q64 -59 120 -59t119 59q31 29 100 116q40 49 47 126q2 16 2 148z
M844 536q-8 -5 -21 1q-22 13 -42 13q-22 0 -52 -11q-37 -14 -59 -14q-12 0 -17 5q26 36 100 36q18 0 33.5 -2.5t26.5 -6.5q27 -9 31 -21zM822 446q-12 -12 -25 -12q-12 0 -22.5 10t-26.5 15q4 -8 4 -17q0 -14 -10 -24t-24 -10t-24 10t-10 24q0 12 8 21q-23 -9 -23 -24
q0 -4 2 -9l-17 5q5 12 13 20q18 21 46 22v-1q2 1 5 1q35 1 57 -11q6 -4 13 -4q14 0 24 13q2 -18 -17 -22q13 -11 27 -7zM565 434l-17 -5q1 4 1 8q0 22 -32 26q7 -9 7 -20q0 -14 -9.5 -23.5t-23.5 -9.5t-23.5 9.5t-9.5 23.5q0 9 4 16q-11 -4 -17 -11q-14 -18 -30 -18
q-10 0 -19 7q8 0 21 13q-16 3 -16 15q0 5 3 10q18 -14 26 -14q1 0 17.5 9t45.5 8q19 -2 32 -7q34 -12 40 -37zM692 215h-176q30 58 88 58q59 0 88 -58zM691 205q-9 -31 -31 -52q-25 -23 -55 -23q-31 0 -54.5 22t-32.5 53h10q29 -23 77 -23t72 23h14zM721 442q0 5 -5 5t-5 -5
t5 -5t5 5zM718 428q0 9 -9 9q-8 0 -8 -9t8 -9q9 0 9 9zM495 442q0 5 -6 5q-5 0 -5 -5t5 -5q6 0 6 5zM491 428q0 9 -9 9q-8 0 -8 -9t8 -9q9 0 9 9z" />
    <glyph glyph-name="fi" unicode="&#xf001;" horiz-adv-x="653" 
d="M422 191h-213v-133q0 -38 -25 -62.5t-63 -24.5t-62.5 24.5t-24.5 62.5v431q0 101 67.5 168.5t168.5 67.5q100 0 167.5 -68t67.5 -168v-7q0 -38 -24.5 -63t-62.5 -25q-37 0 -62.5 25.5t-25.5 62.5v7q0 26 -17 43.5t-43 17.5t-43.5 -17.5t-17.5 -43.5v-123h213
q38 0 62.5 -25t24.5 -63t-24.5 -62.5t-62.5 -24.5zM621 528q-43 0 -73 30t-30 73t30 73t73 30t73 -30t30 -73t-30 -73t-73 -30zM621 -29q-38 0 -62.5 24.5t-24.5 62.5v375q0 38 24.5 62.5t62.5 24.5q39 0 63.5 -24t24.5 -63v-375q0 -38 -25 -62.5t-63 -24.5z" />
    <glyph glyph-name="fl" unicode="&#xf002;" horiz-adv-x="650" 
d="M422 191h-213v-133q0 -38 -25 -62.5t-63 -24.5t-62.5 24.5t-24.5 62.5v431q0 101 67.5 168.5t168.5 67.5q100 0 167.5 -68t67.5 -168v-7q0 -38 -24.5 -63t-62.5 -25q-37 0 -62.5 25.5t-25.5 62.5v7q0 26 -17 43.5t-43 17.5t-43.5 -17.5t-17.5 -43.5v-123h213
q38 0 62.5 -25t24.5 -63t-24.5 -62.5t-62.5 -24.5zM621 -29q-38 0 -62.5 24.5t-24.5 62.5v578q0 38 24.5 62.5t62.5 24.5q39 0 63.5 -24t24.5 -63v-578q0 -38 -25 -62.5t-63 -24.5z" />
    <glyph glyph-name="HT" horiz-adv-x="303" 
 />
    <glyph glyph-name="nonmarkingreturn" horiz-adv-x="303" 
 />
  </font>
</defs>
</svg>
