<?xml version="1.0" standalone="no"?>
<!DOCTYPE svg PUBLIC "-//W3C//DTD SVG 1.1//EN" "http://www.w3.org/Graphics/SVG/1.1/DTD/svg11.dtd" >
<svg xmlns="http://www.w3.org/2000/svg" xmlns:xlink="http://www.w3.org/1999/xlink" version="1.1">
<metadata>
Created by FontForge 20190801 at Wed Apr 19 23:34:22 2006
 By Jimmy Wärting
(c) Copyright SoftMaker Software GmbH and its licensors
</metadata>
<defs>
<font id="CooperBlack" horiz-adv-x="500" >
  <font-face 
    font-family="Cooper-Black"
    font-weight="400"
    font-stretch="normal"
    units-per-em="1000"
    panose-1="0 0 4 0 0 0 0 0 0 0"
    ascent="800"
    descent="-200"
    x-height="483"
    cap-height="677"
    bbox="-169 -257 1236 918"
    underline-thickness="126"
    underline-position="-179"
    unicode-range="U+0020-FB04"
  />
<missing-glyph 
d="M63 0v782h375v-782h-375zM125 63h250v657h-250v-657z" />
    <glyph glyph-name=".notdef" 
d="M63 0v782h375v-782h-375zM125 63h250v657h-250v-657z" />
    <glyph glyph-name="NULL" horiz-adv-x="0" 
 />
    <glyph glyph-name="nonmarkingreturn" horiz-adv-x="250" 
 />
    <glyph glyph-name="space" unicode=" " horiz-adv-x="250" 
 />
    <glyph glyph-name="exclam" unicode="!" horiz-adv-x="308" 
d="M157 199q42 0 72.5 -31t30.5 -74q0 -44 -31 -75.5t-75 -31.5t-75 31t-31 75q0 45 31.5 75.5t77.5 30.5zM154 660q50 0 82 -41t32 -106q0 -111 -63 -209q-33 -51 -53 -51q-19 0 -55 65q-57 104 -57 202q0 63 31 101.5t83 38.5z" />
    <glyph glyph-name="quotedbl" unicode="&#x22;" horiz-adv-x="432" 
d="M113 677q36 0 58.5 -31t22.5 -79q0 -38 -24 -110q-29 -85 -58 -85q-14 0 -39 48q-40 77 -40 152q0 47 22 76t58 29zM317 677q36 0 58.5 -31t22.5 -79q0 -38 -24 -110q-29 -85 -58 -85q-14 0 -39 48q-40 77 -40 152q0 47 22 76t58 29z" />
    <glyph glyph-name="numbersign" unicode="#" horiz-adv-x="600" 
d="M130 117l3 22q0 5 1 8q1 7 1 10q0 15 -24 15q1 0 -8.5 -1t-28.5 -1h-10q-21 0 -21 16q0 6 14.5 34t24.5 41q15 20 36 20q8 0 13 -1h10q11 0 14 18l4 28v6q-1 13 -16 13q-1 0 -19 -1t-26 -1h-10q-21 0 -21 16q0 6 14.5 34t24.5 41q15 20 36 20q9 0 13 -1t10 -1q11 0 14 19
l3 19q3 19 3 32q0 -2 1 35q1 22 14 31.5t45.5 21t46.5 11.5q16 0 16 -15q0 -5 -3 -17l-3 -15q0 -3 -4 -31l-12 -81q-3 -13 22 -13h25q15 0 20 4t7 19l2 18q4 36 4 66q0 22 14 32t47 21.5t46 11.5q16 0 16 -15q0 -5 -3 -17q-2 -4 -8 -46l-10 -71q-1 -5 -2 -12q-1 -6 3.5 -8.5
t13.5 -2.5l45 1q7 1 14 1q16 0 16 -16q0 -8 -25 -57q-20 -38 -41 -38q-12 0 -22 2q-5 1 -10 1q-11 0 -13 -18l-3 -23q-1 -5 -2 -12q-1 -15 27 -15q21 0 35 2q7 1 14 1q16 0 16 -14q0 -27 -36 -77q-14 -20 -30 -20q-13 0 -22 2q-5 1 -9 1q-10 0 -12 -9q-8 -23 -10 -99
q-1 -27 -15 -39q-10 -9 -46 -23t-47 -14q-16 0 -16 18l2 16q9 41 17 97l4 28l1 11q2 17 -21 17h-29q-20 0 -22 -20l-2 -11q-6 -32 -7 -80q-1 -27 -13 -37t-47.5 -24t-46.5 -14q-16 0 -16 18q0 5 2 15q5 23 17 97zM280 276h32q20 0 23 20l4 27l1 11q0 12 -18 12h-32
q-13 0 -17 -3.5t-6 -16.5l-4 -27q-1 -7 -1 -11q0 -12 18 -12z" />
    <glyph glyph-name="dollar" unicode="$" horiz-adv-x="600" 
d="M237 593v23q0 19 6.5 25.5t25.5 6.5h41q19 0 25.5 -6.5t6.5 -25.5v-24q0 -15 4.5 -18.5t31.5 -8.5q13 -3 28 -7q10 -3 14 -3t13 3q22 7 29 7q29 0 60.5 -45.5t31.5 -86.5q0 -25 -14 -41t-37 -16q-16 0 -26.5 7.5t-54.5 48t-95 40.5q-50 0 -50 -44q0 -16 10.5 -27
t26.5 -17.5t82 -26.5q170 -51 170 -182q0 -76 -55 -128q-68 -65 -149 -71q-13 -1 -16.5 -5t-3.5 -18v-23q0 -19 -6.5 -25.5t-25.5 -6.5h-41q-19 0 -25.5 6.5t-6.5 25.5v23q0 20 -14 22q-104 14 -141 44q-19 15 -34 60t-15 85q0 44 35 44q18 0 38 -22q3 -3 33 -49
q39 -62 125 -62q32 0 52 12t20 31q0 15 -9 22q-11 11 -24 17t-78 29q-177 62 -177 196q0 65 48.5 119t119.5 68q15 3 18 6t3 18z" />
    <glyph glyph-name="percent" unicode="%" horiz-adv-x="811" 
d="M222 677q70 0 123 -49t53 -114q0 -72 -61 -124t-146 -52q-78 0 -128 44.5t-50 114.5q0 78 59 129t150 51zM189 601q-30 0 -30 -36q0 -55 23 -108q15 -34 37 -34q28 0 28 37q0 55 -17.5 98t-40.5 43zM621 335q70 0 123 -49t53 -114q0 -72 -61 -124t-146 -52
q-79 0 -129 44.5t-50 114.5q0 78 59.5 129t150.5 51zM587 259q-30 0 -30 -36q0 -48 21 -100q17 -42 40 -42q28 0 28 37q0 55 -18 98t-41 43zM308 243l148 251q52 88 80 145q21 42 57 42q46 0 46 -23q0 -18 -38 -73q-33 -48 -81 -129l-151 -255q-7 -12 -29 -52l-37 -67
q-18 -33 -21 -41q-23 -46 -50 -46q-57 0 -57 25q0 11 10 26q35 53 123 197z" />
    <glyph glyph-name="ampersand" unicode="&#x26;" horiz-adv-x="869" 
d="M323 693q67 0 116 -27t49 -65q0 -21 -17 -38.5t-38 -17.5q-13 0 -48 24q-23 16 -48 16t-41.5 -18.5t-16.5 -46.5q0 -36 26 -52q9 -5 48 -10q30 -4 30 -41q0 -40 -33 -59q-13 -8 -54 -14q-23 -3 -23 -43q0 -75 58.5 -136t130.5 -61q58 0 101 34t43 81q0 23 -18.5 40
t-44.5 17q-40 0 -69 -49q-13 -22 -26 -22q-17 0 -30 20.5t-13 48.5q0 123 165 183q58 21 77 35t19 36q0 24 -23 24q-4 0 -17 -6q-3 -1 -8 -1q-20 0 -20 21q0 30 39 53.5t88 23.5q62 0 103 -35.5t41 -88.5q0 -88 -107 -148q-36 -20 -36 -34q0 -9 24 -25q48 -31 48 -88
q0 -79 -85 -144q-122 -93 -308 -93q-145 0 -250 54q-64 33 -103 92.5t-39 124.5q0 92 87 138q18 10 18 17q0 5 -5 14q-30 51 -30 87q0 72 71.5 125.5t168.5 53.5z" />
    <glyph glyph-name="quotesingle" unicode="'" horiz-adv-x="228" 
d="M113 677q36 0 58.5 -31t22.5 -79q0 -38 -24 -110q-29 -85 -58 -85q-14 0 -39 48q-40 77 -40 152q0 47 22 76t58 29z" />
    <glyph glyph-name="parenleft" unicode="(" horiz-adv-x="498" 
d="M406 -99l28 1q6 0 13 1l7 1q35 0 35 -48q0 -46 -97 -46q-140 0 -232.5 126t-92.5 319q0 192 84.5 307.5t226.5 115.5q66 0 96 -19q15 -10 15 -32q0 -49 -32 -49q-8 0 -20 2q-31 5 -40 5q-61 0 -90 -90q-34 -106 -34 -243q0 -204 58 -305q27 -48 75 -46z" />
    <glyph glyph-name="parenright" unicode=")" horiz-adv-x="498" 
d="M93 586l-28 -1q-6 0 -13 -1l-7 -1q-35 0 -35 48q0 46 97 46q157 0 248 -150q77 -128 77 -295q0 -192 -84.5 -307.5t-226.5 -115.5q-65 0 -96 19q-15 9 -15 32q0 48 32 49q7 0 20 -2q28 -5 40 -5q61 0 90 90q34 106 34 243q0 204 -58 305q-27 48 -75 46z" />
    <glyph glyph-name="asterisk" unicode="*" horiz-adv-x="600" 
d="M167 568l63 -23q8 -3 12 -3q12 0 8 14q-1 1 -1 3l-2 67l-1 5q-2 29 7.5 37.5t47.5 8.5q37 0 46 -9q10 -12 7 -37l-1 -5l-2 -67q-1 -17 8 -17q3 0 11 3l63 23q22 8 34 8q15 0 27 -31.5t12 -46.5q0 -19 -40 -31l-65 -19q-13 -4 -13 -11q0 -5 6 -11l42 -53q19 -24 19 -37
q0 -12 -28.5 -34t-43.5 -22q-14 0 -34 30l-37 56q-7 10 -12 10t-12 -10l-37 -56q-20 -30 -34 -30q-15 0 -43.5 22.5t-28.5 33.5q0 13 19 37l42 53q7 9 7 11q0 7 -14 11l-65 19q-40 12 -40 31q0 16 15 53q10 25 25 25q11 0 33 -8z" />
    <glyph glyph-name="plus" unicode="+" horiz-adv-x="600" 
d="M214 229h-24q-51 0 -97 -2q-4 -1 -10 -1q-23 0 -23 19q0 8 10.5 38t17.5 44q12 22 33 22q6 0 14 -1q39 -5 67 -5h12q27 0 27 27v31q0 28 -6 67q-1 4 -1 11q0 18 31 31q52 22 78 22q22 0 20 -19l-2 -13q-1 -6 -1 -46v-84q0 -27 27 -27h75q41 0 47 1q13 2 12 2q19 2 19 -19
q0 -34 -25 -82q-12 -23 -28 -23q-6 0 -33 4q-20 3 -45 3h-22q-27 0 -27 -27v-8q0 -41 5 -80q1 -8 1 -15q0 -21 -30 -35q-55 -25 -78 -25q-20 0 -20 23v10q3 27 3 97v33q0 27 -27 27z" />
    <glyph glyph-name="comma" unicode="," horiz-adv-x="300" 
d="M142 224q52 0 87.5 -46t35.5 -114q0 -86 -52 -175q-38 -65 -81 -65q-18 0 -33 11.5t-15 25.5q0 7 19 38q28 46 28 72q0 19 -17 25q-32 12 -46 24q-41 36 -41 90q0 47 33.5 80.5t81.5 33.5z" />
    <glyph glyph-name="hyphen" unicode="-" horiz-adv-x="284" 
d="M85 349q10 0 26 -2q55 -7 91 -7q32 0 45 3t21 3q16 2 16 -23q0 -46 -33 -116q-19 -40 -39 -40q-9 0 -24 3q-41 8 -99 8q-23 0 -44 -2t-24 -2q-21 0 -21 23q0 16 11.5 53t22.5 57q23 42 51 42z" />
    <glyph glyph-name="period" unicode="." horiz-adv-x="300" 
d="M150 217q48 0 81.5 -34t33.5 -82q0 -47 -34 -80.5t-81 -33.5t-81 34t-34 81t34 81t81 34z" />
    <glyph glyph-name="slash" unicode="/" horiz-adv-x="472" 
d="M56 61l176 402q0 1 22 57q4 9 23 55q17 39 23 57q9 25 19 35t34 10q80 0 80 -38q0 -17 -56 -129q-26 -53 -41 -86l-176 -400q-31 -71 -48 -115q-25 -66 -35 -80q-13 -19 -41 -19q-32 0 -54.5 12t-22.5 29q0 18 51 115q27 51 46 95z" />
    <glyph glyph-name="zero" unicode="0" horiz-adv-x="600" 
d="M290 563q118 0 201.5 -87t83.5 -211q0 -115 -80.5 -196.5t-194.5 -81.5q-119 0 -197 83.5t-78 210.5q0 126 73.5 204t191.5 78zM279 418q-46 0 -46 -77q0 -102 39 -182q15 -31 41 -31q44 0 44 79q0 99 -34 175q-16 36 -44 36z" />
    <glyph glyph-name="one" unicode="1" horiz-adv-x="600" 
d="M82 95q7 0 32 -3q16 -2 19 -2q40 0 47 65q4 38 4 210q0 27 -11 37.5t-39 10.5q-12 0 -19.5 -1t-17.5 -1q-37 0 -37 33q0 42 113.5 79t241.5 37q79 0 79 -42q0 -21 -30.5 -34.5t-36.5 -37t-6 -144.5q0 -123 9 -166q7 -34 41 -44q5 -1 37 -3q46 -2 46 -38q0 -38 -65 -49
q-93 -16 -185 -16q-86 0 -160 14q-104 20 -104 57q0 16 12.5 27t29.5 11z" />
    <glyph glyph-name="two" unicode="2" horiz-adv-x="600" 
d="M385 0h-332q-44 0 -44 25q0 13 9.5 24t60.5 59q163 153 163 232q0 54 -53 54q-22 0 -34 -6.5t-52 -39.5q-11 -9 -28 -9q-23 0 -42.5 18t-19.5 39q0 42 64 88q106 76 234 76q98 0 162 -38t64 -112q0 -85 -119 -185q-42 -35 -42 -54q0 -13 13 -22.5t30 -9.5q44 0 78 33
q25 24 38 24q43 0 43 -73q0 -62 -34 -115.5t-74 -53.5q-20 0 -36 25q-13 21 -49 21z" />
    <glyph glyph-name="three" unicode="3" horiz-adv-x="600" 
d="M257 560q93 0 167 -35q63 -30 63 -93q0 -53 -55 -97q-16 -13 -16 -20q0 -13 28 -19q56 -12 82 -33q49 -41 49 -113q0 -112 -99 -181.5t-260 -69.5q-100 0 -172 28q-46 18 -46 51q0 21 15.5 35.5t36.5 14.5q13 0 66 -13q16 -4 51 -4q57 0 93 28t36 65q0 35 -28.5 57
t-72.5 22q-26 0 -50 -6q-11 -4 -18 -4q-13 0 -26.5 26t-13.5 50q0 11 7 16t40 16q30 10 59 39q22 22 22 47q0 28 -22 48t-53 20q-27 0 -80 -27q-10 -5 -16 -5q-12 0 -23 17.5t-11 36.5q0 38 77.5 70.5t169.5 32.5z" />
    <glyph glyph-name="four" unicode="4" horiz-adv-x="600" 
d="M511 545v-338q0 -26 20 -26h20q24 0 24 -28v-99q0 -25 -26 -29q-18 -3 -22 -7t-4 -20v-58q0 -32 -29 -32h-167q-19 0 -23.5 6.5t-4.5 25.5v51q0 36 -35 36h-190q-35 0 -49 14.5t-14 49.5q0 46 11.5 74.5t78.5 108.5l124 149q94 113 138.5 143.5t101.5 30.5q46 0 46 -52z
M247 339l-75 -92q-33 -40 -33 -58t53 -22h65q23 0 31 3q13 6 15 25q3 28 3 112q0 52 -25 52q-18 0 -34 -20z" />
    <glyph glyph-name="five" unicode="5" horiz-adv-x="600" 
d="M183 553h347q21 0 29 -10q5 -8 5 -30q0 -44 -19 -83q-24 -48 -63 -48h-221q-37 0 -37 -29q0 -16 16 -21q5 -1 30 -4q111 -12 185 -47q52 -25 83 -67t31 -88q0 -49 -32 -96.5t-86 -78.5q-96 -55 -227 -55q-185 0 -185 76q0 22 7.5 38.5t18.5 16.5q8 0 15 -3q59 -16 94 -16
q41 0 66.5 18t25.5 47q0 71 -138 94q-53 9 -60 11q-10 2 -19 7q-17 10 -17 31q0 26 22.5 103t51.5 149q24 59 35.5 72t41.5 13z" />
    <glyph glyph-name="six" unicode="6" horiz-adv-x="600" 
d="M242 635q35 0 82.5 -20.5t47.5 -35.5q0 -9 -41 -56q-19 -22 -34.5 -51.5t-15.5 -44.5q0 -18 15 -18q4 0 35 11q42 15 76 15q76 0 129.5 -54.5t53.5 -131.5q0 -109 -84 -189q-77 -73 -193 -73q-128 0 -208 75q-88 82 -88 209q0 123 99 252q86 112 126 112zM295 296
q-46 0 -46 -57q0 -40 29 -80t58 -40q45 0 45 43q0 33 -15 68.5t-35 52.5q-16 13 -36 13z" />
    <glyph glyph-name="seven" unicode="7" horiz-adv-x="600" 
d="M572 495l-199 -601q-7 -21 -51 -21q-55 0 -101.5 17t-46.5 37q0 4 4 12l182 348q20 38 20 54q0 18 -23.5 25t-84.5 7q-73 0 -106 -10q-14 -4 -24 -18q-23 -32 -53 -32q-70 0 -70 109q0 64 24 109q26 49 62 49q12 0 50 -17q22 -10 60 -10h314q47 0 47 -35q0 -11 -4 -23z
" />
    <glyph glyph-name="eight" unicode="8" horiz-adv-x="600" 
d="M293 619q101 0 189 -34q45 -17 71.5 -50t26.5 -71q0 -56 -64 -98q-19 -13 -19 -20t23 -23q70 -50 70 -130q0 -41 -23.5 -83.5t-61.5 -70.5q-71 -52 -187 -52q-135 0 -221 54t-86 138q0 63 57 105q22 16 22 22t-19 25q-45 44 -45 106q0 80 75 131t192 51zM314 529
q-21 0 -35.5 -11t-14.5 -27q0 -23 36 -52t65 -29q13 0 23 17t10 39q0 28 -23.5 45.5t-60.5 17.5zM198 238q-24 0 -24 -38q0 -45 36.5 -79.5t84.5 -34.5q65 0 65 48q0 23 -17 39t-69.5 40.5t-75.5 24.5z" />
    <glyph glyph-name="nine" unicode="9" horiz-adv-x="600" 
d="M296 560q98 0 178 -44q107 -59 107 -191q0 -175 -169 -358q-85 -92 -124 -92q-29 0 -76 25t-47 41q0 10 30.5 30t57 59t26.5 64q0 19 -20 19q-8 0 -33 -2q-3 -1 -15 -1q-76 0 -124 45q-75 70 -75 182q0 105 79 162q85 61 205 61zM290 421q-20 0 -34.5 -18t-14.5 -43
q0 -50 24.5 -86.5t57.5 -36.5q20 0 32.5 15t12.5 38q0 26 -11 59.5t-26 50.5q-18 21 -41 21z" />
    <glyph glyph-name="colon" unicode=":" horiz-adv-x="300" 
d="M152 499q47 0 80 -33t33 -80q0 -49 -33.5 -83t-81.5 -34t-81.5 34t-33.5 82t34 81t83 33zM152 217q47 0 80 -33t33 -80q0 -49 -33.5 -83t-81.5 -34t-81.5 34t-33.5 82t34 81t83 33z" />
    <glyph glyph-name="semicolon" unicode=";" horiz-adv-x="300" 
d="M142 224q52 0 87.5 -46t35.5 -114q0 -86 -52 -175q-38 -65 -81 -65q-18 0 -33 11.5t-15 25.5q0 7 19 38q28 46 28 72q0 19 -17 25q-32 12 -46 24q-41 36 -41 90q0 47 33.5 80.5t81.5 33.5zM150 499q47 0 80 -33t33 -80q0 -49 -33.5 -83t-81.5 -34t-81.5 34t-33.5 82
t34 81t83 33z" />
    <glyph glyph-name="less" unicode="&#x3c;" 
d="M466 680v-218l-202 -123l201 -124l1 -216l-433 250v181z" />
    <glyph glyph-name="equal" unicode="=" horiz-adv-x="600" 
d="M215 430h247q40 0 46 1l13 2q19 2 19 -19q0 -36 -25 -82q-12 -23 -28 -23q-7 0 -33 4q-20 3 -45 3h-219q-51 0 -97 -2q-4 -1 -10 -1q-23 0 -23 19q0 8 10.5 38t17.5 44q12 22 33 22q9 0 14 -1q52 -5 80 -5zM215 256h247q40 0 46 1l13 2q19 2 19 -19q0 -36 -25 -82
q-12 -23 -28 -23q-7 0 -33 4q-20 3 -45 3h-219q-51 0 -97 -2q-4 -1 -10 -1q-23 0 -23 19q0 8 10.5 38t17.5 44q12 22 33 22q9 0 14 -1q52 -5 80 -5z" />
    <glyph glyph-name="greater" unicode="&#x3e;" 
d="M33 -1v217l203 124l-202 124l-1 216l433 -250v-182z" />
    <glyph glyph-name="question" unicode="?" horiz-adv-x="482" 
d="M228 199q42 0 72.5 -31t30.5 -74q0 -44 -31 -75.5t-75 -31.5t-75 31t-31 75q0 45 31.5 75.5t77.5 30.5zM238 666q95 0 164.5 -54t69.5 -128q0 -57 -47 -95q-6 -5 -71 -40q-39 -20 -51 -47q-15 -34 -26 -43q-14 -12 -46 -12q-64 0 -64 64q0 26 14 57q3 7 37 58
q32 48 32 90q0 48 -34 48q-25 0 -30 -46t-33.5 -73.5t-72.5 -27.5q-32 0 -52.5 19.5t-20.5 49.5q0 47 32.5 91.5t83.5 65.5q55 23 115 23z" />
    <glyph glyph-name="at" unicode="@" horiz-adv-x="799" 
d="M478 680q136 0 215 -74q83 -77 83 -193q0 -65 -30 -123.5t-83 -94.5q-75 -51 -157 -51q-46 0 -66 24q-8 9 -13 33q-3 9 -9 9q-7 0 -19 -12q-51 -50 -102 -50q-44 0 -71.5 31t-27.5 81q0 97 64 177.5t141 80.5q30 0 65 -22q14 -7 18 -7q2 0 40 17q28 12 52 12q34 0 34 -29
q0 -18 -7 -45q-35 -135 -35 -173q0 -18 17 -18q22 0 53 30q53 52 53 135q0 86 -60 136.5t-161 50.5q-150 0 -250 -99q-50 -50 -80.5 -121t-30.5 -140q0 -88 57.5 -136t161.5 -48q103 0 190 42q23 11 38 11q32 0 32 -28q0 -38 -78 -68.5t-176 -30.5q-146 0 -227.5 68.5
t-81.5 190.5q0 86 37.5 171t102.5 146q124 117 311 117zM444 434q-13 2 -39 -34q-41 -57 -41 -114q0 -23 13 -23q20 0 49 57t29 95q0 18 -11 19z" />
    <glyph glyph-name="A" unicode="A" horiz-adv-x="827" 
d="M650 338l93 -198q13 -28 22 -37t27 -11q35 -5 35 -35q0 -67 -183 -67q-158 0 -191 19q-27 16 -27 40q0 25 36 38q23 8 23 26q0 33 -41 39t-119 6q-63 0 -77 -8q-20 -11 -20 -42q0 -10 4.5 -13.5t27.5 -10.5q30 -9 30 -36q0 -58 -140 -58q-77 0 -116 11q-34 9 -34 45
q0 28 35 39q31 10 47 29.5t47 88.5l69 151q34 75 43 100q21 57 22 105q1 44 5 60t20 31q35 34 86 34q76 0 131 -78q57 -81 145 -268zM310 276h96q27 0 27 12q0 11 -19 46q-28 51 -39.5 66t-23.5 15q-16 0 -28 -33q-35 -70 -35 -94q0 -12 22 -12z" />
    <glyph glyph-name="B" unicode="B" horiz-adv-x="717" 
d="M85 670l42 -1q8 0 47 -2q31 -1 48 -1q36 0 142 4q26 1 61 1q119 0 174 -46q48 -40 48 -108q0 -75 -52 -117q-18 -15 -18 -25q0 -12 21 -21q41 -17 72 -54q34 -40 34 -100q0 -48 -26.5 -93.5t-70.5 -73.5q-60 -38 -155 -38q-5 0 -37 1q-39 2 -85 3l-46 1q-96 2 -166 -3
q-27 -2 -40 -2q-28 0 -46.5 14.5t-18.5 36.5q0 14 6.5 22t30.5 24q14 10 19.5 30.5t11.5 89.5q10 109 10 262q0 49 -3 62q-8 32 -40 45.5t-32 39.5q0 22 19.5 36t49.5 13zM318 531v-101q0 -43 28 -43q70 0 70 92q0 96 -67 96q-31 0 -31 -44zM318 249v-46q0 -54 3 -67
q9 -39 44 -39q74 0 74 87q0 108 -83 108q-38 0 -38 -43z" />
    <glyph glyph-name="C" unicode="C" horiz-adv-x="720" 
d="M391 680q72 0 138 -31q32 -15 43 -15q9 0 29 5q8 2 14 2q35 0 63 -50.5t28 -114.5q0 -45 -25 -73t-65 -28q-45 0 -71 49q-35 65 -66 86q-48 33 -99 33q-50 0 -79.5 -36.5t-29.5 -97.5q0 -58 22.5 -113t60.5 -89q49 -44 125 -44q89 0 138 47q19 18 31 18q17 0 29 -16
t12 -38q0 -29 -17 -64.5t-41 -54.5q-8 -6 -14 -8.5t-29 -6.5q-18 -3 -49 -18q-74 -35 -151 -35q-128 0 -228 75q-63 47 -100 120.5t-37 149.5q0 141 109.5 244.5t258.5 103.5z" />
    <glyph glyph-name="D" unicode="D" horiz-adv-x="802" 
d="M189 0q-17 0 -51 -2.5t-51 -2.5q-33 0 -53.5 15t-20.5 40q0 32 39 42q20 5 27 16t10 42q10 92 10 354q0 36 -3 46q-7 21 -33 31q-34 13 -34 43q0 51 88 51q12 0 32 -1t60 -1q75 0 158 4q21 1 47 1q161 0 246 -65q119 -91 119 -277q0 -154 -94.5 -249.5t-246.5 -91.5z
M327 530v-378q0 -57 57 -57q143 0 143 217q0 119 -33 185q-36 73 -124 73q-43 0 -43 -40z" />
    <glyph glyph-name="E" unicode="E" horiz-adv-x="691" 
d="M120 667h251q126 0 180 16q10 3 16 3q30 0 53.5 -41t23.5 -94q0 -69 -51 -69q-18 0 -29 11q-6 5 -20 26q-21 32 -54 43.5t-103 11.5q-57 0 -71 -17q-8 -8 -10 -26.5t-2 -84.5q0 -42 8.5 -50t51.5 -8q38 0 43 39q6 46 20 58q11 9 24 9q19 0 35 -19q24 -35 24 -126
q0 -51 -11 -91q-16 -62 -53 -62q-19 0 -26 13q-4 7 -7 31q-7 55 -64 55q-22 0 -30 -14t-8 -51q0 -96 14 -117q11 -16 89 -16q72 0 109 18.5t60 67t54 48.5q20 0 33.5 -18t13.5 -44q0 -68 -53 -151q-18 -28 -37 -28q-9 0 -26 3q-40 7 -84 7h-414q-52 0 -52 42q0 14 5.5 21
t27.5 16q26 11 33 43q16 69 16 198q0 188 -24 238q-7 15 -35 23t-28 37q0 30 28 42q17 7 79 7z" />
    <glyph glyph-name="F" unicode="F" horiz-adv-x="661" 
d="M321 257v-45q0 -73 11.5 -95t50.5 -25q30 -3 30 -40t-44 -47q-65 -15 -178 -15q-100 0 -139 12t-39 50q0 22 15 35q4 3 29.5 13.5t30.5 48.5q9 63 9 274q0 79 -1 88q-6 57 -36 70q-22 10 -28 15q-12 10 -12 28q0 21 21 35.5t52 14.5q23 0 57 -3q80 -7 190 -7
q120 0 240 10l12 1q26 2 51 -45t25 -96q0 -30 -14 -48t-37 -18q-17 0 -26 7t-46 49t-167 42q-31 0 -40 -13q-18 -26 -18 -120q0 -22 17 -29q9 -4 37 -4q40 0 48 34q12 53 45 53q60 0 60 -143q0 -158 -70 -158q-28 0 -32 39t-20 54t-45 15q-30 0 -36 -16q-3 -7 -3 -21z" />
    <glyph glyph-name="G" unicode="G" horiz-adv-x="794" 
d="M395 681q62 0 120 -18q26 -8 35 -8q10 0 41 11q9 3 21 3q33 0 62.5 -46.5t29.5 -98.5q0 -42 -21.5 -68t-55.5 -26q-29 0 -56 21q-7 4 -40 45q-54 66 -124 66q-63 0 -100.5 -46.5t-37.5 -125.5q0 -108 51.5 -186t123.5 -78q25 0 41.5 17t16.5 43q0 23 -13 34q-7 5 -39 5
q-21 0 -34.5 13.5t-13.5 34.5q0 31 36 49q53 26 154 26q82 0 139 -17q53 -16 53 -60q0 -40 -44 -46q-17 -2 -22 -7t-11 -26q-28 -95 -110 -150t-198 -55q-161 0 -268.5 101t-107.5 252q0 134 97 232q108 109 275 109z" />
    <glyph glyph-name="H" unicode="H" horiz-adv-x="802" 
d="M90 308v41q0 42 -1 86.5t-1 45.5q0 45 -7.5 58t-40.5 28q-21 10 -21 32q0 39 53 57q65 22 157 22q153 0 153 -63q0 -29 -37 -52q-23 -14 -28 -48q-2 -11 -2 -60q0 -34 12 -41.5t93 -7.5q46 0 50 1q25 5 25 31q0 53 -2 67q-5 46 -27 58q-36 20 -36 43q0 46 55 59
q50 12 128 12q175 0 175 -67q0 -30 -30 -44q-19 -9 -24.5 -17t-9.5 -30q-8 -45 -8 -262q0 -97 7 -126q3 -14 8 -19t32 -20q18 -10 18 -31q0 -71 -187 -71q-166 0 -166 65q0 28 28 44q19 11 24 25q14 41 14 115q0 34 -9 42t-48 8q-86 0 -112 -10q-14 -7 -14 -84q0 -53 16 -76
q6 -9 26.5 -20.5t20.5 -38.5q0 -70 -183 -70q-178 0 -178 67q0 18 13 29q6 6 29 18t28 54q7 63 7 150z" />
    <glyph glyph-name="I" unicode="I" horiz-adv-x="413" 
d="M229 677q53 0 105 -10q66 -13 66 -56q0 -14 -6.5 -21.5t-34.5 -21.5t-35 -91q-1 -15 -1 -106q0 -186 10 -231q5 -24 36 -38.5t31 -43.5t-39 -45q-56 -23 -178 -23q-160 0 -160 60q0 24 31 42q24 15 29 40q9 50 9 236q0 92 -2 108q-8 66 -42.5 88.5t-34.5 45.5q0 31 53 46
q77 21 163 21z" />
    <glyph glyph-name="J" unicode="J" horiz-adv-x="627" 
d="M422 677q53 0 111 -10q87 -15 87 -59q0 -25 -39 -45q-33 -17 -36 -62q-2 -25 -3 -104l-3 -165q-4 -130 -80.5 -187.5t-190.5 -57.5q-118 0 -203 53q-72 45 -72 130q0 49 30.5 81t77.5 32q46 0 77.5 -27.5t31.5 -66.5q0 -10 -6 -35q-1 -3 -1 -11q0 -35 41 -35
q33 0 53 29.5t20 76.5q0 243 -8 293q-5 31 -22 43q-4 3 -32.5 10t-28.5 39q0 42 54 58q66 20 142 20z" />
    <glyph glyph-name="K" unicode="K" horiz-adv-x="827" 
d="M584 534l-52 -51q-29 -28 -29 -50q0 -21 31 -57l183 -212q35 -40 61 -52q49 -22 49 -60q0 -52 -74 -52h-185q-22 0 -38 15q-7 6 -27 34q-36 50 -101 120q-45 48 -59 48q-28 0 -28 -53q0 -49 27 -66q34 -22 34 -48q0 -32 -43 -46t-144 -14q-97 0 -134.5 12.5t-37.5 45.5
q0 25 29 44q22 14 29 55q10 55 10 170q0 138 -10 194q-7 38 -34.5 53.5t-27.5 43.5q0 44 72 59q49 10 125 10q78 0 112.5 -14.5t34.5 -48.5q0 -15 -5 -23t-27 -26q-8 -6 -14.5 -32.5t-6.5 -50.5q0 -41 19 -41q16 0 63 59q37 46 37 62q0 10 -9 27q-7 13 -7 22q0 36 39.5 51
t133.5 15q87 0 121.5 -13.5t34.5 -48.5q0 -37 -32 -47q-8 -2 -48 -3q-26 0 -39 -6t-33 -25z" />
    <glyph glyph-name="L" unicode="L" horiz-adv-x="633" 
d="M334 453v-224q0 -78 15 -101t66 -23q108 0 133 101q8 32 33 32q26 0 42.5 -23.5t16.5 -60.5q0 -65 -50 -136q-21 -31 -46 -31q-17 0 -69 10q-16 3 -40 3h-341q-34 0 -47 8q-20 10 -20 33q0 16 11 25q4 3 27 14q28 14 36 37q6 17 6 117q0 15 -3 130q-1 48 -2 122
q-1 42 -6.5 55t-25.5 20q-57 20 -57 46q0 70 195 70q135 0 176 -23q26 -15 26 -38q0 -17 -8 -25t-40 -22q-22 -10 -27 -51q-1 -8 -1 -65z" />
    <glyph glyph-name="M" unicode="M" horiz-adv-x="884" 
d="M503 202l-59 -131q-25 -56 -45 -56q-10 0 -19 10q-15 16 -56 108l-65 145q-13 30 -28 30q-16 0 -20 -60v-75q0 -56 6 -69.5t38 -29.5q17 -9 17 -29q0 -55 -141 -55q-118 0 -118 53q0 13 6 19.5t31 18.5q16 8 22 20.5t10 49.5q12 100 12 281q0 79 -12 108q-6 15 -32 27
q-34 16 -34 44q0 27 31 44q41 22 135 22q63 0 88 -10q19 -8 41 -48l101 -187q16 -30 23 -37t18 -7q17 0 35 35l69 134q8 17 17 34q26 54 54.5 70t100.5 16q139 0 139 -63q0 -23 -25.5 -41.5t-30.5 -51.5q-11 -66 -11 -164q0 -131 12 -219q3 -23 9 -31t31 -25q17 -11 17 -31
q0 -34 -46 -49q-36 -12 -130 -12q-166 0 -166 56q0 18 36 48q22 18 22 139q0 64 -19 64q-13 0 -25 -18t-39 -77z" />
    <glyph glyph-name="N" unicode="N" horiz-adv-x="830" 
d="M288 644l243 -213q35 -31 50 -31q25 0 25 52q0 53 -3 67q-7 39 -35 53q-35 17 -35 47q0 41 56 53q23 5 83 5q71 0 100 -9q45 -14 45 -52q0 -31 -37 -47q-23 -10 -29 -26q-14 -38 -14 -122v-160q0 -147 -2 -172q-8 -99 -56 -99q-23 0 -62 35l-290 260q-30 27 -50 27
q-29 0 -29 -83q0 -57 3 -72q7 -43 35 -57q32 -16 32 -42q0 -68 -146 -68q-138 0 -138 67q0 18 11 29q5 5 28 18.5t27 47.5q8 66 8 182q0 126 -15 183q-9 36 -41 51q-39 18 -39 46q0 37 49 52q37 11 127 11q36 0 53 -5q21 -6 46 -28z" />
    <glyph glyph-name="O" unicode="O" horiz-adv-x="778" 
d="M394 681q125 0 219 -72q64 -49 103 -127t39 -157q0 -141 -108.5 -239.5t-264.5 -98.5q-153 0 -256 99.5t-103 247.5q0 151 105 249t266 98zM347 541q-35 0 -59 -29.5t-24 -72.5q0 -56 22.5 -128.5t56 -126.5t83.5 -54q37 0 59.5 28t22.5 73q0 60 -19 128.5t-49 116.5
q-41 65 -93 65z" />
    <glyph glyph-name="P" unicode="P" horiz-adv-x="684" 
d="M101 487q0 50 -7 63.5t-37 22.5q-44 13 -44 43q0 48 72 46l58 -2q79 -3 117 0q54 5 107 10q31 3 52 3q112 0 181.5 -59t69.5 -154t-70.5 -155.5t-179.5 -60.5q-26 0 -63 3l-25 2q-12 0 -14 -19l3 -80q1 -24 8.5 -35t31.5 -24q31 -17 31 -37q0 -64 -179 -64
q-181 0 -181 61q0 18 14 29q6 5 30 17q21 10 23 40q2 25 2 40v310zM321 549v-166q0 -18 6 -22q11 -8 38 -8q40 0 63 28t23 77q0 50 -25.5 80.5t-68.5 30.5q-36 0 -36 -20z" />
    <glyph glyph-name="Q" unicode="Q" horiz-adv-x="781" 
d="M110 52l22 -1q11 0 11 10q0 7 -20 31q-100 116 -100 247q0 153 111 247q52 44 121.5 69.5t136.5 25.5q121 0 215 -67q65 -46 105.5 -127t40.5 -164q0 -109 -62.5 -195.5t-162.5 -117.5q-12 -4 -12 -10q0 -17 43 -30.5t99 -13.5q34 0 65 14q7 3 11 3q8 0 16 -12t8 -25
q0 -42 -68.5 -78t-149.5 -36q-63 0 -136 24t-215 91q-59 28 -108 28q-4 0 -12.5 -1t-12.5 -1q-22 0 -22 28q0 26 22.5 44t53.5 17zM345 539q-38 0 -60 -26t-22 -72q0 -88 40 -189q49 -126 124 -126q38 0 63.5 27t25.5 68q0 55 -19.5 124.5t-49.5 122.5q-40 71 -102 71z" />
    <glyph glyph-name="R" unicode="R" horiz-adv-x="776" 
d="M339 281q-22 0 -27 -21q-2 -7 -2 -40q0 -65 8 -100q4 -16 26 -28q29 -16 29 -43q0 -32 -40.5 -45.5t-138.5 -13.5q-180 0 -180 68q0 19 30 39t35.5 67.5t5.5 281.5q0 56 -2 71q-7 43 -34 57q-36 18 -36 42q0 37 53 51q20 5 58 5q17 0 80 -5q13 -1 39 -1t117 6q46 3 65 3
q107 0 170.5 -48t63.5 -128q0 -98 -80 -138q-16 -8 -16 -19q0 -12 24 -22q53 -22 76.5 -59.5t32.5 -111.5q4 -33 12.5 -43t38.5 -18q22 -6 22 -33q0 -34 -41.5 -54t-112.5 -20q-95 0 -136 51q-32 40 -62 163q-21 86 -78 86zM310 530l-5 -118q0 -18 5.5 -24t20.5 -6
q82 0 82 93q0 95 -67 95q-34 0 -36 -40z" />
    <glyph glyph-name="S" unicode="S" horiz-adv-x="645" 
d="M314 681q50 0 132 -25q10 -3 16 -3q5 0 29 9q8 3 17 3q32 0 68.5 -52.5t36.5 -98.5q0 -27 -16.5 -46t-39.5 -19q-19 0 -31 8t-54 47q-59 55 -115 55q-60 0 -60 -48q0 -42 75 -64q96 -28 125 -40.5t63 -40.5q65 -53 65 -141q0 -106 -86 -172t-226 -66q-62 0 -131.5 15
t-100.5 35q-23 15 -42 68t-19 102q0 52 40 52q19 0 36 -19q5 -5 48 -68q18 -28 57.5 -46t81.5 -18q36 0 58.5 13.5t22.5 34.5q0 36 -75 60q-119 38 -174 87q-77 69 -77 155q0 92 81 157.5t195 65.5z" />
    <glyph glyph-name="T" unicode="T" horiz-adv-x="701" 
d="M228 667h257q38 0 76 11q14 4 26 4q39 0 76.5 -59t37.5 -121q0 -76 -73 -76q-48 0 -82 62q-27 49 -48 49q-34 0 -34 -65v-273q0 -37 6 -54q9 -25 36 -37q45 -19 45 -50q0 -68 -194 -68q-228 0 -228 74q0 12 7 21t45 21q19 6 25.5 21t11.5 58q11 104 11 262q0 90 -29 90
q-19 0 -37 -27q-33 -48 -55 -66.5t-48 -18.5t-43 20t-17 51q0 60 41.5 121.5t81.5 61.5q9 0 23 -3q43 -9 82 -9z" />
    <glyph glyph-name="U" unicode="U" horiz-adv-x="820" 
d="M735 423v-120q0 -104 -16.5 -153.5t-65.5 -89.5q-90 -73 -247 -73t-251 75q-46 36 -63.5 85t-17.5 140q0 8 1 50q1 49 1 67l1 76q0 36 -3 49q-6 21 -29 36q-32 21 -32 48q0 31 40 47.5t147 16.5q82 0 133.5 -12t51.5 -53q0 -20 -15 -33l-30 -15q-19 -10 -24 -37
q-2 -11 -2 -47q0 -30 -1 -69l-3 -116q-2 -76 37 -120t109 -44q83 0 119 54q23 35 23 106v108q0 117 -6 143q-5 22 -33 35q-43 21 -43 45q0 55 147 55q143 0 143 -55q0 -14 -6 -20.5t-30.5 -21t-30.5 -33.5q-3 -9 -3 -44z" />
    <glyph glyph-name="V" unicode="V" horiz-adv-x="803" 
d="M692 516l-224 -455q-20 -42 -39 -57.5t-47 -15.5q-31 0 -49.5 14t-35.5 52l-199 441q-18 39 -31 52t-38 16q-29 4 -29 36q0 78 199 78q193 0 193 -62q0 -20 -26 -38q-20 -14 -20 -25q0 -8 10 -31l60 -137q14 -31 31 -31q26 0 62 80q52 114 52 124q0 16 -24.5 29t-24.5 33
q0 58 156 58q77 0 109.5 -12.5t32.5 -42.5q0 -37 -42 -41q-32 -3 -43.5 -13t-32.5 -52z" />
    <glyph glyph-name="W" unicode="W" horiz-adv-x="1040" 
d="M453 493l-14 35q-11 28 -32 39q-35 19 -35 48q0 62 188 62q93 0 142 -15q36 -11 36 -43q0 -18 -30 -44q-12 -10 -12 -21q0 -18 18 -57l28 -60q29 -62 46 -62t39 62l24 69q10 29 10 44q0 19 -21 26q-41 13 -41 46q0 55 136 55q46 0 74 -11q37 -14 37 -47q0 -23 -33 -51
q-21 -18 -43 -76l-85 -228q-70 -188 -104 -243q-20 -32 -59 -32q-54 0 -77 55l-97 230q-12 29 -23 29q-10 0 -17 -12t-28 -64l-67 -165q-18 -45 -35 -59.5t-51 -14.5q-55 0 -81 67l-180 459q-10 26 -11 27q-5 9 -20 18l-10 6q-25 15 -25 44q0 68 171 68q91 0 127.5 -13.5
t36.5 -47.5q0 -15 -16 -39q-6 -9 -6 -23q0 -24 33 -102l20 -47q17 -41 28 -41q20 0 40 55l20 55q2 8 2 9q0 2 -3 10z" />
    <glyph glyph-name="X" unicode="X" horiz-adv-x="795" 
d="M507 391l187 -234q26 -33 52 -41q49 -16 49 -50q0 -39 -44 -56q-53 -20 -193 -20q-97 0 -138 13.5t-41 44.5q0 21 19.5 34.5t19.5 21.5q0 25 -57 100q-7 9 -13 9q-8 0 -39 -44t-31 -57q0 -8 19.5 -23.5t19.5 -37.5q0 -33 -38 -45q-53 -16 -119 -16q-77 0 -118.5 12.5
t-41.5 51.5q0 45 56 47q34 1 53 17q23 18 80 90l75 96q7 7 7 11q0 2 -7 11l-125 160q-30 38 -39 46.5t-29 14.5q-55 17 -55 55q0 33 46 51q62 24 189 24q94 0 131 -13q34 -12 34 -48q0 -25 -16.5 -36t-16.5 -19q0 -11 18 -34.5t27 -23.5q8 0 28.5 25t20.5 35q0 7 -21 23
q-15 11 -15 33q0 58 162 58q140 0 140 -60q0 -25 -20 -38q-11 -7 -48 -8q-43 -1 -110 -85l-58 -72q-6 -10 -6 -12q0 -3 6 -11z" />
    <glyph glyph-name="Y" unicode="Y" horiz-adv-x="780" 
d="M213 677q109 0 153.5 -13t44.5 -44q0 -13 -11 -26q-16 -19 -16 -29q0 -17 28 -56q18 -25 34 -25q18 0 46 35q19 24 19 38q0 12 -18 34q-10 10 -10 30q0 56 152 56q98 0 119 -13q26 -16 26 -43q0 -36 -55 -46q-27 -5 -47 -20.5t-76 -75.5q-63 -67 -77 -94
q-23 -41 -23 -113q0 -59 4 -105q3 -30 10 -41.5t28 -22.5q36 -18 36 -47q0 -66 -196 -66q-120 0 -179 24q-34 14 -34 43q0 30 37 44q27 10 35 25q15 35 15 159q0 40 -8 61.5t-34 55.5q-56 73 -114 130q-27 26 -48 34q-32 12 -38 16q-16 11 -16 34q0 61 213 61z" />
    <glyph glyph-name="Z" unicode="Z" horiz-adv-x="686" 
d="M613 590l-216 -373q-37 -64 -37 -76q0 -22 66 -22q64 0 92 19q23 15 49 71q17 36 44 36q69 0 69 -77q0 -48 -24 -106q-30 -71 -72 -71q-8 0 -20 2q-41 7 -67 7h-424q-37 0 -44 5q-13 10 -13 31q0 12 15 38l251 427q11 19 11 27q0 27 -56 27q-48 0 -69 -15.5t-48 -70.5
q-21 -43 -47 -43t-46 24t-20 55q0 44 33 106.5t56 62.5q4 0 13 -3q29 -10 128 -10q42 0 301 15q35 2 45 2q47 0 47 -44q0 -15 -17 -44z" />
    <glyph glyph-name="bracketleft" unicode="[" horiz-adv-x="499" 
d="M306 513v-549q0 -30 3 -41q6 -22 27 -26q11 -2 31 -2q5 0 16.5 1.5t20.5 1.5l24 1q45 2 45 -34q0 -30 -30 -42q-33 -13 -152 -13q-112 0 -133 14q-35 23 -35 140v555q0 119 32 142q22 16 130 16q131 0 160 -15q26 -13 26 -38q0 -35 -51 -35q-7 0 -32 2q-13 1 -31 1
q-35 0 -43 -12.5t-8 -66.5z" />
    <glyph glyph-name="backslash" unicode="\" horiz-adv-x="472" 
d="M312 24l-176 400q-27 62 -85 175q-12 23 -12 40q0 38 80 38q24 0 34 -10t19 -35q6 -18 23 -57l23 -55l22 -57l176 -402q19 -44 46 -95q51 -97 51 -115q0 -17 -22.5 -29t-54.5 -12q-30 0 -46 27q-8 13 -30 72q-15 41 -48 115z" />
    <glyph glyph-name="bracketright" unicode="]" horiz-adv-x="499" 
d="M193 -26v549q0 30 -3 41q-6 22 -27 26q-11 2 -31 2q-5 0 -15 -1q-13 -2 -22 -2l-24 -1q-45 -2 -45 34q0 30 31.5 42.5t150.5 12.5q112 0 133 -14q35 -23 35 -140v-555q0 -119 -32 -142q-22 -16 -130 -16q-131 0 -158.5 14t-27.5 39q0 35 51 35q7 0 32 -2q12 -1 31 -1
q35 0 43 12.5t8 66.5z" />
    <glyph glyph-name="asciicircum" unicode="^" 
d="M189 327h-189l130 345h241l130 -345h-189l-61 199z" />
    <glyph glyph-name="underscore" unicode="_" 
d="M0 -53h500v-126h-500v126z" />
    <glyph glyph-name="grave" unicode="`" 
d="M192 698q80 0 80 -29q0 -4 -5 -13q-3 -5 -3 -9q0 -10 24 -27q43 -31 43 -51q0 -36 -51 -36q-88 0 -162 57q-41 32 -42 55q-1 22 33 37.5t83 15.5z" />
    <glyph glyph-name="a" unicode="a" horiz-adv-x="567" 
d="M497 309l-1 -71q-1 -85 17 -108q5 -6 25 -10q15 -3 15 -20q0 -41 -45.5 -77t-98.5 -36q-51 0 -81 35q-11 13 -19 13q-9 0 -26 -12q-50 -36 -110 -36q-65 0 -104 27q-56 39 -56 108q0 94 119 136q43 15 113 16q29 0 36 5.5t7 25.5q0 98 -46 98q-25 0 -54 -41
q-44 -61 -91 -61q-24 0 -39 14t-15 37q0 50 79.5 92t174.5 42q85 0 144 -43q32 -23 44.5 -52.5t11.5 -81.5zM264 204q-21 0 -37 -17.5t-16 -41.5q0 -53 41 -53q39 0 39 66q0 46 -27 46z" />
    <glyph glyph-name="b" unicode="b" horiz-adv-x="633" 
d="M285 638l-7 -202q0 -10 6 -10q4 0 20 13q58 47 126 47q80 0 133.5 -60.5t53.5 -150.5q0 -123 -81.5 -205.5t-203.5 -82.5q-91 0 -181 57q-6 5 -12 5q-5 0 -30 -10q-13 -5 -30 -5q-30 0 -30 20q0 7 3 14q9 32 11 63q5 80 5 164v135q0 51 -4 63t-22 20q-45 19 -45 48
q0 32 70 64q37 17 95 29.5t98 12.5q14 0 18 -6q10 -10 7 -21v-2zM327 340q-26 0 -38 -18q-9 -14 -9 -56q0 -141 11 -166.5t38 -25.5q73 0 73 118q0 67 -20.5 107.5t-54.5 40.5z" />
    <glyph glyph-name="c" unicode="c" horiz-adv-x="526" 
d="M297 486q90 0 153.5 -43t63.5 -104q0 -40 -27 -66.5t-68 -26.5t-61 29q-7 11 -19 47q-13 41 -51 41q-26 0 -44.5 -23.5t-18.5 -57.5q0 -58 37.5 -99t90.5 -41q39 0 85 21q5 4 15 4q16 0 29 -16t13 -36q0 -49 -65 -88.5t-151 -39.5q-111 0 -186.5 71t-75.5 176
q0 108 80 180t200 72z" />
    <glyph glyph-name="d" unicode="d" horiz-adv-x="650" 
d="M590 628v-447q0 -37 3.5 -47.5t17.5 -21.5q30 -22 30 -44q0 -40 -79 -60q-73 -18 -141 -18q-16 0 -20.5 4.5t-6.5 22.5q-3 25 -17 25q-8 0 -26 -15q-48 -40 -111 -40q-87 0 -155 76t-68 173q0 100 70.5 175t163.5 75q56 0 101 -25q10 -4 13 -4q15 0 15 41q0 33 -39 45
q-31 10 -31 34q0 36 70 56q125 35 168 35q42 0 42 -40zM325 382q-33 0 -54 -42.5t-21 -109.5q0 -58 19 -91.5t51 -33.5q61 0 61 155q0 122 -56 122z" />
    <glyph glyph-name="e" unicode="e" horiz-adv-x="530" 
d="M470 219h-229q-15 0 -15 -13q0 -32 34.5 -60t73.5 -28q55 0 99 31q17 12 27 12q13 0 25 -15.5t12 -32.5q0 -46 -70.5 -86t-152.5 -40q-110 0 -183.5 70.5t-73.5 176.5q0 105 78 178.5t189 73.5q93 0 157 -52q76 -61 76 -143q0 -32 -13 -52t-34 -20zM253 310h50
q31 0 31 28q0 26 -15.5 43t-39.5 17q-23 0 -40 -18.5t-17 -43.5q0 -26 31 -26z" />
    <glyph glyph-name="f" unicode="f" horiz-adv-x="425" 
d="M306 395h60q28 0 28 -19v-1l-4 -58q-1 -18 -6 -23t-21 -5q-4 0 -13 1.5t-14 1.5q-22 0 -30 -15t-8 -54q0 -44 12 -83q7 -24 40 -34q44 -13 44 -48q0 -37 -45 -51q-57 -18 -167 -18q-173 0 -173 67q0 19 11 28q6 7 28 16q26 11 31 43q9 60 9 103q0 42 -39 42q-30 0 -35 3
q-8 3 -8 9l1 4l4 62q1 16 5.5 19.5t23 4.5t18.5 17q0 7 -13 31q-23 42 -23 82q0 70 58 111.5t155 41.5q82 0 136 -35t54 -87q0 -32 -21 -54t-52 -22q-35 0 -67 25q-7 5 -37 39q-21 23 -42 23q-14 0 -23.5 -10t-9.5 -24q0 -38 73 -83q35 -22 44 -44q4 -6 16 -6z" />
    <glyph glyph-name="g" unicode="g" horiz-adv-x="578" 
d="M537 513q12 0 21.5 -14.5t9.5 -32.5q0 -47 -42 -85q-11 -10 -11 -16q0 -2 1 -11t1 -20q0 -74 -70.5 -122.5t-179.5 -48.5q-24 0 -33 1.5t-20 1.5q-26 0 -26 -26q0 -35 60 -35q24 0 60 5q79 11 120 11q56 0 88 -19q55 -33 55 -97q0 -79 -76 -134q-88 -64 -238 -64
q-111 0 -177.5 34.5t-66.5 92.5q0 42 37 58q15 7 15 12q0 6 -12 16q-40 33 -40 68q0 23 18.5 47.5t47.5 39.5q12 6 12 11q0 7 -15 21q-50 47 -50 109q0 69 68 113q79 51 173 51q37 0 118 -15q16 -3 28 -3q53 0 106 42q11 9 18 9zM273 411q-25 0 -40 -18.5t-15 -48.5
q0 -53 16 -84.5t43 -31.5q56 0 56 73q0 110 -60 110zM166 -33q-12 0 -12 -14q0 -28 31 -46t81 -18q102 0 102 48q0 29 -36 29q-5 0 -22 -2q-35 -4 -61 -4q-46 0 -76 6q-3 1 -7 1z" />
    <glyph glyph-name="h" unicode="h" horiz-adv-x="679" 
d="M290 643l-6 -205q-1 -37 23 -37q11 0 23 16q49 69 126 69q79 0 124 -47q36 -37 38 -133l4 -176q1 -23 6.5 -34t25.5 -26q15 -11 15 -28q0 -52 -160 -52q-141 0 -141 48q0 11 8 22t15 21q17 28 17 129q0 136 -70 136q-40 0 -50 -36q-4 -13 -4 -45v-94q0 -18 1 -34l2 -14
q1 -20 4.5 -28t20.5 -26q10 -11 10 -23q0 -56 -144 -56q-168 0 -168 57q0 19 32 42q19 13 26 71t7 194q0 102 -6 143q-4 25 -27 37q-30 15 -30 38q0 35 62 56q114 39 189 39q28 0 27 -24z" />
    <glyph glyph-name="i" unicode="i" horiz-adv-x="356" 
d="M291 452v-283q0 -31 4 -44q7 -20 27 -34q25 -18 25 -38q0 -63 -160 -63q-86 0 -137 14q-38 10 -38 45q0 20 33 44q28 21 28 112q0 100 -7 119q-5 14 -26 23q-30 13 -30 40q0 31 40 46q132 50 214 50q27 0 27 -31zM194 667q42 0 67 -16t25 -43q0 -37 -38 -59
q-60 -35 -145 -35q-38 0 -61 17t-23 46q0 32 39 55q59 35 136 35z" />
    <glyph glyph-name="j" unicode="j" horiz-adv-x="369" 
d="M303 444v-432q0 -121 -45 -158q-57 -47 -149 -47q-47 0 -79.5 19t-32.5 47q0 12 9.5 21.5t21.5 9.5l10 -1t18 -1q9 0 16 8t7 19q0 1 -2 13q-3 18 -3 34v310q0 40 -34 53q-28 11 -28 34q0 48 96 79t164 31q31 0 31 -39zM200 667q42 0 67 -16t25 -43q0 -37 -38 -59
q-60 -35 -145 -35q-38 0 -61 17t-23 46q0 32 39 55q59 35 136 35z" />
    <glyph glyph-name="k" unicode="k" horiz-adv-x="734" 
d="M301 643l-5 -221q-1 -42 2 -58q3 -20 20 -20q15 0 45.5 19t30.5 28q0 5 -11 20q-8 11 -8 19q0 53 131 53q86 0 116 -19q26 -17 26 -42q0 -19 -16 -28q-8 -4 -34 -9t-76 -40q-13 -9 -13 -16q0 -19 93 -137q56 -71 97 -93q35 -19 35 -44q0 -55 -84 -55h-158q-29 0 -46 22
l-81 104q-44 57 -52 57q-9 0 -9 -44q0 -32 27 -54q13 -10 13 -30q0 -38 -39 -51.5t-116 -13.5q-96 0 -128 9q-40 11 -40 51q0 19 21 32q26 17 30 35q11 51 11 211v107q0 55 -5.5 69.5t-28.5 18.5q-40 6 -40 34q0 30 57 55q51 22 114 38.5t96 16.5q11 0 19 -7t7 -14z" />
    <glyph glyph-name="l" unicode="l" horiz-adv-x="365" 
d="M298 388v-157q0 -102 3.5 -120.5t23.5 -27.5q30 -13 30 -35q0 -25 -29 -41.5t-132 -16.5q-93 0 -132 14.5t-39 47.5q0 19 33 33q25 11 30 107q1 13 1 119q0 103 -1 112q-7 72 -40 92q-36 21 -36 48q0 46 96 75t165 29q39 0 39 -48q0 -17 -5 -72q-7 -77 -7 -159z" />
    <glyph glyph-name="m" unicode="m" horiz-adv-x="964" 
d="M284 446v-11q-1 -5 -1 -13q0 -26 16 -26q8 0 26 21q57 66 148 66q80 0 114 -60q12 -22 19 -22q6 0 15 9q73 73 155 73q68 0 106.5 -38t38.5 -105q0 -37 -1 -53t-1 -78q0 -47 -1 -56v-15q0 -31 20 -54q17 -20 17 -32q0 -27 -32 -44.5t-115 -17.5q-90 0 -127 26
q-18 13 -18 31q0 13 21 42q15 21 15 134q0 67 -9 91q-11 31 -44 31q-35 0 -44 -35q-5 -20 -5 -94q0 -84 8 -112q2 -9 22 -37q5 -7 5 -19q0 -58 -153 -58q-82 0 -114.5 12t-32.5 41q0 15 24 38q18 17 19 53l3 114q2 90 -49 90q-30 0 -40 -28q-9 -24 -9 -120q0 -81 15 -108
q12 -21 12 -35q0 -25 -31 -39q-41 -18 -121 -18q-145 0 -145 51q0 14 26 37q22 19 25 55q6 65 6 127q0 75 -24 93t-24 33q0 33 52 52q126 45 184 45q29 0 29 -37z" />
    <glyph glyph-name="n" unicode="n" horiz-adv-x="671" 
d="M610 306l8 -172q1 -22 6 -30.5t29 -33.5q8 -8 8 -22q0 -32 -39 -45t-138 -13q-124 0 -124 52q0 12 23 36q10 10 15 54t5 90q0 75 -21 101q-15 18 -42 18q-34 0 -47 -25q-10 -19 -10 -72v-97q0 -30 3.5 -40.5t23.5 -40.5q6 -9 6 -20q0 -56 -165 -56q-136 0 -136 57
q0 16 25 34q13 9 16 21t6 59q4 66 4 117q0 34 -5 44.5t-30 25.5q-21 13 -21 32t17.5 31.5t70.5 31.5q112 40 150 40q14 0 24 -11t10 -26q0 -3 -1 -12v-7q0 -23 20 -23q11 0 24 18q45 61 122 61q62 0 105 -32q31 -23 43 -54t15 -91z" />
    <glyph glyph-name="o" unicode="o" horiz-adv-x="602" 
d="M321 486q112 0 188.5 -72t76.5 -176q0 -106 -97 -180q-92 -71 -213 -71q-115 0 -187 65t-72 169q0 114 86.5 189.5t217.5 75.5zM283 373q-48 0 -48 -57q0 -70 37 -169q15 -40 49 -40q44 0 44 53q0 57 -17 122q-24 91 -65 91z" />
    <glyph glyph-name="p" unicode="p" horiz-adv-x="665" 
d="M258 484q31 0 37.5 -4.5t7.5 -26.5q0 -18 11 -18q4 0 33 19q50 33 112 33q79 0 134.5 -68.5t55.5 -166.5q0 -109 -67.5 -187t-160.5 -78q-42 0 -85 19q-9 4 -15 4q-14 0 -14 -29q0 -39 25 -55.5t29.5 -22t4.5 -18.5q0 -61 -125 -61q-105 0 -186 43q-40 21 -40 53
q0 24 30 38q22 10 28 33q11 45 11 186q0 118 -9 135q-2 5 -6 6t-23 5q-36 7 -36 43q0 37 58 63q122 55 190 55zM307 299l-8 -149q0 -35 48 -35q67 0 67 111q0 119 -70 119q-34 0 -37 -46z" />
    <glyph glyph-name="q" unicode="q" horiz-adv-x="648" 
d="M303 486q46 0 129 -19q17 -4 30 -4q16 0 52 12q32 11 49 11q43 0 43 -34q0 -16 -4 -44q-16 -111 -16 -313q0 -95 6 -137q4 -27 25.5 -43.5t21.5 -39.5q0 -62 -129 -62q-93 0 -153 23.5t-60 60.5q0 20 22 32q29 16 34 23q11 15 11 42q0 25 -13 25q-8 0 -40 -16t-79 -16
q-94 0 -154.5 71t-60.5 182q0 110 79 178t207 68zM318 379q-28 0 -45.5 -32t-17.5 -83q0 -67 21.5 -110.5t54.5 -43.5q25 0 33.5 25t8.5 96q0 114 -23 135q-14 13 -32 13z" />
    <glyph glyph-name="r" unicode="r" horiz-adv-x="535" 
d="M247 483q25 0 30.5 -7.5t10.5 -46.5q3 -21 15 -21q10 0 19 14q38 61 102 61q44 0 74 -31t30 -77q0 -48 -34 -82.5t-81 -34.5q-40 0 -86 45q-10 10 -19 10q-17 0 -21 -36q-1 -6 -1 -48q0 -84 8 -106q7 -15 33 -23q44 -13 44 -46t-36 -48.5t-153 -15.5q-172 0 -172 62
q0 26 30 46q22 15 26 37q8 43 8 165q0 38 -24 47q-35 14 -35 40q0 43 104 73q78 23 128 23z" />
    <glyph glyph-name="s" unicode="s" horiz-adv-x="477" 
d="M214 486q23 0 80 -11q10 -2 18 -2q7 0 33 10q14 4 19 4q26 0 56.5 -44t30.5 -83q0 -19 -14 -32t-34 -13q-26 0 -73 45q-31 30 -52 30q-13 0 -23.5 -10t-10.5 -24q0 -22 46 -44q88 -42 125.5 -81.5t37.5 -90.5q0 -65 -53.5 -109t-131.5 -44q-15 0 -100 10q-17 2 -22 2
q-9 0 -15 -2q-15 -2 -21 -2q-22 0 -36 12q-20 18 -37 56.5t-17 66.5q0 45 35 45q18 0 42 -24l34 -36q33 -35 59 -35q36 0 36 31q0 22 -37 40q-79 38 -114 79.5t-35 95.5q0 70 49 115t125 45z" />
    <glyph glyph-name="t" unicode="t" horiz-adv-x="463" 
d="M309 359v-165q0 -29 14.5 -48t36.5 -19q19 0 50 18q10 4 15 4q11 0 21 -14.5t10 -30.5q0 -44 -63 -80.5t-138 -36.5q-78 0 -125.5 44t-47.5 117v225q0 16 -17 16h-50q-15 0 -18.5 5t-3.5 21v22q0 15 11 22l225 141q6 4 20 4h40q20 0 20 -28v-66q0 -16 7 -20q4 -3 17 -3
h90q21 0 25 -8.5t4 -26.5v-29q0 -33 -15 -38q-6 -3 -17 -3h-88q-23 0 -23 -23z" />
    <glyph glyph-name="u" unicode="u" horiz-adv-x="678" 
d="M286 459v-265q0 -86 56 -86q34 0 47 28q11 24 11 105q0 79 -5 109q-3 19 -26 31q-28 15 -28 38q0 22 31 36q22 10 85.5 19t111.5 9q51 0 49 -52l-1 -22l-1 -58v-215q0 -16 28 -30q24 -12 24 -34q0 -44 -104 -68q-60 -14 -118 -14q-40 0 -42 26q-3 31 -19 31q-7 0 -40 -23
q-48 -34 -107 -34q-93 0 -131 54q-33 46 -33 153q0 18 1 40v28v23q0 74 -36 93q-29 15 -29 33q0 27 36 42q25 10 92 18.5t120 8.5q28 0 28 -24z" />
    <glyph glyph-name="v" unicode="v" horiz-adv-x="627" 
d="M529 333l-126 -246q-52 -101 -94 -101q-23 0 -37 16q-31 35 -52 76l-139 263q-19 37 -51 45q-37 10 -37 40q0 57 190 57q163 0 163 -48q0 -19 -19 -35t-19 -29q0 -26 35 -75q13 -18 27 -18q18 0 39 40q25 47 25 60q0 11 -16.5 28.5t-16.5 32.5q0 44 133 44q100 0 100 -44
q0 -23 -36 -35q-28 -9 -38 -19t-31 -52z" />
    <glyph glyph-name="w" unicode="w" horiz-adv-x="989" 
d="M580 84l-50 81q-23 38 -37 38q-16 0 -35 -32l-82 -141q-23 -40 -53 -40q-34 0 -66 54l-146 244q-33 55 -49 70.5t-42.5 22.5t-26.5 36q0 31 50 48.5t136 17.5q156 0 156 -57q0 -11 -15 -34q-3 -3 -3 -9q0 -8 13 -35t25 -43q17 -23 29 -23q10 0 27 24.5t17 39.5
q0 18 -13 31q-5 4 -29 21q-17 12 -17 29q0 29 42 41q53 15 147 15q140 0 140 -52q0 -17 -25 -43q-6 -6 -6 -15q0 -25 34 -74q13 -19 24 -19q14 0 34 31q30 45 30 64q0 10 -16 29q-11 13 -11 30q0 25 23 35q33 14 94 14q69 0 92.5 -13.5t23.5 -35.5q0 -15 -14 -28
q-1 -1 -32.5 -12.5t-59.5 -65.5l-122 -236q-54 -104 -95 -104q-33 0 -92 96z" />
    <glyph glyph-name="x" unicode="x" horiz-adv-x="602" 
d="M171 273l-41 52q-28 36 -43 47t-37 15q-39 7 -39 38q0 58 203 58q152 0 152 -47q0 -12 -16 -37q-3 -5 -3 -10q0 -10 15 -30t23 -20q9 0 26 21.5t17 32.5q0 9 -9.5 23.5t-9.5 21.5q0 25 28 36q23 9 74 9q59 0 75 -18q12 -13 12 -27q0 -18 -42 -39q-17 -8 -32 -28
q-6 -8 -23 -31l-21 -28l-34 -51q-5 -7 -5 -11q0 -3 5 -11l29 -44q42 -64 60.5 -84t42.5 -30t24 -34q0 -32 -42 -44.5t-147 -12.5q-85 0 -119 8q-44 10 -44 45q0 22 26 32q14 7 14 21q0 17 -20 45.5t-31 27.5q-13 -1 -36 -35.5t-23 -52.5q0 -8 11.5 -21.5t11.5 -26.5
q0 -43 -100 -43q-103 0 -103 46q0 27 36 34q23 5 37 23q3 3 30 46l70 112q4 7 5 11q0 4 -7 11z" />
    <glyph glyph-name="y" unicode="y" horiz-adv-x="619" 
d="M484 246l-65 -177q-45 -123 -103 -179q-63 -61 -152 -61q-66 0 -109 32t-43 81q0 37 24.5 63t59.5 26q34 0 56 -24q14 -16 24 -55q5 -22 24 -22q15 0 25.5 13.5t10.5 32.5q0 21 -26 77l-117 250q-20 43 -32 53q-4 6 -14 10l-23 10q-24 10 -24 38q0 36 49 50q65 19 168 19
q122 0 122 -58q0 -12 -11 -28.5t-11 -28.5q0 -24 22.5 -63t36.5 -39q15 0 31.5 30t16.5 58q0 21 -12 36q-18 22 -18 38q0 25 33.5 40t88.5 15q103 0 103 -51q0 -30 -49 -49q-23 -6 -41 -34.5t-45 -102.5z" />
    <glyph glyph-name="z" unicode="z" horiz-adv-x="514" 
d="M268 473h130q66 0 75 -9t9 -23q0 -17 -16 -46l-129 -230q-16 -29 -16 -40q0 -23 34 -23q45 0 68 45q19 37 37 37q21 0 34.5 -17t13.5 -44q0 -44 -32.5 -91t-62.5 -47q-3 0 -19 4q-27 11 -56 11h-256q-65 0 -65 37q0 14 39 76l114 183q29 46 29 60q0 19 -41 19
q-36 0 -60 -38q-26 -41 -47 -41q-19 0 -31.5 15t-12.5 38q0 44 29 93t55 49q7 0 16 -3q14 -5 57 -12q40 -3 104 -3z" />
    <glyph glyph-name="braceleft" unicode="{" horiz-adv-x="499" 
d="M306 117v-122q0 -64 5 -74q11 -23 76 -23q10 0 21 1h12q53 0 53 -34q0 -41 -56 -49q-42 -6 -139 -6q-85 0 -120 33t-35 111v153q0 44 -11 62t-44 28t-33 46q0 37 33 47t44 28t11 62v153q0 78 35 111t120 33q109 0 148 -8q47 -10 47 -47q0 -34 -53 -34q-9 0 -34 1
q-43 2 -63 -10q-14 -8 -16 -33q-1 -13 -1 -54v-122q0 -47 -10 -72t-37 -45q-4 -4 -4 -8q0 -7 16 -20q35 -29 35 -108z" />
    <glyph glyph-name="bar" unicode="|" 
d="M140 667h220v-834h-220v834z" />
    <glyph glyph-name="braceright" unicode="}" horiz-adv-x="499" 
d="M193 370v122q0 64 -5 74q-11 23 -76 23q-10 0 -21 -1h-12q-53 0 -53 34q0 41 56 49q42 6 139 6q85 0 120 -33t35 -111v-153q0 -44 11 -62t44 -28t33 -47q0 -36 -33 -46t-44 -28t-11 -62v-153q0 -78 -35 -111t-120 -33q-109 0 -148 8q-47 10 -47 47q0 34 53 34q9 0 34 -1
q43 -2 63 10q14 8 16 33q1 12 1 54v122q0 47 10 72t37 45q4 4 4 8q0 7 -16 20q-35 29 -35 108z" />
    <glyph glyph-name="asciitilde" unicode="~" horiz-adv-x="667" 
d="M194 215l-103 87q32 86 69.5 123t92.5 37q26 0 142 -40q20 -7 29 -7q19 0 32 16q6 7 20 34l103 -88q-35 -86 -69 -121q-39 -40 -92 -40q-24 0 -147 43q-14 5 -27 5q-24 0 -50 -49z" />
    <glyph glyph-name="Adieresis" unicode="&#xc4;" horiz-adv-x="827" 
d="M650 338l93 -198q13 -28 22 -37t27 -11q35 -5 35 -35q0 -67 -183 -67q-158 0 -191 19q-27 16 -27 40q0 25 36 38q23 8 23 26q0 33 -41 39t-119 6q-63 0 -77 -8q-20 -11 -20 -42q0 -10 4.5 -13.5t27.5 -10.5q30 -9 30 -36q0 -58 -140 -58q-77 0 -116 11q-34 9 -34 45
q0 28 35 39q31 10 47 29.5t47 88.5l69 151q34 75 43 100q21 57 22 105q1 44 5 60t20 31q35 34 86 34q76 0 131 -78q57 -81 145 -268zM310 276h96q27 0 27 12q0 11 -19 46q-28 51 -39.5 66t-23.5 15q-16 0 -28 -33q-35 -70 -35 -94q0 -12 22 -12zM280 891q79 0 79 -65
q0 -42 -35 -64q-50 -32 -110 -32q-33 0 -53.5 18t-20.5 47q0 36 31 60q46 36 109 36zM560 898q79 0 79 -65q0 -42 -35 -64q-51 -32 -110 -32q-33 0 -53.5 18t-20.5 47q0 36 31 60q46 36 109 36z" />
    <glyph glyph-name="Aring" unicode="&#xc5;" horiz-adv-x="827" 
d="M650 338l93 -198q13 -28 22 -37t27 -11q35 -5 35 -35q0 -67 -183 -67q-158 0 -191 19q-27 16 -27 40q0 25 36 38q23 8 23 26q0 33 -41 39t-119 6q-63 0 -77 -8q-20 -11 -20 -42q0 -10 4.5 -13.5t27.5 -10.5q30 -9 30 -36q0 -58 -140 -58q-77 0 -116 11q-34 9 -34 45
q0 28 35 39q31 10 47 29.5t47 88.5l69 151q34 75 43 100q21 57 22 105q1 44 5 60t20 31q35 34 86 34q76 0 131 -78q57 -81 145 -268zM310 276h96q27 0 27 12q0 11 -19 46q-28 51 -39.5 66t-23.5 15q-16 0 -28 -33q-35 -70 -35 -94q0 -12 22 -12zM389 918q69 0 108 -25.5
t39 -71.5q0 -48 -38 -74.5t-107 -26.5q-147 0 -147 97q0 48 38 74.5t107 26.5zM390 873q-48 0 -48 -56q0 -23 13 -38t33 -15q22 0 36 15.5t14 40.5q0 53 -48 53z" />
    <glyph glyph-name="Ccedilla" unicode="&#xc7;" horiz-adv-x="720" 
d="M359 -75l-22 52q-7 16 -24 19q-125 23 -207.5 119.5t-82.5 219.5q0 140 108.5 242.5t256.5 102.5q69 0 142 -32q32 -14 43 -14q8 0 30 6l13 1q35 3 63 -49t28 -116q0 -44 -25.5 -72.5t-65.5 -28.5q-44 0 -70 49q-34 63 -67 87q-46 33 -99 33q-49 0 -79 -36.5t-30 -96.5
q0 -129 82 -203q50 -45 125 -45q87 0 138 47q20 18 32 18q16 0 28.5 -16t12.5 -37q0 -26 -15.5 -60.5t-34 -52t-48.5 -21.5q-12 -2 -20.5 -5t-39.5 -18q-25 -12 -49 -18q-42 -10 -48 -10q-14 0 -14 -9q0 -10 13 -35l34 -65q15 -29 15 -46q0 -64 -112 -64q-121 0 -121 57
q0 44 61 46q55 2 55 27q0 10 -6 24z" />
    <glyph glyph-name="Eacute" unicode="&#xc9;" horiz-adv-x="691" 
d="M120 667h251q126 0 180 16q10 3 16 3q30 0 53.5 -41t23.5 -94q0 -69 -51 -69q-18 0 -29 11q-6 5 -20 26q-21 32 -54 43.5t-103 11.5q-57 0 -71 -17q-8 -8 -10 -26.5t-2 -84.5q0 -42 8.5 -50t51.5 -8q38 0 43 39q6 46 20 58q11 9 24 9q19 0 35 -19q24 -35 24 -126
q0 -51 -11 -91q-16 -62 -53 -62q-19 0 -26 13q-4 7 -7 31q-7 55 -64 55q-22 0 -30 -14t-8 -51q0 -96 14 -117q11 -16 89 -16q72 0 109 18.5t60 67t54 48.5q20 0 33.5 -18t13.5 -44q0 -68 -53 -151q-18 -28 -37 -28q-9 0 -26 3q-40 7 -84 7h-414q-52 0 -52 42q0 14 5.5 21
t27.5 16q26 11 33 43q16 69 16 198q0 188 -24 238q-7 15 -35 23t-28 37q0 30 28 42q17 7 79 7zM380 885q49 0 83 -16t33 -38q-2 -23 -42 -54q-74 -57 -163 -57q-50 0 -50 36q0 14 8.5 23t46.5 37q12 9 12 18q0 5 -6 15q-2 3 -2 7q0 29 80 29z" />
    <glyph glyph-name="Ntilde" unicode="&#xd1;" horiz-adv-x="830" 
d="M288 644l243 -213q35 -31 50 -31q25 0 25 52q0 53 -3 67q-7 39 -35 53q-35 17 -35 47q0 41 56 53q23 5 83 5q71 0 100 -9q45 -14 45 -52q0 -31 -37 -47q-23 -10 -29 -26q-14 -38 -14 -122v-160q0 -147 -2 -172q-8 -99 -56 -99q-23 0 -62 35l-290 260q-30 27 -50 27
q-29 0 -29 -83q0 -57 3 -72q7 -43 35 -57q32 -16 32 -42q0 -68 -146 -68q-138 0 -138 67q0 18 11 29q5 5 28 18.5t27 47.5q8 66 8 182q0 126 -15 183q-9 36 -41 51q-39 18 -39 46q0 37 49 52q37 11 127 11q36 0 53 -5q21 -6 46 -28zM509 842l-1 18q-1 11 14.5 21.5
t32.5 10.5q29 0 47 -19.5t18 -51.5q0 -36 -28 -66.5t-60 -30.5q-48 0 -138 46q-33 17 -47 17q-5 0 -11.5 -4t-5.5 -7l3 -25q1 -7 -15 -15.5t-30 -8.5q-19 0 -39 17t-20 60q0 36 24 60t63 26q25 1 62 -13q30 -13 59 -26q18 -8 22 -9q10 -3 21.5 -7.5t16.5 -4.5q13 0 12 12z
" />
    <glyph glyph-name="Odieresis" unicode="&#xd6;" horiz-adv-x="778" 
d="M394 681q125 0 219 -72q64 -49 103 -127t39 -157q0 -141 -108.5 -239.5t-264.5 -98.5q-153 0 -256 99.5t-103 247.5q0 151 105 249t266 98zM347 541q-35 0 -59 -29.5t-24 -72.5q0 -56 22.5 -128.5t56 -126.5t83.5 -54q37 0 59.5 28t22.5 73q0 60 -19 128.5t-49 116.5
q-41 65 -93 65zM279 891q79 0 79 -65q0 -42 -35 -64q-50 -32 -110 -32q-33 0 -53.5 18t-20.5 47q0 36 31 60q46 36 109 36zM559 898q79 0 79 -65q0 -42 -35 -64q-51 -32 -110 -32q-33 0 -53.5 18t-20.5 47q0 36 31 60q46 36 109 36z" />
    <glyph glyph-name="Udieresis" unicode="&#xdc;" horiz-adv-x="820" 
d="M735 423v-120q0 -104 -16.5 -153.5t-65.5 -89.5q-90 -73 -247 -73t-251 75q-46 36 -63.5 85t-17.5 140q0 8 1 50q1 49 1 67l1 76q0 36 -3 49q-6 21 -29 36q-32 21 -32 48q0 31 40 47.5t147 16.5q82 0 133.5 -12t51.5 -53q0 -20 -15 -33l-30 -15q-19 -10 -24 -37
q-2 -11 -2 -47q0 -30 -1 -69l-3 -116q-2 -76 37 -120t109 -44q83 0 119 54q23 35 23 106v108q0 117 -6 143q-5 22 -33 35q-43 21 -43 45q0 55 147 55q143 0 143 -55q0 -14 -6 -20.5t-30.5 -21t-30.5 -33.5q-3 -9 -3 -44zM327 891q79 0 79 -65q0 -42 -35 -64
q-50 -32 -110 -32q-33 0 -53.5 18t-20.5 47q0 36 31 60q46 36 109 36zM607 898q79 0 79 -65q0 -42 -35 -64q-51 -32 -110 -32q-33 0 -53.5 18t-20.5 47q0 36 31 60q46 36 109 36z" />
    <glyph glyph-name="aacute" unicode="&#xe1;" horiz-adv-x="567" 
d="M497 309l-1 -71q-1 -85 17 -108q5 -6 25 -10q15 -3 15 -20q0 -41 -45.5 -77t-98.5 -36q-51 0 -81 35q-11 13 -19 13q-9 0 -26 -12q-50 -36 -110 -36q-65 0 -104 27q-56 39 -56 108q0 94 119 136q43 15 113 16q29 0 36 5.5t7 25.5q0 98 -46 98q-25 0 -54 -41
q-44 -61 -91 -61q-24 0 -39 14t-15 37q0 50 79.5 92t174.5 42q85 0 144 -43q32 -23 44.5 -52.5t11.5 -81.5zM264 204q-21 0 -37 -17.5t-16 -41.5q0 -53 41 -53q39 0 39 66q0 46 -27 46zM328 698q49 0 83 -16t33 -38q-2 -23 -42 -54q-74 -57 -163 -57q-50 0 -50 36
q0 14 8.5 23t46.5 37q12 9 12 18q0 5 -6 15q-2 3 -2 7q0 29 80 29z" />
    <glyph glyph-name="agrave" unicode="&#xe0;" horiz-adv-x="567" 
d="M497 309l-1 -71q-1 -85 17 -108q5 -6 25 -10q15 -3 15 -20q0 -41 -45.5 -77t-98.5 -36q-51 0 -81 35q-11 13 -19 13q-9 0 -26 -12q-50 -36 -110 -36q-65 0 -104 27q-56 39 -56 108q0 94 119 136q43 15 113 16q29 0 36 5.5t7 25.5q0 98 -46 98q-25 0 -54 -41
q-44 -61 -91 -61q-24 0 -39 14t-15 37q0 50 79.5 92t174.5 42q85 0 144 -43q32 -23 44.5 -52.5t11.5 -81.5zM264 204q-21 0 -37 -17.5t-16 -41.5q0 -53 41 -53q39 0 39 66q0 46 -27 46zM233 698q80 0 80 -29q0 -4 -5 -13q-3 -5 -3 -9q0 -10 24 -27q43 -31 43 -51
q0 -36 -51 -36q-88 0 -162 57q-41 32 -42 55q-1 22 33 37.5t83 15.5z" />
    <glyph glyph-name="acircumflex" unicode="&#xe2;" horiz-adv-x="567" 
d="M497 309l-1 -71q-1 -85 17 -108q5 -6 25 -10q15 -3 15 -20q0 -41 -45.5 -77t-98.5 -36q-51 0 -81 35q-11 13 -19 13q-9 0 -26 -12q-50 -36 -110 -36q-65 0 -104 27q-56 39 -56 108q0 94 119 136q43 15 113 16q29 0 36 5.5t7 25.5q0 98 -46 98q-25 0 -54 -41
q-44 -61 -91 -61q-24 0 -39 14t-15 37q0 50 79.5 92t174.5 42q85 0 144 -43q32 -23 44.5 -52.5t11.5 -81.5zM264 204q-21 0 -37 -17.5t-16 -41.5q0 -53 41 -53q39 0 39 66q0 46 -27 46zM280 714q37 0 127 -71q60 -47 60 -72q0 -14 -11 -25.5t-25 -11.5q-18 0 -80 30
q-52 25 -71 25q-16 0 -69 -28t-74 -28q-38 0 -38 39q0 30 74.5 86t106.5 56z" />
    <glyph glyph-name="adieresis" unicode="&#xe4;" horiz-adv-x="567" 
d="M497 309l-1 -71q-1 -85 17 -108q5 -6 25 -10q15 -3 15 -20q0 -41 -45.5 -77t-98.5 -36q-51 0 -81 35q-11 13 -19 13q-9 0 -26 -12q-50 -36 -110 -36q-65 0 -104 27q-56 39 -56 108q0 94 119 136q43 15 113 16q29 0 36 5.5t7 25.5q0 98 -46 98q-25 0 -54 -41
q-44 -61 -91 -61q-24 0 -39 14t-15 37q0 50 79.5 92t174.5 42q85 0 144 -43q32 -23 44.5 -52.5t11.5 -81.5zM264 204q-21 0 -37 -17.5t-16 -41.5q0 -53 41 -53q39 0 39 66q0 46 -27 46zM175 701q82 0 82 -67q0 -38 -36.5 -63.5t-89.5 -25.5q-32 0 -52.5 19t-20.5 50
q0 40 31.5 63.5t85.5 23.5zM427 699q82 0 82 -67q0 -38 -36.5 -63.5t-89.5 -25.5q-32 0 -52.5 19t-20.5 50q0 40 31.5 63.5t85.5 23.5z" />
    <glyph glyph-name="atilde" unicode="&#xe3;" horiz-adv-x="567" 
d="M497 309l-1 -71q-1 -85 17 -108q5 -6 25 -10q15 -3 15 -20q0 -41 -45.5 -77t-98.5 -36q-51 0 -81 35q-11 13 -19 13q-9 0 -26 -12q-50 -36 -110 -36q-65 0 -104 27q-56 39 -56 108q0 94 119 136q43 15 113 16q29 0 36 5.5t7 25.5q0 98 -46 98q-25 0 -54 -41
q-44 -61 -91 -61q-24 0 -39 14t-15 37q0 50 79.5 92t174.5 42q85 0 144 -43q32 -23 44.5 -52.5t11.5 -81.5zM264 204q-21 0 -37 -17.5t-16 -41.5q0 -53 41 -53q39 0 39 66q0 46 -27 46zM193 589v-14q0 -38 -48 -38q-24 0 -39.5 16.5t-15.5 41.5q0 43 26.5 71t67.5 28
q26 0 47 -7t79 -36q28 -14 42 -14q12 0 15 19q2 11 8 27q13 14 39 14q63 0 63 -64q0 -43 -24.5 -68.5t-65.5 -25.5q-31 0 -87 24l-47 20q-45 19 -49 19q-11 0 -11 -13z" />
    <glyph glyph-name="aring" unicode="&#xe5;" horiz-adv-x="567" 
d="M497 309l-1 -71q-1 -85 17 -108q5 -6 25 -10q15 -3 15 -20q0 -41 -45.5 -77t-98.5 -36q-51 0 -81 35q-11 13 -19 13q-9 0 -26 -12q-50 -36 -110 -36q-65 0 -104 27q-56 39 -56 108q0 94 119 136q43 15 113 16q29 0 36 5.5t7 25.5q0 98 -46 98q-25 0 -54 -41
q-44 -61 -91 -61q-24 0 -39 14t-15 37q0 50 79.5 92t174.5 42q85 0 144 -43q32 -23 44.5 -52.5t11.5 -81.5zM264 204q-21 0 -37 -17.5t-16 -41.5q0 -53 41 -53q39 0 39 66q0 46 -27 46zM274 732q69 0 108 -25.5t39 -71.5q0 -48 -38 -74.5t-107 -26.5q-147 0 -147 97
q0 48 38 74.5t107 26.5zM275 687q-48 0 -48 -56q0 -23 13 -38t33 -15q22 0 36 15.5t14 40.5q0 53 -48 53z" />
    <glyph glyph-name="ccedilla" unicode="&#xe7;" horiz-adv-x="526" 
d="M256 -56l-26 35q-9 12 -24 15t-38 13q-70 31 -110.5 91.5t-40.5 133.5q0 107 81 180.5t199 73.5q88 0 155 -45q61 -41 61 -103q0 -39 -27.5 -65.5t-67.5 -26.5q-31 0 -48 16t-30 56q-14 45 -50 45q-28 0 -46.5 -24t-18.5 -59q0 -57 42 -102q34 -36 88 -36q37 0 82 22
q6 3 15 3q17 0 30 -15.5t13 -36.5q0 -43 -53.5 -81.5t-124.5 -46.5q-7 0 -7 -5q0 -4 6 -9l44 -39q30 -27 30 -49q0 -25 -29.5 -41.5t-73.5 -16.5q-37 0 -61.5 14t-24.5 35q0 28 50 37q14 2 14 11q0 8 -9 20z" />
    <glyph glyph-name="eacute" unicode="&#xe9;" horiz-adv-x="530" 
d="M470 219h-229q-15 0 -15 -13q0 -32 34.5 -60t73.5 -28q55 0 99 31q17 12 27 12q13 0 25 -15.5t12 -32.5q0 -46 -70.5 -86t-152.5 -40q-110 0 -183.5 70.5t-73.5 176.5q0 105 78 178.5t189 73.5q93 0 157 -52q76 -61 76 -143q0 -32 -13 -52t-34 -20zM253 310h50
q31 0 31 28q0 26 -15.5 43t-39.5 17q-23 0 -40 -18.5t-17 -43.5q0 -26 31 -26zM330 698q49 0 83 -16t33 -38q-2 -23 -42 -54q-74 -57 -163 -57q-50 0 -50 36q0 14 8.5 23t46.5 37q12 9 12 18q0 5 -6 15q-2 3 -2 7q0 29 80 29z" />
    <glyph glyph-name="egrave" unicode="&#xe8;" horiz-adv-x="530" 
d="M470 219h-229q-15 0 -15 -13q0 -32 34.5 -60t73.5 -28q55 0 99 31q17 12 27 12q13 0 25 -15.5t12 -32.5q0 -46 -70.5 -86t-152.5 -40q-110 0 -183.5 70.5t-73.5 176.5q0 105 78 178.5t189 73.5q93 0 157 -52q76 -61 76 -143q0 -32 -13 -52t-34 -20zM253 310h50
q31 0 31 28q0 26 -15.5 43t-39.5 17q-23 0 -40 -18.5t-17 -43.5q0 -26 31 -26zM228 698q80 0 80 -29q0 -4 -5 -13q-3 -5 -3 -9q0 -10 24 -27q43 -31 43 -51q0 -36 -51 -36q-88 0 -162 57q-41 32 -42 55q-1 22 33 37.5t83 15.5z" />
    <glyph glyph-name="ecircumflex" unicode="&#xea;" horiz-adv-x="530" 
d="M470 219h-229q-15 0 -15 -13q0 -32 34.5 -60t73.5 -28q55 0 99 31q17 12 27 12q13 0 25 -15.5t12 -32.5q0 -46 -70.5 -86t-152.5 -40q-110 0 -183.5 70.5t-73.5 176.5q0 105 78 178.5t189 73.5q93 0 157 -52q76 -61 76 -143q0 -32 -13 -52t-34 -20zM253 310h50
q31 0 31 28q0 26 -15.5 43t-39.5 17q-23 0 -40 -18.5t-17 -43.5q0 -26 31 -26zM289 714q37 0 127 -71q60 -47 60 -72q0 -14 -11 -25.5t-25 -11.5q-18 0 -80 30q-52 25 -71 25q-16 0 -69 -28t-74 -28q-38 0 -38 39q0 30 74.5 86t106.5 56z" />
    <glyph glyph-name="edieresis" unicode="&#xeb;" horiz-adv-x="530" 
d="M470 219h-229q-15 0 -15 -13q0 -32 34.5 -60t73.5 -28q55 0 99 31q17 12 27 12q13 0 25 -15.5t12 -32.5q0 -46 -70.5 -86t-152.5 -40q-110 0 -183.5 70.5t-73.5 176.5q0 105 78 178.5t189 73.5q93 0 157 -52q76 -61 76 -143q0 -32 -13 -52t-34 -20zM253 310h50
q31 0 31 28q0 26 -15.5 43t-39.5 17q-23 0 -40 -18.5t-17 -43.5q0 -26 31 -26zM187 701q82 0 82 -67q0 -38 -36.5 -63.5t-89.5 -25.5q-32 0 -52.5 19t-20.5 50q0 40 31.5 63.5t85.5 23.5zM439 699q82 0 82 -67q0 -38 -36.5 -63.5t-89.5 -25.5q-32 0 -52.5 19t-20.5 50
q0 40 31.5 63.5t85.5 23.5z" />
    <glyph glyph-name="iacute" unicode="&#xed;" horiz-adv-x="356" 
d="M291 452v-283q0 -31 4 -44q7 -20 27 -34q25 -18 25 -38q0 -63 -160 -63q-86 0 -137 14q-38 10 -38 45q0 20 33 44q28 21 28 112q0 100 -7 119q-5 14 -26 23q-30 13 -30 40q0 31 40 46q132 50 214 50q27 0 27 -31zM220 698q49 0 83 -16t33 -38q-2 -23 -42 -54
q-74 -57 -163 -57q-50 0 -50 36q0 14 8.5 23t46.5 37q12 9 12 18q0 5 -6 15q-2 3 -2 7q0 29 80 29z" />
    <glyph glyph-name="igrave" unicode="&#xec;" horiz-adv-x="356" 
d="M290 452v-283q0 -31 4 -44q7 -20 27 -34q25 -18 25 -38q0 -63 -160 -63q-86 0 -137 14q-38 10 -38 45q0 20 33 44q28 21 28 112q0 100 -7 119q-5 14 -26 23q-30 13 -30 40q0 31 40 46q132 50 214 50q27 0 27 -31zM123 698q80 0 80 -29q0 -4 -5 -13q-3 -5 -3 -9
q0 -10 24 -27q43 -31 43 -51q0 -36 -51 -36q-88 0 -162 57q-41 32 -42 55q-1 22 33 37.5t83 15.5z" />
    <glyph glyph-name="icircumflex" unicode="&#xee;" horiz-adv-x="356" 
d="M291 452v-283q0 -31 4 -44q7 -20 27 -34q25 -18 25 -38q0 -63 -160 -63q-86 0 -137 14q-38 10 -38 45q0 20 33 44q28 21 28 112q0 100 -7 119q-5 14 -26 23q-30 13 -30 40q0 31 40 46q132 50 214 50q27 0 27 -31zM162 714q34 0 117 -71q56 -48 56 -72q0 -15 -9 -26
t-20 -11q-18 0 -77 30q-49 25 -67 25q-17 0 -66 -28t-70 -28q-32 0 -32 39q0 31 68.5 86.5t99.5 55.5z" />
    <glyph glyph-name="idieresis" unicode="&#xef;" horiz-adv-x="356" 
d="M291 452v-283q0 -31 4 -44q7 -20 27 -34q25 -18 25 -38q0 -63 -160 -63q-86 0 -137 14q-38 10 -38 45q0 20 33 44q28 21 28 112q0 100 -7 119q-5 14 -26 23q-30 13 -30 40q0 31 40 46q132 50 214 50q27 0 27 -31zM80 701q82 0 82 -67q0 -38 -36.5 -63.5t-89.5 -25.5
q-32 0 -52.5 19t-20.5 50q0 40 31.5 63.5t85.5 23.5zM312 699q82 0 82 -67q0 -38 -36.5 -63.5t-89.5 -25.5q-32 0 -52.5 19t-20.5 50q0 40 31.5 63.5t85.5 23.5z" />
    <glyph glyph-name="ntilde" unicode="&#xf1;" horiz-adv-x="671" 
d="M610 306l8 -172q1 -22 6 -30.5t29 -33.5q8 -8 8 -22q0 -32 -39 -45t-138 -13q-124 0 -124 52q0 12 23 36q10 10 15 54t5 90q0 75 -21 101q-15 18 -42 18q-34 0 -47 -25q-10 -19 -10 -72v-97q0 -30 3.5 -40.5t23.5 -40.5q6 -9 6 -20q0 -56 -165 -56q-136 0 -136 57
q0 16 25 34q13 9 16 21t6 59q4 66 4 117q0 34 -5 44.5t-30 25.5q-21 13 -21 32t17.5 31.5t70.5 31.5q112 40 150 40q14 0 24 -11t10 -26q0 -3 -1 -12v-7q0 -23 20 -23q11 0 24 18q45 61 122 61q62 0 105 -32q31 -23 43 -54t15 -91zM245 589v-14q0 -38 -48 -38
q-24 0 -39.5 16.5t-15.5 41.5q0 43 26.5 71t67.5 28q26 0 47 -7t79 -36q28 -14 42 -14q12 0 15 19q2 11 8 27q13 14 39 14q63 0 63 -64q0 -43 -24.5 -68.5t-65.5 -25.5q-31 0 -87 24l-47 20q-45 19 -49 19q-11 0 -11 -13z" />
    <glyph glyph-name="oacute" unicode="&#xf3;" horiz-adv-x="602" 
d="M321 486q112 0 188.5 -72t76.5 -176q0 -106 -97 -180q-92 -71 -213 -71q-115 0 -187 65t-72 169q0 114 86.5 189.5t217.5 75.5zM283 373q-48 0 -48 -57q0 -70 37 -169q15 -40 49 -40q44 0 44 53q0 57 -17 122q-24 91 -65 91zM360 698q49 0 83 -16t33 -38q-2 -23 -42 -54
q-74 -57 -163 -57q-50 0 -50 36q0 14 8.5 23t46.5 37q12 9 12 18q0 5 -6 15q-2 3 -2 7q0 29 80 29z" />
    <glyph glyph-name="ograve" unicode="&#xf2;" horiz-adv-x="602" 
d="M321 486q112 0 188.5 -72t76.5 -176q0 -106 -97 -180q-92 -71 -213 -71q-115 0 -187 65t-72 169q0 114 86.5 189.5t217.5 75.5zM283 373q-48 0 -48 -57q0 -70 37 -169q15 -40 49 -40q44 0 44 53q0 57 -17 122q-24 91 -65 91zM244 698q80 0 80 -29q0 -4 -5 -13
q-3 -5 -3 -9q0 -10 24 -27q43 -31 43 -51q0 -36 -51 -36q-88 0 -162 57q-41 32 -42 55q-1 22 33 37.5t83 15.5z" />
    <glyph glyph-name="ocircumflex" unicode="&#xf4;" horiz-adv-x="602" 
d="M321 486q112 0 188.5 -72t76.5 -176q0 -106 -97 -180q-92 -71 -213 -71q-115 0 -187 65t-72 169q0 114 86.5 189.5t217.5 75.5zM283 373q-48 0 -48 -57q0 -70 37 -169q15 -40 49 -40q44 0 44 53q0 57 -17 122q-24 91 -65 91zM298 714q37 0 127 -71q60 -47 60 -72
q0 -14 -11 -25.5t-25 -11.5q-18 0 -80 30q-52 25 -71 25q-16 0 -69 -28t-74 -28q-38 0 -38 39q0 30 74.5 86t106.5 56z" />
    <glyph glyph-name="odieresis" unicode="&#xf6;" horiz-adv-x="602" 
d="M321 486q112 0 188.5 -72t76.5 -176q0 -106 -97 -180q-92 -71 -213 -71q-115 0 -187 65t-72 169q0 114 86.5 189.5t217.5 75.5zM283 373q-48 0 -48 -57q0 -70 37 -169q15 -40 49 -40q44 0 44 53q0 57 -17 122q-24 91 -65 91zM193 701q82 0 82 -67q0 -38 -36.5 -63.5
t-89.5 -25.5q-32 0 -52.5 19t-20.5 50q0 40 31.5 63.5t85.5 23.5zM445 699q82 0 82 -67q0 -38 -36.5 -63.5t-89.5 -25.5q-32 0 -52.5 19t-20.5 50q0 40 31.5 63.5t85.5 23.5z" />
    <glyph glyph-name="otilde" unicode="&#xf5;" horiz-adv-x="602" 
d="M321 486q112 0 188.5 -72t76.5 -176q0 -106 -97 -180q-92 -71 -213 -71q-115 0 -187 65t-72 169q0 114 86.5 189.5t217.5 75.5zM283 373q-48 0 -48 -57q0 -70 37 -169q15 -40 49 -40q44 0 44 53q0 57 -17 122q-24 91 -65 91zM211 589v-14q0 -38 -48 -38q-24 0 -39.5 16.5
t-15.5 41.5q0 43 26.5 71t67.5 28q26 0 47 -7t79 -36q28 -14 42 -14q12 0 15 19q2 11 8 27q13 14 39 14q63 0 63 -64q0 -43 -24.5 -68.5t-65.5 -25.5q-31 0 -87 24l-47 20q-45 19 -49 19q-11 0 -11 -13z" />
    <glyph glyph-name="uacute" unicode="&#xfa;" horiz-adv-x="678" 
d="M286 459v-265q0 -86 56 -86q34 0 47 28q11 24 11 105q0 79 -5 109q-3 19 -26 31q-28 15 -28 38q0 22 31 36q22 10 85.5 19t111.5 9q51 0 49 -52l-1 -22l-1 -58v-215q0 -16 28 -30q24 -12 24 -34q0 -44 -104 -68q-60 -14 -118 -14q-40 0 -42 26q-3 31 -19 31q-7 0 -40 -23
q-48 -34 -107 -34q-93 0 -131 54q-33 46 -33 153q0 18 1 40v28v23q0 74 -36 93q-29 15 -29 33q0 27 36 42q25 10 92 18.5t120 8.5q28 0 28 -24zM397 698q49 0 83 -16t33 -38q-2 -23 -42 -54q-74 -57 -163 -57q-50 0 -50 36q0 14 8.5 23t46.5 37q12 9 12 18q0 5 -6 15
q-2 3 -2 7q0 29 80 29z" />
    <glyph glyph-name="ugrave" unicode="&#xf9;" horiz-adv-x="678" 
d="M286 459v-265q0 -86 56 -86q34 0 47 28q11 24 11 105q0 79 -5 109q-3 19 -26 31q-28 15 -28 38q0 22 31 36q22 10 85.5 19t111.5 9q51 0 49 -52l-1 -22l-1 -58v-215q0 -16 28 -30q24 -12 24 -34q0 -44 -104 -68q-60 -14 -118 -14q-40 0 -42 26q-3 31 -19 31q-7 0 -40 -23
q-48 -34 -107 -34q-93 0 -131 54q-33 46 -33 153q0 18 1 40v28v23q0 74 -36 93q-29 15 -29 33q0 27 36 42q25 10 92 18.5t120 8.5q28 0 28 -24zM282 698q80 0 80 -29q0 -4 -5 -13q-3 -5 -3 -9q0 -10 24 -27q43 -31 43 -51q0 -36 -51 -36q-88 0 -162 57q-41 32 -42 55
q-1 22 33 37.5t83 15.5z" />
    <glyph glyph-name="ucircumflex" unicode="&#xfb;" horiz-adv-x="678" 
d="M286 459v-265q0 -86 56 -86q34 0 47 28q11 24 11 105q0 79 -5 109q-3 19 -26 31q-28 15 -28 38q0 22 31 36q22 10 85.5 19t111.5 9q51 0 49 -52l-1 -22l-1 -58v-215q0 -16 28 -30q24 -12 24 -34q0 -44 -104 -68q-60 -14 -118 -14q-40 0 -42 26q-3 31 -19 31q-7 0 -40 -23
q-48 -34 -107 -34q-93 0 -131 54q-33 46 -33 153q0 18 1 40v28v23q0 74 -36 93q-29 15 -29 33q0 27 36 42q25 10 92 18.5t120 8.5q28 0 28 -24zM339 714q37 0 127 -71q60 -47 60 -72q0 -14 -11 -25.5t-25 -11.5q-18 0 -80 30q-52 25 -71 25q-16 0 -69 -28t-74 -28
q-38 0 -38 39q0 30 74.5 86t106.5 56z" />
    <glyph glyph-name="udieresis" unicode="&#xfc;" horiz-adv-x="678" 
d="M286 459v-265q0 -86 56 -86q34 0 47 28q11 24 11 105q0 79 -5 109q-3 19 -26 31q-28 15 -28 38q0 22 31 36q22 10 85.5 19t111.5 9q51 0 49 -52l-1 -22l-1 -58v-215q0 -16 28 -30q24 -12 24 -34q0 -44 -104 -68q-60 -14 -118 -14q-40 0 -42 26q-3 31 -19 31q-7 0 -40 -23
q-48 -34 -107 -34q-93 0 -131 54q-33 46 -33 153q0 18 1 40v28v23q0 74 -36 93q-29 15 -29 33q0 27 36 42q25 10 92 18.5t120 8.5q28 0 28 -24zM231 701q82 0 82 -67q0 -38 -36.5 -63.5t-89.5 -25.5q-32 0 -52.5 19t-20.5 50q0 40 31.5 63.5t85.5 23.5zM483 699q82 0 82 -67
q0 -38 -36.5 -63.5t-89.5 -25.5q-32 0 -52.5 19t-20.5 50q0 40 31.5 63.5t85.5 23.5z" />
    <glyph glyph-name="dagger" unicode="&#x2020;" horiz-adv-x="720" 
d="M453 253v-59q0 1 0 -21q-1 -22 -1 -42v-40q0 -73 3 -94q8 -58 39 -81q36 -26 36 -49q0 -24 -35 -37q-52 -20 -135 -20q-90 0 -143 24q-26 12 -26 34t36 48q32 23 40 81q3 22 3 94q0 16 -1 40t-1 63v59q0 16 -11 16q-5 0 -55 -3q-23 -1 -33 -8.5t-19 -29.5
q-15 -35 -44 -35q-39 0 -54.5 48t-15.5 114q0 87 27 129q16 24 42 24q23 0 40 -35q11 -23 20 -28.5t39 -7.5l38 -3h14q9 0 9 16v65q0 36 -28 49q-24 11 -26 13q-14 9 -14 23q0 34 45.5 55.5t117.5 21.5q73 0 118.5 -21.5t45.5 -55.5q0 -14 -14 -23q-2 -2 -26 -13
q-28 -13 -28 -49v-65q0 -16 9 -16h14l38 3q30 2 39 7.5t20 28.5q17 35 40 35q30 0 47 -32q22 -42 22 -121q0 -69 -16 -115.5t-54 -46.5q-29 0 -44 35q-9 22 -19.5 29.5t-32.5 8.5l-55 3q-11 0 -11 -16z" />
    <glyph glyph-name="degree" unicode="&#xb0;" horiz-adv-x="414" 
d="M219 677q68 0 114.5 -44t46.5 -108q0 -62 -56 -107.5t-133 -45.5q-70 0 -114 39.5t-44 103.5q0 70 53 116t133 46zM193 625q-42 0 -42 -44q0 -53 30 -123q13 -30 40 -30q40 0 40 44q0 67 -32 128q-13 25 -36 25z" />
    <glyph glyph-name="cent" unicode="&#xa2;" horiz-adv-x="600" 
d="M255 517v13q0 22 7.5 27.5t25.5 5.5h29q22 0 27.5 -6.5t5.5 -32.5q0 -17 18 -19q64 -6 110 -44.5t46 -85.5q0 -37 -25 -61t-63 -24q-46 0 -66 59q-16 47 -49 47q-25 0 -41 -22t-16 -56q0 -49 34.5 -86t80.5 -37q33 0 75 19q12 4 16 4q14 0 25.5 -15t11.5 -34
q0 -31 -36.5 -61.5t-108.5 -48.5q-12 -3 -12 -23v-15q0 -22 -7.5 -27.5t-25.5 -5.5h-29q-33 0 -33 33v19q0 15 -3 18.5t-18 6.5q-66 14 -118 88q-39 56 -39 124q0 87 57 148q50 54 105 68q11 3 13.5 6.5t2.5 17.5z" />
    <glyph glyph-name="sterling" unicode="&#xa3;" horiz-adv-x="600" 
d="M415 277h-15q-38 0 -46.5 -5t-20.5 -33l-9 -21l-9 -16q-2 -5 -4 -13q-1 -14 37 -29.5t71 -15.5q42 0 72 44q28 41 55 41q22 0 35.5 -15.5t13.5 -39.5q0 -69 -57 -132q-50 -55 -132 -55q-73 0 -128 46q-22 18 -28 18q-9 0 -40 -24q-52 -40 -98 -40q-44 0 -73 33t-29 85
q0 47 23 74.5t63 27.5q17 0 38 -6q11 -3 18 -3q13 0 13 10q0 -3 -6 30q-5 25 -17 30q-6 2 -39 1l-27 -1q-37 -1 -37 49q0 23 8 31t41 8q21 0 21 11q0 5 -3 15q-10 32 -10 58q0 83 70.5 132t189.5 49q98 0 153.5 -44.5t55.5 -104.5q0 -36 -21.5 -57t-58.5 -21q-69 0 -69 62
q0 9 1 15v13q0 43 -49 43q-53 0 -53 -64q0 -79 22 -96q7 -5 69 -5q38 0 38 -48q0 -37 -29 -37z" />
    <glyph glyph-name="section" unicode="&#xa7;" horiz-adv-x="720" 
d="M170 -1q24 0 38 -10q8 -6 29 -30q42 -49 111 -49q72 0 72 46q0 32 -69 48q-133 32 -200 70q-35 20 -56 57.5t-21 78.5q0 77 83 139q5 4 5 9t-6 9q-72 53 -72 133q0 83 76 130t210 47q114 0 193 -31.5t79 -77.5q0 -22 -32 -40q-35 -20 -68 -20q-16 0 -24.5 4.5t-34.5 29.5
q-41 38 -97 38q-27 0 -44.5 -11.5t-17.5 -29.5q0 -36 87 -54q96 -20 152 -46q42 -19 67 -58t25 -86q0 -82 -80 -136q-11 -7 -11 -12q0 -8 17 -18q31 -17 49 -46q22 -34 22 -82q0 -80 -66 -131q-77 -60 -221 -60q-161 0 -251 66q-49 36 -49 73q0 20 31 35t74 15zM312 219
l91 -28q3 -1 9 -1q9 0 19 17t10 33q0 34 -41 45l-91 25q-7 2 -9 2q-10 0 -20.5 -16t-10.5 -33q0 -31 43 -44z" />
    <glyph glyph-name="bullet" unicode="&#x2022;" horiz-adv-x="667" 
d="M336 477q56 0 96.5 -41t40.5 -98t-40.5 -97.5t-97.5 -40.5q-58 0 -98.5 40.5t-40.5 97.5q0 58 40.5 98.5t99.5 40.5z" />
    <glyph glyph-name="paragraph" unicode="&#xb6;" horiz-adv-x="600" 
d="M486 505v-540q0 -43 4 -79q1 -9 1 -16q0 -22 -27 -35q-50 -25 -70 -25q-18 0 -18 23v10q3 31 3 97v596q0 18 -4.5 22.5t-22.5 4.5h-16q-18 0 -22 -4.5t-4 -22.5v-571q0 -43 4 -79q1 -9 1 -16q0 -22 -27 -35q-50 -25 -70 -25q-18 0 -18 23v10q0 12 1.5 37t1.5 39v326
q0 20 -5 24.5t-27 5.5q-70 4 -114 60t-44 141q0 90 49 145.5t129 55.5q14 0 96 -9q36 -4 111 -4q13 0 37 1.5t53 1.5h19q66 0 66 -42q0 -30 -44 -41q-29 -8 -36 -20.5t-7 -58.5z" />
    <glyph glyph-name="germandbls" unicode="&#xdf;" horiz-adv-x="645" 
d="M70 178v185q0 129 59 198q81 94 234 94q73 0 114 -32q46 -36 46 -92q0 -27 -26 -67q-3 -5 -3 -12q0 -17 36 -70q61 -90 82 -139t21 -102q0 -68 -44.5 -109.5t-117.5 -41.5q-60 0 -95 39q-23 26 -23 46q0 10 20 18q37 15 37 53q0 35 -41 101t-50 86t-9 44q0 33 18 60
q11 16 57 55q19 16 19 32q0 33 -42 33q-43 0 -67 -46q-26 -50 -26 -157q0 -48 8 -182q3 -53 27 -76t24 -39q0 -31 -47.5 -49t-131.5 -18q-139 0 -139 59q0 14 5.5 21t31.5 26q23 17 23 82z" />
    <glyph glyph-name="registered" unicode="&#xae;" horiz-adv-x="778" 
d="M362 305q-9 0 -11 -5.5t-2 -29.5q0 -30 4 -46q3 -8 13 -13q18 -9 18 -25q0 -35 -103 -35q-105 0 -105 40q0 12 17 22.5t20 36.5t3 147q0 33 -1 38q-4 19 -21.5 28t-17.5 23q0 33 65 33q8 0 45 -2q7 -1 22 -1q22 0 65 3q29 2 37 2q61 0 97.5 -26.5t36.5 -70.5
q0 -54 -47 -76q-7 -3 -7 -6q0 -6 11 -10q31 -13 45 -33t19 -60q2 -16 6 -20.5t19.5 -8.5t15.5 -22q0 -42 -89 -42q-52 0 -75 23t-40 93q-11 43 -40 43zM349 440l-3 -60q-1 -15 11 -15q42 0 42 47t-34 47q-15 0 -16 -19zM395 680q147 0 253.5 -102.5t106.5 -244.5
q0 -143 -107 -244.5t-258 -101.5t-259 101.5t-108 244.5q0 146 108 246.5t264 100.5zM394 614q-125 0 -211.5 -81.5t-86.5 -199.5q0 -115 86 -197.5t207 -82.5t207 82t86 198q0 115 -85 198t-203 83z" />
    <glyph glyph-name="copyright" unicode="&#xa9;" horiz-adv-x="778" 
d="M393 524q42 0 79 -17q17 -8 23 -8q3 0 15 3q2 1 9 1q21 0 37.5 -28t16.5 -63q0 -25 -15 -41t-39 -16q-26 0 -42 28q-36 62 -90 62q-58 0 -58 -68q0 -55 32 -91.5t81 -36.5t75 24q12 11 20 11q26 0 26 -32q0 -39 -34 -66q-6 -5 -25 -9q-8 -1 -27 -9q-44 -19 -85 -19
q-85 0 -146.5 55t-61.5 132q0 76 62 132t147 56zM395 680q147 0 253.5 -102.5t106.5 -244.5q0 -143 -107 -244.5t-258 -101.5t-259 101.5t-108 244.5q0 146 108 246.5t264 100.5zM394 614q-125 0 -211.5 -81.5t-86.5 -199.5q0 -115 86 -197.5t207 -82.5t207 82t86 198
q0 115 -85 198t-203 83z" />
    <glyph glyph-name="trademark" unicode="&#x2122;" horiz-adv-x="951" 
d="M137 667h155q18 0 45 7q12 2 15 2q24 0 46.5 -35.5t22.5 -72.5q0 -46 -44 -46q-28 0 -49 38q-16 29 -29 29q-20 0 -20 -39v-164q0 -43 26 -54t26 -30q0 -41 -116 -41q-137 0 -137 44q0 17 31 26q19 6 23 47q6 63 6 156q0 55 -18 55q-11 0 -22 -16q-34 -51 -62 -51
q-36 0 -36 42q0 36 25 73t49 37q3 0 14 -2q27 -5 49 -5zM722 388l-35 -78q-15 -34 -26 -34q-14 0 -46 71l-39 87q-8 18 -17 18q-12 0 -12 -80q0 -35 3.5 -42.5t23.5 -18.5q10 -5 10 -17q0 -33 -85 -33q-71 0 -71 32q0 12 23 23q15 7 19 41q7 60 7 168q0 37 -2 46
q-4 26 -24.5 36t-20.5 26q0 40 99 40q39 0 52 -6t26 -29l61 -112q14 -26 24 -26q12 0 22 20l41 81q4 9 10 20q16 34 37 44q16 8 56 8q83 0 83 -38q0 -14 -15 -25t-18 -31q-7 -43 -7 -98q0 -84 7 -131q3 -19 24 -34q11 -6 11 -18q0 -37 -105 -37q-100 0 -100 33q0 12 21 29
q13 11 13 84q0 25 -2.5 31.5t-8.5 6.5q-13 0 -39 -57z" />
    <glyph glyph-name="acute" unicode="&#xb4;" 
d="M308 698q49 0 83 -16t33 -38q-2 -23 -42 -54q-74 -57 -163 -57q-50 0 -50 36q0 14 8.5 23t46.5 37q12 9 12 18q0 5 -6 15q-2 3 -2 7q0 29 80 29z" />
    <glyph glyph-name="dieresis" unicode="&#xa8;" 
d="M142 701q82 0 82 -67q0 -38 -36.5 -63.5t-89.5 -25.5q-32 0 -52.5 19t-20.5 50q0 40 31.5 63.5t85.5 23.5zM394 699q82 0 82 -67q0 -38 -36.5 -63.5t-89.5 -25.5q-32 0 -52.5 19t-20.5 50q0 40 31.5 63.5t85.5 23.5z" />
    <glyph glyph-name="notequal" unicode="&#x2260;" horiz-adv-x="600" 
d="M231 274l5 11q5 11 5 17q0 13 -22 13h-29q-51 0 -97 -2q-4 -1 -10 -1q-23 0 -23 19q0 8 10.5 38.5t17.5 43.5q12 23 33 23q9 0 14 -1q52 -5 80 -5h60q22 0 33 14q3 3 26 63q8 22 17 28t32 6q43 0 70 -7q17 -4 17 -20q0 -8 -16.5 -36t-16.5 -35q0 -14 29 -14q30 0 42 2
t13 2q19 2 19 -20q0 -36 -25 -82q-12 -23 -28 -23q-1 0 -33 5q-20 3 -54 3q-18 0 -29 -12q-14 -21 -14 -36q0 -12 21 -12h84q41 0 47 1q13 2 12 2q19 2 19 -19q0 -34 -25 -82q-12 -23 -28 -23q-6 0 -33 4q-20 3 -45 3h-87q-28 0 -42 -29q-3 -6 -17 -53q-8 -26 -38 -26
q-43 0 -73 9q-21 6 -21 20q0 6 8 19q21 33 21 47t-20 13l-47 -2q-4 -1 -10 -1q-23 0 -23 20q0 7 10.5 38t17.5 43q13 22 33 22q6 0 15 -1q35 -4 47 -4h11q4 -1 9 -1q20 0 28 18z" />
    <glyph glyph-name="AE" unicode="&#xc6;" horiz-adv-x="1035" 
d="M469 668h324q54 0 88 11q22 7 28 7q32 0 55.5 -41t23.5 -96q0 -29 -14.5 -48.5t-36.5 -19.5q-23 0 -44 31q-26 38 -54 48q-39 14 -104 14q-50 0 -64 -7q-21 -13 -21 -60v-78q0 -27 10.5 -33.5t53.5 -6.5q24 0 33 16q4 7 6 32q4 55 44 55q30 0 41 -27q17 -40 17 -126
q0 -66 -17.5 -105.5t-47.5 -39.5q-25 0 -31 42q-5 33 -18 46t-44 13q-40 0 -40 -53q0 -89 10 -120q7 -21 51 -25q9 -1 64 -1q67 0 108 34q24 20 42.5 60.5t47.5 40.5q22 0 35.5 -18t13.5 -47q0 -65 -43 -136q-14 -22 -21 -29q-12 -11 -32 -11q-10 0 -26.5 3.5t-30.5 4.5
l-24 1l-437 -2q-56 0 -56 41q0 29 36 44q29 12 29 30q0 29 -57 30q-48 1 -56 1h-13q-64 0 -64 -29q0 -14 29.5 -30t29.5 -41q0 -53 -143 -53q-150 0 -150 59q0 30 44 45q22 8 41 35q73 107 133 217l103 189q19 36 19 49l-1 28q-1 31 31 47q14 7 28 8q10 1 71 1zM438 335v69
q0 21 -3.5 33.5t-16.5 12.5q-16 0 -36 -37l-46 -84q-15 -27 -15 -40q0 -17 15 -23.5t54 -6.5q33 0 43 23q5 12 5 53z" />
    <glyph glyph-name="Oslash" unicode="&#xd8;" horiz-adv-x="778" 
d="M640 596l57 48q7 6 15 6q9 0 19 -10l7 -9q7 -9 7 -18q0 -10 -9 -18l-53 -45q-5 -3 -6 -7q0 -1 1.5 -2.5t2.5 -3.5t4 -5q31 -39 50.5 -97t19.5 -110q0 -78 -37 -148t-102 -117q-103 -74 -232 -74q-62 0 -130.5 24.5t-107.5 60.5q-5 5 -8 5t-8 -4l-51 -43q-9 -8 -16 -8
q-10 0 -17 8l-11 12q-6 7 -6 14q0 10 10 19l49 42q6 5 6 6q0 2 -10 16q-61 83 -61 196q0 84 35.5 157t98.5 119q96 70 228 70q67 0 134 -23t105 -60q6 -5 8 -5t8 4zM313 311l125 109q17 15 17 23q0 12 -22 43q-39 54 -87 54q-34 0 -57.5 -29t-23.5 -72q0 -49 20 -124
q5 -15 11 -15q4 0 17 11zM463 359l-125 -109q-17 -15 -17 -21q0 -10 24 -47q33 -51 81 -51q38 0 60 27t22 74q0 58 -18 123q-3 15 -10 15q-4 0 -17 -11z" />
    <glyph glyph-name="infinity" unicode="&#x221e;" horiz-adv-x="667" 
d="M342 243l-5 6q-76 -75 -156 -75q-72 0 -118.5 46.5t-46.5 118.5t46.5 118.5t117.5 46.5q56 0 101 -31q5 -5 44 -38l5 -4l5 4q72 69 149 69q73 0 119.5 -46t46.5 -118t-46.5 -119t-117.5 -47q-75 0 -144 69zM402 339q29 -39 59 -39q18 0 31 11.5t13 27.5t-13 27.5
t-31 11.5q-28 0 -59 -39zM264 339q-2 2 -3 4q-27 35 -56 35q-18 0 -31 -11.5t-13 -27.5t13 -27.5t31 -11.5q28 0 59 39z" />
    <glyph glyph-name="plusminus" unicode="&#xb1;" horiz-adv-x="600" 
d="M215 317h-25q-51 0 -97 -2q-4 -1 -10 -1q-23 0 -23 19q0 8 10.5 38t17.5 44q12 22 33 22q6 0 14 -1q39 -5 67 -5h13q26 0 26 27v4q0 29 -6 68q-1 3 -1 10q0 18 31 31q51 22 78 22q22 0 20 -19q0 -8 -1.5 -28t-1.5 -30v-58q0 -27 27 -27h75q41 0 47 1q13 2 12 2
q19 2 19 -19q0 -34 -25 -82q-12 -23 -28 -23q-6 0 -33 4q-20 3 -45 3h-22q-27 0 -27 -24q0 -7 1 -13q0 -2 1 -14q4 -56 4 -52q0 -21 -30 -35q-55 -25 -78 -25q-20 0 -20 23q0 6 1 10q2 27 2 97v6q0 27 -26 27zM215 124h247q40 0 46 1l13 2q19 2 19 -19q0 -34 -25 -82
q-12 -23 -28 -23q-7 0 -33 4q-20 3 -45 3h-219q-51 0 -97 -2q-4 -1 -10 -1q-23 0 -23 19q0 8 10.5 38t17.5 44q12 22 33 22q9 0 14 -1q52 -5 80 -5z" />
    <glyph glyph-name="lessequal" unicode="&#x2264;" 
d="M466 692v-204l-195 -40l194 -39l1 -203l-433 152v182zM466 181v-191h-433v191h433z" />
    <glyph glyph-name="greaterequal" unicode="&#x2265;" 
d="M33 206l1 203l194 39l-195 40v204l433 -152v-182zM33 -10v191h433v-191h-433z" />
    <glyph glyph-name="yen" unicode="&#xa5;" horiz-adv-x="600" 
d="M496 350l-51 -1q-29 -1 -32.5 -4.5t-8 -25t-4.5 -35.5q0 -18 26 -17l45 1h30q50 0 50 -38q0 -30 -39 -30h-26l-53 -1q-22 0 -26.5 -2.5t-4.5 -12.5q0 -16 4 -48q3 -27 31 -42q32 -18 32 -43q0 -61 -177 -61q-110 0 -161 22q-30 13 -30 40q0 28 34 41q26 10 31 23
q12 31 12 64q0 15 -20 15h-6l-56 -2q-48 -2 -48 39q0 19 12 26q6 4 51 5l43 1q17 0 21.5 3t4.5 13q0 31 -12 53q-6 11 -29 11h-23l-30 -1q-48 -2 -48 39q0 20 11 25.5t40 5.5h6q17 0 17 10q0 6 -13 22q-3 3 -12 15q-16 21 -26 32q-18 21 -31 27q-21 10 -27 16q-9 10 -9 28
q0 32 37 45t126 13q90 0 128.5 -11.5t38.5 -39.5q0 -13 -12 -25q-19 -18 -19 -26q0 -16 25 -52q16 -23 31 -23q16 0 41 32q18 23 18 34q0 12 -22 32q-11 10 -11 29q0 50 124 50q69 0 87.5 -13t18.5 -39q0 -31 -37 -41q-26 -7 -61 -50q-41 -50 -41 -54q0 -7 12 -7h10
q6 1 22 1q51 0 51 -38q0 -22 -22 -28q-8 -2 -41 -2h-2z" />
    <glyph glyph-name="partialdiff" unicode="&#x2202;" 
d="M37 501l23 158q204 -18 314 -107q120 -97 120 -269q0 -139 -67.5 -215t-189.5 -76q-99 0 -161 60q-72 69 -72 180q0 85 59 141.5t148 56.5q64 0 89 -18q-11 25 -27.5 36.5t-61.5 26.5q-68 22 -174 26zM247 278q-25 0 -42 -18t-17 -44q0 -25 17.5 -43t42.5 -18
q24 0 41.5 18t17.5 43q0 26 -17.5 44t-42.5 18z" />
    <glyph glyph-name="summation" unicode="&#x2211;" horiz-adv-x="667" 
d="M643 750v-279h-186l-23 89h-169l236 -298l-234 -322h176l13 97h196v-287h-619v218l223 294l-223 268v220h610z" />
    <glyph glyph-name="product" unicode="&#x220f;" horiz-adv-x="667" 
d="M11 750h644v-165h-70v-670h70v-165h-310v165h55v670h-134v-670h53v-165h-308v165h72v670h-72v165z" />
    <glyph glyph-name="integral" unicode="&#x222b;" 
d="M-1 -240l31 196q31 -10 47 -10q42 0 56 35q5 13 5 124v251q0 136 1.5 164.5t10.5 66.5q19 79 94 126q59 37 151 37q44 0 105 -10l-31 -196q-30 10 -48 10q-40 0 -55 -35q-5 -12 -5 -53v-317q0 -178 -6 -211q-17 -92 -90 -145q-61 -44 -162 -44q-41 0 -80 7q-16 3 -24 4z
" />
    <glyph glyph-name="ordfeminine" unicode="&#xaa;" horiz-adv-x="379" 
d="M154 435h15q22 0 22 15q0 55 -26 55q-16 0 -33 -23q-29 -38 -61 -38q-38 0 -38 34q0 32 51.5 57.5t115.5 25.5q69 0 107 -36q25 -24 24 -72l-1 -41q-1 -35 0 -41q4 -24 24 -27q13 -2 13 -15q0 -26 -30.5 -48t-65.5 -22t-54 22q-5 7 -10 7t-15 -7q-31 -22 -72 -22
q-47 0 -76.5 23t-29.5 60q0 39 40.5 66t99.5 27zM178 387q-13 0 -22 -9.5t-9 -22.5q0 -27 23 -27q22 0 22 38q0 21 -14 21z" />
    <glyph glyph-name="ordmasculine" unicode="&#xba;" horiz-adv-x="402" 
d="M214 560q73 0 123 -43.5t50 -106.5q0 -62 -59.5 -107t-141.5 -45q-76 0 -123 39.5t-47 102.5q0 69 56.5 114.5t141.5 45.5zM189 487q-27 0 -27 -31q0 -23 10.5 -61.5t20.5 -49.5q7 -10 21 -10q25 0 25 28q0 30 -9.5 65.5t-20.5 49.5q-7 9 -20 9z" />
    <glyph glyph-name="Omega" unicode="&#x3a9;" horiz-adv-x="667" 
d="M27 0v179h99q-41 27 -62 55q-42 56 -42 139q0 131 90.5 221t220.5 90q131 0 221 -90t90 -221q0 -89 -46 -145q-18 -23 -58 -49h99v-179h-278v164q42 20 57.5 59.5t15.5 119.5q0 61 -17 100q-11 25 -35 42t-49 17t-49 -17t-35 -43q-17 -39 -17 -101q0 -143 73 -177v-164
h-278z" />
    <glyph glyph-name="ae" unicode="&#xe6;" horiz-adv-x="799" 
d="M730 229h-218q-17 0 -17 -14q0 -34 34.5 -62.5t74.5 -28.5q56 0 104 34q17 12 25 12q11 0 24.5 -18.5t13.5 -34.5q0 -46 -74 -88t-154 -42q-88 0 -159 53q-7 5 -11 5t-16 -6q-102 -52 -187 -52q-71 0 -114 35.5t-43 94.5q0 87 90 131q34 16 59 21t96 9q16 1 20.5 8
t4.5 26q0 95 -46 95q-27 0 -59 -46q-42 -60 -86 -60q-23 0 -39 14.5t-16 35.5q0 51 79 93.5t174 42.5q67 0 113 -21q11 -5 14 -5q5 0 15 5q51 20 122 20q96 0 164 -56t68 -135q0 -50 -27 -62q-8 -4 -29 -4zM518 319h61q24 0 24 26q0 25 -15.5 42t-38.5 17q-24 0 -41.5 -18.5
t-17.5 -43.5q0 -16 7 -19.5t21 -3.5zM263 208q-22 0 -37 -17.5t-15 -42.5q0 -22 12 -37.5t28 -15.5q38 0 38 64q0 31 -5.5 40t-20.5 9z" />
    <glyph glyph-name="oslash" unicode="&#xf8;" horiz-adv-x="602" 
d="M578 408l-30 -22q-6 -6 -6 -9q0 -4 5 -11q39 -55 39 -126q0 -111 -99 -185q-92 -69 -210 -69q-102 0 -176 54q-8 6 -13 6q-4 0 -16 -9l-29 -21q-7 -5 -14 -5q-10 0 -20 11.5t-10 22.5q0 9 10 17l26 20q12 9 12 14q0 4 -5 13q-25 46 -25 115q0 113 85 187.5t215 74.5
q105 0 170 -53q10 -8 14 -8q2 0 10 5l34 25q8 6 15 6q10 0 20 -11.5t10 -22.5q0 -10 -12 -19zM337 232l-64 -48q-9 -7 -9 -13q0 -14 16 -38q18 -27 43 -27q43 0 43 56q0 77 -14 77q-6 0 -15 -7zM264 249l64 47q9 7 9 13q0 5 -7 23q-17 42 -50 42q-44 0 -44 -54q0 1 5 -49
l1 -10q2 -19 10 -19q2 0 12 7z" />
    <glyph glyph-name="questiondown" unicode="&#xbf;" horiz-adv-x="482" 
d="M258 487q44 0 75 -31t31 -75q0 -45 -31.5 -75.5t-77.5 -30.5q-42 0 -72.5 31t-30.5 74q0 44 31.5 75.5t74.5 31.5zM251 227q64 0 64 -64q0 -24 -14 -57q-2 -4 -37 -59q-32 -48 -32 -90q0 -48 34 -48q25 0 30 46.5t33.5 74t72.5 27.5q32 0 52.5 -19.5t20.5 -49.5
q0 -47 -32.5 -91.5t-84.5 -67t-113 -22.5q-95 0 -165 54.5t-70 128.5q0 57 47 95q10 8 71 39q38 19 51 48q15 34 27.5 44.5t44.5 10.5z" />
    <glyph glyph-name="exclamdown" unicode="&#xa1;" horiz-adv-x="308" 
d="M154 487q44 0 75 -31t31 -75q0 -45 -31.5 -75.5t-77.5 -30.5q-42 0 -72.5 31t-30.5 74q0 44 31.5 75.5t74.5 31.5zM156 221q20 0 55 -65q57 -106 57 -203q0 -63 -31 -101.5t-83 -38.5q-50 0 -82 41.5t-32 106.5q0 110 63 209q33 51 53 51z" />
    <glyph glyph-name="logicalnot" unicode="&#xac;" 
d="M253 0v112h-220v191h433v-303h-213z" />
    <glyph glyph-name="radical" unicode="&#x221a;" horiz-adv-x="667" 
d="M667 827v-170h-146l-141 -657h-246l-38 221h-96v170h212l15 -76q11 -56 11 -129v-19h12q-2 115 35 281l85 379h297z" />
    <glyph glyph-name="florin" unicode="&#x192;" horiz-adv-x="600" 
d="M76 -28l-2 -27q-1 -8 8.5 -16t19.5 -8q28 0 43 51q25 84 35 225l7 96q1 7 1 15q0 22 -22 22q-1 0 -5 -1q-9 -3 -14 -3q-15 0 -15 13q0 -4 5 41q4 37 20 36l30 -2q19 -1 22 22q7 50 16.5 74.5t32.5 49.5q65 71 160 71q66 0 113.5 -34.5t47.5 -82.5q0 -25 -21.5 -44
t-49.5 -19q-20 0 -36.5 15t-16.5 34q0 4 1 7t1 6q0 12 -8.5 21.5t-18.5 9.5q-44 0 -44 -85q0 -34 14 -42q7 -4 24 -4q4 0 12.5 1.5t12.5 1.5q24 0 22 -26q-2 -27 -10 -46t-17 -18l-43 4q-22 -5 -27 -54q-23 -236 -48 -302q-23 -61 -82.5 -101.5t-125.5 -40.5
q-64 0 -113.5 33t-49.5 77q0 28 20 49t47 21q24 0 39.5 -14.5t14.5 -25.5z" />
    <glyph glyph-name="approxequal" unicode="&#x2248;" 
d="M109 348l-103 73q32 86 69.5 123t92.5 37q24 0 142 -41q17 -6 29 -6q29 0 52 35l103 -73q-34 -85 -69 -121q-38 -40 -92 -40q-26 0 -110 30q-50 18 -64 18q-26 0 -50 -35zM109 88l-103 73q32 85 70 122t91 37q27 0 143 -40q17 -6 29 -6q29 0 52 35l103 -73
q-35 -86 -69 -121q-39 -40 -92 -40q-24 0 -147 42q-15 5 -28 5q-25 0 -49 -34z" />
    <glyph glyph-name="approxequal" unicode="&#x22f2;" 
d="M109 348l-103 73q32 86 69.5 123t92.5 37q24 0 142 -41q17 -6 29 -6q29 0 52 35l103 -73q-34 -85 -69 -121q-38 -40 -92 -40q-26 0 -110 30q-50 18 -64 18q-26 0 -50 -35zM109 88l-103 73q32 85 70 122t91 37q27 0 143 -40q17 -6 29 -6q29 0 52 35l103 -73
q-35 -86 -69 -121q-39 -40 -92 -40q-24 0 -147 42q-15 5 -28 5q-25 0 -49 -34z" />
    <glyph glyph-name="guillemotleft" unicode="&#xab;" horiz-adv-x="534" 
d="M215 474q19 0 33 -12.5t14 -28.5q0 -13 -7 -26t-47 -73q-33 -50 -33 -74q0 -16 13 -39.5t68 -107.5q9 -14 9 -29q0 -16 -13.5 -29.5t-28.5 -13.5q-44 0 -146 110q-64 69 -64 109q0 37 81 123q86 91 121 91zM471 475q19 0 33 -12.5t14 -28.5q0 -13 -7 -26t-47 -73
q-33 -50 -33 -74q0 -16 13 -39.5t68 -107.5q9 -14 9 -29q0 -16 -13.5 -29.5t-28.5 -13.5q-44 0 -146 110q-64 69 -64 109q0 37 81 123q86 91 121 91z" />
    <glyph glyph-name="guillemotright" unicode="&#xbb;" horiz-adv-x="534" 
d="M319 474q37 0 138 -110q64 -70 64 -104q0 -44 -80 -125q-92 -94 -130 -94q-16 0 -29 13.5t-13 29.5q0 11 6.5 23t45 70.5t38.5 82.5q0 25 -33 74q-40 60 -47.5 73t-7.5 26q0 17 14.5 29t33.5 12zM64 475q36 0 137 -110q64 -70 64 -104q0 -44 -80 -125q-92 -94 -130 -94
q-16 0 -29 13.5t-13 29.5q0 11 6.5 23t45 70.5t38.5 82.5t-33 74q-40 60 -47 73t-7 26q0 17 14.5 29t33.5 12z" />
    <glyph glyph-name="ellipsis" unicode="&#x2026;" horiz-adv-x="900" 
d="M150 217q48 0 81.5 -34t33.5 -82q0 -47 -34 -80.5t-81 -33.5t-81 34t-34 81t34 81t81 34zM450 217q48 0 81.5 -34t33.5 -82q0 -47 -34 -80.5t-81 -33.5t-81 34t-34 81t34 81t81 34zM750 217q48 0 81.5 -34t33.5 -82q0 -47 -34 -80.5t-81 -33.5t-81 34t-34 81t34 81t81 34
z" />
    <glyph glyph-name="nonbreakingspace" unicode="&#xa0;" horiz-adv-x="250" 
 />
    <glyph glyph-name="Agrave" unicode="&#xc0;" horiz-adv-x="827" 
d="M650 338l93 -198q13 -28 22 -37t27 -11q35 -5 35 -35q0 -67 -183 -67q-158 0 -191 19q-27 16 -27 40q0 25 36 38q23 8 23 26q0 33 -41 39t-119 6q-63 0 -77 -8q-20 -11 -20 -42q0 -10 4.5 -13.5t27.5 -10.5q30 -9 30 -36q0 -58 -140 -58q-77 0 -116 11q-34 9 -34 45
q0 28 35 39q31 10 47 29.5t47 88.5l69 151q34 75 43 100q21 57 22 105q1 44 5 60t20 31q35 34 86 34q76 0 131 -78q57 -81 145 -268zM310 276h96q27 0 27 12q0 11 -19 46q-28 51 -39.5 66t-23.5 15q-16 0 -28 -33q-35 -70 -35 -94q0 -12 22 -12zM343 885q80 0 80 -29
q0 -4 -5 -13q-3 -5 -3 -9q0 -10 24 -27q43 -31 43 -51q0 -36 -51 -36q-88 0 -162 57q-41 32 -42 55q-1 22 33 37.5t83 15.5z" />
    <glyph glyph-name="Atilde" unicode="&#xc3;" horiz-adv-x="827" 
d="M650 338l93 -198q13 -28 22 -37t27 -11q35 -5 35 -35q0 -67 -183 -67q-160 0 -192 19q-26 15 -26 40t36 38q23 8 23 27q0 32 -41 38t-118 6q-65 0 -78 -8q-20 -12 -20 -42q0 -10 4.5 -13.5t27.5 -10.5q30 -9 30 -36q0 -58 -141 -58q-76 0 -115 11q-34 9 -34 45
q0 28 35 39q31 10 47 29.5t47 88.5l69 151q34 75 43 100q21 57 22 105q1 44 5 60t20 31q35 34 86 34q76 0 131 -78q57 -81 145 -268zM310 276h96q26 0 26 11q0 14 -25.5 61.5t-38.5 60.5q-8 7 -17 7q-16 0 -29 -33q-34 -85 -34 -95q0 -12 22 -12zM474 842l-1 18
q-1 11 14.5 21.5t32.5 10.5q29 0 47 -19.5t18 -51.5q0 -36 -28 -66.5t-60 -30.5q-46 0 -137 46q-34 17 -47 17q-5 0 -11 -4t-6 -7l2 -25q1 -7 -15 -15.5t-30 -8.5q-19 0 -39 17t-20 60q0 36 24 60t63 26q25 1 62 -13q30 -13 59 -26q18 -8 22 -9q10 -3 21.5 -7.5t16.5 -4.5
q13 0 12 12z" />
    <glyph glyph-name="Otilde" unicode="&#xd5;" horiz-adv-x="778" 
d="M394 681q125 0 219 -72q64 -49 103 -127t39 -157q0 -141 -108.5 -239.5t-264.5 -98.5q-153 0 -256 99.5t-103 247.5q0 151 105 249t266 98zM347 541q-35 0 -59 -29.5t-24 -72.5q0 -56 22.5 -128.5t56 -126.5t83.5 -54q37 0 59.5 28t22.5 73q0 60 -19 128.5t-49 116.5
q-41 65 -93 65zM480 842l-1 18q-1 11 14.5 21.5t32.5 10.5q29 0 47 -19.5t18 -51.5q0 -36 -28 -66.5t-60 -30.5q-48 0 -138 46q-33 17 -47 17q-5 0 -11 -4t-6 -7l2 -25q1 -7 -15 -15.5t-30 -8.5q-18 0 -38 17t-20 60q0 36 24 60t63 26q25 1 62 -13q30 -13 59 -26
q18 -8 22 -9q10 -3 21.5 -7.5t16.5 -4.5q13 0 12 12z" />
    <glyph glyph-name="OE" unicode="&#x152;" horiz-adv-x="1083" 
d="M901 0h-418q-27 0 -58 -4t-55 -4q-125 0 -217 74q-59 47 -94.5 123t-35.5 153q0 140 101 237.5t246 97.5q27 0 85 -5q46 -4 72 -4h321q71 0 111 15q8 3 17 3q28 0 46 -26q35 -51 35 -118q0 -28 -15 -45.5t-38 -17.5q-27 0 -49 34q-25 38 -52 48q-32 12 -103 12
q-53 0 -66 -16q-9 -11 -9 -51v-78q0 -29 11 -34q18 -6 46 -6q30 0 38 16q3 6 8 41q7 48 44 48q57 0 57 -144q0 -70 -18 -112.5t-47 -42.5t-33 45q-5 55 -60 55q-29 0 -37 -21q-5 -11 -5 -47q0 -77 13 -108q7 -17 47 -20q8 -1 55 -1q53 0 84 25q23 18 45.5 60t56.5 42
q46 0 46 -56t-35.5 -118.5t-67.5 -62.5q-8 0 -37 9q-13 4 -35 4zM338 543q-36 0 -58.5 -29t-22.5 -75q0 -74 35 -171q49 -137 126 -137q36 0 59 28.5t23 73.5q0 57 -19 126t-49 118q-40 66 -94 66z" />
    <glyph glyph-name="oe" unicode="&#x153;" horiz-adv-x="884" 
d="M825 219h-228q-17 0 -17 -11q0 -26 26 -54q32 -35 84 -35q54 0 103 32q14 9 21 9q12 0 25 -18t13 -34q0 -42 -72.5 -81.5t-150.5 -39.5q-40 0 -84.5 12t-67.5 29q-8 6 -13 6q-4 0 -12 -5q-70 -42 -175 -42q-102 0 -171 52q-89 67 -89 181q0 118 85 192t220 74
q80 0 149 -41q5 -3 7 -3q3 0 10 4q64 40 157 40q89 0 158 -59t69 -135q0 -31 -13 -55q-10 -18 -34 -18zM618 312h40q32 0 32 24q0 28 -14.5 45.5t-37.5 17.5q-25 0 -42 -17t-17 -43q0 -19 9 -24q6 -3 30 -3zM282 375q-45 0 -45 -56q0 -79 31 -165q17 -47 54 -47q42 0 42 61
q0 44 -13 102t-29 81.5t-40 23.5z" />
    <glyph glyph-name="endash" unicode="&#x2013;" horiz-adv-x="600" 
d="M249 346h216q55 0 68 2t18 2q28 0 28 -28q0 -16 -12.5 -55.5t-24.5 -64.5q-16 -33 -41 -33q-10 0 -49 6q-26 4 -65 4h-174q-99 0 -142 -4q-11 -1 -16 -1q-13 0 -23 8.5t-10 19.5q0 12 15.5 56t26.5 63q19 33 47 33q12 0 21 -1q65 -7 117 -7z" />
    <glyph glyph-name="emdash" unicode="&#x2014;" horiz-adv-x="854" 
d="M227 346h513q55 0 68 2t18 2q28 0 28 -28q0 -16 -12.5 -56t-24.5 -64q-17 -33 -41 -33q-9 0 -48 6q-26 4 -65 4h-472q-99 0 -142 -4q-11 -1 -16 -1q-13 0 -23 8.5t-10 19.5q0 12 15.5 56t26.5 63q19 33 47 33q12 0 21 -1q65 -7 117 -7z" />
    <glyph glyph-name="quotedblleft" unicode="&#x201c;" horiz-adv-x="559" 
d="M211 681q18 0 32 -9.5t14 -21.5q0 -7 -10 -17q-56 -57 -56 -97q0 -16 16 -28q57 -44 57 -100q0 -48 -31 -80t-77 -32q-48 0 -81 36.5t-33 89.5q0 117 114 231q28 28 55 28zM470 681q18 0 32 -9.5t14 -21.5q0 -7 -10 -17q-56 -57 -56 -97q0 -16 16 -28q57 -44 57 -100
q0 -48 -31 -80t-77 -32q-48 0 -81 36.5t-33 89.5q0 117 114 231q28 28 55 28z" />
    <glyph glyph-name="quotedblright" unicode="&#x201d;" horiz-adv-x="559" 
d="M403 680q48 0 81 -36.5t33 -89.5q0 -123 -114 -230q-30 -28 -55 -28q-18 0 -32 9.5t-14 21.5q0 7 10 17q56 56 56 96q0 16 -16 28q-57 44 -57 100q0 48 31 80t77 32zM144 680q48 0 81 -36.5t33 -89.5q0 -123 -113 -230q-30 -28 -56 -28q-17 0 -31 9.5t-14 21.5q0 7 10 17
q56 56 56 96q0 15 -17 28q-57 44 -57 100q0 48 31 80t77 32z" />
    <glyph glyph-name="quoteleft" unicode="&#x2018;" horiz-adv-x="300" 
d="M211 681q18 0 32 -9.5t14 -21.5q0 -7 -10 -17q-56 -57 -56 -97q0 -16 16 -28q57 -44 57 -100q0 -48 -31 -80t-77 -32q-48 0 -81 36.5t-33 89.5q0 117 114 231q28 28 55 28z" />
    <glyph glyph-name="quoteright" unicode="&#x2019;" horiz-adv-x="300" 
d="M144 680q48 0 81 -36.5t33 -89.5q0 -123 -113 -230q-30 -28 -56 -28q-17 0 -31 9.5t-14 21.5q0 7 10 17q56 56 56 96q0 15 -17 28q-57 44 -57 100q0 48 31 80t77 32z" />
    <glyph glyph-name="divide" unicode="&#xf7;" horiz-adv-x="600" 
d="M301 534q30 0 51.5 -21.5t21.5 -51.5q0 -31 -21.5 -53t-53.5 -22q-29 0 -51 22t-22 51q0 32 22 53.5t53 21.5zM301 185q30 0 51.5 -21.5t21.5 -51.5q0 -31 -21.5 -53t-53.5 -22q-29 0 -51 22t-22 51q0 32 22 53.5t53 21.5zM215 343h247q40 0 46 1l13 2q19 2 19 -19
q0 -36 -25 -82q-12 -23 -28 -23q-7 0 -33 4q-20 3 -45 3h-219q-51 0 -97 -2q-4 -1 -10 -1q-23 0 -23 19q0 8 10.5 38t17.5 44q12 22 33 22q9 0 14 -1q52 -5 80 -5z" />
    <glyph glyph-name="lozenge" unicode="&#x25ca;" horiz-adv-x="667" 
d="M334 693l259 -360l-259 -359l-260 359zM334 604l-197 -271l197 -270l197 270z" />
    <glyph glyph-name="ydieresis" unicode="&#xff;" horiz-adv-x="619" 
d="M484 246l-65 -177q-45 -123 -103 -179q-63 -61 -152 -61q-66 0 -109 32t-43 81q0 37 24.5 63t59.5 26q34 0 56 -24q14 -16 24 -55q5 -22 24 -22q15 0 25.5 13.5t10.5 32.5q0 21 -26 77l-117 250q-20 43 -32 53q-4 6 -14 10l-23 10q-24 10 -24 38q0 36 49 50q65 19 168 19
q122 0 122 -58q0 -12 -11 -28.5t-11 -28.5q0 -24 22.5 -63t36.5 -39q15 0 31.5 30t16.5 58q0 21 -12 36q-18 22 -18 38q0 25 33.5 40t88.5 15q103 0 103 -51q0 -30 -49 -49q-23 -6 -41 -34.5t-45 -102.5zM221 701q82 0 82 -67q0 -38 -36.5 -63.5t-89.5 -25.5q-32 0 -52.5 19
t-20.5 50q0 40 31.5 63.5t85.5 23.5zM473 699q82 0 82 -67q0 -38 -36.5 -63.5t-89.5 -25.5q-32 0 -52.5 19t-20.5 50q0 40 31.5 63.5t85.5 23.5z" />
    <glyph glyph-name="Ydieresis" unicode="&#x178;" horiz-adv-x="780" 
d="M213 677q109 0 153.5 -13t44.5 -44q0 -13 -11 -26q-16 -19 -16 -29q0 -17 28 -56q18 -25 34 -25q18 0 46 35q19 24 19 38q0 12 -18 34q-10 10 -10 30q0 56 152 56q98 0 119 -13q26 -16 26 -43q0 -36 -55 -46q-27 -5 -47 -20.5t-76 -75.5q-63 -67 -77 -94
q-23 -41 -23 -113q0 -59 4 -105q3 -30 10 -41.5t28 -22.5q36 -18 36 -47q0 -66 -196 -66q-120 0 -179 24q-34 14 -34 43q0 30 37 44q27 10 35 25q15 35 15 159q0 40 -8 61.5t-34 55.5q-56 73 -114 130q-27 26 -48 34q-32 12 -38 16q-16 11 -16 34q0 61 213 61zM307 891
q79 0 79 -65q0 -42 -35 -64q-50 -32 -110 -32q-33 0 -53.5 18t-20.5 47q0 36 31 60q46 36 109 36zM587 898q79 0 79 -65q0 -42 -35 -64q-51 -32 -110 -32q-33 0 -53.5 18t-20.5 47q0 36 31 60q46 36 109 36z" />
    <glyph glyph-name="fraction" unicode="&#x2044;" horiz-adv-x="133" 
d="M-36 180l148 250q51 86 80 145q21 42 57 42q46 0 46 -25q0 -15 -38 -71q-42 -62 -81 -128l-151 -256q-41 -70 -87 -159q-24 -46 -50 -46q-57 0 -57 27q0 8 10 23q61 92 123 198z" />
    <glyph glyph-name="currency" unicode="&#xa4;" horiz-adv-x="754" 
d="M128 413q35 90 123 148.5t189 58.5q66 0 128 -29q28 -13 39 -13h4q9 0 24 4q7 2 11 2q32 0 57.5 -45.5t25.5 -103.5q0 -43 -22.5 -68.5t-60.5 -25.5q-39 0 -64 45q-31 55 -54 74q-44 36 -95 36q-80 0 -97 -84h138q3 0 13 2q18 0 18 -11q0 -1 -2 -5l-1 -3
q-1 -7 -11.5 -22.5t-15 -20t-21.5 -7.5h-1q-1 1 -4.5 1t-9.5 1q-13 2 -55 2h-51q2 -17 4 -33h59q35 0 38 1h8q1 0 7 1h2q17 0 17 -10t-19 -39q-12 -19 -30 -19h-10q-1 1 -5.5 1t-10 1t-11.5 1t-17 1h-7q51 -106 165 -106q77 0 132 49q10 9 20 9q16 0 27.5 -14.5t11.5 -33.5
q0 -27 -19 -64t-39 -50q-6 -4 -35 -9q-18 -3 -44 -16q-66 -32 -140 -32q-121 0 -215 77t-112 190q-8 0 -28 -1l-27 -1h-10q-20 0 -20 11q0 6 12 25q20 32 42 32q4 0 14 -1l10 -1h4q0 13 3 31l-28 -1h-37q-20 0 -20 10q0 16 24 43q12 14 30 14q8 0 14 -1l14 -1h21z" />
    <glyph glyph-name="guilsinglleft" unicode="&#x2039;" horiz-adv-x="278" 
d="M215 475q19 0 33 -12.5t14 -28.5q0 -13 -7 -26t-47 -73q-33 -50 -33 -74q0 -16 13 -39.5t68 -107.5q9 -14 9 -29q0 -16 -13.5 -29.5t-28.5 -13.5q-44 0 -146 110q-64 69 -64 109q0 37 81 123q86 91 121 91z" />
    <glyph glyph-name="guilsinglright" unicode="&#x203a;" horiz-adv-x="279" 
d="M64 475q36 0 137 -110q64 -70 64 -104q0 -44 -80 -125q-92 -94 -130 -94q-16 0 -29 13.5t-13 29.5q0 11 6.5 23t45 70.5t38.5 82.5t-33 74q-40 60 -47 73t-7 26q0 17 14.5 29t33.5 12z" />
    <glyph glyph-name="fi" unicode="&#xf001;" horiz-adv-x="708" 
d="M306 395h7q18 0 24 -6.5t4 -11.5v-2l-4 -58q-2 -23 -15 -27q-23 -5 -23 -61v-82q0 -30 3.5 -40.5t24.5 -40.5q7 -8 7 -20q0 -27 -38 -41.5t-125 -14.5q-162 0 -162 67q0 18 11 28q6 5 28 15q26 12 31 43q9 61 9 104q0 42 -39 42q-31 0 -36 3t-7 8l1 4l4 62q1 16 5.5 19.5
t23 4.5t18.5 17q0 7 -13 31q-23 42 -23 81q0 67 54 108q61 46 184 46q195 0 317 -63q61 -32 61 -68q0 -31 -30 -53q-57 -41 -154 -41q-59 0 -78 34q-2 2 -7.5 27t-19.5 34q-36 23 -107 23q-68 0 -68 -39q0 -38 72 -82q35 -21 44 -44q4 -6 16 -6zM643 399v-230q0 -56 31 -78
q25 -18 25 -38q0 -63 -182 -63q-68 0 -91 6q-45 12 -45 46q0 13 23 37q19 20 19 154q0 47 -30.5 60.5t-30.5 40.5q0 30 40 45q134 51 214 51q27 0 27 -31z" />
    <glyph glyph-name="fl" unicode="&#xf002;" horiz-adv-x="703" 
d="M636 387v-157q0 -101 3.5 -119.5t23.5 -27.5q30 -14 30 -35q0 -26 -30.5 -42t-140.5 -16q-84 0 -112.5 12t-28.5 40q0 12 22 35t22 211q0 130 -6 164t-73 71q-74 41 -124 41t-50 -38q0 -36 73 -81q37 -22 45 -44q2 -6 15 -6h48q28 0 27 -20l-4 -58q-1 -17 -5.5 -22
t-19.5 -5h-9q-6 1 -13 1q-30 0 -30 -62v-82q0 -30 3.5 -40.5t24.5 -40.5q7 -8 7 -20q0 -27 -38 -41.5t-126 -14.5q-162 0 -162 67q0 25 39 43q26 12 31 43q9 61 9 104q0 41 -38 42q-16 0 -35 2q-5 2 -8 9l1 4l3 62q1 15 6 19t23 5t18 17q0 8 -13 31q-23 41 -23 80
q0 64 56 109.5t136 45.5q62 0 153 -40q21 -9 30 -9q10 0 51 12q104 31 162 31q39 0 39 -48q0 -16 -5 -72q-7 -78 -7 -160z" />
    <glyph glyph-name="daggerdbl" unicode="&#x2021;" horiz-adv-x="720" 
d="M450 307l-1 -119q-1 -13 7.5 -16.5t90.5 -3.5q17 0 32 17q25 29 43 29q29 0 47.5 -30.5t18.5 -78.5q0 -52 -17 -85t-44 -33q-13 0 -20.5 7t-33.5 43q-16 23 -38 24l-36 2l-30 1q-13 0 -15 -7q0 -1 -1 -28l-1 -41q-1 -44 31 -64q36 -22 36 -40q0 -32 -51.5 -53.5
t-107.5 -21.5q-61 0 -115 25q-45 21 -45 50q0 18 36 40q30 18 30 46l1 79q0 8 -4 11.5t-12 3.5l-66 -2q-22 -3 -38 -25q-26 -36 -34 -43t-21 -7q-26 0 -43 33.5t-17 85.5q0 47 18.5 77.5t46.5 30.5q19 0 44 -29q15 -17 30 -17q87 0 94 5q5 2 5 28l1 98q0 13 -8 16.5t-91 3.5
q-16 0 -31 -17q-25 -29 -44 -29q-28 0 -46.5 30.5t-18.5 77.5q0 53 17 86t44 33q17 0 34 -21q13 -18 26.5 -35t32.5 -18l21 -1q9 0 26 -1l16 -1q10 -1 14.5 2.5t4.5 11.5l-1 34l1 28q2 44 -31 64q-37 22 -37 40q0 32 51.5 53.5t108.5 21.5q60 0 114 -25q45 -21 45 -50
q0 -18 -36 -40q-29 -17 -29 -46v-46l-1 -34q1 -14 15 -14h31q37 0 49 4.5t25 22.5q25 35 33.5 42.5t21.5 7.5q26 0 43 -33.5t17 -84.5q0 -48 -18.5 -78.5t-47.5 -30.5q-16 0 -43 29q-16 17 -30 17q-81 0 -93 -3q-6 -3 -6 -9z" />
    <glyph glyph-name="periodcentered" unicode="&#x2219;" horiz-adv-x="300" 
d="M152 361q47 0 80 -33t33 -80q0 -49 -33.5 -83t-81.5 -34t-81.5 34t-33.5 82t34 81t83 33z" />
    <glyph glyph-name="quotesinglbase" unicode="&#x201a;" horiz-adv-x="300" 
d="M142 224q52 0 87.5 -46t35.5 -114q0 -86 -52 -175q-38 -65 -81 -65q-18 0 -33 11.5t-15 25.5q0 7 19 38q28 46 28 72q0 19 -17 25q-32 12 -46 24q-41 36 -41 90q0 47 33.5 80.5t81.5 33.5z" />
    <glyph glyph-name="quotedblbase" unicode="&#x201e;" horiz-adv-x="559" 
d="M403 208q48 0 81 -36.5t33 -89.5q0 -123 -114 -230q-30 -28 -55 -28q-18 0 -32 9.5t-14 21.5q0 7 10 17q56 56 56 96q0 16 -16 28q-57 44 -57 100q0 48 31 80t77 32zM144 208q48 0 81 -36.5t33 -89.5q0 -123 -113 -230q-30 -28 -56 -28q-17 0 -31 9.5t-14 21.5q0 7 10 17
q56 56 56 96q0 15 -17 28q-57 44 -57 100q0 48 31 80t77 32z" />
    <glyph glyph-name="perthousand" unicode="&#x2030;" horiz-adv-x="1249" 
d="M220 677q72 0 125 -48.5t53 -114.5q0 -72 -61 -124t-146 -52q-78 0 -128 44.5t-50 114.5q0 77 59 128.5t148 51.5zM189 601q-30 0 -30 -36q0 -55 23 -108q15 -34 37 -34q28 0 28 37q0 55 -17.5 98t-40.5 43zM645 335q73 0 126 -48.5t53 -114.5q0 -72 -61 -124t-146 -52
q-79 0 -129 44.5t-50 114.5q0 77 59 128.5t148 51.5zM614 259q-30 0 -30 -36q0 -48 21 -100q17 -42 40 -42q28 0 28 37q0 55 -18 98t-41 43zM1057 335q73 0 126 -48.5t53 -114.5q0 -72 -61 -124t-146 -52q-79 0 -129 44.5t-50 114.5q0 77 59 128.5t148 51.5zM1026 259
q-30 0 -30 -36q0 -48 21 -100q17 -42 40 -42q28 0 28 37q0 55 -18 98t-41 43zM320 243l148 251q54 92 80 145q20 42 57 42q46 0 46 -23q0 -18 -38 -73q-31 -45 -81 -129l-151 -255q-15 -25 -30 -53t-35 -65t-22 -42q-23 -46 -50 -46q-57 0 -57 25q0 11 10 26q34 51 123 197z
" />
    <glyph glyph-name="Acircumflex" unicode="&#xc2;" horiz-adv-x="827" 
d="M650 338l93 -198q13 -28 22 -37t27 -11q35 -5 35 -35q0 -67 -183 -67q-158 0 -191 19q-27 16 -27 40q0 25 36 38q23 8 23 26q0 33 -41 39t-119 6q-63 0 -77 -8q-20 -11 -20 -42q0 -10 4.5 -13.5t27.5 -10.5q30 -9 30 -36q0 -58 -140 -58q-77 0 -116 11q-34 9 -34 45
q0 28 35 39q31 10 47 29.5t47 88.5l69 151q34 75 43 100q21 57 22 105q1 44 5 60t20 31q35 34 86 34q76 0 131 -78q57 -81 145 -268zM310 276h96q27 0 27 12q0 11 -19 46q-28 51 -39.5 66t-23.5 15q-16 0 -28 -33q-35 -70 -35 -94q0 -12 22 -12zM387 898q37 0 127 -70
q60 -47 60 -72q0 -15 -11 -26t-25 -11q-18 0 -80 29q-49 23 -72 23q-19 0 -69 -26.5t-73 -26.5q-38 0 -38 39q0 29 74 85t107 56z" />
    <glyph glyph-name="Ecircumflex" unicode="&#xca;" horiz-adv-x="691" 
d="M120 667h251q126 0 180 16q10 3 16 3q30 0 53.5 -41t23.5 -94q0 -69 -51 -69q-18 0 -29 11q-6 5 -20 26q-21 32 -54 43.5t-103 11.5q-57 0 -71 -17q-8 -8 -10 -26.5t-2 -84.5q0 -42 8.5 -50t51.5 -8q38 0 43 39q6 46 20 58q11 9 24 9q19 0 35 -19q24 -35 24 -126
q0 -51 -11 -91q-16 -62 -53 -62q-19 0 -26 13q-4 7 -7 31q-7 55 -64 55q-22 0 -30 -14t-8 -51q0 -96 14 -117q11 -16 89 -16q72 0 109 18.5t60 67t54 48.5q20 0 33.5 -18t13.5 -44q0 -68 -53 -151q-18 -28 -37 -28q-9 0 -26 3q-40 7 -84 7h-414q-52 0 -52 42q0 14 5.5 21
t27.5 16q26 11 33 43q16 69 16 198q0 188 -24 238q-7 15 -35 23t-28 37q0 30 28 42q17 7 79 7zM342 898q37 0 127 -70q60 -47 60 -72q0 -15 -11 -26t-25 -11q-18 0 -80 29q-49 23 -72 23q-19 0 -69 -26.5t-73 -26.5q-38 0 -38 39q0 29 74 85t107 56z" />
    <glyph glyph-name="Aacute" unicode="&#xc1;" horiz-adv-x="827" 
d="M650 338l93 -198q13 -28 22 -37t27 -11q35 -5 35 -35q0 -67 -183 -67q-158 0 -191 19q-27 16 -27 40q0 25 36 38q23 8 23 26q0 33 -41 39t-119 6q-63 0 -77 -8q-20 -11 -20 -42q0 -10 4.5 -13.5t27.5 -10.5q30 -9 30 -36q0 -58 -140 -58q-77 0 -116 11q-34 9 -34 45
q0 28 35 39q31 10 47 29.5t47 88.5l69 151q34 75 43 100q21 57 22 105q1 44 5 60t20 31q35 34 86 34q76 0 131 -78q57 -81 145 -268zM310 276h96q27 0 27 12q0 11 -19 46q-28 51 -39.5 66t-23.5 15q-16 0 -28 -33q-35 -70 -35 -94q0 -12 22 -12zM438 885q49 0 83 -16t33 -38
q-2 -23 -42 -54q-74 -57 -163 -57q-50 0 -50 36q0 14 8.5 23t46.5 37q12 9 12 18q0 5 -6 15q-2 3 -2 7q0 29 80 29z" />
    <glyph glyph-name="Edieresis" unicode="&#xcb;" horiz-adv-x="691" 
d="M120 667h251q126 0 180 16q10 3 16 3q30 0 53.5 -41t23.5 -94q0 -69 -51 -69q-18 0 -29 11q-6 5 -20 26q-21 32 -54 43.5t-103 11.5q-57 0 -71 -17q-8 -8 -10 -26.5t-2 -84.5q0 -42 8.5 -50t51.5 -8q38 0 43 39q6 46 20 58q11 9 24 9q19 0 35 -19q24 -35 24 -126
q0 -51 -11 -91q-16 -62 -53 -62q-19 0 -26 13q-4 7 -7 31q-7 55 -64 55q-22 0 -30 -14t-8 -51q0 -96 14 -117q11 -16 89 -16q72 0 109 18.5t60 67t54 48.5q20 0 33.5 -18t13.5 -44q0 -68 -53 -151q-18 -28 -37 -28q-9 0 -26 3q-40 7 -84 7h-414q-52 0 -52 42q0 14 5.5 21
t27.5 16q26 11 33 43q16 69 16 198q0 188 -24 238q-7 15 -35 23t-28 37q0 30 28 42q17 7 79 7zM236 891q79 0 79 -65q0 -42 -35 -64q-50 -32 -110 -32q-33 0 -53.5 18t-20.5 47q0 36 31 60q46 36 109 36zM516 898q79 0 79 -65q0 -42 -35 -64q-51 -32 -110 -32
q-33 0 -53.5 18t-20.5 47q0 36 31 60q46 36 109 36z" />
    <glyph glyph-name="Egrave" unicode="&#xc8;" horiz-adv-x="691" 
d="M120 667h251q126 0 180 16q10 3 16 3q30 0 53.5 -41t23.5 -94q0 -69 -51 -69q-18 0 -29 11q-6 5 -20 26q-21 32 -54 43.5t-103 11.5q-57 0 -71 -17q-8 -8 -10 -26.5t-2 -84.5q0 -42 8.5 -50t51.5 -8q38 0 43 39q6 46 20 58q11 9 24 9q19 0 35 -19q24 -35 24 -126
q0 -51 -11 -91q-16 -62 -53 -62q-19 0 -26 13q-4 7 -7 31q-7 55 -64 55q-22 0 -30 -14t-8 -51q0 -96 14 -117q11 -16 89 -16q72 0 109 18.5t60 67t54 48.5q20 0 33.5 -18t13.5 -44q0 -68 -53 -151q-18 -28 -37 -28q-9 0 -26 3q-40 7 -84 7h-414q-52 0 -52 42q0 14 5.5 21
t27.5 16q26 11 33 43q16 69 16 198q0 188 -24 238q-7 15 -35 23t-28 37q0 30 28 42q17 7 79 7zM295 885q80 0 80 -29q0 -4 -5 -13q-3 -5 -3 -9q0 -10 24 -27q43 -31 43 -51q0 -36 -51 -36q-88 0 -162 57q-41 32 -42 55q-1 22 33 37.5t83 15.5z" />
    <glyph glyph-name="Iacute" unicode="&#xcd;" horiz-adv-x="413" 
d="M229 677q53 0 105 -10q66 -13 66 -56q0 -14 -6.5 -21.5t-34.5 -21.5t-35 -91q-1 -15 -1 -106q0 -186 10 -231q5 -24 36 -38.5t31 -43.5t-39 -45q-56 -23 -178 -23q-160 0 -160 60q0 24 31 42q24 15 29 40q9 50 9 236q0 92 -2 108q-8 66 -42.5 88.5t-34.5 45.5q0 31 53 46
q77 21 163 21zM261 885q49 0 83 -16t33 -38q-2 -23 -42 -54q-74 -57 -163 -57q-50 0 -50 36q0 14 8.5 23t46.5 37q12 9 12 18q0 5 -6 15q-2 3 -2 7q0 29 80 29z" />
    <glyph glyph-name="Icircumflex" unicode="&#xce;" horiz-adv-x="413" 
d="M229 677q53 0 105 -10q66 -13 66 -56q0 -14 -6.5 -21.5t-34.5 -21.5t-35 -91q-1 -15 -1 -106q0 -186 10 -231q5 -24 36 -38.5t31 -43.5t-39 -45q-56 -23 -178 -23q-160 0 -160 60q0 24 31 42q24 15 29 40q9 50 9 236q0 92 -2 108q-8 66 -42.5 88.5t-34.5 45.5q0 31 53 46
q77 21 163 21zM203 898q37 0 127 -70q60 -47 60 -72q0 -15 -11 -26t-25 -11q-18 0 -80 29q-49 23 -72 23q-19 0 -69 -26.5t-73 -26.5q-38 0 -38 39q0 29 74 85t107 56z" />
    <glyph glyph-name="Idieresis" unicode="&#xcf;" horiz-adv-x="413" 
d="M230 677q53 0 105 -10q66 -13 66 -56q0 -14 -6.5 -21.5t-34.5 -21.5t-35 -91q-1 -15 -1 -106q0 -186 10 -231q5 -24 36 -38.5t31 -43.5t-39 -45q-56 -23 -178 -23q-160 0 -160 60q0 24 31 42q24 15 29 40q9 50 9 236q0 92 -2 108q-8 66 -42.5 88.5t-34.5 45.5q0 31 53 46
q77 21 163 21zM111 891q79 0 79 -65q0 -42 -35 -64q-50 -32 -110 -32q-33 0 -53.5 18t-20.5 47q0 36 31 60q46 36 109 36zM364 898q79 0 79 -65q0 -42 -35 -64q-51 -32 -110 -32q-33 0 -53.5 18t-20.5 47q0 36 31 60q46 36 109 36z" />
    <glyph glyph-name="Igrave" unicode="&#xcc;" horiz-adv-x="413" 
d="M229 677q53 0 105 -10q66 -13 66 -56q0 -14 -6.5 -21.5t-34.5 -21.5t-35 -91q-1 -15 -1 -106q0 -186 10 -231q5 -24 36 -38.5t31 -43.5t-39 -45q-56 -23 -178 -23q-160 0 -160 60q0 24 31 42q24 15 29 40q9 50 9 236q0 92 -2 108q-8 66 -42.5 88.5t-34.5 45.5q0 31 53 46
q77 21 163 21zM163 885q80 0 80 -29q0 -4 -5 -13q-3 -5 -3 -9q0 -10 24 -27q43 -31 43 -51q0 -36 -51 -36q-88 0 -162 57q-41 32 -42 55q-1 22 33 37.5t83 15.5z" />
    <glyph glyph-name="Oacute" unicode="&#xd3;" horiz-adv-x="778" 
d="M394 681q125 0 219 -72q64 -49 103 -127t39 -157q0 -141 -108.5 -239.5t-264.5 -98.5q-153 0 -256 99.5t-103 247.5q0 151 105 249t266 98zM347 541q-35 0 -59 -29.5t-24 -72.5q0 -56 22.5 -128.5t56 -126.5t83.5 -54q37 0 59.5 28t22.5 73q0 60 -19 128.5t-49 116.5
q-41 65 -93 65zM434 885q49 0 83 -16t33 -38q-2 -23 -42 -54q-74 -57 -163 -57q-50 0 -50 36q0 14 8.5 23t46.5 37q12 9 12 18q0 5 -6 15q-2 3 -2 7q0 29 80 29z" />
    <glyph glyph-name="Ocircumflex" unicode="&#xd4;" horiz-adv-x="778" 
d="M394 681q125 0 219 -72q64 -49 103 -127t39 -157q0 -141 -108.5 -239.5t-264.5 -98.5q-153 0 -256 99.5t-103 247.5q0 151 105 249t266 98zM347 541q-35 0 -59 -29.5t-24 -72.5q0 -56 22.5 -128.5t56 -126.5t83.5 -54q37 0 59.5 28t22.5 73q0 60 -19 128.5t-49 116.5
q-41 65 -93 65zM386 898q37 0 127 -70q60 -47 60 -72q0 -15 -11 -26t-25 -11q-18 0 -80 29q-49 23 -72 23q-19 0 -69 -26.5t-73 -26.5q-38 0 -38 39q0 29 74 85t107 56z" />
    <glyph glyph-name="apple" unicode="&#xf000;" horiz-adv-x="667" 
d="M480 691q2 -69 -41 -119.5t-107 -53.5q-1 69 40 117t108 56zM623 457q-81 -61 -81 -140q0 -105 100 -148q-37 -92 -82 -144t-86 -52q-25 0 -65 19q-23 11 -51 11q-39 0 -87 -20q-27 -11 -46 -11q-65 0 -129 112t-64 225q0 95 52.5 156t133.5 61q28 0 91 -23q22 -7 35 -7
q16 0 59 16t75 16q92 0 145 -71z" />
    <glyph glyph-name="Ograve" unicode="&#xd2;" horiz-adv-x="778" 
d="M394 681q125 0 219 -72q64 -49 103 -127t39 -157q0 -141 -108.5 -239.5t-264.5 -98.5q-153 0 -256 99.5t-103 247.5q0 151 105 249t266 98zM347 541q-35 0 -59 -29.5t-24 -72.5q0 -56 22.5 -128.5t56 -126.5t83.5 -54q37 0 59.5 28t22.5 73q0 60 -19 128.5t-49 116.5
q-41 65 -93 65zM328 885q80 0 80 -29q0 -4 -5 -13q-3 -5 -3 -9q0 -10 24 -27q43 -31 43 -51q0 -36 -51 -36q-88 0 -162 57q-41 32 -42 55q-1 22 33 37.5t83 15.5z" />
    <glyph glyph-name="Uacute" unicode="&#xda;" horiz-adv-x="820" 
d="M735 423v-120q0 -104 -16.5 -153.5t-65.5 -89.5q-90 -73 -247 -73t-251 75q-46 36 -63.5 85t-17.5 140q0 8 1 50q1 49 1 67l1 76q0 36 -3 49q-6 21 -29 36q-32 21 -32 48q0 31 40 47.5t147 16.5q82 0 133.5 -12t51.5 -53q0 -20 -15 -33l-30 -15q-19 -10 -24 -37
q-2 -11 -2 -47q0 -30 -1 -69l-3 -116q-2 -76 37 -120t109 -44q83 0 119 54q23 35 23 106v108q0 117 -6 143q-5 22 -33 35q-43 21 -43 45q0 55 147 55q143 0 143 -55q0 -14 -6 -20.5t-30.5 -21t-30.5 -33.5q-3 -9 -3 -44zM474 885q49 0 83 -16t33 -38q-2 -23 -42 -54
q-74 -57 -163 -57q-50 0 -50 36q0 14 8.5 23t46.5 37q12 9 12 18q0 5 -6 15q-2 3 -2 7q0 29 80 29z" />
    <glyph glyph-name="Ucircumflex" unicode="&#xdb;" horiz-adv-x="820" 
d="M735 423v-120q0 -104 -16.5 -153.5t-65.5 -89.5q-90 -73 -247 -73t-251 75q-46 36 -63.5 85t-17.5 140q0 8 1 50q1 49 1 67l1 76q0 36 -3 49q-6 21 -29 36q-32 21 -32 48q0 31 40 47.5t147 16.5q82 0 133.5 -12t51.5 -53q0 -20 -15 -33l-30 -15q-19 -10 -24 -37
q-2 -11 -2 -47q0 -30 -1 -69l-3 -116q-2 -76 37 -120t109 -44q83 0 119 54q23 35 23 106v108q0 117 -6 143q-5 22 -33 35q-43 21 -43 45q0 55 147 55q143 0 143 -55q0 -14 -6 -20.5t-30.5 -21t-30.5 -33.5q-3 -9 -3 -44zM427 898q37 0 127 -70q60 -47 60 -72q0 -15 -11 -26
t-25 -11q-18 0 -80 29q-49 23 -72 23q-19 0 -69 -26.5t-73 -26.5q-38 0 -38 39q0 29 74 85t107 56z" />
    <glyph glyph-name="Ugrave" unicode="&#xd9;" horiz-adv-x="820" 
d="M735 423v-120q0 -104 -16.5 -153.5t-65.5 -89.5q-90 -73 -247 -73t-251 75q-46 36 -63.5 85t-17.5 140q0 8 1 50q1 49 1 67l1 76q0 36 -3 49q-6 21 -29 36q-32 21 -32 48q0 31 40 47.5t147 16.5q82 0 133.5 -12t51.5 -53q0 -20 -15 -33l-30 -15q-19 -10 -24 -37
q-2 -11 -2 -47q0 -30 -1 -69l-3 -116q-2 -76 37 -120t109 -44q83 0 119 54q23 35 23 106v108q0 117 -6 143q-5 22 -33 35q-43 21 -43 45q0 55 147 55q143 0 143 -55q0 -14 -6 -20.5t-30.5 -21t-30.5 -33.5q-3 -9 -3 -44zM372 885q80 0 80 -29q0 -4 -5 -13q-3 -5 -3 -9
q0 -10 24 -27q43 -31 43 -51q0 -36 -51 -36q-88 0 -162 57q-41 32 -42 55q-1 22 33 37.5t83 15.5z" />
    <glyph glyph-name="dotlessi" unicode="&#x131;" horiz-adv-x="356" 
d="M291 452v-283q0 -31 4 -44q7 -20 27 -34q25 -18 25 -38q0 -63 -160 -63q-86 0 -137 14q-38 10 -38 45q0 20 33 44q28 21 28 112q0 100 -7 119q-5 14 -26 23q-30 13 -30 40q0 31 40 46q132 50 214 50q27 0 27 -31z" />
    <glyph glyph-name="circumflex" unicode="&#x2c6;" 
d="M247 714q37 0 127 -71q60 -47 60 -72q0 -14 -11 -25.5t-25 -11.5q-18 0 -80 30q-52 25 -71 25q-16 0 -69 -28t-74 -28q-38 0 -38 39q0 30 74.5 86t106.5 56z" />
    <glyph glyph-name="tilde" unicode="&#x2dc;" 
d="M160 589v-14q0 -38 -48 -38q-24 0 -39.5 16.5t-15.5 41.5q0 43 26.5 71t67.5 28q26 0 47 -7t79 -36q28 -14 42 -14q12 0 15 19q2 11 8 27q13 14 39 14q63 0 63 -64q0 -43 -24.5 -68.5t-65.5 -25.5q-31 0 -87 24l-47 20q-45 19 -49 19q-11 0 -11 -13z" />
    <glyph glyph-name="macron" unicode="&#x2c9;" 
d="M213 658h156q43 0 49 1l13 2q20 0 20 -20q0 -21 -27 -68q-12 -21 -29 -21q-2 0 -35 4q-16 2 -46 2h-127q-52 0 -102 -2q-4 -1 -11 -1q-24 0 -24 19q0 17 30 69q12 21 34 21q6 0 15 -1q46 -5 84 -5z" />
    <glyph glyph-name="breve" unicode="&#x2d8;" 
d="M80 719q11 0 45 -29q48 -40 117 -40q57 0 112 25q18 8 24.5 13t29.5 27q6 4 12 4q26 0 26 -20q0 -22 -30 -68q-62 -94 -170 -94q-99 0 -166 101q-24 37 -26 58q-2 23 26 23z" />
    <glyph glyph-name="dotaccent" unicode="&#x2d9;" 
d="M272 686q103 0 103 -60q0 -35 -45 -58.5t-113 -23.5q-41 0 -66 17t-25 45q0 37 39 58.5t107 21.5z" />
    <glyph glyph-name="ring" unicode="&#x2da;" 
d="M262 732q69 0 108 -25.5t39 -71.5q0 -48 -38 -74.5t-107 -26.5q-147 0 -147 97q0 48 38 74.5t107 26.5zM263 687q-48 0 -48 -56q0 -23 13 -38t33 -15q22 0 36 15.5t14 40.5q0 53 -48 53z" />
    <glyph glyph-name="cedilla" unicode="&#xb8;" 
d="M247 0l67 -66q30 -30 30 -49q0 -25 -29 -41.5t-73 -16.5q-37 0 -61.5 14t-24.5 35q0 29 50 37q14 2 14 11q0 7 -9 20l-39 56h75z" />
    <glyph glyph-name="hungarumlaut" unicode="&#x2dd;" 
d="M125 698q52 0 83.5 -16t31.5 -42q0 -39 -76 -75q-65 -31 -122 -31q-38 0 -38 37q0 12 7 19.5t40 33.5q10 8 10 20q0 10 -7 20q-3 3 -3 8q0 26 74 26zM381 698q52 0 83.5 -16t31.5 -42q0 -39 -77 -75q-66 -31 -122 -31q-38 0 -38 37q0 12 7.5 20.5t40.5 32.5q10 7 10 20
q0 10 -7 20q-3 3 -3 8q0 26 74 26z" />
    <glyph glyph-name="ogonek" unicode="&#x2db;" 
d="M214 1h87q-51 -26 -51 -64q0 -15 13 -26.5t30 -11.5q14 0 47 15q5 3 11 3q17 0 17 -27q0 -62 -110 -62q-56 0 -90.5 22.5t-34.5 58.5q0 22 14.5 38t66.5 54z" />
    <glyph glyph-name="caron" unicode="&#x2c7;" 
d="M104 714q22 0 75 -27.5t68 -27.5q20 0 71 25q60 29 80 29q14 0 25 -11t11 -26q0 -28 -78 -85t-110 -57q-37 0 -123 69q-57 46 -57 72q0 39 38 39z" />
    <glyph glyph-name="Lslash" unicode="&#x141;" horiz-adv-x="633" 
d="M474 387l-114 -61q-18 -10 -22 -17t-4 -29v-51q0 -78 15 -101t66 -23q108 0 133 101q8 32 33 32q26 0 42.5 -23.5t16.5 -60.5q0 -67 -52 -139q-20 -28 -44 -28q-17 0 -69 10q-16 3 -40 3h-340q-35 0 -48 8q-20 10 -20 33q0 16 12 25q4 4 26 14q40 19 42 72q2 46 -4 46
q-8 0 -53 -33q-11 -8 -19 -8q-13 0 -18 15q-8 25 -8 37q0 18 25 29q34 15 54 27q15 9 18.5 16t3.5 30q0 28 -1 53q0 2 -3 122q-1 41 -6.5 54t-25.5 20q-56 19 -56 47q0 70 195 70q135 0 175 -23q26 -15 26 -38q0 -20 -15 -31q-5 -4 -33 -16q-22 -10 -27 -51q-1 -8 -1 -65
v-36q0 -20 8 -20q5 0 24 11l96 55q13 8 40 26q6 4 10 4q11 0 21.5 -19t10.5 -38q0 -13 -45 -36q-6 -3 -25 -13z" />
    <glyph glyph-name="lslash" unicode="&#x142;" horiz-adv-x="398" 
d="M340 413l6 4q7 5 9 5l11 7q13 8 18 8q13 0 23.5 -15.5t10.5 -32.5q0 -19 -16.5 -26.5t-49.5 -23.5l-9 -5q-21 -12 -25.5 -18t-4.5 -23v-62q0 -102 3.5 -120.5t23.5 -27.5q30 -13 30 -35q0 -25 -29 -41.5t-132 -16.5q-94 0 -133 14.5t-39 47.5q0 18 33 33q13 6 17.5 18.5
t8.5 51.5q4 36 4 53q0 16 -8 16l-37 -23q-11 -7 -18 -7q-12 0 -21 15t-9 33q0 22 55 49q26 13 32.5 22.5t6.5 37.5q0 72 -2 90q-8 57 -39 75q-35 20 -35 47q0 46 96 75t165 29q39 0 39 -48q0 -16 -5 -71q-3 -28 -4 -100q0 -9 -1 -18v-9v-5q0 -11 6 -11t11 4z" />
    <glyph glyph-name="Scaron" unicode="&#x160;" horiz-adv-x="645" 
d="M314 681q50 0 132 -25q10 -3 16 -3q5 0 29 9q8 3 17 3q32 0 68.5 -52.5t36.5 -98.5q0 -27 -16.5 -46t-39.5 -19q-19 0 -31 8t-54 47q-59 55 -115 55q-60 0 -60 -48q0 -42 75 -64q96 -28 125 -40.5t63 -40.5q65 -53 65 -141q0 -106 -86 -172t-226 -66q-62 0 -131.5 15
t-100.5 35q-23 15 -42 68t-19 102q0 52 40 52q19 0 36 -19q5 -5 48 -68q18 -28 57.5 -46t81.5 -18q36 0 58.5 13.5t22.5 34.5q0 36 -75 60q-119 38 -174 87q-77 69 -77 155q0 92 81 157.5t195 65.5zM193 898q19 0 105 -44q18 -9 37 -9q24 0 72 23q62 30 80 30q14 0 25 -11.5
t11 -25.5q0 -29 -78 -86t-110 -57q-37 0 -123 69q-57 46 -57 72q0 39 38 39z" />
    <glyph glyph-name="scaron" unicode="&#x161;" horiz-adv-x="477" 
d="M214 486q23 0 80 -11q10 -2 18 -2q7 0 33 10q14 4 19 4q26 0 56.5 -44t30.5 -83q0 -19 -14 -32t-34 -13q-26 0 -73 45q-31 30 -52 30q-13 0 -23.5 -10t-10.5 -24q0 -22 46 -44q88 -42 125.5 -81.5t37.5 -90.5q0 -65 -53.5 -109t-131.5 -44q-15 0 -100 10q-17 2 -22 2
q-9 0 -15 -2q-15 -2 -21 -2q-22 0 -36 12q-20 18 -37 56.5t-17 66.5q0 45 35 45q18 0 42 -24l34 -36q33 -35 59 -35q36 0 36 31q0 22 -37 40q-79 38 -114 79.5t-35 95.5q0 70 49 115t125 45zM102 714q22 0 75 -27.5t68 -27.5q20 0 71 25q60 29 80 29q14 0 25 -11t11 -26
q0 -28 -78 -85t-110 -57q-37 0 -123 69q-57 46 -57 72q0 39 38 39z" />
    <glyph glyph-name="Zcaron" unicode="&#x17d;" horiz-adv-x="686" 
d="M613 590l-216 -373q-37 -64 -37 -76q0 -22 66 -22q64 0 92 19q23 15 49 71q17 36 44 36q69 0 69 -77q0 -48 -24 -106q-30 -71 -72 -71q-8 0 -20 2q-41 7 -67 7h-424q-37 0 -44 5q-13 10 -13 31q0 12 15 38l251 427q11 19 11 27q0 27 -56 27q-48 0 -69 -15.5t-48 -70.5
q-21 -43 -47 -43t-46 24t-20 55q0 44 33 106.5t56 62.5q4 0 13 -3q29 -10 128 -10q42 0 301 15q35 2 45 2q47 0 47 -44q0 -15 -17 -44zM211 898q19 0 105 -44q18 -9 37 -9q24 0 72 23q62 30 80 30q14 0 25 -11.5t11 -25.5q0 -29 -78 -86t-110 -57q-37 0 -123 69
q-57 46 -57 72q0 39 38 39z" />
    <glyph glyph-name="zcaron" unicode="&#x17e;" horiz-adv-x="514" 
d="M268 473h130q66 0 75 -9t9 -23q0 -17 -16 -46l-129 -230q-16 -29 -16 -40q0 -23 34 -23q45 0 68 45q19 37 37 37q21 0 34.5 -17t13.5 -44q0 -44 -32.5 -91t-62.5 -47q-3 0 -19 4q-27 11 -56 11h-256q-65 0 -65 37q0 14 39 76l114 183q29 46 29 60q0 19 -41 19
q-36 0 -60 -38q-26 -41 -47 -41q-19 0 -31.5 15t-12.5 38q0 44 29 93t55 49q7 0 16 -3q14 -5 57 -12q40 -3 104 -3zM131 714q22 0 75 -27.5t68 -27.5q20 0 71 25q60 29 80 29q14 0 25 -11t11 -26q0 -28 -78 -85t-110 -57q-37 0 -123 69q-57 46 -57 72q0 39 38 39z" />
    <glyph glyph-name="brokenbar" unicode="&#xa6;" 
d="M140 667h220v-368h-220v368zM140 153h220v-320h-220v320z" />
    <glyph glyph-name="Eth" unicode="&#xd0;" horiz-adv-x="802" 
d="M47 374h33q17 0 17 14q0 19 1 46.5t1 69.5q0 36 -3 46q-7 21 -33 31q-34 13 -34 43q0 51 88 51q12 0 32 -1t60 -1q75 0 157 4q21 1 45 1q162 0 248 -65q119 -90 119 -272q0 -158 -93.5 -254t-247.5 -92l-248 5q-17 0 -51 -2.5t-51 -2.5q-33 0 -53.5 15t-20.5 40
q0 32 39 42q20 5 27 16t10 42q7 67 7 134q0 16 -18 16h-32q-20 0 -26.5 8t-6.5 28q0 38 34 38zM326 530v-135q0 -21 19 -21h62q33 0 33 -36t-32 -37l-58 -1l-11 1q-13 0 -13 -29v-120q0 -57 57 -57q143 0 143 217q0 119 -33 185q-36 73 -124 73q-43 0 -43 -40z" />
    <glyph glyph-name="eth" unicode="&#xf0;" horiz-adv-x="602" 
d="M204 525l-21 -17q-22 -18 -37 -18q-13 0 -23 10.5t-10 23.5q0 20 39 47l13 9q7 5 7 10t-32 28.5t-32 42.5q0 26 36 26q41 0 97 -31q7 -4 11 -4q6 0 34 22l19 15q27 21 40 21q12 0 23 -12.5t11 -26.5q0 -13 -29 -32l-15 -10q-11 -7 -11 -17q0 -7 12 -14q50 -35 102 -85
q148 -143 148 -277q0 -101 -92 -175t-218 -74q-116 0 -187.5 65t-71.5 170q0 91 57.5 160t152.5 92q30 7 30 22q0 9 -13.5 25t-21.5 16q-5 0 -13 -7zM283 373q-48 0 -48 -58q0 -71 37 -168q15 -40 49 -40q44 0 44 55q0 99 -38 177q-16 34 -44 34z" />
    <glyph glyph-name="Yacute" unicode="&#xdd;" horiz-adv-x="780" 
d="M213 677q109 0 153.5 -13t44.5 -44q0 -13 -11 -26q-16 -19 -16 -29q0 -17 28 -56q18 -25 34 -25q18 0 46 35q19 24 19 38q0 12 -18 34q-10 10 -10 30q0 56 152 56q98 0 119 -13q26 -16 26 -43q0 -36 -55 -46q-27 -5 -47 -20.5t-76 -75.5q-63 -67 -77 -94
q-23 -41 -23 -113q0 -59 4 -105q3 -30 10 -41.5t28 -22.5q36 -18 36 -47q0 -66 -196 -66q-120 0 -179 24q-34 14 -34 43q0 30 37 44q27 10 35 25q15 35 15 159q0 40 -8 61.5t-34 55.5q-56 73 -114 130q-27 26 -48 34q-32 12 -38 16q-16 11 -16 34q0 61 213 61zM458 885
q49 0 83 -16t33 -38q-2 -23 -42 -54q-74 -57 -163 -57q-50 0 -50 36q0 14 8.5 23t46.5 37q12 9 12 18q0 5 -6 15q-2 3 -2 7q0 29 80 29z" />
    <glyph glyph-name="yacute" unicode="&#xfd;" horiz-adv-x="619" 
d="M484 246l-65 -177q-45 -123 -103 -179q-63 -61 -152 -61q-66 0 -109 32t-43 81q0 37 24.5 63t59.5 26q34 0 56 -24q14 -16 24 -55q5 -22 24 -22q15 0 25.5 13.5t10.5 32.5q0 21 -26 77l-117 250q-20 43 -32 53q-4 6 -14 10l-23 10q-24 10 -24 38q0 36 49 50q65 19 168 19
q122 0 122 -58q0 -12 -11 -28.5t-11 -28.5q0 -24 22.5 -63t36.5 -39q15 0 31.5 30t16.5 58q0 21 -12 36q-18 22 -18 38q0 25 33.5 40t88.5 15q103 0 103 -51q0 -30 -49 -49q-23 -6 -41 -34.5t-45 -102.5zM368 698q49 0 83 -16t33 -38q-2 -23 -42 -54q-74 -57 -163 -57
q-50 0 -50 36q0 14 8.5 23t46.5 37q12 9 12 18q0 5 -6 15q-2 3 -2 7q0 29 80 29z" />
    <glyph glyph-name="Thorn" unicode="&#xde;" horiz-adv-x="684" 
d="M101 487q0 50 -7 63.5t-37 21.5q-44 12 -44 44q0 46 73 46q-4 0 20 -1q47 -2 111 -2q9 0 28.5 1.5t42.5 1.5h11q24 0 24 -21q0 -10 -1.5 -31t-1.5 -32q0 -33 11 -33q4 0 31 7q31 8 60 8q110 0 179 -56.5t69 -146.5q0 -89 -70.5 -147.5t-178.5 -58.5q-31 0 -86 5h-3
q-14 0 -14 -19q0 -16 6.5 -23t37 -23.5t30.5 -36.5q0 -64 -179 -64q-181 0 -181 61q0 18 14 29q6 5 30 17q21 10 23 40q2 25 2 40v310zM321 435v-146q0 -17 6 -21q11 -8 38 -8q40 0 63 25.5t23 68.5q0 46 -25.5 73t-68.5 27q-36 0 -36 -19z" />
    <glyph glyph-name="thorn" unicode="&#xfe;" horiz-adv-x="665" 
d="M303 637v-184q0 -18 11 -18q6 0 34 19q49 33 112 33q79 0 134.5 -68.5t55.5 -166.5q0 -109 -67.5 -187t-160.5 -78q-42 0 -86 19q-9 4 -15 4q-14 0 -14 -29q0 -39 25 -55.5t29.5 -22t4.5 -18.5q0 -61 -125 -61q-106 0 -186 43q-40 21 -40 53q0 24 29.5 38t35.5 80
q4 48 4 152v183q0 99 -9 122q-2 5 -10 8l-19 3q-36 6 -36 43q0 43 108 85q85 33 152 33q27 0 31 -12q2 -6 2 -18zM307 299l-7 -134q-1 -5 -1 -15q0 -35 48 -35q68 0 68 111q0 119 -70 119q-36 0 -38 -46z" />
    <glyph glyph-name="minus" unicode="&#x2212;" horiz-adv-x="600" 
d="M215 343h247q40 0 46 1l13 2q19 2 19 -19q0 -36 -25 -82q-12 -23 -28 -23q-7 0 -33 4q-20 3 -45 3h-219q-51 0 -97 -2q-4 -1 -10 -1q-23 0 -23 19q0 8 10.5 38t17.5 44q12 22 33 22q9 0 14 -1q52 -5 80 -5z" />
    <glyph glyph-name="multiply" unicode="&#xd7;" horiz-adv-x="600" 
d="M455 359l-55 -55q-9 -9 -9 -19t9 -19l55 -55q25 -25 34 -32q15 -12 15 -21q0 -14 -28 -29q-52 -28 -72 -28q-9 0 -14 4.5t-24 29.5q-15 20 -29 33l-18 17q-10 9 -19 9q-10 0 -19 -9l-5 -5q-26 -26 -49 -55q-17 -21 -32 -21q-11 0 -41.5 12.5t-47.5 23.5q-10 7 -10 18
q0 10 15 23q4 4 71 67l19 18q8 8 8 19q0 9 -8 19l-19 19q-32 32 -71 66q-15 13 -15 23q0 12 13 20q56 34 86 34q14 0 32 -21q34 -40 49 -55l5 -5q9 -9 19 -9q9 0 19 9l18 17q16 15 43 52q11 15 25 15q17 0 71 -28q28 -14 28 -29q0 -8 -13.5 -19.5t-35.5 -33.5z" />
    <glyph glyph-name="onesuperior" unicode="&#xb9;" horiz-adv-x="401" 
d="M81 509h-11q-27 0 -27 23q0 26 73 49t158 23q54 0 54 -28q0 -15 -23 -24q-17 -7 -20.5 -20.5t-3.5 -75.5q0 -93 7 -110.5t45 -19.5q33 -1 33 -26q0 -23 -37 -30q-56 -11 -127 -11q-61 0 -120 12q-52 11 -52 33q0 25 30 25q6 0 21 -2q7 -1 12 -1q15 0 22 17t7 143
q0 24 -29 24q-6 0 -12 -1z" />
    <glyph glyph-name="twosuperior" unicode="&#xb2;" horiz-adv-x="401" 
d="M255 267h-213q-31 0 -31 18q0 11 46 51q103 89 103 134q0 28 -30 28q-18 0 -53 -26q-8 -6 -20 -6q-16 0 -29.5 11.5t-13.5 25.5q0 35 63.5 67.5t131.5 32.5q67 0 107 -25t40 -67q0 -53 -77 -112q-26 -20 -26 -28q0 -16 24 -16q26 0 48 19q17 15 25 15q32 0 32 -45
q0 -39 -22.5 -71.5t-49.5 -32.5q-14 0 -26 16q-8 11 -29 11z" />
    <glyph glyph-name="threesuperior" unicode="&#xb3;" horiz-adv-x="401" 
d="M174 604q67 0 108.5 -22t41.5 -57q0 -33 -37 -60q-8 -6 -8 -9q0 -5 15 -8q86 -15 86 -89q0 -68 -64.5 -110t-168.5 -42q-64 0 -103.5 13.5t-39.5 36.5q0 14 10.5 23.5t26.5 9.5q6 0 43 -8q9 -2 32 -2q33 0 56 15t23 36q0 19 -17 31.5t-44 12.5q-17 0 -30 -3t-15 -3
q-9 0 -18.5 16.5t-9.5 31.5q0 9 4 11.5t28 10.5q50 16 50 47q0 16 -13 27t-31 11q-17 0 -50 -16q-7 -4 -12 -4q-9 0 -17 11.5t-8 23.5q0 25 50.5 45t111.5 20z" />
    <glyph glyph-name="onehalf" unicode="&#xbd;" horiz-adv-x="935" 
d="M81 509h-11q-27 0 -27 23q0 26 73 49t158 23q54 0 54 -28q0 -15 -23 -24q-17 -7 -20.5 -20.5t-3.5 -75.5q0 -93 7 -110.5t45 -19.5q33 -1 33 -26q0 -23 -37 -30q-56 -11 -127 -11q-61 0 -120 12q-52 11 -52 33q0 25 30 25q6 0 21 -2q7 -1 12 -1q15 0 22 17t7 143
q0 24 -29 24q-6 0 -12 -1zM364 180l149 250q46 78 79 145q20 42 57 42q46 0 46 -23q0 -18 -38 -73q-32 -46 -80 -128l-151 -256q-49 -83 -88 -159q-24 -46 -49 -46q-58 0 -58 25q0 10 10 25q54 82 123 198zM788 0h-212q-32 0 -32 18q0 11 46 51q103 89 103 135q0 28 -30 28
q-18 0 -53 -26q-8 -6 -20 -6q-16 0 -29.5 11.5t-13.5 25.5q0 35 63.5 67.5t131.5 32.5q67 0 107 -25t40 -67q0 -53 -77 -111q-26 -20 -26 -29q0 -16 24 -16q26 0 48 18q18 15 25 15q32 0 32 -46q0 -38 -22.5 -70.5t-49.5 -32.5q-14 0 -26 16q-8 11 -29 11z" />
    <glyph glyph-name="onequarter" unicode="&#xbc;" horiz-adv-x="935" 
d="M81 509h-11q-27 0 -27 23q0 26 73 49t158 23q54 0 54 -28q0 -15 -23 -24q-17 -7 -20.5 -20.5t-3.5 -75.5q0 -93 7 -110.5t45 -19.5q33 -1 33 -26q0 -23 -37 -30q-56 -11 -127 -11q-61 0 -120 12q-52 11 -52 33q0 25 30 25q6 0 21 -2q7 -1 12 -1q15 0 22 17t7 143
q0 24 -29 24q-6 0 -12 -1zM364 180l149 250q46 78 79 145q20 42 57 42q46 0 46 -23q0 -18 -38 -73q-32 -46 -80 -128l-151 -256q-49 -83 -88 -159q-24 -46 -49 -46q-58 0 -58 25q0 10 10 25q54 82 123 198zM872 325v-199q0 -12 10 -12h12q19 0 19 -20v-59q0 -17 -19 -20
q-14 -2 -14 -13v-34q0 -22 -22 -22h-107q-12 0 -16.5 4.5t-4.5 17.5v30q0 18 -19 18h-122q-43 0 -43 42q0 33 17 60q9 15 41 50l80 88q58 64 88 84t67 20q33 0 33 -35zM734 176v14q0 22 -12 22q-11 0 -20 -10l-48 -55q-20 -23 -20 -31q0 -11 71 -11q20 0 24.5 6t4.5 65z" />
    <glyph glyph-name="threequarters" unicode="&#xbe;" horiz-adv-x="934" 
d="M174 604q67 0 108.5 -22t41.5 -57q0 -33 -37 -60q-8 -6 -8 -9q0 -5 15 -8q86 -15 86 -89q0 -68 -64.5 -110t-168.5 -42q-64 0 -103.5 13.5t-39.5 36.5q0 14 10.5 23.5t26.5 9.5q6 0 43 -8q9 -2 32 -2q33 0 56 15t23 36q0 19 -17 31.5t-44 12.5q-17 0 -30 -3t-15 -3
q-9 0 -18.5 16.5t-9.5 31.5q0 9 4 11.5t28 10.5q50 16 50 47q0 16 -13 27t-31 11q-17 0 -50 -16q-7 -4 -12 -4q-9 0 -17 11.5t-8 23.5q0 25 50.5 45t111.5 20zM365 180l148 250q53 90 80 145q20 42 57 42q46 0 46 -23q0 -17 -38 -73q-40 -59 -81 -128l-151 -256
q-6 -11 -51 -92q-16 -29 -36 -67q-23 -46 -50 -46q-57 0 -57 25q0 10 10 25q61 93 123 198zM873 325v-199q0 -12 9 -12h13q19 0 19 -20v-59q0 -17 -20 -20q-14 -2 -14 -13v-34q0 -22 -21 -22h-107q-22 0 -22 22v30q0 18 -19 18h-121q-43 0 -43 42q0 33 17 60q9 14 41 50
l79 88q56 62 87 83t69 21q33 0 33 -35zM735 176v14q0 22 -13 22q-11 0 -20 -10l-47 -55q-20 -23 -20 -31q0 -11 70 -11q23 0 26.5 9t3.5 62z" />
    <glyph glyph-name="franc" unicode="&#x20a3;" horiz-adv-x="892" 
d="M295 233v-40q0 -56 5 -71q10 -34 52 -37q28 -5 28 -37q0 -34 -41 -44q-55 -14 -164 -14q-95 0 -129 12t-34 46q0 19 11 28q6 6 29.5 15.5t28.5 45.5q8 58 8 253q0 85 -6 110t-28 35q-36 16 -36 39q0 19 19.5 32.5t47.5 13.5q15 0 53 -3q62 -5 170 -5q143 0 198 8
q4 1 12 1q23 0 46 -42.5t23 -87.5q0 -60 -47 -60q-16 0 -24 6t-42 45t-131 39q-25 0 -33 -12q-17 -25 -17 -111q0 -30 46 -30q36 0 43 32q10 49 40 49q45 0 45 -132q0 -146 -55 -146q-27 0 -32.5 37t-16.5 49q-16 14 -38 14q-24 0 -28 -14q-3 -7 -3 -24zM671 378q20 0 25 -6
t8 -37q2 -17 11 -17q8 0 15 11q31 49 79 49q32 0 54 -24.5t22 -60.5q0 -38 -25 -65t-60 -27q-31 0 -67 35q-8 8 -15 8q-17 0 -17 -68q0 -66 6 -81q3 -12 22 -18q29 -10 29 -35q0 -29 -30 -40t-108 -11q-128 0 -128 49q0 20 20 36q16 12 18 29q5 39 5 127q0 32 -16 39
q-23 11 -23 31q0 34 78 58q59 18 97 18z" />
    <glyph glyph-name="Gbreve" unicode="&#x11e;" horiz-adv-x="794" 
d="M395 681q62 0 120 -18q26 -8 35 -8q10 0 41 11q9 3 21 3q33 0 62.5 -46.5t29.5 -98.5q0 -42 -21.5 -68t-55.5 -26q-29 0 -56 21q-7 4 -40 45q-54 66 -124 66q-63 0 -100.5 -46.5t-37.5 -125.5q0 -108 51.5 -186t123.5 -78q25 0 41.5 17t16.5 43q0 23 -13 34q-7 5 -39 5
q-21 0 -34.5 13.5t-13.5 34.5q0 31 36 49q53 26 154 26q82 0 139 -17q53 -16 53 -60q0 -40 -44 -46q-17 -2 -22 -7t-11 -26q-28 -95 -110 -150t-198 -55q-161 0 -268.5 101t-107.5 252q0 134 97 232q108 109 275 109zM248 899q11 0 45 -29q44 -38 118 -38q59 0 111 23
q20 9 54 41q6 4 12 4q26 0 26 -20q0 -22 -30 -68q-62 -94 -170 -94q-99 0 -166 100q-24 36 -26 58q-2 23 26 23z" />
    <glyph glyph-name="gbreve" unicode="&#x11f;" horiz-adv-x="578" 
d="M537 513q12 0 21.5 -14.5t9.5 -32.5q0 -47 -42 -85q-11 -10 -11 -16q0 -2 1 -11t1 -20q0 -74 -70.5 -122.5t-179.5 -48.5q-24 0 -33 1.5t-20 1.5q-26 0 -26 -26q0 -35 60 -35q24 0 60 5q79 11 120 11q56 0 88 -19q55 -33 55 -97q0 -79 -76 -134q-88 -64 -238 -64
q-111 0 -177.5 34.5t-66.5 92.5q0 42 37 58q15 7 15 12q0 6 -12 16q-40 33 -40 68q0 23 18.5 47.5t47.5 39.5q12 6 12 11q0 7 -15 21q-50 47 -50 109q0 69 68 113q79 51 173 51q37 0 118 -15q16 -3 28 -3q53 0 106 42q11 9 18 9zM273 411q-25 0 -40 -18.5t-15 -48.5
q0 -53 16 -84.5t43 -31.5q56 0 56 73q0 110 -60 110zM166 -33q-12 0 -12 -14q0 -28 31 -46t81 -18q102 0 102 48q0 29 -36 29q-5 0 -22 -2q-35 -4 -61 -4q-46 0 -76 6q-3 1 -7 1zM119 719q11 0 45 -29q48 -40 117 -40q57 0 112 25q18 8 24.5 13t29.5 27q6 4 12 4
q26 0 26 -20q0 -22 -30 -68q-62 -94 -170 -94q-99 0 -166 101q-24 37 -26 58q-2 23 26 23z" />
    <glyph glyph-name="Scedilla" unicode="&#x15e;" horiz-adv-x="645" 
d="M300 -75l-19 44q-6 13 -11.5 16.5t-23.5 5.5q-111 11 -165 46q-23 15 -42 67.5t-19 102.5q0 52 40 52q19 0 36 -19q5 -5 48 -68q18 -28 57.5 -46t81.5 -18q36 0 58.5 13.5t22.5 34.5q0 37 -75 60q-118 37 -174 87q-77 69 -77 155q0 92 81 157.5t194 65.5q51 0 133 -25
q10 -3 16 -3q5 0 29 9q8 3 17 3q32 0 68.5 -52.5t36.5 -98.5q0 -27 -16.5 -46t-39.5 -19q-19 0 -31 8t-54 47q-59 55 -115 55q-60 0 -60 -48q0 -42 75 -64q96 -28 125 -40.5t63 -40.5q65 -53 65 -141q0 -91 -65.5 -154t-175.5 -80q-20 -3 -20 -20q0 -5 5 -15l39 -75
q15 -29 15 -46q0 -64 -112 -64q-122 0 -122 57q0 44 61 46q55 2 55 27q0 12 -5 24z" />
    <glyph glyph-name="scedilla" unicode="&#x15f;" horiz-adv-x="477" 
d="M212 -56l-18 26q-19 28 -45 28q-5 0 -18 -2t-17 -2q-25 0 -40 13q-20 17 -37 56t-17 67q0 45 35 45q18 0 42 -24l34 -36q33 -35 59 -35q36 0 36 31q0 22 -37 40q-79 38 -114 79.5t-35 95.5q0 70 49 115t125 45q26 0 80 -11q10 -2 19 -2q8 0 32 9q11 4 19 4q26 0 56.5 -44
t30.5 -82q0 -19 -14 -32t-34 -13q-26 0 -73 45q-31 30 -52 30q-13 0 -23.5 -10t-10.5 -24q0 -22 46 -44q88 -42 125.5 -81.5t37.5 -90.5q0 -43 -29 -81.5t-74 -55.5q-12 -5 -57 -17q-13 -3 -13 -10t10 -17l26 -25q30 -29 30 -49q0 -25 -29.5 -41.5t-73.5 -16.5
q-37 0 -61.5 14t-24.5 35q0 30 51 37q14 2 14 11q0 6 -10 20z" />
    <glyph glyph-name="Cacute" unicode="&#x106;" horiz-adv-x="720" 
d="M391 680q72 0 138 -31q32 -15 43 -15q9 0 29 5q8 2 14 2q35 0 63 -50.5t28 -114.5q0 -45 -25 -73t-65 -28q-45 0 -71 49q-35 65 -66 86q-48 33 -99 33q-50 0 -79.5 -36.5t-29.5 -97.5q0 -58 22.5 -113t60.5 -89q49 -44 125 -44q89 0 138 47q19 18 31 18q17 0 29 -16
t12 -38q0 -29 -17 -64.5t-41 -54.5q-8 -6 -14 -8.5t-29 -6.5q-18 -3 -49 -18q-74 -35 -151 -35q-128 0 -228 75q-63 47 -100 120.5t-37 149.5q0 141 109.5 244.5t258.5 103.5zM475 885q49 0 83 -16t33 -38q-2 -23 -42 -54q-74 -57 -163 -57q-50 0 -50 36q0 14 8.5 23
t46.5 37q12 9 12 18q0 5 -6 15q-2 3 -2 7q0 29 80 29z" />
    <glyph glyph-name="cacute" unicode="&#x107;" horiz-adv-x="526" 
d="M297 486q90 0 153.5 -43t63.5 -104q0 -40 -27 -66.5t-68 -26.5t-61 29q-7 11 -19 47q-13 41 -51 41q-26 0 -44.5 -23.5t-18.5 -57.5q0 -58 37.5 -99t90.5 -41q39 0 85 21q5 4 15 4q16 0 29 -16t13 -36q0 -49 -65 -88.5t-151 -39.5q-111 0 -186.5 71t-75.5 176
q0 108 80 180t200 72zM361 698q49 0 83 -16t33 -38q-2 -23 -42 -54q-74 -57 -163 -57q-50 0 -50 36q0 14 8.5 23t46.5 37q12 9 12 18q0 5 -6 15q-2 3 -2 7q0 29 80 29z" />
    <glyph glyph-name="Ccaron" unicode="&#x10c;" horiz-adv-x="720" 
d="M391 680q72 0 138 -31q32 -15 43 -15q9 0 29 5q8 2 14 2q35 0 63 -50.5t28 -114.5q0 -45 -25 -73t-65 -28q-45 0 -71 49q-35 65 -66 86q-48 33 -99 33q-50 0 -79.5 -36.5t-29.5 -97.5q0 -58 22.5 -113t60.5 -89q49 -44 125 -44q89 0 138 47q19 18 31 18q17 0 29 -16
t12 -38q0 -29 -17 -64.5t-41 -54.5q-8 -6 -14 -8.5t-29 -6.5q-18 -3 -49 -18q-74 -35 -151 -35q-128 0 -228 75q-63 47 -100 120.5t-37 149.5q0 141 109.5 244.5t258.5 103.5zM260 898q19 0 105 -44q18 -9 37 -9q24 0 72 23q62 30 80 30q14 0 25 -11.5t11 -25.5
q0 -29 -78 -86t-110 -57q-37 0 -123 69q-57 46 -57 72q0 39 38 39z" />
    <glyph glyph-name="ccaron" unicode="&#x10d;" horiz-adv-x="526" 
d="M297 486q90 0 153.5 -43t63.5 -104q0 -40 -27 -66.5t-68 -26.5t-61 29q-7 11 -19 47q-13 41 -51 41q-26 0 -44.5 -23.5t-18.5 -57.5q0 -58 37.5 -99t90.5 -41q39 0 85 21q5 4 15 4q16 0 29 -16t13 -36q0 -49 -65 -88.5t-151 -39.5q-111 0 -186.5 71t-75.5 176
q0 108 80 180t200 72zM151 714q22 0 75 -27.5t68 -27.5q20 0 71 25q60 29 80 29q14 0 25 -11t11 -26q0 -28 -78 -85t-110 -57q-37 0 -123 69q-57 46 -57 72q0 39 38 39z" />
    <glyph glyph-name="sfthyphen" unicode="&#xad;" horiz-adv-x="284" 
d="M85 349q10 0 26 -2q55 -7 91 -7q32 0 45 3t21 3q16 2 16 -23q0 -46 -33 -116q-19 -40 -39 -40q-9 0 -24 3q-41 8 -99 8q-23 0 -44 -2t-24 -2q-21 0 -21 23q0 16 11.5 53t22.5 57q23 42 51 42z" />
    <glyph glyph-name="overscore.001" unicode="&#xaf;" 
d="M0 846h500v-126h-500v126z" />
    <glyph glyph-name="mu1" unicode="&#xb5;" horiz-adv-x="600" 
d="M545 311v-190q0 -15 25 -27q21 -10 21 -30q0 -37 -82 -58q-59 -15 -116 -15q-34 0 -36 23q-2 27 -15 27q-8 0 -37 -20q-32 -22 -66 -28q-3 -74 -20 -104q-15 -26 -51.5 -43t-76.5 -17t-66.5 16.5t-26.5 41.5q0 28 21 28q6 0 10.5 -1t13.5 -1q27 0 27 25q0 6 -1 11
q-3 16 -3 29v230q0 76 -4.5 96.5t-26.5 32.5q-26 15 -26 30q0 24 32 37q22 9 81.5 16.5t106.5 7.5q25 0 25 -22v-234q0 -76 49 -76q29 0 41 25q10 21 10 94q0 63 -5 96q-3 17 -22 27q-25 13 -25 33t27 32q19 9 76 17t99 8q45 0 43 -46l-1 -20z" />
    <glyph glyph-name="mu1" unicode="&#x3bc;" horiz-adv-x="600" 
d="M545 311v-190q0 -15 25 -27q21 -10 21 -30q0 -37 -82 -58q-59 -15 -116 -15q-34 0 -36 23q-2 27 -15 27q-8 0 -37 -20q-32 -22 -66 -28q-3 -74 -20 -104q-15 -26 -51.5 -43t-76.5 -17t-66.5 16.5t-26.5 41.5q0 28 21 28q6 0 10.5 -1t13.5 -1q27 0 27 25q0 6 -1 11
q-3 16 -3 29v230q0 76 -4.5 96.5t-26.5 32.5q-26 15 -26 30q0 24 32 37q22 9 81.5 16.5t106.5 7.5q25 0 25 -22v-234q0 -76 49 -76q29 0 41 25q10 21 10 94q0 63 -5 96q-3 17 -22 27q-25 13 -25 33t27 32q19 9 76 17t99 8q45 0 43 -46l-1 -20z" />
    <glyph glyph-name="middot.001" unicode="&#xb7;" horiz-adv-x="300" 
d="M152 361q47 0 80 -33t33 -80q0 -49 -33.5 -83t-81.5 -34t-81.5 34t-33.5 82t34 81t83 33z" />
    <glyph glyph-name="Amacron" unicode="&#x100;" horiz-adv-x="827" 
d="M650 338l93 -198q13 -28 22 -37t27 -11q35 -5 35 -35q0 -67 -183 -67q-158 0 -191 19q-27 16 -27 40q0 25 36 38q23 8 23 26q0 33 -41 39t-119 6q-63 0 -77 -8q-20 -11 -20 -42q0 -10 4.5 -13.5t27.5 -10.5q30 -9 30 -36q0 -58 -140 -58q-77 0 -116 11q-34 9 -34 45
q0 28 35 39q31 10 47 29.5t47 88.5l69 151q34 75 43 100q21 57 22 105q1 44 5 60t20 31q35 34 86 34q76 0 131 -78q57 -81 145 -268zM310 276h96q27 0 27 12q0 11 -19 46q-28 51 -39.5 66t-23.5 15q-16 0 -28 -33q-35 -70 -35 -94q0 -12 22 -12zM339 858h190q42 0 48 1t13 1
q20 0 20 -18q0 -32 -26 -76q-12 -21 -30 -21q-1 0 -34 4q-16 2 -47 2h-160q-52 0 -102 -2q-4 -1 -11 -1q-24 0 -24 18q0 7 11 35.5t19 40.5q13 21 34 21q5 0 15 -1q38 -4 84 -4z" />
    <glyph glyph-name="amacron" unicode="&#x101;" horiz-adv-x="567" 
d="M497 309l-1 -71q-1 -85 17 -108q5 -6 25 -10q15 -3 15 -20q0 -41 -45.5 -77t-98.5 -36q-51 0 -81 35q-11 13 -19 13q-9 0 -26 -12q-50 -36 -110 -36q-65 0 -104 27q-56 39 -56 108q0 94 119 136q43 15 113 16q29 0 36 5.5t7 25.5q0 98 -46 98q-25 0 -54 -41
q-44 -61 -91 -61q-24 0 -39 14t-15 37q0 50 79.5 92t174.5 42q85 0 144 -43q32 -23 44.5 -52.5t11.5 -81.5zM264 204q-21 0 -37 -17.5t-16 -41.5q0 -53 41 -53q39 0 39 66q0 46 -27 46zM246 658h156q43 0 49 1l13 2q20 0 20 -20q0 -21 -27 -68q-12 -21 -29 -21q-2 0 -35 4
q-16 2 -46 2h-127q-52 0 -102 -2q-4 -1 -11 -1q-24 0 -24 19q0 17 30 69q12 21 34 21q6 0 15 -1q46 -5 84 -5z" />
    <glyph glyph-name="Abreve" unicode="&#x102;" horiz-adv-x="827" 
d="M650 338l93 -198q13 -28 22 -37t27 -11q35 -5 35 -35q0 -67 -183 -67q-158 0 -191 19q-27 16 -27 40q0 25 36 38q23 8 23 26q0 33 -41 39t-119 6q-63 0 -77 -8q-20 -11 -20 -42q0 -10 4.5 -13.5t27.5 -10.5q30 -9 30 -36q0 -58 -140 -58q-77 0 -116 11q-34 9 -34 45
q0 28 35 39q31 10 47 29.5t47 88.5l69 151q34 75 43 100q21 57 22 105q1 44 5 60t20 31q35 34 86 34q76 0 131 -78q57 -81 145 -268zM310 276h96q27 0 27 12q0 11 -19 46q-28 51 -39.5 66t-23.5 15q-16 0 -28 -33q-35 -70 -35 -94q0 -12 22 -12zM221 899q11 0 45 -29
q44 -38 118 -38q59 0 111 23q20 9 54 41q6 4 12 4q26 0 26 -20q0 -22 -30 -68q-62 -94 -170 -94q-99 0 -166 100q-24 36 -26 58q-2 23 26 23z" />
    <glyph glyph-name="abreve" unicode="&#x103;" horiz-adv-x="567" 
d="M497 309l-1 -71q-1 -85 17 -108q5 -6 25 -10q15 -3 15 -20q0 -41 -45.5 -77t-98.5 -36q-51 0 -81 35q-11 13 -19 13q-9 0 -26 -12q-50 -36 -110 -36q-65 0 -104 27q-56 39 -56 108q0 94 119 136q43 15 113 16q29 0 36 5.5t7 25.5q0 98 -46 98q-25 0 -54 -41
q-44 -61 -91 -61q-24 0 -39 14t-15 37q0 50 79.5 92t174.5 42q85 0 144 -43q32 -23 44.5 -52.5t11.5 -81.5zM264 204q-21 0 -37 -17.5t-16 -41.5q0 -53 41 -53q39 0 39 66q0 46 -27 46zM114 719q11 0 45 -29q48 -40 117 -40q57 0 112 25q18 8 24.5 13t29.5 27q6 4 12 4
q26 0 26 -20q0 -22 -30 -68q-62 -94 -170 -94q-99 0 -166 101q-24 37 -26 58q-2 23 26 23z" />
    <glyph glyph-name="Aogonek" unicode="&#x104;" horiz-adv-x="827" 
d="M650 338l93 -198q13 -28 22 -37t27 -11q35 -5 35 -35q0 -51 -92 -63q-20 -3 -78 -4q-36 -23 -36 -56q0 -16 14 -28t33 -12q16 0 52 16q7 3 13 3q19 0 19 -28q0 -66 -123 -66q-84 0 -121 43q-17 20 -17 41q0 33 66 81l11 8q-62 2 -89 7q-53 9 -53 50q0 25 36 38
q23 8 23 26q0 34 -36 39q-39 6 -121 6q-66 0 -80 -8q-20 -11 -20 -42q0 -10 4.5 -13.5t27.5 -10.5q30 -9 30 -36q0 -58 -140 -58q-77 0 -116 11q-34 9 -34 45q0 28 35 39q31 10 47 29.5t47 88.5l69 151q34 75 43 100q21 57 22 105q1 44 5 60t20 31q35 34 86 34q76 0 131 -78
q57 -81 145 -268zM310 276h96q27 0 27 12q0 11 -19 46q-28 51 -39.5 66t-23.5 15q-16 0 -28 -33q-35 -70 -35 -94q0 -12 22 -12z" />
    <glyph glyph-name="aogonek" unicode="&#x105;" horiz-adv-x="567" 
d="M497 309l-1 -71q-1 -86 17 -109q4 -5 25 -9q15 -3 15 -21q0 -38 -42 -73.5t-91 -38.5q-28 -23 -28 -50q0 -15 13 -26.5t30 -11.5q14 0 47 15q5 3 11 3q17 0 17 -27q0 -62 -110 -62q-56 0 -90.5 22.5t-34.5 58.5q0 21 14.5 37.5t65.5 53.5q-11 7 -30 27q-8 8 -16 8
q-9 0 -26 -12q-50 -36 -110 -36q-72 0 -116 37t-44 98q0 94 119 136q43 15 113 16q29 0 36 5.5t7 25.5q0 98 -46 98q-25 0 -54 -41q-44 -61 -91 -61q-24 0 -39 14t-15 37q0 50 79 92t173 42q87 0 145 -42.5t57 -134.5zM264 204q-21 0 -37 -17.5t-16 -41.5q0 -53 41 -53
q39 0 39 66q0 46 -27 46z" />
    <glyph glyph-name="Ccircumflex" unicode="&#x108;" horiz-adv-x="720" 
d="M391 680q72 0 138 -31q32 -15 43 -15q9 0 29 5q8 2 14 2q35 0 63 -50.5t28 -114.5q0 -45 -25 -73t-65 -28q-45 0 -71 49q-35 65 -66 86q-48 33 -99 33q-50 0 -79.5 -36.5t-29.5 -97.5q0 -58 22.5 -113t60.5 -89q49 -44 125 -44q89 0 138 47q19 18 31 18q17 0 29 -16
t12 -38q0 -29 -17 -64.5t-41 -54.5q-8 -6 -14 -8.5t-29 -6.5q-18 -3 -49 -18q-74 -35 -151 -35q-128 0 -228 75q-63 47 -100 120.5t-37 149.5q0 141 109.5 244.5t258.5 103.5zM400 898q37 0 127 -70q60 -47 60 -72q0 -15 -11 -26t-25 -11q-18 0 -80 29q-49 23 -72 23
q-19 0 -69 -26.5t-73 -26.5q-38 0 -38 39q0 29 74 85t107 56z" />
    <glyph glyph-name="Cdotaccent" unicode="&#x10a;" horiz-adv-x="720" 
d="M391 680q72 0 138 -31q32 -15 43 -15q9 0 29 5q8 2 14 2q35 0 63 -50.5t28 -114.5q0 -45 -25 -73t-65 -28q-45 0 -71 49q-35 65 -66 86q-48 33 -99 33q-50 0 -79.5 -36.5t-29.5 -97.5q0 -58 22.5 -113t60.5 -89q49 -44 125 -44q89 0 138 47q19 18 31 18q17 0 29 -16
t12 -38q0 -29 -17 -64.5t-41 -54.5q-8 -6 -14 -8.5t-29 -6.5q-18 -3 -49 -18q-74 -35 -151 -35q-128 0 -228 75q-63 47 -100 120.5t-37 149.5q0 141 109.5 244.5t258.5 103.5zM441 883q99 0 99 -60q0 -44 -73 -69q-53 -18 -108 -18q-42 0 -67.5 16.5t-25.5 42.5q0 33 39 55
q60 33 136 33z" />
    <glyph glyph-name="cdotaccent" unicode="&#x10b;" horiz-adv-x="526" 
d="M297 486q90 0 153.5 -43t63.5 -104q0 -40 -27 -66.5t-68 -26.5t-61 29q-7 11 -19 47q-13 41 -51 41q-26 0 -44.5 -23.5t-18.5 -57.5q0 -58 37.5 -99t90.5 -41q39 0 85 21q5 4 15 4q16 0 29 -16t13 -36q0 -49 -65 -88.5t-151 -39.5q-111 0 -186.5 71t-75.5 176
q0 108 80 180t200 72zM319 686q102 0 102 -60q0 -35 -45 -58.5t-112 -23.5q-40 0 -65.5 17.5t-25.5 44.5q0 37 39 58.5t107 21.5z" />
    <glyph glyph-name="Dcaron" unicode="&#x10e;" horiz-adv-x="802" 
d="M189 0q-17 0 -51 -2.5t-51 -2.5q-33 0 -53.5 15t-20.5 40q0 32 39 42q20 5 27 16t10 42q10 92 10 354q0 36 -3 46q-7 21 -33 31q-34 13 -34 43q0 51 88 51q12 0 32 -1t60 -1q75 0 158 4q21 1 47 1q161 0 246 -65q119 -91 119 -277q0 -154 -94.5 -249.5t-246.5 -91.5z
M327 530v-378q0 -57 57 -57q143 0 143 217q0 119 -33 185q-36 73 -124 73q-43 0 -43 -40zM238 898q19 0 105 -44q18 -9 37 -9q24 0 72 23q62 30 80 30q14 0 25 -11.5t11 -25.5q0 -29 -78 -86t-110 -57q-37 0 -123 69q-57 46 -57 72q0 39 38 39z" />
    <glyph glyph-name="dcaron" unicode="&#x10f;" horiz-adv-x="839" 
d="M590 628v-447q0 -37 3.5 -47.5t17.5 -21.5q30 -22 30 -44q0 -40 -79 -60q-73 -18 -141 -18q-16 0 -20.5 4.5t-6.5 22.5q-3 25 -17 25q-8 0 -26 -15q-48 -40 -111 -40q-87 0 -155 76t-68 173q0 100 70.5 175t163.5 75q56 0 101 -25q10 -4 13 -4q15 0 15 41q0 33 -39 45
q-31 10 -31 34q0 36 70 56q125 35 168 35q42 0 42 -40zM325 382q-33 0 -54 -42.5t-21 -109.5q0 -58 19 -91.5t51 -33.5q61 0 61 155q0 122 -56 122zM716 680q36 0 61 -25t25 -61q0 -41 -32.5 -82.5t-64.5 -41.5q-29 0 -29 22q0 5 8 13q25 25 25 39q0 9 -11 12q-55 17 -55 62
q0 26 21 44t52 18z" />
    <glyph glyph-name="Dcroat" unicode="&#x110;" horiz-adv-x="802" 
d="M47 374h33q17 0 17 14q0 19 1 46.5t1 69.5q0 36 -3 46q-7 21 -33 31q-34 13 -34 43q0 51 88 51q12 0 32 -1t60 -1q75 0 157 4q21 1 45 1q162 0 248 -65q119 -90 119 -272q0 -158 -93.5 -254t-247.5 -92l-248 5q-17 0 -51 -2.5t-51 -2.5q-33 0 -53.5 15t-20.5 40
q0 32 39 42q20 5 27 16t10 42q7 67 7 134q0 16 -18 16h-32q-20 0 -26.5 8t-6.5 28q0 38 34 38zM326 530v-135q0 -21 19 -21h62q33 0 33 -36t-32 -37l-58 -1l-11 1q-13 0 -13 -29v-120q0 -57 57 -57q143 0 143 217q0 119 -33 185q-36 73 -124 73q-43 0 -43 -40z" />
    <glyph glyph-name="dcroat" unicode="&#x111;" horiz-adv-x="664" 
d="M590 628v-76q0 -13 3 -15.5t16 -2.5h16q36 0 36 -38q0 -39 -36 -39h-15q-14 0 -18 -9q-2 -4 -2 -21v-245q0 -38 3.5 -48.5t17.5 -21.5q30 -22 30 -44q0 -40 -79 -60q-72 -18 -141 -18q-16 0 -20.5 4.5t-6.5 22.5q-3 25 -18 25q-7 0 -25 -15q-48 -40 -111 -40
q-88 0 -155.5 75.5t-67.5 173.5q0 100 70.5 175t163.5 75q55 0 102 -25q8 -4 12 -4q15 0 15 40q0 33 -39 46q-31 10 -31 34q0 36 70 56q124 35 168 35q42 0 42 -40zM325 383q-33 0 -54 -42.5t-21 -109.5q0 -58 19 -91.5t51 -33.5q60 0 60 155q0 122 -55 122z" />
    <glyph glyph-name="Emacron" unicode="&#x112;" horiz-adv-x="691" 
d="M120 667h251q126 0 180 16q10 3 16 3q30 0 53.5 -41t23.5 -94q0 -69 -51 -69q-18 0 -29 11q-6 5 -20 26q-21 32 -54 43.5t-103 11.5q-57 0 -71 -17q-8 -8 -10 -26.5t-2 -84.5q0 -42 8.5 -50t51.5 -8q38 0 43 39q6 46 20 58q11 9 24 9q19 0 35 -19q24 -35 24 -126
q0 -51 -11 -91q-16 -62 -53 -62q-19 0 -26 13q-4 7 -7 31q-7 55 -64 55q-22 0 -30 -14t-8 -51q0 -96 14 -117q11 -16 89 -16q72 0 109 18.5t60 67t54 48.5q20 0 33.5 -18t13.5 -44q0 -68 -53 -151q-18 -28 -37 -28q-9 0 -26 3q-40 7 -84 7h-414q-52 0 -52 42q0 14 5.5 21
t27.5 16q26 11 33 43q16 69 16 198q0 188 -24 238q-7 15 -35 23t-28 37q0 30 28 42q17 7 79 7zM291 858h190q42 0 48 1t13 1q20 0 20 -18q0 -32 -26 -76q-12 -21 -30 -21q-1 0 -34 4q-16 2 -47 2h-160q-52 0 -102 -2q-4 -1 -11 -1q-24 0 -24 18q0 7 11 35.5t19 40.5
q13 21 34 21q5 0 15 -1q38 -4 84 -4z" />
    <glyph glyph-name="emacron" unicode="&#x113;" horiz-adv-x="530" 
d="M470 219h-229q-15 0 -15 -13q0 -32 34.5 -60t73.5 -28q55 0 99 31q17 12 27 12q13 0 25 -15.5t12 -32.5q0 -46 -70.5 -86t-152.5 -40q-110 0 -183.5 70.5t-73.5 176.5q0 105 78 178.5t189 73.5q93 0 157 -52q76 -61 76 -143q0 -32 -13 -52t-34 -20zM253 310h50
q31 0 31 28q0 26 -15.5 43t-39.5 17q-23 0 -40 -18.5t-17 -43.5q0 -26 31 -26zM256 658h157q42 0 48 1t13 2q20 0 20 -20q0 -21 -27 -68q-12 -21 -29 -21q-1 0 -34 4q-16 2 -47 2h-127q-52 0 -102 -2q-4 -1 -11 -1q-24 0 -24 19q0 17 30 69q12 21 34 21q6 0 15 -1
q45 -5 84 -5z" />
    <glyph glyph-name="Ebreve" unicode="&#x114;" horiz-adv-x="691" 
d="M120 667h251q126 0 180 16q10 3 16 3q30 0 53.5 -41t23.5 -94q0 -69 -51 -69q-18 0 -29 11q-6 5 -20 26q-21 32 -54 43.5t-103 11.5q-57 0 -71 -17q-8 -8 -10 -26.5t-2 -84.5q0 -42 8.5 -50t51.5 -8q38 0 43 39q6 46 20 58q11 9 24 9q19 0 35 -19q24 -35 24 -126
q0 -51 -11 -91q-16 -62 -53 -62q-19 0 -26 13q-4 7 -7 31q-7 55 -64 55q-22 0 -30 -14t-8 -51q0 -96 14 -117q11 -16 89 -16q72 0 109 18.5t60 67t54 48.5q20 0 33.5 -18t13.5 -44q0 -68 -53 -151q-18 -28 -37 -28q-9 0 -26 3q-40 7 -84 7h-414q-52 0 -52 42q0 14 5.5 21
t27.5 16q26 11 33 43q16 69 16 198q0 188 -24 238q-7 15 -35 23t-28 37q0 30 28 42q17 7 79 7zM175 899q11 0 45 -29q44 -38 118 -38q59 0 111 23q20 9 54 41q6 4 12 4q26 0 26 -20q0 -22 -30 -68q-62 -94 -170 -94q-99 0 -166 100q-24 36 -26 58q-2 23 26 23z" />
    <glyph glyph-name="ebreve" unicode="&#x115;" horiz-adv-x="530" 
d="M470 219h-229q-15 0 -15 -13q0 -32 34.5 -60t73.5 -28q55 0 99 31q17 12 27 12q13 0 25 -15.5t12 -32.5q0 -46 -70.5 -86t-152.5 -40q-110 0 -183.5 70.5t-73.5 176.5q0 105 78 178.5t189 73.5q93 0 157 -52q76 -61 76 -143q0 -32 -13 -52t-34 -20zM253 310h50
q31 0 31 28q0 26 -15.5 43t-39.5 17q-23 0 -40 -18.5t-17 -43.5q0 -26 31 -26zM109 719q11 0 45 -29q48 -40 117 -40q57 0 112 25q18 8 24.5 13t29.5 27q6 4 12 4q26 0 26 -20q0 -22 -30 -68q-62 -94 -170 -94q-99 0 -166 101q-24 37 -26 58q-2 23 26 23z" />
    <glyph glyph-name="Edotaccent" unicode="&#x116;" horiz-adv-x="691" 
d="M120 667h251q126 0 180 16q10 3 16 3q30 0 53.5 -41t23.5 -94q0 -69 -51 -69q-18 0 -29 11q-6 5 -20 26q-21 32 -54 43.5t-103 11.5q-57 0 -71 -17q-8 -8 -10 -26.5t-2 -84.5q0 -42 8.5 -50t51.5 -8q38 0 43 39q6 46 20 58q11 9 24 9q19 0 35 -19q24 -35 24 -126
q0 -51 -11 -91q-16 -62 -53 -62q-19 0 -26 13q-4 7 -7 31q-7 55 -64 55q-22 0 -30 -14t-8 -51q0 -96 14 -117q11 -16 89 -16q72 0 109 18.5t60 67t54 48.5q20 0 33.5 -18t13.5 -44q0 -68 -53 -151q-18 -28 -37 -28q-9 0 -26 3q-40 7 -84 7h-414q-52 0 -52 42q0 14 5.5 21
t27.5 16q26 11 33 43q16 69 16 198q0 188 -24 238q-7 15 -35 23t-28 37q0 30 28 42q17 7 79 7zM383 883q99 0 99 -60q0 -44 -73 -69q-53 -18 -108 -18q-42 0 -67.5 16.5t-25.5 42.5q0 33 39 55q60 33 136 33z" />
    <glyph glyph-name="edotaccent" unicode="&#x117;" horiz-adv-x="530" 
d="M470 219h-229q-15 0 -15 -13q0 -32 34.5 -60t73.5 -28q55 0 99 31q17 12 27 12q13 0 25 -15.5t12 -32.5q0 -46 -70.5 -86t-152.5 -40q-110 0 -183.5 70.5t-73.5 176.5q0 105 78 178.5t189 73.5q93 0 157 -52q76 -61 76 -143q0 -32 -13 -52t-34 -20zM253 310h50
q31 0 31 28q0 26 -15.5 43t-39.5 17q-23 0 -40 -18.5t-17 -43.5q0 -26 31 -26zM314 686q103 0 103 -60q0 -35 -45 -58.5t-113 -23.5q-41 0 -66 17t-25 45q0 37 39 58.5t107 21.5z" />
    <glyph glyph-name="Eogonek" unicode="&#x118;" horiz-adv-x="691" 
d="M120 667h251q126 0 180 16q10 3 16 3q30 0 53.5 -41t23.5 -94q0 -69 -51 -69q-18 0 -29 11q-6 5 -20 26q-21 32 -54 43.5t-103 11.5q-58 0 -70.5 -16t-12.5 -88q0 -60 6.5 -71t53.5 -11q38 0 43 39q6 46 20 58q11 9 24 9q22 0 35 -19q24 -34 24 -126q0 -51 -11 -91
q-16 -62 -53 -62q-19 0 -26 13q-4 7 -7 31q-7 55 -64 55q-22 0 -30 -14t-8 -51q0 -96 14 -117q11 -16 89 -16q72 0 109 18.5t60 67t54 48.5q20 0 33.5 -18t13.5 -44q0 -70 -53 -151q-18 -28 -37 -28q-8 0 -26 3q-14 2 -72 7q-54 -28 -54 -66q0 -16 14 -28t33 -12q16 0 52 16
q7 3 13 3q19 0 19 -28q0 -66 -123 -66q-84 0 -121 43q-17 20 -17 41q0 37 69 83q6 3 20 14h-331q-52 0 -52 42q0 14 5.5 20.5t29 16.5t31.5 43q16 70 16 198q0 188 -24 238q-7 15 -35 23t-28 37q0 30 28 42q17 7 79 7z" />
    <glyph glyph-name="eogonek" unicode="&#x119;" horiz-adv-x="530" 
d="M470 219h-229q-15 0 -15 -13q0 -32 34.5 -60t73.5 -28q55 0 99 31q17 12 27 12q13 0 25 -15.5t12 -32.5q0 -36 -50 -72.5t-115 -48.5q-35 -23 -35 -55q0 -15 13 -26.5t30 -11.5q14 0 47 15q5 3 11 3q17 0 17 -27q0 -62 -110 -62q-56 0 -90.5 22.5t-34.5 58.5q0 34 64 79
q-100 11 -163.5 79.5t-63.5 165.5q0 106 78 179.5t189 73.5q93 0 157 -52q76 -61 76 -143q0 -32 -13 -52t-34 -20zM253 310h50q31 0 31 28q0 26 -15.5 43t-39.5 17q-23 0 -40 -18.5t-17 -43.5q0 -26 31 -26z" />
    <glyph glyph-name="Ecaron" unicode="&#x11a;" horiz-adv-x="691" 
d="M120 667h251q126 0 180 16q10 3 16 3q30 0 53.5 -41t23.5 -94q0 -69 -51 -69q-18 0 -29 11q-6 5 -20 26q-21 32 -54 43.5t-103 11.5q-57 0 -71 -17q-8 -8 -10 -26.5t-2 -84.5q0 -42 8.5 -50t51.5 -8q38 0 43 39q6 46 20 58q11 9 24 9q19 0 35 -19q24 -35 24 -126
q0 -51 -11 -91q-16 -62 -53 -62q-19 0 -26 13q-4 7 -7 31q-7 55 -64 55q-22 0 -30 -14t-8 -51q0 -96 14 -117q11 -16 89 -16q72 0 109 18.5t60 67t54 48.5q20 0 33.5 -18t13.5 -44q0 -68 -53 -151q-18 -28 -37 -28q-9 0 -26 3q-40 7 -84 7h-414q-52 0 -52 42q0 14 5.5 21
t27.5 16q26 11 33 43q16 69 16 198q0 188 -24 238q-7 15 -35 23t-28 37q0 30 28 42q17 7 79 7zM199 898q19 0 105 -44q18 -9 37 -9q24 0 72 23q62 30 80 30q14 0 25 -11.5t11 -25.5q0 -29 -78 -86t-110 -57q-37 0 -123 69q-57 46 -57 72q0 39 38 39z" />
    <glyph glyph-name="ecaron" unicode="&#x11b;" horiz-adv-x="530" 
d="M470 219h-229q-15 0 -15 -13q0 -32 34.5 -60t73.5 -28q55 0 99 31q17 12 27 12q13 0 25 -15.5t12 -32.5q0 -46 -70.5 -86t-152.5 -40q-110 0 -183.5 70.5t-73.5 176.5q0 105 78 178.5t189 73.5q93 0 157 -52q76 -61 76 -143q0 -32 -13 -52t-34 -20zM253 310h50
q31 0 31 28q0 26 -15.5 43t-39.5 17q-23 0 -40 -18.5t-17 -43.5q0 -26 31 -26zM146 714q22 0 75 -27.5t68 -27.5q20 0 71 25q60 29 80 29q14 0 25 -11t11 -26q0 -28 -78 -85t-110 -57q-37 0 -123 69q-57 46 -57 72q0 39 38 39z" />
    <glyph glyph-name="Gcircumflex" unicode="&#x11c;" horiz-adv-x="794" 
d="M395 681q62 0 120 -18q26 -8 35 -8q10 0 41 11q9 3 21 3q33 0 62.5 -46.5t29.5 -98.5q0 -42 -21.5 -68t-55.5 -26q-29 0 -56 21q-7 4 -40 45q-54 66 -124 66q-63 0 -100.5 -46.5t-37.5 -125.5q0 -108 51.5 -186t123.5 -78q25 0 41.5 17t16.5 43q0 23 -13 34q-7 5 -39 5
q-21 0 -34.5 13.5t-13.5 34.5q0 31 36 49q53 26 154 26q82 0 139 -17q53 -16 53 -60q0 -40 -44 -46q-17 -2 -22 -7t-11 -26q-28 -95 -110 -150t-198 -55q-161 0 -268.5 101t-107.5 252q0 134 97 232q108 109 275 109zM410 898q37 0 127 -70q60 -47 60 -72q0 -15 -11 -26
t-25 -11q-18 0 -80 29q-49 23 -72 23q-19 0 -69 -26.5t-73 -26.5q-38 0 -38 39q0 29 74 85t107 56z" />
    <glyph glyph-name="gcircumflex" unicode="&#x11d;" horiz-adv-x="578" 
d="M537 513q12 0 21.5 -14.5t9.5 -32.5q0 -47 -42 -85q-11 -10 -11 -16q0 -2 1 -11t1 -20q0 -74 -70.5 -122.5t-179.5 -48.5q-24 0 -33 1.5t-20 1.5q-26 0 -26 -26q0 -35 60 -35q24 0 60 5q79 11 120 11q56 0 88 -19q55 -33 55 -97q0 -79 -76 -134q-88 -64 -238 -64
q-111 0 -177.5 34.5t-66.5 92.5q0 42 37 58q15 7 15 12q0 6 -12 16q-40 33 -40 68q0 23 18.5 47.5t47.5 39.5q12 6 12 11q0 7 -15 21q-50 47 -50 109q0 69 68 113q79 51 173 51q37 0 118 -15q16 -3 28 -3q53 0 106 42q11 9 18 9zM273 411q-25 0 -40 -18.5t-15 -48.5
q0 -53 16 -84.5t43 -31.5q56 0 56 73q0 110 -60 110zM166 -33q-12 0 -12 -14q0 -28 31 -46t81 -18q102 0 102 48q0 29 -36 29q-5 0 -22 -2q-35 -4 -61 -4q-46 0 -76 6q-3 1 -7 1zM289 714q37 0 127 -71q60 -47 60 -72q0 -14 -11 -25.5t-25 -11.5q-18 0 -80 30q-52 25 -71 25
q-16 0 -69 -28t-74 -28q-38 0 -38 39q0 30 74.5 86t106.5 56z" />
    <glyph glyph-name="Gdotaccent" unicode="&#x120;" horiz-adv-x="794" 
d="M395 681q62 0 120 -18q26 -8 35 -8q10 0 41 11q9 3 21 3q33 0 62.5 -46.5t29.5 -98.5q0 -42 -21.5 -68t-55.5 -26q-29 0 -56 21q-7 4 -40 45q-54 66 -124 66q-63 0 -100.5 -46.5t-37.5 -125.5q0 -108 51.5 -186t123.5 -78q25 0 41.5 17t16.5 43q0 23 -13 34q-7 5 -39 5
q-21 0 -34.5 13.5t-13.5 34.5q0 31 36 49q53 26 154 26q82 0 139 -17q53 -16 53 -60q0 -40 -44 -46q-17 -2 -22 -7t-11 -26q-28 -95 -110 -150t-198 -55q-161 0 -268.5 101t-107.5 252q0 134 97 232q108 109 275 109zM452 883q99 0 99 -60q0 -37 -44 -57q-66 -30 -138 -30
q-42 0 -67.5 16.5t-25.5 42.5q0 34 39 55q61 33 137 33z" />
    <glyph glyph-name="gdotaccent" unicode="&#x121;" horiz-adv-x="578" 
d="M537 513q12 0 21.5 -14.5t9.5 -32.5q0 -47 -42 -85q-11 -10 -11 -16q0 -2 1 -11t1 -20q0 -74 -70.5 -122.5t-179.5 -48.5q-24 0 -33 1.5t-20 1.5q-26 0 -26 -26q0 -35 60 -35q24 0 60 5q79 11 120 11q56 0 88 -19q55 -33 55 -97q0 -79 -76 -134q-88 -64 -238 -64
q-111 0 -177.5 34.5t-66.5 92.5q0 42 37 58q15 7 15 12q0 6 -12 16q-40 33 -40 68q0 23 18.5 47.5t47.5 39.5q12 6 12 11q0 7 -15 21q-50 47 -50 109q0 69 68 113q79 51 173 51q37 0 118 -15q16 -3 28 -3q53 0 106 42q11 9 18 9zM273 411q-25 0 -40 -18.5t-15 -48.5
q0 -53 16 -84.5t43 -31.5q56 0 56 73q0 110 -60 110zM166 -33q-12 0 -12 -14q0 -28 31 -46t81 -18q102 0 102 48q0 29 -36 29q-5 0 -22 -2q-35 -4 -61 -4q-46 0 -76 6q-3 1 -7 1zM310 686q103 0 103 -60q0 -35 -45 -58.5t-113 -23.5q-41 0 -66 17t-25 45q0 37 39 58.5
t107 21.5z" />
    <glyph glyph-name="Gcommaaccent" unicode="&#x122;" horiz-adv-x="794" 
d="M395 681q62 0 120 -18q26 -8 35 -8q10 0 41 11q9 3 21 3q33 0 62.5 -46.5t29.5 -98.5q0 -42 -21.5 -68t-55.5 -26q-29 0 -56 21q-7 4 -40 45q-54 66 -124 66q-63 0 -100.5 -46.5t-37.5 -125.5q0 -108 51.5 -186t123.5 -78q25 0 41.5 17t16.5 43q0 23 -13 34q-7 5 -39 5
q-21 0 -34.5 13.5t-13.5 34.5q0 31 36 49q53 26 154 26q82 0 139 -17q53 -16 53 -60q0 -40 -44 -46q-17 -2 -22 -7t-11 -26q-28 -95 -110 -150t-198 -55q-161 0 -268.5 101t-107.5 252q0 134 97 232q108 109 275 109zM402 -40q37 0 62.5 -25.5t25.5 -62.5q0 -43 -33 -85.5
t-67 -42.5q-30 0 -30 23q0 5 8 13q25 26 25 40q0 10 -23 17q-44 14 -44 59q0 27 22 45.5t54 18.5z" />
    <glyph glyph-name="gcommaaccent" unicode="&#x123;" horiz-adv-x="578" 
d="M537 513q12 0 21.5 -14.5t9.5 -32.5q0 -47 -42 -85q-11 -10 -11 -16q0 -2 1 -11t1 -20q0 -74 -70.5 -122.5t-179.5 -48.5q-24 0 -33 1.5t-20 1.5q-26 0 -26 -26q0 -35 60 -35q24 0 60 5q79 11 120 11q56 0 88 -19q55 -33 55 -97q0 -79 -76 -134q-88 -64 -238 -64
q-111 0 -177.5 34.5t-66.5 92.5q0 42 37 58q15 7 15 12q0 6 -12 16q-40 33 -40 68q0 23 18.5 47.5t47.5 39.5q12 6 12 11q0 7 -15 21q-50 47 -50 109q0 69 68 113q79 51 173 51q37 0 118 -15q16 -3 28 -3q53 0 106 42q11 9 18 9zM273 411q-25 0 -40 -18.5t-15 -48.5
q0 -53 16 -84.5t43 -31.5q56 0 56 73q0 110 -60 110zM166 -33q-12 0 -12 -14q0 -28 31 -46t81 -18q102 0 102 48q0 29 -36 29q-5 0 -22 -2q-35 -4 -61 -4q-46 0 -76 6q-3 1 -7 1zM303 740q29 0 29 -22q0 -5 -8 -13q-25 -25 -25 -39q0 -9 11 -12q55 -17 55 -62q0 -26 -21 -44
t-52 -18q-36 0 -61 25t-25 61q0 42 32 83t65 41z" />
    <glyph glyph-name="Hcircumflex" unicode="&#x124;" horiz-adv-x="802" 
d="M90 308v41q0 42 -1 86.5t-1 45.5q0 45 -7.5 58t-40.5 28q-21 10 -21 32q0 39 53 57q65 22 157 22q153 0 153 -63q0 -29 -37 -52q-23 -14 -28 -48q-2 -11 -2 -60q0 -34 12 -41.5t93 -7.5q46 0 50 1q25 5 25 31q0 53 -2 67q-5 46 -27 58q-36 20 -36 43q0 46 55 59
q50 12 128 12q175 0 175 -67q0 -30 -30 -44q-19 -9 -24.5 -17t-9.5 -30q-8 -45 -8 -262q0 -97 7 -126q3 -14 8 -19t32 -20q18 -10 18 -31q0 -71 -187 -71q-166 0 -166 65q0 28 28 44q19 11 24 25q14 41 14 115q0 34 -9 42t-48 8q-86 0 -112 -10q-14 -7 -14 -84q0 -53 16 -76
q6 -9 26.5 -20.5t20.5 -38.5q0 -70 -183 -70q-178 0 -178 67q0 18 13 29q6 6 29 18t28 54q7 63 7 150zM398 898q36 0 126 -70q60 -47 60 -72q0 -15 -10.5 -26t-24.5 -11q-20 0 -81 29q-48 23 -71 23q-21 0 -70 -26.5t-72 -26.5q-38 0 -38 39q0 29 73.5 85t107.5 56z" />
    <glyph glyph-name="Hbar" unicode="&#x126;" horiz-adv-x="802" 
d="M69 426h-20q-36 0 -36 33q0 35 40 35h18q17 0 17 13q0 26 -10 38q-8 9 -37 22q-21 10 -21 32q0 39 53 57q65 22 157 22q152 0 152 -63q0 -27 -37 -50q-29 -18 -29 -54q0 -12 4 -14.5t12 -2.5h140q21 0 21 13q0 14 -7 34q-5 14 -34 31q-21 12 -21 35q0 31 36 50.5
t146 19.5q175 0 175 -67q0 -22 -13 -34q-7 -7 -34 -21q-20 -10 -20 -39q0 -15 3 -18.5t16 -3.5h19q29 0 29 -31q0 -37 -36 -37h-19q-10 0 -12 -4t-2 -23q0 -1 -1.5 -36t-1.5 -92v-11q0 -100 7 -129q3 -14 8 -19t32 -20q18 -10 18 -31q0 -71 -187 -71q-166 0 -166 65
q0 29 29 44q19 10 25 26q12 32 12 83q0 28 -9.5 35t-47.5 7q-88 0 -110 -10q-13 -6 -13 -58q0 -41 14 -63q4 -7 25 -19.5t21 -39.5q0 -70 -183 -70q-178 0 -178 67q0 18 13 29q6 6 29.5 18t28.5 54q7 56 7 150v40v35q-1 17 -1 24q0 14 -3 16.5t-18 2.5zM473 426h-136
q-15 0 -18.5 -3t-3.5 -14v-7q0 -22 12 -29t93 -7q46 0 50 1q25 5 25 31v7q0 15 -3 18t-19 3z" />
    <glyph glyph-name="hbar" unicode="&#x127;" horiz-adv-x="679" 
d="M290 643l-2 -68q-1 -14 18 -14h20q39 0 39 -38q0 -23 -18 -34q-7 -5 -24 -5h-21q-21 0 -21 -35q0 -48 26 -48q12 0 23 16q47 70 126 70q76 0 124 -48q36 -36 38 -133l4 -176q1 -23 6.5 -34t25.5 -26q15 -11 15 -28q0 -52 -160 -52q-141 0 -141 48q0 11 8 22t15 21
q17 28 17 129q0 136 -70 136q-40 0 -50 -36q-4 -13 -4 -45v-94q0 -18 1 -34l2 -14q1 -20 4.5 -28t20.5 -26q10 -11 10 -23q0 -56 -144 -56q-168 0 -168 57q0 19 32 42q19 13 26 71t7 194q0 104 -6 144q-3 23 -27 36q-30 16 -30 38q0 35 62 56q114 39 189 39q28 0 27 -24z
" />
    <glyph glyph-name="Imacron" unicode="&#x12a;" horiz-adv-x="413" 
d="M229 677q53 0 105 -10q66 -13 66 -56q0 -14 -6.5 -21t-34.5 -21t-34 -93q-1 -14 -1 -105q0 -188 9 -231q5 -24 36 -38.5t31 -43.5t-39 -45q-56 -23 -178 -23q-159 0 -159 60q0 24 31 42q24 15 29 40q9 50 9 236q0 93 -2 108q-8 66 -43 88t-35 46q0 31 53 46q77 21 163 21
zM166 858h176q42 0 49 1t13 1q20 0 20 -18q0 -30 -26 -76q-12 -21 -30 -21q-2 0 -35 4q-16 2 -46 2h-147q-52 0 -102 -2q-4 -1 -11 -1q-24 0 -24 18q0 7 11 35.5t19 40.5q13 21 34 21q5 0 15 -1q38 -4 84 -4z" />
    <glyph glyph-name="imacron" unicode="&#x12b;" horiz-adv-x="356" 
d="M291 452v-283q0 -31 4 -44q7 -20 27 -34q25 -18 25 -38q0 -63 -160 -63q-86 0 -137 14q-38 10 -38 45q0 20 33 44q28 21 28 112q0 100 -7 119q-5 14 -26 23q-30 13 -30 40q0 31 40 46q132 50 214 50q27 0 27 -31zM137 658h147q42 0 48 1t13 2q20 0 20 -20q0 -21 -27 -68
q-12 -21 -29 -21q-1 0 -34 4q-16 2 -47 2h-100q-52 0 -102 -2q-4 -1 -11 -1q-24 0 -24 19q0 17 30 69q12 21 33 21q4 0 55 -4q26 -2 28 -2z" />
    <glyph glyph-name="ibreve" unicode="&#x12d;" horiz-adv-x="356" 
d="M291 452v-283q0 -31 4 -44q7 -20 27 -34q25 -18 25 -38q0 -63 -160 -63q-86 0 -137 14q-38 10 -38 45q0 20 33 44q28 21 28 112q0 100 -7 119q-5 14 -26 23q-30 13 -30 40q0 31 40 46q132 50 214 50q27 0 27 -31zM14 719q20 0 52 -31q45 -43 106 -43q63 0 115 52
q22 22 36 22q28 0 28 -23q0 -26 -21 -60q-61 -100 -160 -100q-96 0 -157 101q-24 39 -24 57q0 25 25 25z" />
    <glyph glyph-name="Iogonek" unicode="&#x12e;" horiz-adv-x="413" 
d="M245 -8q-39 -25 -39 -58q0 -16 14 -28t33 -12q16 0 52 16q7 3 13 3q19 0 19 -28q0 -66 -123 -66q-84 0 -121 43q-17 20 -17 41q0 22 15.5 39.5t60.5 48.5q-129 3 -129 59q0 24 31 42q23 14 28 40q10 57 10 219q0 141 -13 178q-7 20 -32 36q-34 22 -34 45q0 39 93 56
q58 11 123 11q53 0 105 -10q66 -13 66 -56q0 -15 -6.5 -22t-33.5 -20q-30 -15 -36 -96q-1 -13 -1 -112q0 -210 15 -236q7 -12 30 -23q32 -15 32 -44q0 -37 -60 -52q-43 -11 -95 -14z" />
    <glyph glyph-name="iogonek" unicode="&#x12f;" horiz-adv-x="356" 
d="M291 452v-283q0 -31 4 -44q7 -20 27 -34q25 -18 25 -38q0 -45 -76 -57q-12 -2 -49 -5q-34 -23 -34 -54q0 -15 13 -26.5t30 -11.5q14 0 47 15q5 3 11 3q17 0 17 -27q0 -62 -110 -62q-56 0 -90.5 22.5t-34.5 58.5q0 20 13.5 36.5t55.5 46.5q-55 5 -68 7q-60 11 -60 49
q0 20 33 44q17 12 23 44.5t6 59.5q0 85 -6 121q-3 18 -27 30q-31 14 -31 40q0 30 40 45q134 51 214 51q27 0 27 -31zM194 667q42 0 67 -16t25 -43q0 -37 -38 -59q-60 -35 -145 -35q-38 0 -61 17t-23 46q0 32 39 55q59 35 136 35z" />
    <glyph glyph-name="Idotaccent" unicode="&#x130;" horiz-adv-x="413" 
d="M229 677q53 0 105 -10q66 -13 66 -56q0 -14 -6.5 -21.5t-34.5 -21.5t-35 -91q-1 -15 -1 -106q0 -186 10 -231q5 -24 36 -38.5t31 -43.5t-39 -45q-56 -23 -178 -23q-160 0 -160 60q0 24 31 42q24 15 29 40q9 50 9 236q0 92 -2 108q-8 66 -42.5 88.5t-34.5 45.5q0 31 53 46
q77 21 163 21zM244 883q99 0 99 -60q0 -44 -73 -69q-53 -18 -108 -18q-42 0 -67.5 16.5t-25.5 42.5q0 33 39 55q60 33 136 33z" />
    <glyph glyph-name="IJ" unicode="&#x132;" horiz-adv-x="1000" 
d="M229 677q53 0 105 -10q66 -13 66 -56q0 -14 -6.5 -21.5t-34.5 -21.5t-35 -91q-1 -15 -1 -106q0 -186 10 -231q5 -24 36 -38.5t31 -43.5t-39 -45q-56 -23 -178 -23q-160 0 -160 60q0 24 31 42q24 15 29 40q9 50 9 236q0 92 -2 108q-8 66 -42.5 88.5t-34.5 45.5q0 31 53 46
q77 21 163 21zM918 501l-6 -269q-2 -128 -77 -188q-71 -57 -179 -57q-109 0 -185 53q-65 45 -65 129q0 49 31 81.5t78 32.5q46 0 77.5 -27.5t31.5 -66.5q0 -10 -7 -35l-1 -12q-3 -34 21 -34t38.5 29.5t14.5 77.5q0 241 -8 292q-5 31 -22 43q-5 4 -33 10.5t-28 38.5
q0 42 54 58q66 20 142 20q53 0 111 -10q87 -15 87 -59q0 -19 -15 -29.5t-30 -18.5q-29 -18 -30 -59z" />
    <glyph glyph-name="ij" unicode="&#x133;" horiz-adv-x="716" 
d="M291 452v-283q0 -31 4 -44q7 -20 27 -34q25 -18 25 -38q0 -63 -160 -63q-86 0 -137 14q-38 10 -38 45q0 20 33 44q28 21 28 112q0 100 -7 119q-5 14 -26 23q-30 13 -30 40q0 31 40 46q132 50 214 50q27 0 27 -31zM194 667q42 0 67 -16t25 -43q0 -37 -38 -59
q-60 -35 -145 -35q-38 0 -61 17t-23 46q0 32 39 55q59 35 136 35zM649 444v-432q0 -121 -45 -158q-57 -47 -149 -47q-47 0 -79.5 19t-32.5 47q0 12 9.5 21.5t21.5 9.5l10 -1t18 -1q9 0 16 8t7 19q0 1 -2 13q-3 18 -3 34v310q0 40 -34 53q-28 11 -28 34q0 48 96 79t164 31
q31 0 31 -39zM546 667q42 0 67 -16t25 -43q0 -37 -38 -59q-60 -35 -145 -35q-38 0 -61 17t-23 46q0 32 39 55q59 35 136 35z" />
    <glyph glyph-name="Kcommaaccent" unicode="&#x136;" horiz-adv-x="827" 
d="M584 534l-52 -51q-29 -28 -29 -50q0 -21 31 -57l183 -212q35 -40 61 -52q49 -22 49 -60q0 -52 -74 -52h-185q-22 0 -38 15q-7 6 -27 34q-36 50 -101 120q-45 48 -59 48q-28 0 -28 -53q0 -49 27 -66q34 -22 34 -48q0 -32 -43 -46t-144 -14q-97 0 -134.5 12.5t-37.5 45.5
q0 25 29 44q22 14 29 55q10 55 10 170q0 138 -10 194q-7 38 -34.5 53.5t-27.5 43.5q0 44 72 59q49 10 125 10q78 0 112.5 -14.5t34.5 -48.5q0 -15 -5 -23t-27 -26q-8 -6 -14.5 -32.5t-6.5 -50.5q0 -41 19 -41q16 0 63 59q37 46 37 62q0 10 -9 27q-7 13 -7 22q0 36 39.5 51
t133.5 15q87 0 121.5 -13.5t34.5 -48.5q0 -37 -32 -47q-8 -2 -48 -3q-26 0 -39 -6t-33 -25zM419 -40q37 0 62.5 -25.5t25.5 -62.5q0 -43 -33 -85.5t-67 -42.5q-30 0 -30 23q0 5 8 13q25 26 25 40q0 10 -23 17q-44 14 -44 59q0 27 22 45.5t54 18.5z" />
    <glyph glyph-name="kcommaaccent" unicode="&#x137;" horiz-adv-x="734" 
d="M301 643l-5 -221q-1 -42 2 -58q3 -20 20 -20q15 0 45.5 19t30.5 28q0 5 -11 20q-8 11 -8 19q0 53 131 53q86 0 116 -19q26 -17 26 -42q0 -19 -16 -28q-8 -4 -34 -9t-76 -40q-13 -9 -13 -16q0 -19 93 -137q56 -71 97 -93q35 -19 35 -44q0 -55 -84 -55h-158q-29 0 -46 22
l-81 104q-44 57 -52 57q-9 0 -9 -44q0 -32 27 -54q13 -10 13 -30q0 -38 -39 -51.5t-116 -13.5q-96 0 -128 9q-40 11 -40 51q0 19 21 32q26 17 30 35q11 51 11 211v107q0 55 -5.5 69.5t-28.5 18.5q-40 6 -40 34q0 30 57 55q51 22 114 38.5t96 16.5q11 0 19 -7t7 -14zM367 -40
q36 0 61 -25t25 -61q0 -41 -32.5 -82.5t-64.5 -41.5q-29 0 -29 22q0 5 8 13q24 25 24 39q0 9 -22 16q-43 13 -43 58q0 26 21 44t52 18z" />
    <glyph glyph-name="kgreenlandic" unicode="&#x138;" horiz-adv-x="734" 
d="M651 0h-159q-29 0 -46 22l-81 104q-44 57 -52 57q-9 0 -9 -44q0 -32 27 -54q13 -10 13 -30q0 -38 -38 -51.5t-117 -13.5q-95 0 -127 9q-40 11 -40 51q0 18 22 32q27 17 31 35q9 42 9 137q0 44 -2 53q-6 28 -32 32q-40 6 -40 34q0 31 56 55q51 22 114 38.5t95 16.5
q29 0 27 -21v-3l-5 -59q-1 -4 -1 -8q0 -48 22 -48q15 0 45.5 19t30.5 28q0 5 -11 20q-8 11 -8 19q0 53 131 53q87 0 116 -19q26 -17 26 -42q0 -19 -16 -28q-8 -4 -33 -9q-29 -5 -77 -40q-13 -9 -13 -16q0 -19 93 -137q56 -71 97 -93q35 -19 35 -44q0 -55 -83 -55z" />
    <glyph glyph-name="Lacute" unicode="&#x139;" horiz-adv-x="633" 
d="M334 453v-224q0 -78 15 -101t66 -23q108 0 133 101q8 32 33 32q26 0 42.5 -23.5t16.5 -60.5q0 -65 -50 -136q-21 -31 -46 -31q-17 0 -69 10q-16 3 -40 3h-341q-34 0 -47 8q-20 10 -20 33q0 16 11 25q4 3 27 14q28 14 36 37q6 17 6 117q0 15 -3 130q-1 48 -2 122
q-1 42 -6.5 55t-25.5 20q-57 20 -57 46q0 70 195 70q135 0 176 -23q26 -15 26 -38q0 -17 -8 -25t-40 -22q-22 -10 -27 -51q-1 -8 -1 -65zM292 885q49 0 83 -16t33 -38q-2 -23 -42 -54q-74 -57 -163 -57q-50 0 -50 36q0 14 8.5 23t46.5 37q12 9 12 18q0 5 -6 15q-2 3 -2 7
q0 29 80 29z" />
    <glyph glyph-name="lacute" unicode="&#x13a;" horiz-adv-x="365" 
d="M298 388v-157q0 -102 3.5 -120.5t23.5 -27.5q30 -13 30 -35q0 -25 -29 -41.5t-132 -16.5q-93 0 -132 14.5t-39 47.5q0 19 33 33q25 11 30 107q1 13 1 119q0 103 -1 112q-7 72 -40 92q-36 21 -36 48q0 46 96 75t165 29q39 0 39 -48q0 -17 -5 -72q-7 -77 -7 -159zM239 868
q49 0 83 -16t33 -38q-2 -23 -42 -54q-74 -57 -163 -57q-50 0 -50 36q0 14 8.5 23t46.5 37q12 9 12 18q0 5 -6 15q-2 3 -2 7q0 29 80 29z" />
    <glyph glyph-name="Lcommaaccent" unicode="&#x13b;" horiz-adv-x="633" 
d="M334 453v-224q0 -78 15 -101t66 -23q108 0 133 101q8 32 33 32q26 0 42.5 -23.5t16.5 -60.5q0 -65 -50 -136q-21 -31 -46 -31q-17 0 -69 10q-16 3 -40 3h-341q-34 0 -47 8q-20 10 -20 33q0 16 11 25q4 3 27 14q28 14 36 37q6 17 6 117q0 15 -3 130q-1 48 -2 122
q-1 42 -6.5 55t-25.5 20q-57 20 -57 46q0 70 195 70q135 0 176 -23q26 -15 26 -38q0 -17 -8 -25t-40 -22q-22 -10 -27 -51q-1 -8 -1 -65zM322 -40q37 0 62.5 -25.5t25.5 -62.5q0 -43 -33 -85.5t-67 -42.5q-30 0 -30 23q0 5 8 13q25 26 25 40q0 10 -23 17q-44 14 -44 59
q0 27 22 45.5t54 18.5z" />
    <glyph glyph-name="lcommaaccent" unicode="&#x13c;" horiz-adv-x="365" 
d="M298 388v-157q0 -102 3.5 -120.5t23.5 -27.5q30 -13 30 -35q0 -25 -29 -41.5t-132 -16.5q-93 0 -132 14.5t-39 47.5q0 19 33 33q25 11 30 107q1 13 1 119q0 103 -1 112q-7 72 -40 92q-36 21 -36 48q0 46 96 75t165 29q39 0 39 -48q0 -17 -5 -72q-7 -77 -7 -159zM182 -40
q36 0 61 -25t25 -61q0 -41 -32.5 -82.5t-64.5 -41.5q-29 0 -29 22q0 5 8 13q24 25 24 39q0 9 -22 16q-43 13 -43 58q0 26 21 44t52 18z" />
    <glyph glyph-name="Lcaron" unicode="&#x13d;" horiz-adv-x="633" 
d="M334 453v-224q0 -78 15 -101t66 -23q108 0 133 101q8 32 33 32q26 0 42.5 -23.5t16.5 -60.5q0 -65 -50 -136q-21 -31 -46 -31q-17 0 -69 10q-16 3 -40 3h-341q-34 0 -47 8q-20 10 -20 33q0 16 11 25q4 3 27 14q28 14 36 37q6 17 6 117q0 15 -3 130q-1 48 -2 122
q-1 42 -6.5 55t-25.5 20q-57 20 -57 46q0 70 195 70q135 0 176 -23q26 -15 26 -38q0 -17 -8 -25t-40 -22q-22 -10 -27 -51q-1 -8 -1 -65zM539 680q37 0 62.5 -25.5t25.5 -62.5q0 -43 -33.5 -85.5t-67.5 -42.5q-30 0 -30 23q0 5 8 13q26 25 26 40q0 10 -23 17q-44 14 -44 59
q0 27 22 45.5t54 18.5z" />
    <glyph glyph-name="lcaron" unicode="&#x13e;" horiz-adv-x="559" 
d="M298 388v-157q0 -102 3.5 -120.5t23.5 -27.5q30 -13 30 -35q0 -25 -29 -41.5t-132 -16.5q-93 0 -132 14.5t-39 47.5q0 19 33 33q25 11 30 107q1 13 1 119q0 103 -1 112q-7 72 -40 92q-36 21 -36 48q0 46 96 75t165 29q39 0 39 -48q0 -17 -5 -72q-7 -77 -7 -159zM436 680
q36 0 61 -25t25 -61q0 -41 -32.5 -82.5t-64.5 -41.5q-29 0 -29 22q0 5 8 13q25 25 25 39q0 9 -11 12q-55 17 -55 62q0 26 21 44t52 18z" />
    <glyph glyph-name="Ldot" unicode="&#x13f;" horiz-adv-x="633" 
d="M334 453v-224q0 -79 15 -101.5t68 -22.5q62 0 97 25q22 16 34 50q8 24 33 24q26 0 42.5 -18t16.5 -46q0 -55 -45 -119q-24 -34 -51 -34q-17 0 -69 10q-16 3 -40 3h-341q-34 0 -47 8q-20 12 -20 33q0 16 11 25q4 3 27 14q28 13 36 38q6 18 6 116q0 53 -2 130l-3 122
q-1 42 -6.5 55.5t-25.5 19.5q-57 19 -57 46q0 70 195 70q136 0 176 -23q26 -15 26 -38q0 -20 -14 -31q-6 -4 -34 -16q-22 -9 -27 -51q-1 -9 -1 -65zM538 486q52 0 88.5 -36.5t36.5 -88.5q0 -54 -37 -91t-91 -37q-50 0 -87.5 37.5t-37.5 87.5q0 54 37 91t91 37z" />
    <glyph glyph-name="ldot" unicode="&#x140;" horiz-adv-x="636" 
d="M298 388v-157q0 -102 3.5 -120.5t23.5 -27.5q30 -13 30 -35q0 -25 -29 -41.5t-132 -16.5q-93 0 -132 14.5t-39 47.5q0 19 33 33q25 11 30 107q1 13 1 119q0 103 -1 112q-7 72 -40 92q-36 21 -36 48q0 46 96 75t165 29q39 0 39 -48q0 -17 -5 -72q-7 -77 -7 -159zM512 466
q52 0 88.5 -36.5t36.5 -88.5q0 -54 -37 -91t-91 -37q-50 0 -87.5 37.5t-37.5 87.5q0 54 37 91t91 37z" />
    <glyph glyph-name="Ncommaaccent" unicode="&#x145;" horiz-adv-x="830" 
d="M288 644l243 -213q35 -31 50 -31q25 0 25 52q0 53 -3 67q-7 39 -35 53q-35 17 -35 47q0 41 56 53q23 5 83 5q71 0 100 -9q45 -14 45 -52q0 -31 -37 -47q-23 -10 -29 -26q-14 -38 -14 -122v-160q0 -147 -2 -172q-8 -99 -56 -99q-23 0 -62 35l-290 260q-30 27 -50 27
q-29 0 -29 -83q0 -57 3 -72q7 -43 35 -57q32 -16 32 -42q0 -68 -146 -68q-138 0 -138 67q0 18 11 29q5 5 28 18.5t27 47.5q8 66 8 182q0 126 -15 183q-9 36 -41 51q-39 18 -39 46q0 37 49 52q37 11 127 11q36 0 53 -5q21 -6 46 -28zM420 -40q37 0 62.5 -25.5t25.5 -62.5
q0 -43 -33 -85.5t-67 -42.5q-30 0 -30 23q0 5 8 13q25 26 25 40q0 10 -23 17q-44 14 -44 59q0 27 22 45.5t54 18.5z" />
    <glyph glyph-name="ncommaaccent" unicode="&#x146;" horiz-adv-x="671" 
d="M610 306l8 -172q1 -22 6 -30.5t29 -33.5q8 -8 8 -22q0 -32 -39 -45t-138 -13q-124 0 -124 52q0 12 23 36q10 10 15 54t5 90q0 75 -21 101q-15 18 -42 18q-34 0 -47 -25q-10 -19 -10 -72v-97q0 -30 3.5 -40.5t23.5 -40.5q6 -9 6 -20q0 -56 -165 -56q-136 0 -136 57
q0 16 25 34q13 9 16 21t6 59q4 66 4 117q0 34 -5 44.5t-30 25.5q-21 13 -21 32t17.5 31.5t70.5 31.5q112 40 150 40q14 0 24 -11t10 -26q0 -3 -1 -12v-7q0 -23 20 -23q11 0 24 18q45 61 122 61q62 0 105 -32q31 -23 43 -54t15 -91zM335 -40q36 0 61 -25t25 -61
q0 -41 -32.5 -82.5t-64.5 -41.5q-29 0 -29 22q0 5 8 13q24 25 24 39q0 9 -22 16q-43 13 -43 58q0 26 21 44t52 18z" />
    <glyph glyph-name="Ncaron" unicode="&#x147;" horiz-adv-x="830" 
d="M288 644l243 -213q35 -31 50 -31q25 0 25 52q0 53 -3 67q-7 39 -35 53q-35 17 -35 47q0 41 56 53q23 5 83 5q71 0 100 -9q45 -14 45 -52q0 -31 -37 -47q-23 -10 -29 -26q-14 -38 -14 -122v-160q0 -147 -2 -172q-8 -99 -56 -99q-23 0 -62 35l-290 260q-30 27 -50 27
q-29 0 -29 -83q0 -57 3 -72q7 -43 35 -57q32 -16 32 -42q0 -68 -146 -68q-138 0 -138 67q0 18 11 29q5 5 28 18.5t27 47.5q8 66 8 182q0 126 -15 183q-9 36 -41 51q-39 18 -39 46q0 37 49 52q37 11 127 11q36 0 53 -5q21 -6 46 -28zM269 898q19 0 105 -44q18 -9 37 -9
q24 0 72 23q62 30 80 30q14 0 25 -11.5t11 -25.5q0 -29 -78 -86t-110 -57q-37 0 -123 69q-57 46 -57 72q0 39 38 39z" />
    <glyph glyph-name="ncaron" unicode="&#x148;" horiz-adv-x="671" 
d="M610 306l8 -172q1 -22 6 -30.5t29 -33.5q8 -8 8 -22q0 -32 -39 -45t-138 -13q-124 0 -124 52q0 12 23 36q10 10 15 54t5 90q0 75 -21 101q-15 18 -42 18q-34 0 -47 -25q-10 -19 -10 -72v-97q0 -30 3.5 -40.5t23.5 -40.5q6 -9 6 -20q0 -56 -165 -56q-136 0 -136 57
q0 16 25 34q13 9 16 21t6 59q4 66 4 117q0 34 -5 44.5t-30 25.5q-21 13 -21 32t17.5 31.5t70.5 31.5q112 40 150 40q14 0 24 -11t10 -26q0 -3 -1 -12v-7q0 -23 20 -23q11 0 24 18q45 61 122 61q62 0 105 -32q31 -23 43 -54t15 -91zM189 714q22 0 75 -27.5t68 -27.5
q20 0 71 25q60 29 80 29q14 0 25 -11t11 -26q0 -28 -78 -85t-110 -57q-37 0 -123 69q-57 46 -57 72q0 39 38 39z" />
    <glyph glyph-name="napostrophe" unicode="&#x149;" horiz-adv-x="929" 
d="M144 680q48 0 81 -36.5t33 -89.5q0 -123 -113 -230q-30 -28 -56 -28q-17 0 -31 9.5t-14 21.5q0 7 10 17q56 56 56 96q0 15 -17 28q-57 44 -57 100q0 48 31 80t77 32zM868 306l8 -172q1 -22 6 -30.5t29 -33.5q8 -8 8 -22q0 -32 -39 -45t-138 -13q-124 0 -124 52
q0 12 23 36q10 10 15 54t5 90q0 75 -21 101q-15 18 -42 18q-34 0 -47 -25q-10 -19 -10 -72v-97q0 -30 3.5 -40.5t23.5 -40.5q6 -9 6 -20q0 -56 -165 -56q-136 0 -136 57q0 16 25 34q13 9 16 21t6 59q4 66 4 117q0 34 -5 44.5t-30 25.5q-21 13 -21 32t17.5 31.5t70.5 31.5
q112 40 150 40q14 0 24 -11t10 -26q0 -3 -1 -12v-7q0 -23 20 -23q11 0 24 18q45 61 122 61q62 0 105 -32q31 -23 43 -54t15 -91z" />
    <glyph glyph-name="Eng" unicode="&#x14a;" horiz-adv-x="802" 
d="M491 -28v397q0 87 -20 124.5t-67 37.5q-69 0 -83 -59q-6 -24 -6 -96v-126q0 -84 7 -109.5t32 -41.5q20 -13 20 -39q0 -70 -183 -70q-178 0 -178 67q0 18 13 29q6 6 29 18t28 54q7 56 7 154v125q0 46 -5.5 58t-34.5 30q-24 15 -24 38q0 22 18.5 36.5t73.5 35.5
q119 46 155 46q16 0 28.5 -12t12.5 -28q0 -10 -1 -14.5t-1 -10.5q0 -26 34 -26q16 0 32 21q53 70 149 70q72 0 122 -37q67 -50 67 -167v-463q0 -138 -50 -182q-61 -54 -161 -54q-57 0 -94.5 21.5t-37.5 54.5q0 14 10.5 25t24.5 11q7 0 28 -3q3 -1 7 -1q40 0 45 34q3 20 3 52
z" />
    <glyph glyph-name="eng" unicode="&#x14b;" horiz-adv-x="671" 
d="M611 306v-294q0 -120 -44 -158q-54 -47 -140 -47q-50 0 -82.5 19t-32.5 47q0 12 9 21.5t21 9.5q1 0 10 -1t19 -1q29 -1 31 36q3 46 3 195q0 128 -12.5 168t-52.5 40q-34 0 -47 -25q-10 -19 -10 -72v-97q0 -30 3.5 -40.5t23.5 -40.5q6 -9 6 -20q0 -56 -165 -56
q-136 0 -136 57q0 16 25 34q13 9 16 21t6 59q4 66 4 117q0 34 -5 44.5t-30 25.5q-21 13 -21 32t17.5 31.5t70.5 31.5q112 40 150 40q14 0 24 -11t10 -26q0 -3 -1 -12v-7q0 -23 20 -23q12 0 25 18q44 61 122 61q61 0 105 -32q58 -42 58 -145z" />
    <glyph glyph-name="Omacron" unicode="&#x14c;" horiz-adv-x="778" 
d="M394 681q125 0 219 -72q64 -49 103 -127t39 -157q0 -141 -108.5 -239.5t-264.5 -98.5q-153 0 -256 99.5t-103 247.5q0 151 105 249t266 98zM347 541q-35 0 -59 -29.5t-24 -72.5q0 -56 22.5 -128.5t56 -126.5t83.5 -54q37 0 59.5 28t22.5 73q0 60 -19 128.5t-49 116.5
q-41 65 -93 65zM335 858h190q41 0 48 1t13 1q20 0 20 -18q0 -30 -26 -76q-12 -21 -30 -21q-2 0 -35 4q-16 2 -46 2h-161q-51 0 -101 -2q-4 -1 -11 -1q-24 0 -24 18q0 7 11.5 35.5t18.5 40.5q13 21 34 21q5 0 15 -1q38 -4 84 -4z" />
    <glyph glyph-name="omacron" unicode="&#x14d;" horiz-adv-x="602" 
d="M321 486q112 0 188.5 -72t76.5 -176q0 -106 -97 -180q-92 -71 -213 -71q-115 0 -187 65t-72 169q0 114 86.5 189.5t217.5 75.5zM283 373q-48 0 -48 -58q0 -71 37 -168q15 -40 49 -40q44 0 44 55q0 99 -38 177q-16 34 -44 34zM264 658h156q43 0 49 1l13 2q20 0 20 -20
t-27 -68q-12 -21 -29 -21q-2 0 -35 4q-16 2 -46 2h-127q-52 0 -102 -2q-4 -1 -11 -1q-24 0 -24 19q0 17 30 69q12 21 34 21q6 0 15 -1q46 -5 84 -5z" />
    <glyph glyph-name="Ohungarumlaut" unicode="&#x150;" horiz-adv-x="778" 
d="M394 681q125 0 219 -72q64 -49 103 -127t39 -157q0 -141 -108.5 -239.5t-264.5 -98.5q-153 0 -256 99.5t-103 247.5q0 151 105 249t266 98zM347 541q-35 0 -59 -29.5t-24 -72.5q0 -56 22.5 -128.5t56 -126.5t83.5 -54q37 0 59.5 28t22.5 73q0 60 -19 128.5t-49 116.5
q-41 65 -93 65zM308 885q51 0 82.5 -16t31.5 -42q0 -37 -60.5 -72t-124.5 -35q-51 0 -51 38q0 12 7.5 20t39.5 33q10 8 10 20q0 10 -7 20q-2 4 -2 8q0 26 74 26zM563 885q52 0 83.5 -16t31.5 -42q0 -37 -60.5 -72t-124.5 -35q-51 0 -51 38q0 12 7.5 20t39.5 33q10 8 10 20
q0 10 -7 20q-3 3 -3 8q0 26 74 26z" />
    <glyph glyph-name="ohungarumlaut" unicode="&#x151;" horiz-adv-x="602" 
d="M321 486q112 0 188.5 -72t76.5 -176q0 -106 -97 -180q-92 -71 -213 -71q-115 0 -187 65t-72 169q0 114 86.5 189.5t217.5 75.5zM283 373q-48 0 -48 -58q0 -71 37 -168q15 -40 49 -40q44 0 44 55q0 99 -38 177q-16 34 -44 34zM223 698q52 0 83.5 -16t31.5 -42
q0 -39 -76 -75q-65 -31 -122 -31q-38 0 -38 37q0 12 7 19.5t40 33.5q10 8 10 20q0 10 -7 20q-3 3 -3 8q0 26 74 26zM479 698q52 0 83.5 -16t31.5 -42q0 -39 -76 -75q-65 -31 -122 -31q-38 0 -38 37q0 12 7 19.5t40 33.5q10 8 10 20q0 10 -7 20q-3 3 -3 8q0 26 74 26z" />
    <glyph glyph-name="Rcommaaccent" unicode="&#x156;" horiz-adv-x="776" 
d="M339 281q-22 0 -27 -21q-2 -7 -2 -40q0 -65 8 -100q4 -16 26 -28q29 -16 29 -43q0 -32 -40.5 -45.5t-138.5 -13.5q-180 0 -180 68q0 19 30 39t35.5 67.5t5.5 281.5q0 56 -2 71q-7 43 -34 57q-36 18 -36 42q0 37 53 51q20 5 58 5q17 0 80 -5q13 -1 39 -1t117 6q46 3 65 3
q107 0 170.5 -48t63.5 -128q0 -98 -80 -138q-16 -8 -16 -19q0 -12 24 -22q53 -22 76.5 -59.5t32.5 -111.5q4 -33 12.5 -43t38.5 -18q22 -6 22 -33q0 -34 -41.5 -54t-112.5 -20q-95 0 -136 51q-32 40 -62 163q-21 86 -78 86zM310 530l-5 -118q0 -18 5.5 -24t20.5 -6
q82 0 82 93q0 95 -67 95q-34 0 -36 -40zM393 -40q37 0 62.5 -25.5t25.5 -62.5q0 -43 -33 -85.5t-67 -42.5q-30 0 -30 23q0 5 8 13q26 25 26 40q0 9 -11 13q-57 19 -57 63q0 27 22 45.5t54 18.5z" />
    <glyph glyph-name="rcommaaccent" unicode="&#x157;" horiz-adv-x="535" 
d="M247 483q25 0 30.5 -7.5t10.5 -46.5q3 -21 15 -21q10 0 19 14q38 61 102 61q44 0 74 -31t30 -77q0 -48 -34 -82.5t-81 -34.5q-40 0 -86 45q-10 10 -19 10q-17 0 -21 -36q-1 -6 -1 -48q0 -84 8 -106q7 -15 33 -23q44 -13 44 -46t-36 -48.5t-153 -15.5q-172 0 -172 62
q0 26 30 46q22 15 26 37q8 43 8 165q0 38 -24 47q-35 14 -35 40q0 43 104 73q78 23 128 23zM186 -40q36 0 61 -25t25 -61q0 -41 -32.5 -82.5t-64.5 -41.5q-29 0 -29 22q0 5 8 13q24 25 24 39q0 9 -22 16q-43 13 -43 58q0 26 21 44t52 18z" />
    <glyph glyph-name="Rcaron" unicode="&#x158;" horiz-adv-x="776" 
d="M339 281q-22 0 -27 -21q-2 -7 -2 -40q0 -65 8 -100q4 -16 26 -28q29 -16 29 -43q0 -32 -40.5 -45.5t-138.5 -13.5q-180 0 -180 68q0 19 30 39t35.5 67.5t5.5 281.5q0 56 -2 71q-7 43 -34 57q-36 18 -36 42q0 37 53 51q20 5 58 5q17 0 80 -5q13 -1 39 -1t117 6q46 3 65 3
q107 0 170.5 -48t63.5 -128q0 -98 -80 -138q-16 -8 -16 -19q0 -12 24 -22q53 -22 76.5 -59.5t32.5 -111.5q4 -33 12.5 -43t38.5 -18q22 -6 22 -33q0 -34 -41.5 -54t-112.5 -20q-95 0 -136 51q-32 40 -62 163q-21 86 -78 86zM310 530l-5 -118q0 -18 5.5 -24t20.5 -6
q82 0 82 93q0 95 -67 95q-34 0 -36 -40zM202 898q19 0 105 -44q18 -9 37 -9q24 0 72 23q62 30 80 30q14 0 25 -11.5t11 -25.5q0 -29 -78 -86t-110 -57q-37 0 -123 69q-57 46 -57 72q0 39 38 39z" />
    <glyph glyph-name="rcaron" unicode="&#x159;" horiz-adv-x="535" 
d="M247 483q25 0 30.5 -7.5t10.5 -46.5q3 -21 15 -21q10 0 19 14q38 61 102 61q44 0 74 -31t30 -77q0 -48 -34 -82.5t-81 -34.5q-40 0 -86 45q-10 10 -19 10q-17 0 -21 -36q-1 -6 -1 -48q0 -84 8 -106q7 -15 33 -23q44 -13 44 -46t-36 -48.5t-153 -15.5q-172 0 -172 62
q0 26 30 46q22 15 26 37q8 43 8 165q0 38 -24 47q-35 14 -35 40q0 43 104 73q78 23 128 23zM128 714q22 0 75 -27.5t68 -27.5q20 0 71 25q60 29 80 29q14 0 25 -11t11 -26q0 -28 -78 -85t-110 -57q-37 0 -123 69q-57 46 -57 72q0 39 38 39z" />
    <glyph glyph-name="Sacute" unicode="&#x15a;" horiz-adv-x="645" 
d="M314 681q50 0 132 -25q10 -3 16 -3q5 0 29 9q8 3 17 3q32 0 68.5 -52.5t36.5 -98.5q0 -27 -16.5 -46t-39.5 -19q-19 0 -31 8t-54 47q-59 55 -115 55q-60 0 -60 -48q0 -42 75 -64q96 -28 125 -40.5t63 -40.5q65 -53 65 -141q0 -106 -86 -172t-226 -66q-62 0 -131.5 15
t-100.5 35q-23 15 -42 68t-19 102q0 52 40 52q19 0 36 -19q5 -5 48 -68q18 -28 57.5 -46t81.5 -18q36 0 58.5 13.5t22.5 34.5q0 36 -75 60q-119 38 -174 87q-77 69 -77 155q0 92 81 157.5t195 65.5zM387 885q49 0 83 -16t33 -38q-2 -23 -42 -54q-74 -57 -163 -57
q-50 0 -50 36q0 14 8.5 23t46.5 37q12 9 12 18q0 5 -6 15q-2 3 -2 7q0 29 80 29z" />
    <glyph glyph-name="sacute" unicode="&#x15b;" horiz-adv-x="477" 
d="M214 486q23 0 80 -11q10 -2 18 -2q7 0 33 10q14 4 19 4q26 0 56.5 -44t30.5 -83q0 -19 -14 -32t-34 -13q-26 0 -73 45q-31 30 -52 30q-13 0 -23.5 -10t-10.5 -24q0 -22 46 -44q88 -42 125.5 -81.5t37.5 -90.5q0 -65 -53.5 -109t-131.5 -44q-15 0 -100 10q-17 2 -22 2
q-9 0 -15 -2q-15 -2 -21 -2q-22 0 -36 12q-20 18 -37 56.5t-17 66.5q0 45 35 45q18 0 42 -24l34 -36q33 -35 59 -35q36 0 36 31q0 22 -37 40q-79 38 -114 79.5t-35 95.5q0 70 49 115t125 45zM300 698q49 0 83 -16t33 -38q-2 -23 -42 -54q-74 -57 -163 -57q-50 0 -50 36
q0 14 8.5 23t46.5 37q12 9 12 18q0 5 -6 15q-2 3 -2 7q0 29 80 29z" />
    <glyph glyph-name="Scircumflex" unicode="&#x15c;" horiz-adv-x="645" 
d="M314 681q50 0 132 -25q10 -3 16 -3q5 0 29 9q8 3 17 3q32 0 68.5 -52.5t36.5 -98.5q0 -27 -16.5 -46t-39.5 -19q-19 0 -31 8t-54 47q-59 55 -115 55q-60 0 -60 -48q0 -42 75 -64q96 -28 125 -40.5t63 -40.5q65 -53 65 -141q0 -106 -86 -172t-226 -66q-62 0 -131.5 15
t-100.5 35q-23 15 -42 68t-19 102q0 52 40 52q19 0 36 -19q5 -5 48 -68q18 -28 57.5 -46t81.5 -18q36 0 58.5 13.5t22.5 34.5q0 36 -75 60q-119 38 -174 87q-77 69 -77 155q0 92 81 157.5t195 65.5zM333 898q37 0 127 -70q60 -47 60 -72q0 -15 -11 -26t-25 -11q-18 0 -80 29
q-49 23 -72 23q-19 0 -69 -26.5t-73 -26.5q-38 0 -38 39q0 29 74 85t107 56z" />
    <glyph glyph-name="scircumflex" unicode="&#x15d;" horiz-adv-x="477" 
d="M214 486q23 0 80 -11q10 -2 18 -2q7 0 33 10q14 4 19 4q26 0 56.5 -44t30.5 -83q0 -19 -14 -32t-34 -13q-26 0 -73 45q-31 30 -52 30q-13 0 -23.5 -10t-10.5 -24q0 -22 46 -44q88 -42 125.5 -81.5t37.5 -90.5q0 -65 -53.5 -109t-131.5 -44q-15 0 -100 10q-17 2 -22 2
q-9 0 -15 -2q-15 -2 -21 -2q-22 0 -36 12q-20 18 -37 56.5t-17 66.5q0 45 35 45q18 0 42 -24l34 -36q33 -35 59 -35q36 0 36 31q0 22 -37 40q-79 38 -114 79.5t-35 95.5q0 70 49 115t125 45zM247 714q37 0 127 -71q60 -47 60 -72q0 -14 -11 -25.5t-25 -11.5q-18 0 -80 30
q-52 25 -71 25q-16 0 -69 -28t-74 -28q-38 0 -38 39q0 30 74.5 86t106.5 56z" />
    <glyph glyph-name="Tcaron" unicode="&#x164;" horiz-adv-x="701" 
d="M228 667h257q38 0 76 11q14 4 26 4q39 0 76.5 -59t37.5 -121q0 -76 -73 -76q-48 0 -82 62q-27 49 -48 49q-34 0 -34 -65v-273q0 -37 6 -54q9 -25 36 -37q45 -19 45 -50q0 -68 -194 -68q-228 0 -228 74q0 12 7 21t45 21q19 6 25.5 21t11.5 58q11 104 11 262q0 90 -29 90
q-19 0 -37 -27q-33 -48 -55 -66.5t-48 -18.5t-43 20t-17 51q0 60 41.5 121.5t81.5 61.5q9 0 23 -3q43 -9 82 -9zM204 898q19 0 105 -44q18 -9 37 -9q24 0 72 23q62 30 80 30q14 0 25 -11.5t11 -25.5q0 -29 -78 -86t-110 -57q-37 0 -123 69q-57 46 -57 72q0 39 38 39z" />
    <glyph glyph-name="tcaron" unicode="&#x165;" horiz-adv-x="463" 
d="M309 359v-165q0 -29 14.5 -48t36.5 -19q19 0 50 18q10 4 15 4q11 0 21 -14.5t10 -30.5q0 -44 -63 -80.5t-138 -36.5q-78 0 -125.5 44t-47.5 117v225q0 16 -17 16h-50q-15 0 -18.5 5t-3.5 21v22q0 15 11 22l225 141q6 4 20 4h40q20 0 20 -28v-66q0 -16 7 -20q4 -3 17 -3
h90q21 0 25 -8.5t4 -26.5v-29q0 -33 -15 -38q-6 -3 -17 -3h-88q-23 0 -23 -23zM72 824q21 0 105 -44q19 -10 37 -10q24 0 72 23q62 30 80 30q14 0 25 -11.5t11 -25.5q0 -29 -78 -86t-110 -57q-37 0 -123 69q-57 46 -57 73q0 39 38 39z" />
    <glyph glyph-name="Tbar" unicode="&#x166;" horiz-adv-x="701" 
d="M559 291h-71q-17 0 -20.5 -3.5t-3.5 -20.5v-68q0 -37 6 -54q9 -25 36 -37q45 -19 45 -50q0 -68 -194 -68q-228 0 -228 74q0 12 7 21t46 21q22 6 29 26t12 85q0 11 2 34q1 9 1 16q0 16 -6 20t-29 4h-56q-36 0 -36 36q0 37 38 37h58q24 0 29 6.5t5 88.5q0 78 -29 78
q-19 0 -37 -27q-57 -85 -102 -85q-27 0 -44 20t-17 51q0 60 41.5 121.5t81.5 61.5q9 0 23 -3q43 -9 82 -9h257q38 0 76 11q14 4 26 4q39 0 76.5 -59t37.5 -121q0 -76 -73 -76q-48 0 -82 62q-27 49 -48 49q-34 0 -34 -65v-80q0 -20 3.5 -24t23.5 -4h72q38 0 38 -36
q0 -37 -42 -37z" />
    <glyph glyph-name="tbar" unicode="&#x167;" horiz-adv-x="463" 
d="M420 390h-89q-23 0 -23 -23v-33q0 -20 4 -23.5t25 -3.5h69q18 0 22 -5q9 -9 9 -24v-13q0 -35 -34 -35h-67q-20 0 -24 -3t-4 -20v-13q0 -30 14.5 -48.5t37.5 -18.5q18 0 50 18q10 4 15 4q11 0 21 -14.5t10 -30.5q0 -43 -63.5 -80t-137.5 -37q-78 0 -125.5 44t-47.5 117v43
q0 28 -4 33.5t-24 5.5h-19q-32 0 -32 35v11q0 31 29 31h20q22 0 26 4.5t4 26.5v35q0 17 -17 17h-49q-16 0 -19.5 6t-3.5 20v22q0 13 12 21l221 140q8 5 22 5h40q20 0 20 -28v-76q0 -16 7 -20q4 -3 17 -3h91q21 0 25 -8.5t4 -25.5v-11q0 -42 -32 -42z" />
    <glyph glyph-name="utilde" unicode="&#x169;" horiz-adv-x="678" 
d="M286 459v-265q0 -86 56 -86q34 0 47 28q11 24 11 105q0 79 -5 109q-3 19 -26 31q-28 15 -28 38q0 22 31 36q22 10 85.5 19t111.5 9q51 0 49 -52l-1 -22l-1 -58v-215q0 -16 28 -30q24 -12 24 -34q0 -44 -104 -68q-60 -14 -118 -14q-40 0 -42 26q-3 31 -19 31q-7 0 -40 -23
q-48 -34 -107 -34q-93 0 -131 54q-33 46 -33 153q0 18 1 40v28v23q0 74 -36 93q-29 15 -29 33q0 27 36 42q25 10 92 18.5t120 8.5q28 0 28 -24zM249 589v-14q0 -38 -48 -38q-24 0 -39.5 16.5t-15.5 41.5q0 43 26.5 71t67.5 28q26 0 47 -7t79 -36q28 -14 42 -14q12 0 15 19
q2 11 8 27q13 14 39 14q63 0 63 -64q0 -43 -24.5 -68.5t-65.5 -25.5q-31 0 -87 24l-47 20q-45 19 -49 19q-11 0 -11 -13z" />
    <glyph glyph-name="Umacron" unicode="&#x16a;" horiz-adv-x="820" 
d="M735 423v-120q0 -104 -16.5 -153.5t-65.5 -89.5q-90 -73 -247 -73t-251 75q-46 36 -63.5 85t-17.5 140q0 8 1 50q1 49 1 67l1 76q0 36 -3 49q-6 21 -29 36q-32 21 -32 48q0 31 40 47.5t147 16.5q82 0 133.5 -12t51.5 -53q0 -20 -15 -33l-30 -15q-19 -10 -24 -37
q-2 -11 -2 -47q0 -30 -1 -69l-3 -116q-2 -76 37 -120t109 -44q83 0 119 54q23 35 23 106v108q0 117 -6 143q-5 22 -33 35q-43 21 -43 45q0 55 147 55q143 0 143 -55q0 -14 -6 -20.5t-30.5 -21t-30.5 -33.5q-3 -9 -3 -44zM375 858h190q42 0 49 1t13 1q20 0 20 -18
q0 -29 -27 -76q-12 -21 -29 -21q-2 0 -35 4q-16 2 -46 2h-161q-52 0 -102 -2q-4 -1 -11 -1q-24 0 -24 18q0 7 11 35.5t19 40.5q13 21 34 21q9 0 15 -1q64 -4 84 -4z" />
    <glyph glyph-name="umacron" unicode="&#x16b;" horiz-adv-x="678" 
d="M286 459v-265q0 -86 56 -86q34 0 47 28q11 24 11 105q0 79 -5 109q-3 19 -26 31q-28 15 -28 38q0 22 31 36q22 10 85.5 19t111.5 9q51 0 49 -52l-1 -22l-1 -58v-215q0 -16 28 -30q24 -12 24 -34q0 -44 -104 -68q-60 -14 -118 -14q-40 0 -42 26q-3 31 -19 31q-7 0 -40 -23
q-48 -34 -107 -34q-93 0 -131 54q-33 46 -33 153q0 18 1 40v28v23q0 74 -36 93q-29 15 -29 33q0 27 36 42q25 10 92 18.5t120 8.5q28 0 28 -24zM302 658h156q42 0 49 1q14 2 13 2q20 0 20 -20t-27 -68q-12 -21 -29 -21q-2 0 -35 4q-16 2 -47 2h-127q-52 0 -102 -2
q-4 -1 -11 -1q-24 0 -24 19t30 69q13 21 34 21q6 0 15 -1q46 -5 85 -5z" />
    <glyph glyph-name="ubreve" unicode="&#x16d;" horiz-adv-x="678" 
d="M286 459v-265q0 -86 56 -86q34 0 47 28q11 24 11 105q0 79 -5 109q-3 19 -26 31q-28 15 -28 38q0 22 31 36q22 10 85.5 19t111.5 9q51 0 49 -52l-1 -22l-1 -58v-215q0 -16 28 -30q24 -12 24 -34q0 -44 -104 -68q-60 -14 -118 -14q-40 0 -42 26q-3 31 -19 31q-7 0 -40 -23
q-48 -34 -107 -34q-93 0 -131 54q-33 46 -33 153q0 18 1 40v28v23q0 74 -36 93q-29 15 -29 33q0 27 36 42q25 10 92 18.5t120 8.5q28 0 28 -24zM169 719q11 0 45 -29q48 -40 117 -40q57 0 112 25q18 8 24.5 13t29.5 27q6 4 12 4q26 0 26 -20q0 -22 -30 -68q-62 -94 -170 -94
q-99 0 -166 101q-24 37 -26 58q-2 23 26 23z" />
    <glyph glyph-name="Uring" unicode="&#x16e;" horiz-adv-x="820" 
d="M735 423v-120q0 -104 -16.5 -153.5t-65.5 -89.5q-90 -73 -247 -73t-251 75q-46 36 -63.5 85t-17.5 140q0 8 1 50q1 49 1 67l1 76q0 36 -3 49q-6 21 -29 36q-32 21 -32 48q0 31 40 47.5t147 16.5q82 0 133.5 -12t51.5 -53q0 -20 -15 -33l-30 -15q-19 -10 -24 -37
q-2 -11 -2 -47q0 -30 -1 -69l-3 -116q-2 -76 37 -120t109 -44q83 0 119 54q23 35 23 106v108q0 117 -6 143q-5 22 -33 35q-43 21 -43 45q0 55 147 55q143 0 143 -55q0 -14 -6 -20.5t-30.5 -21t-30.5 -33.5q-3 -9 -3 -44zM428 918q70 0 109 -25.5t39 -71.5q0 -48 -38 -74.5
t-107 -26.5q-148 0 -148 97q0 48 38.5 74.5t106.5 26.5zM430 873q-49 0 -49 -56q0 -23 13 -38t34 -15q50 0 50 56q0 53 -48 53z" />
    <glyph glyph-name="uring" unicode="&#x16f;" horiz-adv-x="678" 
d="M286 459v-265q0 -86 56 -86q34 0 47 28q11 24 11 105q0 79 -5 109q-3 19 -26 31q-28 15 -28 38q0 22 31 36q22 10 85.5 19t111.5 9q51 0 49 -52l-1 -22l-1 -58v-215q0 -16 28 -30q24 -12 24 -34q0 -44 -104 -68q-60 -14 -118 -14q-40 0 -42 26q-3 31 -19 31q-7 0 -40 -23
q-48 -34 -107 -34q-93 0 -131 54q-33 46 -33 153q0 18 1 40v28v23q0 74 -36 93q-29 15 -29 33q0 27 36 42q25 10 92 18.5t120 8.5q28 0 28 -24zM341 732q69 0 108 -25.5t39 -71.5q0 -48 -38 -74.5t-107 -26.5q-147 0 -147 97q0 48 38 74.5t107 26.5zM342 687q-48 0 -48 -56
q0 -23 13 -38t33 -15q22 0 36 15.5t14 40.5q0 53 -48 53z" />
    <glyph glyph-name="Uhungarumlaut" unicode="&#x170;" horiz-adv-x="820" 
d="M735 423v-120q0 -104 -16.5 -153.5t-65.5 -89.5q-90 -73 -247 -73t-251 75q-46 36 -63.5 85t-17.5 140q0 8 1 50q1 49 1 67l1 76q0 36 -3 49q-6 21 -29 36q-32 21 -32 48q0 31 40 47.5t147 16.5q82 0 133.5 -12t51.5 -53q0 -20 -15 -33l-30 -15q-19 -10 -24 -37
q-2 -11 -2 -47q0 -30 -1 -69l-3 -116q-2 -76 37 -120t109 -44q83 0 119 54q23 35 23 106v108q0 117 -6 143q-5 22 -33 35q-43 21 -43 45q0 55 147 55q143 0 143 -55q0 -14 -6 -20.5t-30.5 -21t-30.5 -33.5q-3 -9 -3 -44zM362 885q51 0 82.5 -16t31.5 -42q0 -37 -60.5 -72
t-124.5 -35q-51 0 -51 38q0 12 7.5 20t39.5 33q10 8 10 20q0 10 -7 20q-2 4 -2 8q0 26 74 26zM617 885q52 0 83.5 -16t31.5 -42q0 -37 -60.5 -72t-124.5 -35q-51 0 -51 38q0 12 7.5 20t39.5 33q10 8 10 20q0 10 -7 20q-3 3 -3 8q0 26 74 26z" />
    <glyph glyph-name="uhungarumlaut" unicode="&#x171;" horiz-adv-x="678" 
d="M286 459v-265q0 -86 56 -86q34 0 47 28q11 24 11 105q0 79 -5 109q-3 19 -26 31q-28 15 -28 38q0 22 31 36q22 10 85.5 19t111.5 9q51 0 49 -52l-1 -22l-1 -58v-215q0 -16 28 -30q24 -12 24 -34q0 -44 -104 -68q-60 -14 -118 -14q-40 0 -42 26q-3 31 -19 31q-7 0 -40 -23
q-48 -34 -107 -34q-93 0 -131 54q-33 46 -33 153q0 18 1 40v28v23q0 74 -36 93q-29 15 -29 33q0 27 36 42q25 10 92 18.5t120 8.5q28 0 28 -24zM248 698q51 0 82.5 -16t31.5 -42q0 -39 -76 -75q-65 -31 -122 -31q-38 0 -38 37q0 12 7 19.5t40 33.5q10 8 10 20q0 10 -7 20
q-2 4 -2 8q0 26 74 26zM504 698q51 0 82.5 -16t31.5 -42q0 -39 -76 -75q-65 -31 -122 -31q-38 0 -38 37q0 12 7 19.5t40 33.5q10 8 10 20q0 10 -7 20q-2 4 -2 8q0 26 74 26z" />
    <glyph glyph-name="Uogonek" unicode="&#x172;" horiz-adv-x="820" 
d="M735 423v-120q0 -105 -17 -154t-66 -89q-37 -29 -83 -46q-8 -4 -18 -11q-40 -29 -40 -69q0 -16 14 -28t33 -12q16 0 52 16q7 3 13 3q19 0 19 -28q0 -66 -123 -66q-84 0 -121 43q-17 20 -17 42q0 39 59 84q-26 -1 -39 -1q-151 0 -246 75q-46 36 -63.5 85t-17.5 140
q0 8 1 50q1 49 1 67l1 76q0 36 -3 49q-6 21 -29 36q-32 21 -32 48q0 31 40 47.5t147 16.5q82 0 133.5 -12t51.5 -53q0 -20 -15 -33l-30 -15q-19 -10 -24 -37q-2 -11 -2 -47q0 -30 -1 -69l-3 -116q-2 -76 37 -120t109 -44q83 0 119 54q23 35 23 106v108q0 117 -6 143
q-5 22 -33 35q-43 21 -43 45q0 55 147 55q143 0 143 -55q0 -14 -6 -20.5t-31.5 -21.5t-29.5 -34.5t-4 -122.5z" />
    <glyph glyph-name="uogonek" unicode="&#x173;" horiz-adv-x="678" 
d="M616 351v-215q0 -16 28 -30q24 -12 24 -34q0 -64 -186 -80q-34 -22 -34 -55q0 -15 13 -26.5t30 -11.5q14 0 47 15q5 3 11 3q17 0 17 -27q0 -62 -110 -62q-56 0 -90.5 22.5t-34.5 58.5q0 35 66 81l13 9q-5 5 -6 17q-3 31 -19 31q-7 0 -40 -23q-48 -34 -107 -34
q-93 0 -131 54q-33 46 -33 153q0 18 1 40v28v23q0 74 -36 93q-29 15 -29 33q0 27 36 42q25 10 92 18.5t120 8.5q28 0 28 -24v-265q0 -86 56 -86q34 0 47 28q11 24 11 105q0 79 -5 109q-3 19 -26 31q-28 15 -28 38q0 22 31 36q22 10 85.5 19t111.5 9q51 0 49 -52l-1 -22
q-1 -22 -1 -58z" />
    <glyph glyph-name="Wcircumflex" unicode="&#x174;" horiz-adv-x="1040" 
d="M453 493l-14 35q-11 28 -32 39q-35 19 -35 48q0 62 188 62q93 0 142 -15q36 -11 36 -43q0 -18 -30 -44q-12 -10 -12 -21q0 -18 18 -57l28 -60q29 -62 46 -62t39 62l24 69q10 29 10 44q0 19 -21 26q-41 13 -41 46q0 55 136 55q46 0 74 -11q37 -14 37 -47q0 -23 -33 -51
q-21 -18 -43 -76l-85 -228q-70 -188 -104 -243q-20 -32 -59 -32q-54 0 -77 55l-97 230q-12 29 -23 29q-10 0 -17 -12t-28 -64l-67 -165q-18 -45 -35 -59.5t-51 -14.5q-55 0 -81 67l-180 459q-10 26 -11 27q-5 9 -20 18l-10 6q-25 15 -25 44q0 68 171 68q91 0 127.5 -13.5
t36.5 -47.5q0 -15 -16 -39q-6 -9 -6 -23q0 -24 33 -102l20 -47q17 -41 28 -41q20 0 40 55l20 55q2 8 2 9q0 2 -3 10zM557 898q37 0 127 -70q60 -47 60 -72q0 -15 -11 -26t-25 -11q-18 0 -80 29q-49 23 -72 23q-19 0 -69 -26.5t-73 -26.5q-38 0 -38 39q0 29 74 85t107 56z
" />
    <glyph glyph-name="Ycircumflex" unicode="&#x176;" horiz-adv-x="780" 
d="M213 677q109 0 153.5 -13t44.5 -44q0 -13 -11 -26q-16 -19 -16 -29q0 -17 28 -56q18 -25 34 -25q18 0 46 35q19 24 19 38q0 12 -18 34q-10 10 -10 30q0 56 152 56q98 0 119 -13q26 -16 26 -43q0 -36 -55 -46q-27 -5 -47 -20.5t-76 -75.5q-63 -67 -77 -94
q-23 -41 -23 -113q0 -59 4 -105q3 -30 10 -41.5t28 -22.5q36 -18 36 -47q0 -66 -196 -66q-120 0 -179 24q-34 14 -34 43q0 30 37 44q27 10 35 25q15 35 15 159q0 40 -8 61.5t-34 55.5q-56 73 -114 130q-27 26 -48 34q-32 12 -38 16q-16 11 -16 34q0 61 213 61zM414 898
q36 0 126 -70q60 -47 60 -72q0 -15 -10.5 -26t-24.5 -11q-20 0 -81 29q-48 23 -71 23q-21 0 -70 -26.5t-72 -26.5q-38 0 -38 39q0 29 73.5 85t107.5 56z" />
    <glyph glyph-name="ycircumflex" unicode="&#x177;" horiz-adv-x="619" 
d="M484 246l-65 -177q-45 -123 -103 -179q-63 -61 -152 -61q-66 0 -109 32t-43 81q0 37 24.5 63t59.5 26q34 0 56 -24q14 -16 24 -55q5 -22 24 -22q15 0 25.5 13.5t10.5 32.5q0 21 -26 77l-117 250q-20 43 -32 53q-4 6 -14 10l-23 10q-24 10 -24 38q0 36 49 50q65 19 168 19
q122 0 122 -58q0 -12 -11 -28.5t-11 -28.5q0 -24 22.5 -63t36.5 -39q15 0 31.5 30t16.5 58q0 21 -12 36q-18 22 -18 38q0 25 33.5 40t88.5 15q103 0 103 -51q0 -30 -49 -49q-23 -6 -41 -34.5t-45 -102.5zM320 714q37 0 127 -71q60 -47 60 -72q0 -14 -11 -25.5t-25 -11.5
q-18 0 -80 30q-52 25 -71 25q-16 0 -69 -28t-74 -28q-38 0 -38 39q0 30 74.5 86t106.5 56z" />
    <glyph glyph-name="Zacute" unicode="&#x179;" horiz-adv-x="686" 
d="M613 590l-216 -373q-37 -64 -37 -76q0 -22 66 -22q64 0 92 19q23 15 49 71q17 36 44 36q69 0 69 -77q0 -48 -24 -106q-30 -71 -72 -71q-8 0 -20 2q-41 7 -67 7h-424q-37 0 -44 5q-13 10 -13 31q0 12 15 38l251 427q11 19 11 27q0 27 -56 27q-48 0 -69 -15.5t-48 -70.5
q-21 -43 -47 -43t-46 24t-20 55q0 44 33 106.5t56 62.5q4 0 13 -3q29 -10 128 -10q42 0 301 15q35 2 45 2q47 0 47 -44q0 -15 -17 -44zM427 885q49 0 83 -16t33 -38q-2 -23 -42 -54q-74 -57 -163 -57q-50 0 -50 36q0 14 8.5 23t46.5 37q12 9 12 18q0 5 -6 15q-2 3 -2 7
q0 29 80 29z" />
    <glyph glyph-name="zacute" unicode="&#x17a;" horiz-adv-x="514" 
d="M268 473h130q66 0 75 -9t9 -23q0 -17 -16 -46l-129 -230q-16 -29 -16 -40q0 -23 34 -23q45 0 68 45q19 37 37 37q21 0 34.5 -17t13.5 -44q0 -44 -32.5 -91t-62.5 -47q-3 0 -19 4q-27 11 -56 11h-256q-65 0 -65 37q0 14 39 76l114 183q29 46 29 60q0 19 -41 19
q-36 0 -60 -38q-26 -41 -47 -41q-19 0 -31.5 15t-12.5 38q0 44 29 93t55 49q7 0 16 -3q14 -5 57 -12q40 -3 104 -3zM349 698q49 0 83 -16t33 -38q-2 -23 -42 -54q-74 -57 -163 -57q-50 0 -50 36q0 14 8.5 23t46.5 37q12 9 12 18q0 5 -6 15q-2 3 -2 7q0 29 80 29z" />
    <glyph glyph-name="Zdotaccent" unicode="&#x17b;" horiz-adv-x="686" 
d="M613 590l-216 -373q-37 -64 -37 -76q0 -22 66 -22q64 0 92 19q23 15 49 71q17 36 44 36q69 0 69 -77q0 -48 -24 -106q-30 -71 -72 -71q-8 0 -20 2q-41 7 -67 7h-424q-37 0 -44 5q-13 10 -13 31q0 12 15 38l251 427q11 19 11 27q0 27 -56 27q-48 0 -69 -15.5t-48 -70.5
q-21 -43 -47 -43t-46 24t-20 55q0 44 33 106.5t56 62.5q4 0 13 -3q29 -10 128 -10q42 0 301 15q35 2 45 2q47 0 47 -44q0 -15 -17 -44zM385 883q99 0 99 -60q0 -37 -44 -57q-66 -30 -138 -30q-42 0 -67.5 16.5t-25.5 42.5q0 34 39 55q61 33 137 33z" />
    <glyph glyph-name="zdotaccent" unicode="&#x17c;" horiz-adv-x="514" 
d="M268 473h130q66 0 75 -9t9 -23q0 -17 -16 -46l-129 -230q-16 -29 -16 -40q0 -23 34 -23q45 0 68 45q19 37 37 37q21 0 34.5 -17t13.5 -44q0 -44 -32.5 -91t-62.5 -47q-3 0 -19 4q-27 11 -56 11h-256q-65 0 -65 37q0 14 39 76l114 183q29 46 29 60q0 19 -41 19
q-36 0 -60 -38q-26 -41 -47 -41q-19 0 -31.5 15t-12.5 38q0 44 29 93t55 49q7 0 16 -3q14 -5 57 -12q40 -3 104 -3zM299 686q103 0 103 -60q0 -35 -45 -58.5t-113 -23.5q-41 0 -66 17t-25 45q0 37 39 58.5t107 21.5z" />
    <glyph glyph-name="Acaron" unicode="&#x1cd;" horiz-adv-x="827" 
d="M650 338l93 -198q13 -28 22 -37t27 -11q35 -5 35 -35q0 -67 -183 -67q-160 0 -192 19q-26 15 -26 40t36 38q23 8 23 27q0 32 -41 38t-118 6q-65 0 -78 -8q-20 -12 -20 -42q0 -10 4.5 -13.5t27.5 -10.5q30 -9 30 -36q0 -58 -141 -58q-76 0 -115 11q-34 9 -34 45
q0 28 35 39q31 10 47 29.5t47 88.5l69 151q34 75 43 100q21 57 22 105q1 44 5 60t20 31q35 34 86 34q76 0 131 -78q57 -81 145 -268zM310 276h96q26 0 26 11q0 14 -25.5 61.5t-38.5 60.5q-8 7 -17 7q-16 0 -29 -33q-34 -85 -34 -95q0 -12 22 -12zM237 898q19 0 105 -44
q18 -9 37 -9q24 0 72 23q62 30 80 30q14 0 25 -11.5t11 -25.5q0 -29 -78 -86t-110 -57q-37 0 -123 69q-57 46 -57 72q0 39 38 39z" />
    <glyph glyph-name="acaron" unicode="&#x1ce;" horiz-adv-x="567" 
d="M497 309l-1 -71q-1 -85 17 -108q5 -6 25 -10q15 -3 15 -20q0 -41 -45.5 -77t-98.5 -36q-51 0 -81 35q-11 13 -19 13q-9 0 -26 -12q-50 -36 -110 -36q-65 0 -104 27q-56 39 -56 108q0 94 119 136q43 15 113 16q29 0 36 5.5t7 25.5q0 98 -46 98q-25 0 -54 -41
q-44 -61 -91 -61q-24 0 -39 14t-15 37q0 50 79.5 92t174.5 42q85 0 144 -43q32 -23 44.5 -52.5t11.5 -81.5zM264 204q-21 0 -37 -17.5t-16 -41.5q0 -53 41 -53q39 0 39 66q0 46 -27 46zM137 714q22 0 75 -27.5t68 -27.5q20 0 71 25q60 29 80 29q14 0 25 -11t11 -26
q0 -28 -78 -85t-110 -57q-37 0 -123 69q-57 46 -57 72q0 39 38 39z" />
    <glyph glyph-name="Ucaron" unicode="&#x1d3;" horiz-adv-x="820" 
d="M735 423v-120q0 -104 -16.5 -153.5t-65.5 -89.5q-90 -73 -247 -73t-251 75q-46 36 -63.5 85t-17.5 140q0 8 1 50q1 49 1 67l1 76q0 36 -3 49q-6 21 -29 36q-32 21 -32 48q0 31 40 47.5t147 16.5q82 0 133.5 -12t51.5 -53q0 -20 -15 -33l-30 -15q-19 -10 -24 -37
q-2 -11 -2 -47q0 -30 -1 -69l-3 -116q-2 -76 37 -120t109 -44q83 0 119 54q23 35 23 106v108q0 117 -6 143q-5 22 -33 35q-43 21 -43 45q0 55 147 55q143 0 143 -55q0 -14 -6 -20.5t-30.5 -21t-30.5 -33.5q-3 -9 -3 -44zM284 898q19 0 105 -44q18 -9 37 -9q23 0 71 23
q62 30 81 30q13 0 24 -11.5t11 -25.5q0 -29 -78 -86t-109 -57q-38 0 -123 69q-57 46 -57 72q0 39 38 39z" />
    <glyph glyph-name="ucaron" unicode="&#x1d4;" horiz-adv-x="678" 
d="M286 459v-265q0 -86 56 -86q34 0 47 28q11 24 11 105q0 79 -5 109q-3 19 -26 31q-28 15 -28 38q0 22 31 36q22 10 85.5 19t111.5 9q51 0 49 -52l-1 -22l-1 -58v-215q0 -16 28 -30q24 -12 24 -34q0 -44 -104 -68q-60 -14 -118 -14q-40 0 -42 26q-3 31 -19 31q-7 0 -40 -23
q-48 -34 -107 -34q-93 0 -131 54q-33 46 -33 153q0 18 1 40v28v23q0 74 -36 93q-29 15 -29 33q0 27 36 42q25 10 92 18.5t120 8.5q28 0 28 -24zM193 714q22 0 75 -27.5t68 -27.5q20 0 71 25q60 29 80 29q14 0 25 -11t11 -26q0 -28 -78 -85t-110 -57q-37 0 -123 69
q-57 46 -57 72q0 39 38 39z" />
    <glyph glyph-name="Gcaron" unicode="&#x1e6;" horiz-adv-x="794" 
d="M395 681q62 0 120 -18q26 -8 35 -8q10 0 41 11q9 3 21 3q33 0 62.5 -46.5t29.5 -98.5q0 -42 -21.5 -68t-55.5 -26q-29 0 -56 21q-7 4 -40 45q-54 66 -124 66q-63 0 -100.5 -46.5t-37.5 -125.5q0 -108 51.5 -186t123.5 -78q25 0 41.5 17t16.5 43q0 23 -13 34q-7 5 -39 5
q-21 0 -34.5 13.5t-13.5 34.5q0 31 36 49q53 26 154 26q82 0 139 -17q53 -16 53 -60q0 -40 -44 -46q-17 -2 -22 -7t-11 -26q-28 -95 -110 -150t-198 -55q-161 0 -268.5 101t-107.5 252q0 134 97 232q108 109 275 109zM271 898q19 0 105 -44q18 -9 37 -9q24 0 72 23
q62 30 80 30q14 0 25 -11.5t11 -25.5q0 -29 -78 -86t-110 -57q-37 0 -123 69q-57 46 -57 72q0 39 38 39z" />
    <glyph glyph-name="gcaron" unicode="&#x1e7;" horiz-adv-x="578" 
d="M537 513q12 0 21.5 -14.5t9.5 -32.5q0 -47 -42 -85q-11 -10 -11 -16q0 -2 1 -11t1 -20q0 -74 -70.5 -122.5t-179.5 -48.5q-24 0 -33 1.5t-20 1.5q-26 0 -26 -26q0 -35 60 -35q24 0 60 5q79 11 120 11q56 0 88 -19q55 -33 55 -97q0 -79 -76 -134q-88 -64 -238 -64
q-111 0 -177.5 34.5t-66.5 92.5q0 42 37 58q15 7 15 12q0 6 -12 16q-40 33 -40 68q0 23 18.5 47.5t47.5 39.5q12 6 12 11q0 7 -15 21q-50 47 -50 109q0 69 68 113q79 51 173 51q37 0 118 -15q16 -3 28 -3q53 0 106 42q11 9 18 9zM273 411q-25 0 -40 -18.5t-15 -48.5
q0 -53 16 -84.5t43 -31.5q56 0 56 73q0 110 -60 110zM166 -33q-12 0 -12 -14q0 -28 31 -46t81 -18q102 0 102 48q0 29 -36 29q-5 0 -22 -2q-35 -4 -61 -4q-46 0 -76 6q-3 1 -7 1zM143 714q22 0 75 -27.5t68 -27.5q20 0 71 25q60 29 80 29q14 0 25 -11t11 -26q0 -28 -78 -85
t-110 -57q-37 0 -123 69q-57 46 -57 72q0 39 38 39z" />
    <glyph glyph-name="Gacute" unicode="&#x1f4;" horiz-adv-x="794" 
d="M395 681q62 0 120 -18q26 -8 35 -8q10 0 41 11q9 3 21 3q33 0 62.5 -46.5t29.5 -98.5q0 -42 -21.5 -68t-55.5 -26q-29 0 -56 21q-7 4 -40 45q-54 66 -124 66q-63 0 -100.5 -46.5t-37.5 -125.5q0 -108 51.5 -186t123.5 -78q25 0 41.5 17t16.5 43q0 23 -13 34q-7 5 -39 5
q-21 0 -34.5 13.5t-13.5 34.5q0 31 36 49q53 26 154 26q82 0 139 -17q53 -16 53 -60q0 -40 -44 -46q-17 -2 -22 -7t-11 -26q-28 -95 -110 -150t-198 -55q-161 0 -268.5 101t-107.5 252q0 134 97 232q108 109 275 109zM458 885q49 0 83 -16t33 -38q-2 -23 -42 -54
q-74 -57 -163 -57q-50 0 -50 36q0 14 8.5 23t46.5 37q12 9 12 18q0 5 -6 15q-2 3 -2 7q0 29 80 29z" />
    <glyph glyph-name="Scommaaccent" unicode="&#x218;" horiz-adv-x="645" 
d="M314 681q50 0 132 -25q10 -3 16 -3q5 0 29 9q8 3 17 3q32 0 68.5 -52.5t36.5 -98.5q0 -27 -16.5 -46t-39.5 -19q-19 0 -31 8t-54 47q-59 55 -115 55q-60 0 -60 -48q0 -42 75 -64q96 -28 125 -40.5t63 -40.5q65 -53 65 -141q0 -106 -86 -172t-226 -66q-62 0 -131.5 15
t-100.5 35q-23 15 -42 68t-19 102q0 52 40 52q19 0 36 -19q5 -5 48 -68q18 -28 57.5 -46t81.5 -18q36 0 58.5 13.5t22.5 34.5q0 36 -75 60q-119 38 -174 87q-77 69 -77 155q0 92 81 157.5t195 65.5zM315 -40q37 0 62.5 -25.5t25.5 -62.5q0 -43 -33 -85.5t-67 -42.5
q-30 0 -30 23q0 5 8 13q25 26 25 40q0 10 -23 17q-44 14 -44 59q0 27 22 45.5t54 18.5z" />
    <glyph glyph-name="scommaaccent" unicode="&#x219;" horiz-adv-x="477" 
d="M214 486q23 0 80 -11q10 -2 18 -2q7 0 33 10q14 4 19 4q26 0 56.5 -44t30.5 -83q0 -19 -14 -32t-34 -13q-26 0 -73 45q-31 30 -52 30q-13 0 -23.5 -10t-10.5 -24q0 -22 46 -44q88 -42 125.5 -81.5t37.5 -90.5q0 -65 -53.5 -109t-131.5 -44q-15 0 -100 10q-17 2 -22 2
q-9 0 -15 -2q-15 -2 -21 -2q-22 0 -36 12q-20 18 -37 56.5t-17 66.5q0 45 35 45q18 0 42 -24l34 -36q33 -35 59 -35q36 0 36 31q0 22 -37 40q-79 38 -114 79.5t-35 95.5q0 70 49 115t125 45zM238 -40q36 0 61 -25t25 -61q0 -41 -32.5 -82.5t-64.5 -41.5q-29 0 -29 22
q0 5 8 13q25 25 25 39q0 9 -11 12q-55 17 -55 62q0 26 21 44t52 18z" />
    <glyph glyph-name="Tcommaaccent" unicode="&#x162;" horiz-adv-x="701" 
d="M228 667h257q38 0 76 11q14 4 26 4q39 0 76.5 -59t37.5 -121q0 -76 -73 -76q-48 0 -82 62q-27 49 -48 49q-34 0 -34 -65v-273q0 -37 6 -54q9 -25 36 -37q45 -19 45 -50q0 -68 -194 -68q-228 0 -228 74q0 12 7 21t45 21q19 6 25.5 21t11.5 58q11 104 11 262q0 90 -29 90
q-19 0 -37 -27q-33 -48 -55 -66.5t-48 -18.5t-43 20t-17 51q0 60 41.5 121.5t81.5 61.5q9 0 23 -3q43 -9 82 -9zM336 -40q37 0 62.5 -25.5t25.5 -62.5q0 -43 -33 -85.5t-67 -42.5q-30 0 -30 23q0 5 8 13q26 25 26 40q0 9 -11 13q-57 19 -57 63q0 27 22 45.5t54 18.5z" />
    <glyph glyph-name="tcommaaccent" unicode="&#x163;" horiz-adv-x="463" 
d="M309 359v-165q0 -29 14.5 -48t36.5 -19q19 0 50 18q10 4 15 4q11 0 21 -14.5t10 -30.5q0 -44 -63 -80.5t-138 -36.5q-78 0 -125.5 44t-47.5 117v225q0 16 -17 16h-50q-15 0 -18.5 5t-3.5 21v22q0 15 11 22l225 141q6 4 20 4h40q20 0 20 -28v-66q0 -16 7 -20q4 -3 17 -3
h90q21 0 25 -8.5t4 -26.5v-29q0 -33 -15 -38q-6 -3 -17 -3h-88q-23 0 -23 -23zM234 -40q36 0 61 -25t25 -61q0 -41 -32.5 -82.5t-64.5 -41.5q-29 0 -29 22q0 5 8 13q25 25 25 39q0 9 -11 12q-55 17 -55 62q0 26 21 44t52 18z" />
    <glyph glyph-name="Adotaccent" unicode="&#x226;" horiz-adv-x="827" 
d="M650 338l93 -198q13 -28 22 -37t27 -11q35 -5 35 -35q0 -67 -183 -67q-160 0 -192 19q-26 15 -26 40t36 38q23 8 23 27q0 32 -41 38t-118 6q-65 0 -78 -8q-20 -12 -20 -42q0 -10 4.5 -13.5t27.5 -10.5q30 -9 30 -36q0 -58 -141 -58q-76 0 -115 11q-34 9 -34 45
q0 28 35 39q31 10 47 29.5t47 88.5l69 151q34 75 43 100q21 57 22 105q1 44 5 60t20 31q35 34 86 34q76 0 131 -78q57 -81 145 -268zM310 276h96q26 0 26 11q0 14 -25.5 61.5t-38.5 60.5q-8 7 -17 7q-16 0 -29 -33q-34 -85 -34 -95q0 -12 22 -12zM425 883q99 0 99 -60
q0 -37 -44 -57q-66 -30 -138 -30q-42 0 -67.5 16.5t-25.5 42.5q0 34 39 55q61 33 137 33z" />
    <glyph glyph-name="adotaccent" unicode="&#x227;" horiz-adv-x="567" 
d="M497 309l-1 -71q-1 -85 17 -108q5 -6 25 -10q15 -3 15 -20q0 -41 -45.5 -77t-98.5 -36q-51 0 -81 35q-11 13 -19 13q-9 0 -26 -12q-50 -36 -110 -36q-65 0 -104 27q-56 39 -56 108q0 94 119 136q43 15 113 16q29 0 36 5.5t7 25.5q0 98 -46 98q-25 0 -54 -41
q-44 -61 -91 -61q-24 0 -39 14t-15 37q0 50 79.5 92t174.5 42q85 0 144 -43q32 -23 44.5 -52.5t11.5 -81.5zM264 204q-21 0 -37 -17.5t-16 -41.5q0 -53 41 -53q39 0 39 66q0 46 -27 46zM305 686q103 0 103 -60q0 -35 -45 -58.5t-113 -23.5q-41 0 -66 17t-25 45q0 37 39 58.5
t107 21.5z" />
    <glyph glyph-name="commabelow" unicode="&#x326;" 
d="M250 -40q36 0 61 -25t25 -61q0 -41 -32.5 -82.5t-64.5 -41.5q-29 0 -29 22q0 5 8 13q24 25 24 39q0 9 -22 16q-43 13 -43 58q0 26 21 44t52 18z" />
    <glyph glyph-name="Dcommaaccent" unicode="&#x1e10;" horiz-adv-x="802" 
d="M189 0q-17 0 -51 -2.5t-51 -2.5q-33 0 -53.5 15t-20.5 40q0 32 39 42q20 5 27 16t10 42q10 92 10 354q0 36 -3 46q-7 21 -33 31q-34 13 -34 43q0 51 88 51q12 0 32 -1t60 -1q75 0 158 4q21 1 47 1q161 0 246 -65q119 -91 119 -277q0 -154 -94.5 -249.5t-246.5 -91.5z
M327 530v-378q0 -57 57 -57q143 0 143 217q0 119 -33 185q-36 73 -124 73q-43 0 -43 -40zM397 -40q37 0 62.5 -25.5t25.5 -62.5q0 -43 -33.5 -85.5t-67.5 -42.5q-30 0 -30 23q0 5 8 13q26 25 26 40q0 10 -23 17q-44 14 -44 59q0 27 22 45.5t54 18.5z" />
    <glyph glyph-name="dcommaaccent" unicode="&#x1e11;" horiz-adv-x="650" 
d="M590 628v-447q0 -37 3.5 -47.5t17.5 -21.5q30 -22 30 -44q0 -40 -79 -60q-73 -18 -141 -18q-16 0 -20.5 4.5t-6.5 22.5q-3 25 -17 25q-8 0 -26 -15q-48 -40 -111 -40q-87 0 -155 76t-68 173q0 100 70.5 175t163.5 75q56 0 101 -25q10 -4 13 -4q15 0 15 41q0 33 -39 45
q-31 10 -31 34q0 36 70 56q125 35 168 35q42 0 42 -40zM325 382q-33 0 -54 -42.5t-21 -109.5q0 -58 19 -91.5t51 -33.5q61 0 61 155q0 122 -56 122zM314 -40q36 0 61 -25t25 -61q0 -41 -32.5 -82.5t-64.5 -41.5q-29 0 -29 22q0 5 8 13q24 25 24 39q0 9 -22 16q-43 13 -43 58
q0 26 21 44t52 18z" />
    <glyph glyph-name="Fdotaccent" unicode="&#x1e1e;" horiz-adv-x="661" 
d="M321 257v-45q0 -73 11.5 -95t50.5 -25q30 -3 30 -40t-44 -47q-65 -15 -178 -15q-100 0 -139 12t-39 50q0 22 15 35q4 3 29.5 13.5t30.5 48.5q9 63 9 274q0 79 -1 88q-6 57 -36 70q-22 10 -28 15q-12 10 -12 28q0 21 21 35.5t52 14.5q23 0 57 -3q80 -7 190 -7
q120 0 240 10l12 1q26 2 51 -45t25 -96q0 -30 -14 -48t-37 -18q-17 0 -26 7t-46 49t-167 42q-31 0 -40 -13q-18 -26 -18 -120q0 -22 17 -29q9 -4 37 -4q40 0 48 34q12 53 45 53q60 0 60 -143q0 -158 -70 -158q-28 0 -32 39t-20 54t-45 15q-30 0 -36 -16q-3 -7 -3 -21z
M388 883q99 0 99 -60q0 -44 -73 -69q-53 -18 -108 -18q-42 0 -67.5 16.5t-25.5 42.5q0 33 39 55q60 33 136 33z" />
    <glyph glyph-name="Wdieresis" unicode="&#x1e84;" horiz-adv-x="1040" 
d="M453 493l-14 35q-11 28 -32 39q-35 19 -35 48q0 62 188 62q93 0 142 -15q36 -11 36 -43q0 -18 -30 -44q-12 -10 -12 -21q0 -18 18 -57l28 -60q29 -62 46 -62t39 62l24 69q10 29 10 44q0 19 -21 26q-41 13 -41 46q0 55 136 55q46 0 74 -11q37 -14 37 -47q0 -23 -33 -51
q-21 -18 -43 -76l-85 -228q-70 -188 -104 -243q-20 -32 -59 -32q-54 0 -77 55l-97 230q-12 29 -23 29q-10 0 -17 -12t-28 -64l-67 -165q-18 -45 -35 -59.5t-51 -14.5q-55 0 -81 67l-180 459q-10 26 -11 27q-5 9 -20 18l-10 6q-25 15 -25 44q0 68 171 68q91 0 127.5 -13.5
t36.5 -47.5q0 -15 -16 -39q-6 -9 -6 -23q0 -24 33 -102l20 -47q17 -41 28 -41q20 0 40 55l20 55q2 8 2 9q0 2 -3 10zM447 891q79 0 79 -65q0 -42 -35 -64q-50 -32 -110 -32q-33 0 -53.5 18t-20.5 47q0 36 31 60q46 36 109 36zM727 898q79 0 79 -65q0 -42 -35 -64
q-51 -32 -110 -32q-33 0 -53.5 18t-20.5 47q0 36 31 60q46 36 109 36z" />
    <glyph glyph-name="enquad" unicode="&#x2000;" 
 />
    <glyph glyph-name="enspace" unicode="&#x2002;" 
 />
    <glyph glyph-name="threeperemspace" unicode="&#x2004;" horiz-adv-x="333" 
 />
    <glyph glyph-name="fourperemspace" unicode="&#x2005;" horiz-adv-x="250" 
 />
    <glyph glyph-name="figurespace" unicode="&#x2007;" horiz-adv-x="600" 
 />
    <glyph glyph-name="hyphenminus" unicode="&#x2010;" horiz-adv-x="284" 
d="M85 349q10 0 26 -2q55 -7 91 -7q32 0 45 3t21 3q16 2 16 -23q0 -46 -33 -116q-19 -40 -39 -40q-9 0 -24 3q-41 8 -99 8q-23 0 -44 -2t-24 -2q-21 0 -21 23q0 16 11.5 53t22.5 57q23 42 51 42z" />
    <glyph glyph-name="underscoredbl" unicode="&#x2017;" 
d="M0 -53h500v-86h-500v86zM0 -171h500v-86h-500v86z" />
    <glyph glyph-name="trianglebullet" unicode="&#x2023;" 
d="M71 119v433l405 -217z" />
    <glyph glyph-name="onedotlead" unicode="&#x2024;" horiz-adv-x="300" 
d="M152 207q42 0 72 -30t30 -72q0 -44 -30.5 -74.5t-74.5 -30.5q-41 0 -71.5 30.5t-30.5 72.5q0 44 30.5 74t74.5 30z" />
    <glyph glyph-name="twodotlead" unicode="&#x2025;" horiz-adv-x="600" 
d="M152 207q42 0 72 -30t30 -72q0 -44 -30.5 -74.5t-74.5 -30.5q-41 0 -71.5 30.5t-30.5 72.5q0 44 30.5 74t74.5 30zM452 207q42 0 72 -30t30 -72q0 -44 -30.5 -74.5t-74.5 -30.5q-41 0 -71.5 30.5t-30.5 72.5q0 44 30.5 74t74.5 30z" />
    <glyph glyph-name="minute" unicode="&#x2032;" horiz-adv-x="228" 
d="M113 677q36 0 58.5 -31t22.5 -79q0 -38 -24 -110q-29 -85 -58 -85q-14 0 -39 48q-40 77 -40 152q0 47 22 76t58 29z" />
    <glyph glyph-name="second" unicode="&#x2033;" horiz-adv-x="432" 
d="M113 677q36 0 58.5 -31t22.5 -79q0 -38 -24 -110q-29 -85 -58 -85q-14 0 -39 48q-40 77 -40 152q0 47 22 76t58 29zM317 677q36 0 58.5 -31t22.5 -79q0 -38 -24 -110q-29 -85 -58 -85q-14 0 -39 48q-40 77 -40 152q0 47 22 76t58 29z" />
    <glyph glyph-name="exclamdbl" unicode="&#x203c;" horiz-adv-x="600" 
d="M157 199q42 0 72.5 -31t30.5 -74q0 -44 -31 -75.5t-75 -31.5t-75 31t-31 75q0 45 31.5 75.5t77.5 30.5zM154 660q50 0 82 -41t32 -106q0 -111 -63 -209q-33 -51 -53 -51q-19 0 -55 65q-57 104 -57 202q0 63 31 101.5t83 38.5zM449 199q42 0 72.5 -31t30.5 -74
q0 -44 -31 -75.5t-75 -31.5t-75 31t-31 75q0 45 31.5 75.5t77.5 30.5zM446 660q50 0 82 -41t32 -106q0 -111 -63 -209q-33 -51 -53 -51q-19 0 -55 65q-57 104 -57 202q0 63 31 101.5t83 38.5z" />
    <glyph glyph-name="overscore2" unicode="&#x203e;" 
d="M0 846h500v-126h-500v126z" />
    <glyph glyph-name="zerosuperior" unicode="&#x2070;" horiz-adv-x="401" 
d="M194 606q77 0 131.5 -52.5t54.5 -126.5q0 -70 -52.5 -119t-126.5 -49q-78 0 -129 50t-51 127q0 76 48 123t125 47zM187 514q-26 0 -26 -42q0 -47 14.5 -85t32.5 -38q26 0 26 44q0 49 -14 85t-33 36z" />
    <glyph glyph-name="foursuperior" unicode="&#x2074;" horiz-adv-x="401" 
d="M339 591v-199q0 -12 10 -12h12q19 0 19 -19v-59q0 -17 -19 -20q-14 -2 -14 -13v-35q0 -22 -22 -22h-107q-12 0 -16.5 4.5t-4.5 17.5v31q0 18 -19 18h-122q-43 0 -43 42q0 33 17 59q8 14 41 50l80 88q57 62 87.5 82.5t67.5 20.5q33 0 33 -34zM201 442v14q0 22 -12 22
q-11 0 -20 -10l-48 -55q-20 -23 -20 -31q0 -10 71 -10q23 0 26 5t3 65z" />
    <glyph glyph-name="fivesuperior" unicode="&#x2075;" horiz-adv-x="401" 
d="M125 600h222q25 0 25 -27q0 -34 -16.5 -57.5t-39.5 -23.5h-141q-21 0 -21 -14q0 -9 26 -11q88 -6 141.5 -40t53.5 -83q0 -58 -64.5 -98.5t-158.5 -40.5q-122 0 -122 48q0 36 20 36q2 0 11 -2q40 -9 58 -9q56 0 56 36q0 38 -85 51q-44 7 -53 12q-12 7 -12 20q0 44 47 151
q15 35 24 43.5t29 8.5z" />
    <glyph glyph-name="sixsuperior" unicode="&#x2076;" horiz-adv-x="401" 
d="M164 649q24 0 55 -13t31 -23q0 -8 -27 -36q-31 -32 -31 -55q0 -7 7 -7q4 0 21 6q26 9 49 9q49 0 84.5 -33t35.5 -79q0 -67 -52.5 -113t-128.5 -46q-83 0 -137.5 48.5t-54.5 122.5q0 48 30 102.5t81 98.5q21 18 37 18zM197 442q-26 0 -26 -30q0 -23 17.5 -45.5t35.5 -22.5
q25 0 25 22q0 29 -16 52.5t-36 23.5z" />
    <glyph glyph-name="sevensuperior" unicode="&#x2077;" horiz-adv-x="401" 
d="M377 561l-127 -355q-5 -14 -35 -14q-39 0 -69 10.5t-30 23.5q0 6 3 9l117 206q12 21 12 30q0 16 -64 16q-70 0 -82 -16q-16 -20 -37 -20q-48 0 -48 68q0 40 17 68.5t41 28.5q9 0 34 -10q15 -6 37 -6h201q33 0 33 -24q0 -7 -3 -15z" />
    <glyph glyph-name="eightsuperior" unicode="&#x2078;" horiz-adv-x="401" 
d="M331 472l2 -2q1 -2 10 -7q19 -11 33 -34t14 -44q0 -56 -57 -95q-47 -32 -121 -32q-86 0 -143.5 33.5t-57.5 84.5q0 41 39 64q12 7 12 11t-10 12q-32 27 -32 65q0 47 51 79t124 32q43 0 88.5 -11.5t66.5 -27.5q33 -26 33 -57q0 -39 -43 -60q-9 -4 -11 -9zM209 578
q-29 0 -29 -19q0 -12 22 -28t39 -16q7 0 12.5 9t5.5 20q0 34 -50 34zM135 407q-13 0 -13 -19q0 -25 22.5 -44.5t51.5 -19.5q39 0 39 25q0 17 -15 24q-18 11 -46.5 22.5t-38.5 11.5z" />
    <glyph glyph-name="ninesuperior" unicode="&#x2079;" horiz-adv-x="401" 
d="M198 604q85 0 137 -40q49 -38 49 -102q0 -106 -109 -214q-56 -55 -82 -55q-21 0 -51.5 15.5t-30.5 26.5q0 8 20 20t36.5 34.5t16.5 36.5q0 8 -10 8q-5 0 -10 -1q-10 -2 -20 -2q-57 0 -94 39t-37 99t51.5 97.5t133.5 37.5zM194 515q-28 0 -28 -33q0 -28 15 -48.5t35 -20.5
q25 0 25 28t-14.5 51t-32.5 23z" />
    <glyph glyph-name="plussuperior" unicode="&#x207a;" horiz-adv-x="401" 
d="M145 402h-15q-48 0 -62 -2h-7q-18 0 -18 15q0 18 19 49q9 15 23 15q6 0 10 -1q28 -2 42 -2h8q14 0 14 12v19q0 19 -4 39q-1 3 -1 7q0 12 22 21q34 14 52 14q16 0 16 -15q0 -2 -1 -7t-1 -28v-50q0 -12 14 -12h48q25 0 29.5 1t8.5 1q15 2 15 -15q0 -21 -17 -50
q-9 -15 -20 -15q-8 0 -24.5 2t-25.5 2h-14q-14 0 -14 -12v-5q0 -24 3 -47q1 -3 1 -9q0 -15 -21 -24q-33 -15 -52 -15q-16 0 -16 17v6q2 16 2 57v20q0 12 -14 12z" />
    <glyph glyph-name="minussuperior" unicode="&#x207b;" horiz-adv-x="401" 
d="M146 476h158q25 0 29.5 1t8.5 1q15 2 15 -15q0 -20 -17 -50q-8 -15 -20 -15q-3 0 -22 3q-6 1 -28 1h-140q-48 0 -62 -2h-7q-18 0 -18 15q0 18 19 49q9 15 23 15q6 0 10 -1q34 -2 51 -2z" />
    <glyph glyph-name="parenleftsuperior" unicode="&#x207d;" horiz-adv-x="336" 
d="M269 215l17 1q7 0 13 1q26 2 26 -31q0 -31 -65 -31q-92 0 -152 75t-60 190t55.5 184t147.5 69q73 0 73 -34q0 -31 -24 -31q-6 0 -13 1q-15 2 -26 2q-33 0 -53.5 -53.5t-20.5 -140.5q0 -140 44 -185q18 -18 38 -17z" />
    <glyph glyph-name="parenrightsuperior" unicode="&#x207e;" horiz-adv-x="336" 
d="M35 220q6 0 19 -2t19 -2q35 0 55.5 52.5t20.5 142.5q0 140 -44 185q-17 17 -38 17q-12 0 -17 -1t-13 -1q-26 0 -26 31t65 31q92 0 152 -75.5t60 -190.5t-55.5 -184t-147.5 -69q-74 0 -74 34q0 32 24 32z" />
    <glyph glyph-name="nsuperior" unicode="&#x207f;" horiz-adv-x="446" 
d="M403 450l4 -101q1 -15 22 -36q6 -6 6 -15q0 -21 -25.5 -29.5t-91.5 -8.5q-82 0 -82 34q0 9 15 24q12 12 12 83q0 67 -37 67q-33 0 -33 -54v-58q0 -22 17 -46q4 -6 4 -13q0 -37 -107 -37q-92 0 -92 37q0 11 17 23q10 7 13 45q2 28 2 69q0 19 -3 24.5t-18 13.5t-15 22
q0 20 47 36q83 28 109 28q10 0 18 -7.5t7 -16.5q0 -2 -1 -8v-3q0 -11 9 -11q6 0 13 9q30 37 82 37q53 0 82 -30q24 -25 26 -78z" />
    </font>
</defs>
</svg>
